<?xml version="1.0" encoding="utf-8"?>
<svg xmlns="http://www.w3.org/2000/svg" xmlns:xlink="http://www.w3.org/1999/xlink" width="600" height="400" viewBox="0 0 2400 1600">
<defs>
  <clipPath id="clip720">
    <rect x="0" y="0" width="2400" height="1600"/>
  </clipPath>
</defs>
<path clip-path="url(#clip720)" d="M0 1600 L2400 1600 L2400 0 L0 0  Z" fill="#ffffff" fill-rule="evenodd" fill-opacity="1"/>
<defs>
  <clipPath id="clip721">
    <rect x="480" y="0" width="1681" height="1600"/>
  </clipPath>
</defs>
<path clip-path="url(#clip720)" d="M239.19 1486.45 L2352.76 1486.45 L2352.76 47.2441 L239.19 47.2441  Z" fill="#ffffff" fill-rule="evenodd" fill-opacity="1"/>
<defs>
  <clipPath id="clip722">
    <rect x="239" y="47" width="2115" height="1440"/>
  </clipPath>
</defs>
<polyline clip-path="url(#clip722)" style="stroke:#000000; stroke-linecap:round; stroke-linejoin:round; stroke-width:2; stroke-opacity:0.1; fill:none" points="269.248,1486.45 269.248,47.2441 "/>
<polyline clip-path="url(#clip722)" style="stroke:#000000; stroke-linecap:round; stroke-linejoin:round; stroke-width:2; stroke-opacity:0.1; fill:none" points="864.451,1486.45 864.451,47.2441 "/>
<polyline clip-path="url(#clip722)" style="stroke:#000000; stroke-linecap:round; stroke-linejoin:round; stroke-width:2; stroke-opacity:0.1; fill:none" points="1459.65,1486.45 1459.65,47.2441 "/>
<polyline clip-path="url(#clip722)" style="stroke:#000000; stroke-linecap:round; stroke-linejoin:round; stroke-width:2; stroke-opacity:0.1; fill:none" points="2054.86,1486.45 2054.86,47.2441 "/>
<polyline clip-path="url(#clip720)" style="stroke:#000000; stroke-linecap:round; stroke-linejoin:round; stroke-width:4; stroke-opacity:1; fill:none" points="239.19,1486.45 2352.76,1486.45 "/>
<polyline clip-path="url(#clip720)" style="stroke:#000000; stroke-linecap:round; stroke-linejoin:round; stroke-width:4; stroke-opacity:1; fill:none" points="269.248,1486.45 269.248,1467.55 "/>
<polyline clip-path="url(#clip720)" style="stroke:#000000; stroke-linecap:round; stroke-linejoin:round; stroke-width:4; stroke-opacity:1; fill:none" points="864.451,1486.45 864.451,1467.55 "/>
<polyline clip-path="url(#clip720)" style="stroke:#000000; stroke-linecap:round; stroke-linejoin:round; stroke-width:4; stroke-opacity:1; fill:none" points="1459.65,1486.45 1459.65,1467.55 "/>
<polyline clip-path="url(#clip720)" style="stroke:#000000; stroke-linecap:round; stroke-linejoin:round; stroke-width:4; stroke-opacity:1; fill:none" points="2054.86,1486.45 2054.86,1467.55 "/>
<path clip-path="url(#clip720)" d="M269.248 1517.37 Q265.637 1517.37 263.808 1520.93 Q262.003 1524.47 262.003 1531.6 Q262.003 1538.71 263.808 1542.27 Q265.637 1545.82 269.248 1545.82 Q272.882 1545.82 274.688 1542.27 Q276.517 1538.71 276.517 1531.6 Q276.517 1524.47 274.688 1520.93 Q272.882 1517.37 269.248 1517.37 M269.248 1513.66 Q275.058 1513.66 278.114 1518.27 Q281.193 1522.85 281.193 1531.6 Q281.193 1540.33 278.114 1544.94 Q275.058 1549.52 269.248 1549.52 Q263.438 1549.52 260.359 1544.94 Q257.304 1540.33 257.304 1531.6 Q257.304 1522.85 260.359 1518.27 Q263.438 1513.66 269.248 1513.66 Z" fill="#000000" fill-rule="nonzero" fill-opacity="1" /><path clip-path="url(#clip720)" d="M843.224 1544.91 L859.544 1544.91 L859.544 1548.85 L837.599 1548.85 L837.599 1544.91 Q840.261 1542.16 844.845 1537.53 Q849.451 1532.88 850.632 1531.53 Q852.877 1529.01 853.757 1527.27 Q854.659 1525.51 854.659 1523.82 Q854.659 1521.07 852.715 1519.33 Q850.794 1517.6 847.692 1517.6 Q845.493 1517.6 843.039 1518.36 Q840.609 1519.13 837.831 1520.68 L837.831 1515.95 Q840.655 1514.82 843.109 1514.24 Q845.562 1513.66 847.599 1513.66 Q852.97 1513.66 856.164 1516.35 Q859.358 1519.03 859.358 1523.52 Q859.358 1525.65 858.548 1527.57 Q857.761 1529.47 855.655 1532.07 Q855.076 1532.74 851.974 1535.95 Q848.872 1539.15 843.224 1544.91 Z" fill="#000000" fill-rule="nonzero" fill-opacity="1" /><path clip-path="url(#clip720)" d="M879.358 1517.37 Q875.747 1517.37 873.919 1520.93 Q872.113 1524.47 872.113 1531.6 Q872.113 1538.71 873.919 1542.27 Q875.747 1545.82 879.358 1545.82 Q882.993 1545.82 884.798 1542.27 Q886.627 1538.71 886.627 1531.6 Q886.627 1524.47 884.798 1520.93 Q882.993 1517.37 879.358 1517.37 M879.358 1513.66 Q885.169 1513.66 888.224 1518.27 Q891.303 1522.85 891.303 1531.6 Q891.303 1540.33 888.224 1544.94 Q885.169 1549.52 879.358 1549.52 Q873.548 1549.52 870.47 1544.94 Q867.414 1540.33 867.414 1531.6 Q867.414 1522.85 870.47 1518.27 Q873.548 1513.66 879.358 1513.66 Z" fill="#000000" fill-rule="nonzero" fill-opacity="1" /><path clip-path="url(#clip720)" d="M1447.83 1518.36 L1436.02 1536.81 L1447.83 1536.81 L1447.83 1518.36 M1446.6 1514.29 L1452.48 1514.29 L1452.48 1536.81 L1457.41 1536.81 L1457.41 1540.7 L1452.48 1540.7 L1452.48 1548.85 L1447.83 1548.85 L1447.83 1540.7 L1432.22 1540.7 L1432.22 1536.19 L1446.6 1514.29 Z" fill="#000000" fill-rule="nonzero" fill-opacity="1" /><path clip-path="url(#clip720)" d="M1475.14 1517.37 Q1471.53 1517.37 1469.7 1520.93 Q1467.89 1524.47 1467.89 1531.6 Q1467.89 1538.71 1469.7 1542.27 Q1471.53 1545.82 1475.14 1545.82 Q1478.77 1545.82 1480.58 1542.27 Q1482.41 1538.71 1482.41 1531.6 Q1482.41 1524.47 1480.58 1520.93 Q1478.77 1517.37 1475.14 1517.37 M1475.14 1513.66 Q1480.95 1513.66 1484.01 1518.27 Q1487.08 1522.85 1487.08 1531.6 Q1487.08 1540.33 1484.01 1544.94 Q1480.95 1549.52 1475.14 1549.52 Q1469.33 1549.52 1466.25 1544.94 Q1463.2 1540.33 1463.2 1531.6 Q1463.2 1522.85 1466.25 1518.27 Q1469.33 1513.66 1475.14 1513.66 Z" fill="#000000" fill-rule="nonzero" fill-opacity="1" /><path clip-path="url(#clip720)" d="M2040.26 1529.7 Q2037.11 1529.7 2035.26 1531.86 Q2033.43 1534.01 2033.43 1537.76 Q2033.43 1541.49 2035.26 1543.66 Q2037.11 1545.82 2040.26 1545.82 Q2043.41 1545.82 2045.24 1543.66 Q2047.09 1541.49 2047.09 1537.76 Q2047.09 1534.01 2045.24 1531.86 Q2043.41 1529.7 2040.26 1529.7 M2049.54 1515.05 L2049.54 1519.31 Q2047.79 1518.48 2045.98 1518.04 Q2044.2 1517.6 2042.44 1517.6 Q2037.81 1517.6 2035.35 1520.72 Q2032.92 1523.85 2032.58 1530.17 Q2033.94 1528.15 2036 1527.09 Q2038.06 1526 2040.54 1526 Q2045.75 1526 2048.76 1529.17 Q2051.79 1532.32 2051.79 1537.76 Q2051.79 1543.08 2048.64 1546.3 Q2045.49 1549.52 2040.26 1549.52 Q2034.27 1549.52 2031.1 1544.94 Q2027.92 1540.33 2027.92 1531.6 Q2027.92 1523.41 2031.81 1518.55 Q2035.7 1513.66 2042.25 1513.66 Q2044.01 1513.66 2045.79 1514.01 Q2047.6 1514.36 2049.54 1515.05 Z" fill="#000000" fill-rule="nonzero" fill-opacity="1" /><path clip-path="url(#clip720)" d="M2069.85 1517.37 Q2066.23 1517.37 2064.41 1520.93 Q2062.6 1524.47 2062.6 1531.6 Q2062.6 1538.71 2064.41 1542.27 Q2066.23 1545.82 2069.85 1545.82 Q2073.48 1545.82 2075.28 1542.27 Q2077.11 1538.71 2077.11 1531.6 Q2077.11 1524.47 2075.28 1520.93 Q2073.48 1517.37 2069.85 1517.37 M2069.85 1513.66 Q2075.66 1513.66 2078.71 1518.27 Q2081.79 1522.85 2081.79 1531.6 Q2081.79 1540.33 2078.71 1544.94 Q2075.66 1549.52 2069.85 1549.52 Q2064.04 1549.52 2060.96 1544.94 Q2057.9 1540.33 2057.9 1531.6 Q2057.9 1522.85 2060.96 1518.27 Q2064.04 1513.66 2069.85 1513.66 Z" fill="#000000" fill-rule="nonzero" fill-opacity="1" /><polyline clip-path="url(#clip722)" style="stroke:#000000; stroke-linecap:round; stroke-linejoin:round; stroke-width:2; stroke-opacity:0.1; fill:none" points="239.19,1363.84 2352.76,1363.84 "/>
<polyline clip-path="url(#clip722)" style="stroke:#000000; stroke-linecap:round; stroke-linejoin:round; stroke-width:2; stroke-opacity:0.1; fill:none" points="239.19,1123.04 2352.76,1123.04 "/>
<polyline clip-path="url(#clip722)" style="stroke:#000000; stroke-linecap:round; stroke-linejoin:round; stroke-width:2; stroke-opacity:0.1; fill:none" points="239.19,882.23 2352.76,882.23 "/>
<polyline clip-path="url(#clip722)" style="stroke:#000000; stroke-linecap:round; stroke-linejoin:round; stroke-width:2; stroke-opacity:0.1; fill:none" points="239.19,641.422 2352.76,641.422 "/>
<polyline clip-path="url(#clip722)" style="stroke:#000000; stroke-linecap:round; stroke-linejoin:round; stroke-width:2; stroke-opacity:0.1; fill:none" points="239.19,400.615 2352.76,400.615 "/>
<polyline clip-path="url(#clip722)" style="stroke:#000000; stroke-linecap:round; stroke-linejoin:round; stroke-width:2; stroke-opacity:0.1; fill:none" points="239.19,159.808 2352.76,159.808 "/>
<polyline clip-path="url(#clip720)" style="stroke:#000000; stroke-linecap:round; stroke-linejoin:round; stroke-width:4; stroke-opacity:1; fill:none" points="239.19,1486.45 239.19,47.2441 "/>
<polyline clip-path="url(#clip720)" style="stroke:#000000; stroke-linecap:round; stroke-linejoin:round; stroke-width:4; stroke-opacity:1; fill:none" points="239.19,1363.84 258.088,1363.84 "/>
<polyline clip-path="url(#clip720)" style="stroke:#000000; stroke-linecap:round; stroke-linejoin:round; stroke-width:4; stroke-opacity:1; fill:none" points="239.19,1123.04 258.088,1123.04 "/>
<polyline clip-path="url(#clip720)" style="stroke:#000000; stroke-linecap:round; stroke-linejoin:round; stroke-width:4; stroke-opacity:1; fill:none" points="239.19,882.23 258.088,882.23 "/>
<polyline clip-path="url(#clip720)" style="stroke:#000000; stroke-linecap:round; stroke-linejoin:round; stroke-width:4; stroke-opacity:1; fill:none" points="239.19,641.422 258.088,641.422 "/>
<polyline clip-path="url(#clip720)" style="stroke:#000000; stroke-linecap:round; stroke-linejoin:round; stroke-width:4; stroke-opacity:1; fill:none" points="239.19,400.615 258.088,400.615 "/>
<polyline clip-path="url(#clip720)" style="stroke:#000000; stroke-linecap:round; stroke-linejoin:round; stroke-width:4; stroke-opacity:1; fill:none" points="239.19,159.808 258.088,159.808 "/>
<path clip-path="url(#clip720)" d="M50.9921 1364.3 L80.6679 1364.3 L80.6679 1368.23 L50.9921 1368.23 L50.9921 1364.3 Z" fill="#000000" fill-rule="nonzero" fill-opacity="1" /><path clip-path="url(#clip720)" d="M103.608 1350.64 L91.8021 1369.09 L103.608 1369.09 L103.608 1350.64 M102.381 1346.56 L108.26 1346.56 L108.26 1369.09 L113.191 1369.09 L113.191 1372.98 L108.26 1372.98 L108.26 1381.12 L103.608 1381.12 L103.608 1372.98 L88.0058 1372.98 L88.0058 1368.46 L102.381 1346.56 Z" fill="#000000" fill-rule="nonzero" fill-opacity="1" /><path clip-path="url(#clip720)" d="M130.922 1349.64 Q127.311 1349.64 125.482 1353.21 Q123.677 1356.75 123.677 1363.88 Q123.677 1370.99 125.482 1374.55 Q127.311 1378.09 130.922 1378.09 Q134.556 1378.09 136.362 1374.55 Q138.191 1370.99 138.191 1363.88 Q138.191 1356.75 136.362 1353.21 Q134.556 1349.64 130.922 1349.64 M130.922 1345.94 Q136.732 1345.94 139.788 1350.55 Q142.867 1355.13 142.867 1363.88 Q142.867 1372.61 139.788 1377.21 Q136.732 1381.8 130.922 1381.8 Q125.112 1381.8 122.033 1377.21 Q118.978 1372.61 118.978 1363.88 Q118.978 1355.13 122.033 1350.55 Q125.112 1345.94 130.922 1345.94 Z" fill="#000000" fill-rule="nonzero" fill-opacity="1" /><path clip-path="url(#clip720)" d="M161.084 1349.64 Q157.473 1349.64 155.644 1353.21 Q153.839 1356.75 153.839 1363.88 Q153.839 1370.99 155.644 1374.55 Q157.473 1378.09 161.084 1378.09 Q164.718 1378.09 166.524 1374.55 Q168.353 1370.99 168.353 1363.88 Q168.353 1356.75 166.524 1353.21 Q164.718 1349.64 161.084 1349.64 M161.084 1345.94 Q166.894 1345.94 169.95 1350.55 Q173.029 1355.13 173.029 1363.88 Q173.029 1372.61 169.95 1377.21 Q166.894 1381.8 161.084 1381.8 Q155.274 1381.8 152.195 1377.21 Q149.14 1372.61 149.14 1363.88 Q149.14 1355.13 152.195 1350.55 Q155.274 1345.94 161.084 1345.94 Z" fill="#000000" fill-rule="nonzero" fill-opacity="1" /><path clip-path="url(#clip720)" d="M191.246 1349.64 Q187.635 1349.64 185.806 1353.21 Q184.001 1356.75 184.001 1363.88 Q184.001 1370.99 185.806 1374.55 Q187.635 1378.09 191.246 1378.09 Q194.88 1378.09 196.686 1374.55 Q198.514 1370.99 198.514 1363.88 Q198.514 1356.75 196.686 1353.21 Q194.88 1349.64 191.246 1349.64 M191.246 1345.94 Q197.056 1345.94 200.112 1350.55 Q203.19 1355.13 203.19 1363.88 Q203.19 1372.61 200.112 1377.21 Q197.056 1381.8 191.246 1381.8 Q185.436 1381.8 182.357 1377.21 Q179.302 1372.61 179.302 1363.88 Q179.302 1355.13 182.357 1350.55 Q185.436 1345.94 191.246 1345.94 Z" fill="#000000" fill-rule="nonzero" fill-opacity="1" /><path clip-path="url(#clip720)" d="M50.9921 1123.49 L80.6679 1123.49 L80.6679 1127.42 L50.9921 1127.42 L50.9921 1123.49 Z" fill="#000000" fill-rule="nonzero" fill-opacity="1" /><path clip-path="url(#clip720)" d="M104.927 1121.68 Q108.283 1122.4 110.158 1124.67 Q112.057 1126.94 112.057 1130.27 Q112.057 1135.39 108.538 1138.19 Q105.02 1140.99 98.5382 1140.99 Q96.3623 1140.99 94.0475 1140.55 Q91.7558 1140.13 89.3021 1139.28 L89.3021 1134.76 Q91.2465 1135.9 93.5613 1136.47 Q95.8761 1137.05 98.3993 1137.05 Q102.797 1137.05 105.089 1135.32 Q107.404 1133.58 107.404 1130.27 Q107.404 1127.22 105.251 1125.5 Q103.121 1123.77 99.3021 1123.77 L95.2743 1123.77 L95.2743 1119.92 L99.4872 1119.92 Q102.936 1119.92 104.765 1118.56 Q106.594 1117.17 106.594 1114.58 Q106.594 1111.91 104.696 1110.5 Q102.821 1109.07 99.3021 1109.07 Q97.3808 1109.07 95.1817 1109.48 Q92.9826 1109.9 90.3438 1110.78 L90.3438 1106.61 Q93.0058 1105.87 95.3206 1105.5 Q97.6585 1105.13 99.7187 1105.13 Q105.043 1105.13 108.145 1107.56 Q111.246 1109.97 111.246 1114.09 Q111.246 1116.96 109.603 1118.95 Q107.959 1120.92 104.927 1121.68 Z" fill="#000000" fill-rule="nonzero" fill-opacity="1" /><path clip-path="url(#clip720)" d="M130.922 1108.84 Q127.311 1108.84 125.482 1112.4 Q123.677 1115.94 123.677 1123.07 Q123.677 1130.18 125.482 1133.74 Q127.311 1137.28 130.922 1137.28 Q134.556 1137.28 136.362 1133.74 Q138.191 1130.18 138.191 1123.07 Q138.191 1115.94 136.362 1112.4 Q134.556 1108.84 130.922 1108.84 M130.922 1105.13 Q136.732 1105.13 139.788 1109.74 Q142.867 1114.32 142.867 1123.07 Q142.867 1131.8 139.788 1136.41 Q136.732 1140.99 130.922 1140.99 Q125.112 1140.99 122.033 1136.41 Q118.978 1131.8 118.978 1123.07 Q118.978 1114.32 122.033 1109.74 Q125.112 1105.13 130.922 1105.13 Z" fill="#000000" fill-rule="nonzero" fill-opacity="1" /><path clip-path="url(#clip720)" d="M161.084 1108.84 Q157.473 1108.84 155.644 1112.4 Q153.839 1115.94 153.839 1123.07 Q153.839 1130.18 155.644 1133.74 Q157.473 1137.28 161.084 1137.28 Q164.718 1137.28 166.524 1133.74 Q168.353 1130.18 168.353 1123.07 Q168.353 1115.94 166.524 1112.4 Q164.718 1108.84 161.084 1108.84 M161.084 1105.13 Q166.894 1105.13 169.95 1109.74 Q173.029 1114.32 173.029 1123.07 Q173.029 1131.8 169.95 1136.41 Q166.894 1140.99 161.084 1140.99 Q155.274 1140.99 152.195 1136.41 Q149.14 1131.8 149.14 1123.07 Q149.14 1114.32 152.195 1109.74 Q155.274 1105.13 161.084 1105.13 Z" fill="#000000" fill-rule="nonzero" fill-opacity="1" /><path clip-path="url(#clip720)" d="M191.246 1108.84 Q187.635 1108.84 185.806 1112.4 Q184.001 1115.94 184.001 1123.07 Q184.001 1130.18 185.806 1133.74 Q187.635 1137.28 191.246 1137.28 Q194.88 1137.28 196.686 1133.74 Q198.514 1130.18 198.514 1123.07 Q198.514 1115.94 196.686 1112.4 Q194.88 1108.84 191.246 1108.84 M191.246 1105.13 Q197.056 1105.13 200.112 1109.74 Q203.19 1114.32 203.19 1123.07 Q203.19 1131.8 200.112 1136.41 Q197.056 1140.99 191.246 1140.99 Q185.436 1140.99 182.357 1136.41 Q179.302 1131.8 179.302 1123.07 Q179.302 1114.32 182.357 1109.74 Q185.436 1105.13 191.246 1105.13 Z" fill="#000000" fill-rule="nonzero" fill-opacity="1" /><path clip-path="url(#clip720)" d="M50.9921 882.681 L80.6679 882.681 L80.6679 886.616 L50.9921 886.616 L50.9921 882.681 Z" fill="#000000" fill-rule="nonzero" fill-opacity="1" /><path clip-path="url(#clip720)" d="M94.7882 895.575 L111.108 895.575 L111.108 899.51 L89.1632 899.51 L89.1632 895.575 Q91.8252 892.82 96.4085 888.19 Q101.015 883.538 102.196 882.195 Q104.441 879.672 105.321 877.936 Q106.223 876.176 106.223 874.487 Q106.223 871.732 104.279 869.996 Q102.358 868.26 99.2558 868.26 Q97.0567 868.26 94.603 869.024 Q92.1725 869.788 89.3947 871.339 L89.3947 866.616 Q92.2188 865.482 94.6724 864.903 Q97.1261 864.325 99.1632 864.325 Q104.534 864.325 107.728 867.01 Q110.922 869.695 110.922 874.186 Q110.922 876.315 110.112 878.237 Q109.325 880.135 107.219 882.727 Q106.64 883.399 103.538 886.616 Q100.436 889.811 94.7882 895.575 Z" fill="#000000" fill-rule="nonzero" fill-opacity="1" /><path clip-path="url(#clip720)" d="M130.922 868.028 Q127.311 868.028 125.482 871.593 Q123.677 875.135 123.677 882.264 Q123.677 889.371 125.482 892.936 Q127.311 896.477 130.922 896.477 Q134.556 896.477 136.362 892.936 Q138.191 889.371 138.191 882.264 Q138.191 875.135 136.362 871.593 Q134.556 868.028 130.922 868.028 M130.922 864.325 Q136.732 864.325 139.788 868.931 Q142.867 873.514 142.867 882.264 Q142.867 890.991 139.788 895.598 Q136.732 900.181 130.922 900.181 Q125.112 900.181 122.033 895.598 Q118.978 890.991 118.978 882.264 Q118.978 873.514 122.033 868.931 Q125.112 864.325 130.922 864.325 Z" fill="#000000" fill-rule="nonzero" fill-opacity="1" /><path clip-path="url(#clip720)" d="M161.084 868.028 Q157.473 868.028 155.644 871.593 Q153.839 875.135 153.839 882.264 Q153.839 889.371 155.644 892.936 Q157.473 896.477 161.084 896.477 Q164.718 896.477 166.524 892.936 Q168.353 889.371 168.353 882.264 Q168.353 875.135 166.524 871.593 Q164.718 868.028 161.084 868.028 M161.084 864.325 Q166.894 864.325 169.95 868.931 Q173.029 873.514 173.029 882.264 Q173.029 890.991 169.95 895.598 Q166.894 900.181 161.084 900.181 Q155.274 900.181 152.195 895.598 Q149.14 890.991 149.14 882.264 Q149.14 873.514 152.195 868.931 Q155.274 864.325 161.084 864.325 Z" fill="#000000" fill-rule="nonzero" fill-opacity="1" /><path clip-path="url(#clip720)" d="M191.246 868.028 Q187.635 868.028 185.806 871.593 Q184.001 875.135 184.001 882.264 Q184.001 889.371 185.806 892.936 Q187.635 896.477 191.246 896.477 Q194.88 896.477 196.686 892.936 Q198.514 889.371 198.514 882.264 Q198.514 875.135 196.686 871.593 Q194.88 868.028 191.246 868.028 M191.246 864.325 Q197.056 864.325 200.112 868.931 Q203.19 873.514 203.19 882.264 Q203.19 890.991 200.112 895.598 Q197.056 900.181 191.246 900.181 Q185.436 900.181 182.357 895.598 Q179.302 890.991 179.302 882.264 Q179.302 873.514 182.357 868.931 Q185.436 864.325 191.246 864.325 Z" fill="#000000" fill-rule="nonzero" fill-opacity="1" /><path clip-path="url(#clip720)" d="M50.9921 641.874 L80.6679 641.874 L80.6679 645.809 L50.9921 645.809 L50.9921 641.874 Z" fill="#000000" fill-rule="nonzero" fill-opacity="1" /><path clip-path="url(#clip720)" d="M91.5706 654.767 L99.2095 654.767 L99.2095 628.402 L90.8993 630.068 L90.8993 625.809 L99.1632 624.142 L103.839 624.142 L103.839 654.767 L111.478 654.767 L111.478 658.702 L91.5706 658.702 L91.5706 654.767 Z" fill="#000000" fill-rule="nonzero" fill-opacity="1" /><path clip-path="url(#clip720)" d="M130.922 627.221 Q127.311 627.221 125.482 630.786 Q123.677 634.327 123.677 641.457 Q123.677 648.563 125.482 652.128 Q127.311 655.67 130.922 655.67 Q134.556 655.67 136.362 652.128 Q138.191 648.563 138.191 641.457 Q138.191 634.327 136.362 630.786 Q134.556 627.221 130.922 627.221 M130.922 623.517 Q136.732 623.517 139.788 628.124 Q142.867 632.707 142.867 641.457 Q142.867 650.184 139.788 654.79 Q136.732 659.374 130.922 659.374 Q125.112 659.374 122.033 654.79 Q118.978 650.184 118.978 641.457 Q118.978 632.707 122.033 628.124 Q125.112 623.517 130.922 623.517 Z" fill="#000000" fill-rule="nonzero" fill-opacity="1" /><path clip-path="url(#clip720)" d="M161.084 627.221 Q157.473 627.221 155.644 630.786 Q153.839 634.327 153.839 641.457 Q153.839 648.563 155.644 652.128 Q157.473 655.67 161.084 655.67 Q164.718 655.67 166.524 652.128 Q168.353 648.563 168.353 641.457 Q168.353 634.327 166.524 630.786 Q164.718 627.221 161.084 627.221 M161.084 623.517 Q166.894 623.517 169.95 628.124 Q173.029 632.707 173.029 641.457 Q173.029 650.184 169.95 654.79 Q166.894 659.374 161.084 659.374 Q155.274 659.374 152.195 654.79 Q149.14 650.184 149.14 641.457 Q149.14 632.707 152.195 628.124 Q155.274 623.517 161.084 623.517 Z" fill="#000000" fill-rule="nonzero" fill-opacity="1" /><path clip-path="url(#clip720)" d="M191.246 627.221 Q187.635 627.221 185.806 630.786 Q184.001 634.327 184.001 641.457 Q184.001 648.563 185.806 652.128 Q187.635 655.67 191.246 655.67 Q194.88 655.67 196.686 652.128 Q198.514 648.563 198.514 641.457 Q198.514 634.327 196.686 630.786 Q194.88 627.221 191.246 627.221 M191.246 623.517 Q197.056 623.517 200.112 628.124 Q203.19 632.707 203.19 641.457 Q203.19 650.184 200.112 654.79 Q197.056 659.374 191.246 659.374 Q185.436 659.374 182.357 654.79 Q179.302 650.184 179.302 641.457 Q179.302 632.707 182.357 628.124 Q185.436 623.517 191.246 623.517 Z" fill="#000000" fill-rule="nonzero" fill-opacity="1" /><path clip-path="url(#clip720)" d="M191.246 386.414 Q187.635 386.414 185.806 389.978 Q184.001 393.52 184.001 400.65 Q184.001 407.756 185.806 411.321 Q187.635 414.863 191.246 414.863 Q194.88 414.863 196.686 411.321 Q198.514 407.756 198.514 400.65 Q198.514 393.52 196.686 389.978 Q194.88 386.414 191.246 386.414 M191.246 382.71 Q197.056 382.71 200.112 387.316 Q203.19 391.9 203.19 400.65 Q203.19 409.376 200.112 413.983 Q197.056 418.566 191.246 418.566 Q185.436 418.566 182.357 413.983 Q179.302 409.376 179.302 400.65 Q179.302 391.9 182.357 387.316 Q185.436 382.71 191.246 382.71 Z" fill="#000000" fill-rule="nonzero" fill-opacity="1" /><path clip-path="url(#clip720)" d="M91.5706 173.152 L99.2095 173.152 L99.2095 146.787 L90.8993 148.454 L90.8993 144.194 L99.1632 142.528 L103.839 142.528 L103.839 173.152 L111.478 173.152 L111.478 177.088 L91.5706 177.088 L91.5706 173.152 Z" fill="#000000" fill-rule="nonzero" fill-opacity="1" /><path clip-path="url(#clip720)" d="M130.922 145.606 Q127.311 145.606 125.482 149.171 Q123.677 152.713 123.677 159.842 Q123.677 166.949 125.482 170.514 Q127.311 174.055 130.922 174.055 Q134.556 174.055 136.362 170.514 Q138.191 166.949 138.191 159.842 Q138.191 152.713 136.362 149.171 Q134.556 145.606 130.922 145.606 M130.922 141.903 Q136.732 141.903 139.788 146.509 Q142.867 151.092 142.867 159.842 Q142.867 168.569 139.788 173.176 Q136.732 177.759 130.922 177.759 Q125.112 177.759 122.033 173.176 Q118.978 168.569 118.978 159.842 Q118.978 151.092 122.033 146.509 Q125.112 141.903 130.922 141.903 Z" fill="#000000" fill-rule="nonzero" fill-opacity="1" /><path clip-path="url(#clip720)" d="M161.084 145.606 Q157.473 145.606 155.644 149.171 Q153.839 152.713 153.839 159.842 Q153.839 166.949 155.644 170.514 Q157.473 174.055 161.084 174.055 Q164.718 174.055 166.524 170.514 Q168.353 166.949 168.353 159.842 Q168.353 152.713 166.524 149.171 Q164.718 145.606 161.084 145.606 M161.084 141.903 Q166.894 141.903 169.95 146.509 Q173.029 151.092 173.029 159.842 Q173.029 168.569 169.95 173.176 Q166.894 177.759 161.084 177.759 Q155.274 177.759 152.195 173.176 Q149.14 168.569 149.14 159.842 Q149.14 151.092 152.195 146.509 Q155.274 141.903 161.084 141.903 Z" fill="#000000" fill-rule="nonzero" fill-opacity="1" /><path clip-path="url(#clip720)" d="M191.246 145.606 Q187.635 145.606 185.806 149.171 Q184.001 152.713 184.001 159.842 Q184.001 166.949 185.806 170.514 Q187.635 174.055 191.246 174.055 Q194.88 174.055 196.686 170.514 Q198.514 166.949 198.514 159.842 Q198.514 152.713 196.686 149.171 Q194.88 145.606 191.246 145.606 M191.246 141.903 Q197.056 141.903 200.112 146.509 Q203.19 151.092 203.19 159.842 Q203.19 168.569 200.112 173.176 Q197.056 177.759 191.246 177.759 Q185.436 177.759 182.357 173.176 Q179.302 168.569 179.302 159.842 Q179.302 151.092 182.357 146.509 Q185.436 141.903 191.246 141.903 Z" fill="#000000" fill-rule="nonzero" fill-opacity="1" /><polyline clip-path="url(#clip722)" style="stroke:#009af9; stroke-linecap:round; stroke-linejoin:round; stroke-width:4; stroke-opacity:1; fill:none" points="299.008,87.9763 328.768,153.297 358.529,215.304 388.289,215.304 418.049,215.304 447.809,215.304 477.569,215.304 507.329,241.577 537.089,256.398 566.85,266.026 596.61,269.327 626.37,276.935 656.13,279.903 685.89,293.612 715.65,295.726 745.41,296.093 775.171,296.724 804.931,298.577 834.691,301.383 864.451,302.234 894.211,304.666 923.971,305.118 953.731,310.32 983.492,310.489 1013.25,310.54 1043.01,310.872 1072.77,311.265 1102.53,311.678 1132.29,312.929 1162.05,312.929 1191.81,313.064 1221.57,313.307 1251.33,314.117 1281.09,315.61 1310.85,315.61 1340.61,315.61 1370.37,315.61 1400.13,315.61 1429.89,315.61 1459.65,316.819 1489.41,316.843 1519.17,316.843 1548.93,316.843 1578.69,317.104 1608.45,317.104 1638.21,318.087 1667.97,318.115 1697.74,319.36 1727.5,319.782 1757.26,319.782 1787.02,319.782 1816.78,320.001 1846.54,320.635 1876.3,320.635 1906.06,320.635 1935.82,320.635 1965.58,320.794 1995.34,320.794 2025.1,320.794 2054.86,320.794 2084.62,320.794 2114.38,320.794 2144.14,320.918 2173.9,320.918 2203.66,320.979 2233.42,321.049 2263.18,321.049 2292.94,321.049 "/>
<polyline clip-path="url(#clip722)" style="stroke:#e26f46; stroke-linecap:round; stroke-linejoin:round; stroke-width:4; stroke-opacity:1; fill:none" points="299.008,1394.39 328.768,1393.44 358.529,1445.72 388.289,1403.65 418.049,1373.8 447.809,1310.1 477.569,1266.22 507.329,1130.84 537.089,908.814 566.85,1085.66 596.61,1030.19 626.37,927.279 656.13,904.175 685.89,810.47 715.65,739.409 745.41,729.624 775.171,875.957 804.931,687.976 834.691,608.703 864.451,540.919 894.211,566.332 923.971,505.477 953.731,607.758 983.492,544.356 1013.25,753.782 1043.01,456.953 1072.77,470.754 1102.53,495.473 1132.29,598.124 1162.05,551.16 1191.81,465.037 1221.57,430.704 1251.33,433.566 1281.09,409.609 1310.85,389.734 1340.61,444.366 1370.37,394.564 1400.13,385 1429.89,400.242 1459.65,393.596 1489.41,426.291 1519.17,391.979 1548.93,381.418 1578.69,407.368 1608.45,393.651 1638.21,368.988 1667.97,369.38 1697.74,381.39 1727.5,356.675 1757.26,353.572 1787.02,363.538 1816.78,370.715 1846.54,345.776 1876.3,334.13 1906.06,349.601 1935.82,330.183 1965.58,337.34 1995.34,334.168 2025.1,329.384 2054.86,326.965 2084.62,325.761 2114.38,326.965 2144.14,330.979 2173.9,324.6 2203.66,323.786 2233.42,326.404 2263.18,323.153 2292.94,321.049 "/>
<path clip-path="url(#clip720)" d="M1931.53 1438.47 L2282.3 1438.47 L2282.3 1282.95 L1931.53 1282.95  Z" fill="#ffffff" fill-rule="evenodd" fill-opacity="1"/>
<polyline clip-path="url(#clip720)" style="stroke:#000000; stroke-linecap:round; stroke-linejoin:round; stroke-width:4; stroke-opacity:1; fill:none" points="1931.53,1438.47 2282.3,1438.47 2282.3,1282.95 1931.53,1282.95 1931.53,1438.47 "/>
<polyline clip-path="url(#clip720)" style="stroke:#009af9; stroke-linecap:round; stroke-linejoin:round; stroke-width:4; stroke-opacity:1; fill:none" points="1955.01,1334.79 2095.92,1334.79 "/>
<path clip-path="url(#clip720)" d="M2119.4 1317.51 L2124.1 1317.51 L2124.1 1338.51 Q2124.1 1344.07 2126.11 1346.52 Q2128.13 1348.95 2132.64 1348.95 Q2137.13 1348.95 2139.14 1346.52 Q2141.16 1344.07 2141.16 1338.51 L2141.16 1317.51 L2145.86 1317.51 L2145.86 1339.09 Q2145.86 1345.85 2142.5 1349.3 Q2139.17 1352.75 2132.64 1352.75 Q2126.09 1352.75 2122.73 1349.3 Q2119.4 1345.85 2119.4 1339.09 L2119.4 1317.51 Z" fill="#000000" fill-rule="nonzero" fill-opacity="1" /><path clip-path="url(#clip720)" d="M2158.57 1348.19 L2158.57 1361.94 L2154.28 1361.94 L2154.28 1326.15 L2158.57 1326.15 L2158.57 1330.08 Q2159.91 1327.77 2161.95 1326.66 Q2164.01 1325.52 2166.85 1325.52 Q2171.57 1325.52 2174.51 1329.27 Q2177.48 1333.02 2177.48 1339.13 Q2177.48 1345.25 2174.51 1349 Q2171.57 1352.75 2166.85 1352.75 Q2164.01 1352.75 2161.95 1351.63 Q2159.91 1350.5 2158.57 1348.19 M2173.06 1339.13 Q2173.06 1334.44 2171.11 1331.77 Q2169.19 1329.09 2165.81 1329.09 Q2162.43 1329.09 2160.49 1331.77 Q2158.57 1334.44 2158.57 1339.13 Q2158.57 1343.83 2160.49 1346.52 Q2162.43 1349.18 2165.81 1349.18 Q2169.19 1349.18 2171.11 1346.52 Q2173.06 1343.83 2173.06 1339.13 Z" fill="#000000" fill-rule="nonzero" fill-opacity="1" /><path clip-path="url(#clip720)" d="M2188.66 1348.19 L2188.66 1361.94 L2184.38 1361.94 L2184.38 1326.15 L2188.66 1326.15 L2188.66 1330.08 Q2190 1327.77 2192.04 1326.66 Q2194.1 1325.52 2196.94 1325.52 Q2201.67 1325.52 2204.61 1329.27 Q2207.57 1333.02 2207.57 1339.13 Q2207.57 1345.25 2204.61 1349 Q2201.67 1352.75 2196.94 1352.75 Q2194.1 1352.75 2192.04 1351.63 Q2190 1350.5 2188.66 1348.19 M2203.15 1339.13 Q2203.15 1334.44 2201.2 1331.77 Q2199.28 1329.09 2195.9 1329.09 Q2192.52 1329.09 2190.58 1331.77 Q2188.66 1334.44 2188.66 1339.13 Q2188.66 1343.83 2190.58 1346.52 Q2192.52 1349.18 2195.9 1349.18 Q2199.28 1349.18 2201.2 1346.52 Q2203.15 1343.83 2203.15 1339.13 Z" fill="#000000" fill-rule="nonzero" fill-opacity="1" /><path clip-path="url(#clip720)" d="M2236.81 1338.05 L2236.81 1340.13 L2217.22 1340.13 Q2217.5 1344.53 2219.86 1346.84 Q2222.25 1349.13 2226.48 1349.13 Q2228.94 1349.13 2231.23 1348.53 Q2233.54 1347.93 2235.81 1346.73 L2235.81 1350.75 Q2233.52 1351.73 2231.11 1352.24 Q2228.7 1352.75 2226.23 1352.75 Q2220.02 1352.75 2216.39 1349.13 Q2212.78 1345.52 2212.78 1339.37 Q2212.78 1333 2216.2 1329.27 Q2219.65 1325.52 2225.49 1325.52 Q2230.72 1325.52 2233.75 1328.9 Q2236.81 1332.26 2236.81 1338.05 M2232.55 1336.8 Q2232.5 1333.3 2230.58 1331.22 Q2228.68 1329.13 2225.53 1329.13 Q2221.97 1329.13 2219.82 1331.15 Q2217.69 1333.16 2217.36 1336.82 L2232.55 1336.8 Z" fill="#000000" fill-rule="nonzero" fill-opacity="1" /><path clip-path="url(#clip720)" d="M2258.82 1330.13 Q2258.1 1329.71 2257.25 1329.53 Q2256.41 1329.32 2255.39 1329.32 Q2251.78 1329.32 2249.84 1331.68 Q2247.92 1334.02 2247.92 1338.42 L2247.92 1352.07 L2243.63 1352.07 L2243.63 1326.15 L2247.92 1326.15 L2247.92 1330.18 Q2249.26 1327.82 2251.41 1326.68 Q2253.57 1325.52 2256.64 1325.52 Q2257.08 1325.52 2257.62 1325.59 Q2258.15 1325.64 2258.8 1325.76 L2258.82 1330.13 Z" fill="#000000" fill-rule="nonzero" fill-opacity="1" /><polyline clip-path="url(#clip720)" style="stroke:#e26f46; stroke-linecap:round; stroke-linejoin:round; stroke-width:4; stroke-opacity:1; fill:none" points="1955.01,1386.63 2095.92,1386.63 "/>
<path clip-path="url(#clip720)" d="M2119.4 1369.35 L2124.08 1369.35 L2124.08 1399.98 L2140.9 1399.98 L2140.9 1403.91 L2119.4 1403.91 L2119.4 1369.35 Z" fill="#000000" fill-rule="nonzero" fill-opacity="1" /><path clip-path="url(#clip720)" d="M2154.84 1380.97 Q2151.41 1380.97 2149.42 1383.66 Q2147.43 1386.32 2147.43 1390.97 Q2147.43 1395.63 2149.4 1398.31 Q2151.39 1400.97 2154.84 1400.97 Q2158.24 1400.97 2160.23 1398.29 Q2162.22 1395.6 2162.22 1390.97 Q2162.22 1386.37 2160.23 1383.68 Q2158.24 1380.97 2154.84 1380.97 M2154.84 1377.36 Q2160.39 1377.36 2163.57 1380.97 Q2166.74 1384.59 2166.74 1390.97 Q2166.74 1397.34 2163.57 1400.97 Q2160.39 1404.59 2154.84 1404.59 Q2149.26 1404.59 2146.09 1400.97 Q2142.94 1397.34 2142.94 1390.97 Q2142.94 1384.59 2146.09 1380.97 Q2149.26 1377.36 2154.84 1377.36 Z" fill="#000000" fill-rule="nonzero" fill-opacity="1" /><path clip-path="url(#clip720)" d="M2171.32 1377.99 L2175.58 1377.99 L2180.9 1398.22 L2186.2 1377.99 L2191.23 1377.99 L2196.55 1398.22 L2201.85 1377.99 L2206.11 1377.99 L2199.33 1403.91 L2194.31 1403.91 L2188.73 1382.66 L2183.13 1403.91 L2178.1 1403.91 L2171.32 1377.99 Z" fill="#000000" fill-rule="nonzero" fill-opacity="1" /><path clip-path="url(#clip720)" d="M2234.75 1389.89 L2234.75 1391.97 L2215.16 1391.97 Q2215.44 1396.37 2217.8 1398.68 Q2220.19 1400.97 2224.42 1400.97 Q2226.88 1400.97 2229.17 1400.37 Q2231.48 1399.77 2233.75 1398.57 L2233.75 1402.59 Q2231.46 1403.57 2229.05 1404.08 Q2226.64 1404.59 2224.17 1404.59 Q2217.96 1404.59 2214.33 1400.97 Q2210.72 1397.36 2210.72 1391.21 Q2210.72 1384.84 2214.14 1381.11 Q2217.59 1377.36 2223.43 1377.36 Q2228.66 1377.36 2231.69 1380.74 Q2234.75 1384.1 2234.75 1389.89 M2230.49 1388.64 Q2230.44 1385.14 2228.52 1383.06 Q2226.62 1380.97 2223.47 1380.97 Q2219.91 1380.97 2217.76 1382.99 Q2215.63 1385 2215.3 1388.66 L2230.49 1388.64 Z" fill="#000000" fill-rule="nonzero" fill-opacity="1" /><path clip-path="url(#clip720)" d="M2256.76 1381.97 Q2256.04 1381.55 2255.19 1381.37 Q2254.35 1381.16 2253.33 1381.16 Q2249.72 1381.16 2247.78 1383.52 Q2245.86 1385.86 2245.86 1390.26 L2245.86 1403.91 L2241.57 1403.91 L2241.57 1377.99 L2245.86 1377.99 L2245.86 1382.02 Q2247.2 1379.66 2249.35 1378.52 Q2251.5 1377.36 2254.58 1377.36 Q2255.02 1377.36 2255.56 1377.43 Q2256.09 1377.48 2256.74 1377.6 L2256.76 1381.97 Z" fill="#000000" fill-rule="nonzero" fill-opacity="1" /></svg>
