<?xml version="1.0" encoding="utf-8"?>
<svg xmlns="http://www.w3.org/2000/svg" xmlns:xlink="http://www.w3.org/1999/xlink" width="600" height="400" viewBox="0 0 2400 1600">
<defs>
  <clipPath id="clip360">
    <rect x="0" y="0" width="2400" height="1600"/>
  </clipPath>
</defs>
<path clip-path="url(#clip360)" d="M0 1600 L2400 1600 L2400 0 L0 0  Z" fill="#ffffff" fill-rule="evenodd" fill-opacity="1"/>
<defs>
  <clipPath id="clip361">
    <rect x="480" y="0" width="1681" height="1600"/>
  </clipPath>
</defs>
<path clip-path="url(#clip360)" d="M344.606 1486.45 L2352.76 1486.45 L2352.76 47.2441 L344.606 47.2441  Z" fill="#ffffff" fill-rule="evenodd" fill-opacity="1"/>
<defs>
  <clipPath id="clip362">
    <rect x="344" y="47" width="2009" height="1440"/>
  </clipPath>
</defs>
<polyline clip-path="url(#clip362)" style="stroke:#000000; stroke-linecap:round; stroke-linejoin:round; stroke-width:2; stroke-opacity:0.1; fill:none" points="390.297,1486.45 390.297,47.2441 "/>
<polyline clip-path="url(#clip362)" style="stroke:#000000; stroke-linecap:round; stroke-linejoin:round; stroke-width:2; stroke-opacity:0.1; fill:none" points="947.497,1486.45 947.497,47.2441 "/>
<polyline clip-path="url(#clip362)" style="stroke:#000000; stroke-linecap:round; stroke-linejoin:round; stroke-width:2; stroke-opacity:0.1; fill:none" points="1504.7,1486.45 1504.7,47.2441 "/>
<polyline clip-path="url(#clip362)" style="stroke:#000000; stroke-linecap:round; stroke-linejoin:round; stroke-width:2; stroke-opacity:0.1; fill:none" points="2061.9,1486.45 2061.9,47.2441 "/>
<polyline clip-path="url(#clip360)" style="stroke:#000000; stroke-linecap:round; stroke-linejoin:round; stroke-width:4; stroke-opacity:1; fill:none" points="344.606,1486.45 2352.76,1486.45 "/>
<polyline clip-path="url(#clip360)" style="stroke:#000000; stroke-linecap:round; stroke-linejoin:round; stroke-width:4; stroke-opacity:1; fill:none" points="390.297,1486.45 390.297,1467.55 "/>
<polyline clip-path="url(#clip360)" style="stroke:#000000; stroke-linecap:round; stroke-linejoin:round; stroke-width:4; stroke-opacity:1; fill:none" points="947.497,1486.45 947.497,1467.55 "/>
<polyline clip-path="url(#clip360)" style="stroke:#000000; stroke-linecap:round; stroke-linejoin:round; stroke-width:4; stroke-opacity:1; fill:none" points="1504.7,1486.45 1504.7,1467.55 "/>
<polyline clip-path="url(#clip360)" style="stroke:#000000; stroke-linecap:round; stroke-linejoin:round; stroke-width:4; stroke-opacity:1; fill:none" points="2061.9,1486.45 2061.9,1467.55 "/>
<path clip-path="url(#clip360)" d="M390.297 1517.37 Q386.686 1517.37 384.857 1520.93 Q383.052 1524.47 383.052 1531.6 Q383.052 1538.71 384.857 1542.27 Q386.686 1545.82 390.297 1545.82 Q393.931 1545.82 395.737 1542.27 Q397.565 1538.71 397.565 1531.6 Q397.565 1524.47 395.737 1520.93 Q393.931 1517.37 390.297 1517.37 M390.297 1513.66 Q396.107 1513.66 399.163 1518.27 Q402.241 1522.85 402.241 1531.6 Q402.241 1540.33 399.163 1544.94 Q396.107 1549.52 390.297 1549.52 Q384.487 1549.52 381.408 1544.94 Q378.353 1540.33 378.353 1531.6 Q378.353 1522.85 381.408 1518.27 Q384.487 1513.66 390.297 1513.66 Z" fill="#000000" fill-rule="nonzero" fill-opacity="1" /><path clip-path="url(#clip360)" d="M922.196 1514.29 L940.553 1514.29 L940.553 1518.22 L926.479 1518.22 L926.479 1526.7 Q927.497 1526.35 928.516 1526.19 Q929.534 1526 930.553 1526 Q936.34 1526 939.719 1529.17 Q943.099 1532.34 943.099 1537.76 Q943.099 1543.34 939.627 1546.44 Q936.155 1549.52 929.835 1549.52 Q927.659 1549.52 925.391 1549.15 Q923.145 1548.78 920.738 1548.04 L920.738 1543.34 Q922.821 1544.47 925.043 1545.03 Q927.266 1545.58 929.743 1545.58 Q933.747 1545.58 936.085 1543.48 Q938.423 1541.37 938.423 1537.76 Q938.423 1534.15 936.085 1532.04 Q933.747 1529.94 929.743 1529.94 Q927.868 1529.94 925.993 1530.35 Q924.141 1530.77 922.196 1531.65 L922.196 1514.29 Z" fill="#000000" fill-rule="nonzero" fill-opacity="1" /><path clip-path="url(#clip360)" d="M962.312 1517.37 Q958.701 1517.37 956.872 1520.93 Q955.066 1524.47 955.066 1531.6 Q955.066 1538.71 956.872 1542.27 Q958.701 1545.82 962.312 1545.82 Q965.946 1545.82 967.752 1542.27 Q969.58 1538.71 969.58 1531.6 Q969.58 1524.47 967.752 1520.93 Q965.946 1517.37 962.312 1517.37 M962.312 1513.66 Q968.122 1513.66 971.178 1518.27 Q974.256 1522.85 974.256 1531.6 Q974.256 1540.33 971.178 1544.94 Q968.122 1549.52 962.312 1549.52 Q956.502 1549.52 953.423 1544.94 Q950.367 1540.33 950.367 1531.6 Q950.367 1522.85 953.423 1518.27 Q956.502 1513.66 962.312 1513.66 Z" fill="#000000" fill-rule="nonzero" fill-opacity="1" /><path clip-path="url(#clip360)" d="M1464.3 1544.91 L1471.94 1544.91 L1471.94 1518.55 L1463.63 1520.21 L1463.63 1515.95 L1471.9 1514.29 L1476.57 1514.29 L1476.57 1544.91 L1484.21 1544.91 L1484.21 1548.85 L1464.3 1548.85 L1464.3 1544.91 Z" fill="#000000" fill-rule="nonzero" fill-opacity="1" /><path clip-path="url(#clip360)" d="M1503.66 1517.37 Q1500.04 1517.37 1498.22 1520.93 Q1496.41 1524.47 1496.41 1531.6 Q1496.41 1538.71 1498.22 1542.27 Q1500.04 1545.82 1503.66 1545.82 Q1507.29 1545.82 1509.1 1542.27 Q1510.92 1538.71 1510.92 1531.6 Q1510.92 1524.47 1509.1 1520.93 Q1507.29 1517.37 1503.66 1517.37 M1503.66 1513.66 Q1509.47 1513.66 1512.52 1518.27 Q1515.6 1522.85 1515.6 1531.6 Q1515.6 1540.33 1512.52 1544.94 Q1509.47 1549.52 1503.66 1549.52 Q1497.85 1549.52 1494.77 1544.94 Q1491.71 1540.33 1491.71 1531.6 Q1491.71 1522.85 1494.77 1518.27 Q1497.85 1513.66 1503.66 1513.66 Z" fill="#000000" fill-rule="nonzero" fill-opacity="1" /><path clip-path="url(#clip360)" d="M1533.82 1517.37 Q1530.21 1517.37 1528.38 1520.93 Q1526.57 1524.47 1526.57 1531.6 Q1526.57 1538.71 1528.38 1542.27 Q1530.21 1545.82 1533.82 1545.82 Q1537.45 1545.82 1539.26 1542.27 Q1541.09 1538.71 1541.09 1531.6 Q1541.09 1524.47 1539.26 1520.93 Q1537.45 1517.37 1533.82 1517.37 M1533.82 1513.66 Q1539.63 1513.66 1542.68 1518.27 Q1545.76 1522.85 1545.76 1531.6 Q1545.76 1540.33 1542.68 1544.94 Q1539.63 1549.52 1533.82 1549.52 Q1528.01 1549.52 1524.93 1544.94 Q1521.87 1540.33 1521.87 1531.6 Q1521.87 1522.85 1524.93 1518.27 Q1528.01 1513.66 1533.82 1513.66 Z" fill="#000000" fill-rule="nonzero" fill-opacity="1" /><path clip-path="url(#clip360)" d="M2021.5 1544.91 L2029.14 1544.91 L2029.14 1518.55 L2020.83 1520.21 L2020.83 1515.95 L2029.1 1514.29 L2033.77 1514.29 L2033.77 1544.91 L2041.41 1544.91 L2041.41 1548.85 L2021.5 1548.85 L2021.5 1544.91 Z" fill="#000000" fill-rule="nonzero" fill-opacity="1" /><path clip-path="url(#clip360)" d="M2050.9 1514.29 L2069.26 1514.29 L2069.26 1518.22 L2055.18 1518.22 L2055.18 1526.7 Q2056.2 1526.35 2057.22 1526.19 Q2058.24 1526 2059.26 1526 Q2065.05 1526 2068.43 1529.17 Q2071.8 1532.34 2071.8 1537.76 Q2071.8 1543.34 2068.33 1546.44 Q2064.86 1549.52 2058.54 1549.52 Q2056.37 1549.52 2054.1 1549.15 Q2051.85 1548.78 2049.44 1548.04 L2049.44 1543.34 Q2051.53 1544.47 2053.75 1545.03 Q2055.97 1545.58 2058.45 1545.58 Q2062.45 1545.58 2064.79 1543.48 Q2067.13 1541.37 2067.13 1537.76 Q2067.13 1534.15 2064.79 1532.04 Q2062.45 1529.94 2058.45 1529.94 Q2056.57 1529.94 2054.7 1530.35 Q2052.85 1530.77 2050.9 1531.65 L2050.9 1514.29 Z" fill="#000000" fill-rule="nonzero" fill-opacity="1" /><path clip-path="url(#clip360)" d="M2091.02 1517.37 Q2087.41 1517.37 2085.58 1520.93 Q2083.77 1524.47 2083.77 1531.6 Q2083.77 1538.71 2085.58 1542.27 Q2087.41 1545.82 2091.02 1545.82 Q2094.65 1545.82 2096.46 1542.27 Q2098.29 1538.71 2098.29 1531.6 Q2098.29 1524.47 2096.46 1520.93 Q2094.65 1517.37 2091.02 1517.37 M2091.02 1513.66 Q2096.83 1513.66 2099.88 1518.27 Q2102.96 1522.85 2102.96 1531.6 Q2102.96 1540.33 2099.88 1544.94 Q2096.83 1549.52 2091.02 1549.52 Q2085.21 1549.52 2082.13 1544.94 Q2079.07 1540.33 2079.07 1531.6 Q2079.07 1522.85 2082.13 1518.27 Q2085.21 1513.66 2091.02 1513.66 Z" fill="#000000" fill-rule="nonzero" fill-opacity="1" /><polyline clip-path="url(#clip362)" style="stroke:#000000; stroke-linecap:round; stroke-linejoin:round; stroke-width:2; stroke-opacity:0.1; fill:none" points="344.606,1215.46 2352.76,1215.46 "/>
<polyline clip-path="url(#clip362)" style="stroke:#000000; stroke-linecap:round; stroke-linejoin:round; stroke-width:2; stroke-opacity:0.1; fill:none" points="344.606,869.568 2352.76,869.568 "/>
<polyline clip-path="url(#clip362)" style="stroke:#000000; stroke-linecap:round; stroke-linejoin:round; stroke-width:2; stroke-opacity:0.1; fill:none" points="344.606,523.679 2352.76,523.679 "/>
<polyline clip-path="url(#clip362)" style="stroke:#000000; stroke-linecap:round; stroke-linejoin:round; stroke-width:2; stroke-opacity:0.1; fill:none" points="344.606,177.79 2352.76,177.79 "/>
<polyline clip-path="url(#clip360)" style="stroke:#000000; stroke-linecap:round; stroke-linejoin:round; stroke-width:4; stroke-opacity:1; fill:none" points="344.606,1486.45 344.606,47.2441 "/>
<polyline clip-path="url(#clip360)" style="stroke:#000000; stroke-linecap:round; stroke-linejoin:round; stroke-width:4; stroke-opacity:1; fill:none" points="344.606,1215.46 363.504,1215.46 "/>
<polyline clip-path="url(#clip360)" style="stroke:#000000; stroke-linecap:round; stroke-linejoin:round; stroke-width:4; stroke-opacity:1; fill:none" points="344.606,869.568 363.504,869.568 "/>
<polyline clip-path="url(#clip360)" style="stroke:#000000; stroke-linecap:round; stroke-linejoin:round; stroke-width:4; stroke-opacity:1; fill:none" points="344.606,523.679 363.504,523.679 "/>
<polyline clip-path="url(#clip360)" style="stroke:#000000; stroke-linecap:round; stroke-linejoin:round; stroke-width:4; stroke-opacity:1; fill:none" points="344.606,177.79 363.504,177.79 "/>
<path clip-path="url(#clip360)" d="M50.9921 1222.36 L80.6679 1222.36 L80.6679 1226.29 L50.9921 1226.29 L50.9921 1222.36 Z" fill="#000000" fill-rule="nonzero" fill-opacity="1" /><path clip-path="url(#clip360)" d="M91.5706 1235.25 L99.2095 1235.25 L99.2095 1208.88 L90.8993 1210.55 L90.8993 1206.29 L99.1632 1204.63 L103.839 1204.63 L103.839 1235.25 L111.478 1235.25 L111.478 1239.19 L91.5706 1239.19 L91.5706 1235.25 Z" fill="#000000" fill-rule="nonzero" fill-opacity="1" /><path clip-path="url(#clip360)" d="M120.922 1233.31 L125.807 1233.31 L125.807 1239.19 L120.922 1239.19 L120.922 1233.31 Z" fill="#000000" fill-rule="nonzero" fill-opacity="1" /><path clip-path="url(#clip360)" d="M136.038 1204.63 L154.394 1204.63 L154.394 1208.56 L140.32 1208.56 L140.32 1217.03 Q141.339 1216.69 142.357 1216.52 Q143.376 1216.34 144.394 1216.34 Q150.181 1216.34 153.561 1219.51 Q156.941 1222.68 156.941 1228.1 Q156.941 1233.68 153.468 1236.78 Q149.996 1239.86 143.677 1239.86 Q141.501 1239.86 139.232 1239.49 Q136.987 1239.12 134.58 1238.38 L134.58 1233.68 Q136.663 1234.81 138.885 1235.37 Q141.107 1235.92 143.584 1235.92 Q147.589 1235.92 149.927 1233.82 Q152.265 1231.71 152.265 1228.1 Q152.265 1224.49 149.927 1222.38 Q147.589 1220.27 143.584 1220.27 Q141.709 1220.27 139.834 1220.69 Q137.982 1221.11 136.038 1221.99 L136.038 1204.63 Z" fill="#000000" fill-rule="nonzero" fill-opacity="1" /><path clip-path="url(#clip360)" d="M176.153 1207.7 Q172.542 1207.7 170.714 1211.27 Q168.908 1214.81 168.908 1221.94 Q168.908 1229.05 170.714 1232.61 Q172.542 1236.15 176.153 1236.15 Q179.788 1236.15 181.593 1232.61 Q183.422 1229.05 183.422 1221.94 Q183.422 1214.81 181.593 1211.27 Q179.788 1207.7 176.153 1207.7 M176.153 1204 Q181.964 1204 185.019 1208.61 Q188.098 1213.19 188.098 1221.94 Q188.098 1230.67 185.019 1235.27 Q181.964 1239.86 176.153 1239.86 Q170.343 1239.86 167.265 1235.27 Q164.209 1230.67 164.209 1221.94 Q164.209 1213.19 167.265 1208.61 Q170.343 1204 176.153 1204 Z" fill="#000000" fill-rule="nonzero" fill-opacity="1" /><path clip-path="url(#clip360)" d="M224.487 1213.72 L213.908 1224.35 L224.487 1234.93 L221.732 1237.73 L211.107 1227.1 L200.482 1237.73 L197.751 1234.93 L208.306 1224.35 L197.751 1213.72 L200.482 1210.92 L211.107 1221.55 L221.732 1210.92 L224.487 1213.72 Z" fill="#000000" fill-rule="nonzero" fill-opacity="1" /><path clip-path="url(#clip360)" d="M236.848 1235.25 L244.486 1235.25 L244.486 1208.88 L236.176 1210.55 L236.176 1206.29 L244.44 1204.63 L249.116 1204.63 L249.116 1235.25 L256.755 1235.25 L256.755 1239.19 L236.848 1239.19 L236.848 1235.25 Z" fill="#000000" fill-rule="nonzero" fill-opacity="1" /><path clip-path="url(#clip360)" d="M276.199 1207.7 Q272.588 1207.7 270.759 1211.27 Q268.954 1214.81 268.954 1221.94 Q268.954 1229.05 270.759 1232.61 Q272.588 1236.15 276.199 1236.15 Q279.833 1236.15 281.639 1232.61 Q283.468 1229.05 283.468 1221.94 Q283.468 1214.81 281.639 1211.27 Q279.833 1207.7 276.199 1207.7 M276.199 1204 Q282.009 1204 285.065 1208.61 Q288.144 1213.19 288.144 1221.94 Q288.144 1230.67 285.065 1235.27 Q282.009 1239.86 276.199 1239.86 Q270.389 1239.86 267.31 1235.27 Q264.255 1230.67 264.255 1221.94 Q264.255 1213.19 267.31 1208.61 Q270.389 1204 276.199 1204 Z" fill="#000000" fill-rule="nonzero" fill-opacity="1" /><path clip-path="url(#clip360)" d="M300.82 1187.01 L291.228 1202 L300.82 1202 L300.82 1187.01 M299.823 1183.7 L304.6 1183.7 L304.6 1202 L308.606 1202 L308.606 1205.15 L304.6 1205.15 L304.6 1211.78 L300.82 1211.78 L300.82 1205.15 L288.144 1205.15 L288.144 1201.49 L299.823 1183.7 Z" fill="#000000" fill-rule="nonzero" fill-opacity="1" /><path clip-path="url(#clip360)" d="M50.9921 876.467 L80.6679 876.467 L80.6679 880.403 L50.9921 880.403 L50.9921 876.467 Z" fill="#000000" fill-rule="nonzero" fill-opacity="1" /><path clip-path="url(#clip360)" d="M91.5706 889.361 L99.2095 889.361 L99.2095 862.995 L90.8993 864.662 L90.8993 860.403 L99.1632 858.736 L103.839 858.736 L103.839 889.361 L111.478 889.361 L111.478 893.296 L91.5706 893.296 L91.5706 889.361 Z" fill="#000000" fill-rule="nonzero" fill-opacity="1" /><path clip-path="url(#clip360)" d="M120.922 887.416 L125.807 887.416 L125.807 893.296 L120.922 893.296 L120.922 887.416 Z" fill="#000000" fill-rule="nonzero" fill-opacity="1" /><path clip-path="url(#clip360)" d="M145.992 861.815 Q142.381 861.815 140.552 865.38 Q138.746 868.921 138.746 876.051 Q138.746 883.157 140.552 886.722 Q142.381 890.264 145.992 890.264 Q149.626 890.264 151.431 886.722 Q153.26 883.157 153.26 876.051 Q153.26 868.921 151.431 865.38 Q149.626 861.815 145.992 861.815 M145.992 858.111 Q151.802 858.111 154.857 862.718 Q157.936 867.301 157.936 876.051 Q157.936 884.778 154.857 889.384 Q151.802 893.967 145.992 893.967 Q140.181 893.967 137.103 889.384 Q134.047 884.778 134.047 876.051 Q134.047 867.301 137.103 862.718 Q140.181 858.111 145.992 858.111 Z" fill="#000000" fill-rule="nonzero" fill-opacity="1" /><path clip-path="url(#clip360)" d="M176.153 861.815 Q172.542 861.815 170.714 865.38 Q168.908 868.921 168.908 876.051 Q168.908 883.157 170.714 886.722 Q172.542 890.264 176.153 890.264 Q179.788 890.264 181.593 886.722 Q183.422 883.157 183.422 876.051 Q183.422 868.921 181.593 865.38 Q179.788 861.815 176.153 861.815 M176.153 858.111 Q181.964 858.111 185.019 862.718 Q188.098 867.301 188.098 876.051 Q188.098 884.778 185.019 889.384 Q181.964 893.967 176.153 893.967 Q170.343 893.967 167.265 889.384 Q164.209 884.778 164.209 876.051 Q164.209 867.301 167.265 862.718 Q170.343 858.111 176.153 858.111 Z" fill="#000000" fill-rule="nonzero" fill-opacity="1" /><path clip-path="url(#clip360)" d="M224.487 867.833 L213.908 878.458 L224.487 889.037 L221.732 891.838 L211.107 881.213 L200.482 891.838 L197.751 889.037 L208.306 878.458 L197.751 867.833 L200.482 865.032 L211.107 875.657 L221.732 865.032 L224.487 867.833 Z" fill="#000000" fill-rule="nonzero" fill-opacity="1" /><path clip-path="url(#clip360)" d="M236.848 889.361 L244.486 889.361 L244.486 862.995 L236.176 864.662 L236.176 860.403 L244.44 858.736 L249.116 858.736 L249.116 889.361 L256.755 889.361 L256.755 893.296 L236.848 893.296 L236.848 889.361 Z" fill="#000000" fill-rule="nonzero" fill-opacity="1" /><path clip-path="url(#clip360)" d="M276.199 861.815 Q272.588 861.815 270.759 865.38 Q268.954 868.921 268.954 876.051 Q268.954 883.157 270.759 886.722 Q272.588 890.264 276.199 890.264 Q279.833 890.264 281.639 886.722 Q283.468 883.157 283.468 876.051 Q283.468 868.921 281.639 865.38 Q279.833 861.815 276.199 861.815 M276.199 858.111 Q282.009 858.111 285.065 862.718 Q288.144 867.301 288.144 876.051 Q288.144 884.778 285.065 889.384 Q282.009 893.967 276.199 893.967 Q270.389 893.967 267.31 889.384 Q264.255 884.778 264.255 876.051 Q264.255 867.301 267.31 862.718 Q270.389 858.111 276.199 858.111 Z" fill="#000000" fill-rule="nonzero" fill-opacity="1" /><path clip-path="url(#clip360)" d="M300.82 841.116 L291.228 856.106 L300.82 856.106 L300.82 841.116 M299.823 837.806 L304.6 837.806 L304.6 856.106 L308.606 856.106 L308.606 859.265 L304.6 859.265 L304.6 865.886 L300.82 865.886 L300.82 859.265 L288.144 859.265 L288.144 855.598 L299.823 837.806 Z" fill="#000000" fill-rule="nonzero" fill-opacity="1" /><path clip-path="url(#clip360)" d="M52.9669 530.578 L82.6427 530.578 L82.6427 534.513 L52.9669 534.513 L52.9669 530.578 Z" fill="#000000" fill-rule="nonzero" fill-opacity="1" /><path clip-path="url(#clip360)" d="M92.7815 512.847 L111.138 512.847 L111.138 516.782 L97.0639 516.782 L97.0639 525.254 Q98.0824 524.907 99.101 524.745 Q100.119 524.559 101.138 524.559 Q106.925 524.559 110.305 527.731 Q113.684 530.902 113.684 536.319 Q113.684 541.897 110.212 544.999 Q106.74 548.078 100.42 548.078 Q98.2445 548.078 95.976 547.708 Q93.7306 547.337 91.3232 546.596 L91.3232 541.897 Q93.4065 543.032 95.6288 543.587 Q97.851 544.143 100.328 544.143 Q104.332 544.143 106.67 542.036 Q109.008 539.93 109.008 536.319 Q109.008 532.708 106.67 530.601 Q104.332 528.495 100.328 528.495 Q98.4528 528.495 96.5778 528.911 Q94.726 529.328 92.7815 530.208 L92.7815 512.847 Z" fill="#000000" fill-rule="nonzero" fill-opacity="1" /><path clip-path="url(#clip360)" d="M122.897 541.527 L127.781 541.527 L127.781 547.407 L122.897 547.407 L122.897 541.527 Z" fill="#000000" fill-rule="nonzero" fill-opacity="1" /><path clip-path="url(#clip360)" d="M147.966 515.925 Q144.355 515.925 142.527 519.49 Q140.721 523.032 140.721 530.161 Q140.721 537.268 142.527 540.833 Q144.355 544.374 147.966 544.374 Q151.601 544.374 153.406 540.833 Q155.235 537.268 155.235 530.161 Q155.235 523.032 153.406 519.49 Q151.601 515.925 147.966 515.925 M147.966 512.222 Q153.777 512.222 156.832 516.828 Q159.911 521.411 159.911 530.161 Q159.911 538.888 156.832 543.495 Q153.777 548.078 147.966 548.078 Q142.156 548.078 139.078 543.495 Q136.022 538.888 136.022 530.161 Q136.022 521.411 139.078 516.828 Q142.156 512.222 147.966 512.222 Z" fill="#000000" fill-rule="nonzero" fill-opacity="1" /><path clip-path="url(#clip360)" d="M178.128 515.925 Q174.517 515.925 172.689 519.49 Q170.883 523.032 170.883 530.161 Q170.883 537.268 172.689 540.833 Q174.517 544.374 178.128 544.374 Q181.763 544.374 183.568 540.833 Q185.397 537.268 185.397 530.161 Q185.397 523.032 183.568 519.49 Q181.763 515.925 178.128 515.925 M178.128 512.222 Q183.938 512.222 186.994 516.828 Q190.073 521.411 190.073 530.161 Q190.073 538.888 186.994 543.495 Q183.938 548.078 178.128 548.078 Q172.318 548.078 169.239 543.495 Q166.184 538.888 166.184 530.161 Q166.184 521.411 169.239 516.828 Q172.318 512.222 178.128 512.222 Z" fill="#000000" fill-rule="nonzero" fill-opacity="1" /><path clip-path="url(#clip360)" d="M226.461 521.944 L215.883 532.569 L226.461 543.147 L223.707 545.948 L213.082 535.323 L202.457 545.948 L199.725 543.147 L210.281 532.569 L199.725 521.944 L202.457 519.143 L213.082 529.768 L223.707 519.143 L226.461 521.944 Z" fill="#000000" fill-rule="nonzero" fill-opacity="1" /><path clip-path="url(#clip360)" d="M238.822 543.471 L246.461 543.471 L246.461 517.106 L238.151 518.772 L238.151 514.513 L246.415 512.847 L251.091 512.847 L251.091 543.471 L258.73 543.471 L258.73 547.407 L238.822 547.407 L238.822 543.471 Z" fill="#000000" fill-rule="nonzero" fill-opacity="1" /><path clip-path="url(#clip360)" d="M278.174 515.925 Q274.563 515.925 272.734 519.49 Q270.929 523.032 270.929 530.161 Q270.929 537.268 272.734 540.833 Q274.563 544.374 278.174 544.374 Q281.808 544.374 283.614 540.833 Q285.443 537.268 285.443 530.161 Q285.443 523.032 283.614 519.49 Q281.808 515.925 278.174 515.925 M278.174 512.222 Q283.984 512.222 287.04 516.828 Q290.118 521.411 290.118 530.161 Q290.118 538.888 287.04 543.495 Q283.984 548.078 278.174 548.078 Q272.364 548.078 269.285 543.495 Q266.23 538.888 266.23 530.161 Q266.23 521.411 269.285 516.828 Q272.364 512.222 278.174 512.222 Z" fill="#000000" fill-rule="nonzero" fill-opacity="1" /><path clip-path="url(#clip360)" d="M302.814 504.856 Q305.541 505.439 307.064 507.282 Q308.606 509.125 308.606 511.834 Q308.606 515.99 305.748 518.266 Q302.889 520.542 297.623 520.542 Q295.855 520.542 293.974 520.184 Q292.112 519.846 290.118 519.15 L290.118 515.482 Q291.698 516.404 293.579 516.874 Q295.46 517.344 297.51 517.344 Q301.083 517.344 302.945 515.934 Q304.826 514.523 304.826 511.834 Q304.826 509.351 303.077 507.959 Q301.347 506.549 298.243 506.549 L294.971 506.549 L294.971 503.427 L298.394 503.427 Q301.196 503.427 302.682 502.317 Q304.168 501.188 304.168 499.082 Q304.168 496.919 302.626 495.772 Q301.102 494.606 298.243 494.606 Q296.682 494.606 294.896 494.944 Q293.109 495.283 290.965 495.997 L290.965 492.612 Q293.128 492.01 295.008 491.709 Q296.908 491.408 298.582 491.408 Q302.908 491.408 305.428 493.383 Q307.948 495.339 307.948 498.687 Q307.948 501.019 306.613 502.637 Q305.278 504.235 302.814 504.856 Z" fill="#000000" fill-rule="nonzero" fill-opacity="1" /><path clip-path="url(#clip360)" d="M296.662 163.588 Q293.051 163.588 291.222 167.153 Q289.417 170.695 289.417 177.824 Q289.417 184.931 291.222 188.495 Q293.051 192.037 296.662 192.037 Q300.296 192.037 302.102 188.495 Q303.931 184.931 303.931 177.824 Q303.931 170.695 302.102 167.153 Q300.296 163.588 296.662 163.588 M296.662 159.885 Q302.472 159.885 305.528 164.491 Q308.606 169.074 308.606 177.824 Q308.606 186.551 305.528 191.157 Q302.472 195.741 296.662 195.741 Q290.852 195.741 287.773 191.157 Q284.718 186.551 284.718 177.824 Q284.718 169.074 287.773 164.491 Q290.852 159.885 296.662 159.885 Z" fill="#000000" fill-rule="nonzero" fill-opacity="1" /><polyline clip-path="url(#clip362)" style="stroke:#009af9; stroke-linecap:round; stroke-linejoin:round; stroke-width:4; stroke-opacity:1; fill:none" points="401.441,87.9763 412.585,155.863 423.729,155.863 434.873,155.863 446.017,155.863 457.161,155.863 468.305,155.863 479.449,155.863 490.593,155.863 501.737,155.863 512.881,155.863 524.025,155.863 535.169,155.863 546.313,155.863 557.457,155.863 568.601,155.863 579.745,155.863 590.889,155.863 602.033,155.863 613.177,155.863 624.321,155.863 635.465,155.863 646.609,155.863 657.753,155.863 668.897,155.863 680.041,155.863 691.185,155.863 702.329,155.863 713.473,155.863 724.617,155.863 735.761,155.863 746.905,155.863 758.049,155.863 769.193,155.863 780.337,155.863 791.481,155.863 802.625,155.863 813.769,155.863 824.913,155.863 836.057,155.863 847.201,155.863 858.345,155.863 869.489,155.863 880.633,155.863 891.777,155.863 902.921,155.863 914.065,155.863 925.209,155.863 936.353,155.863 947.497,155.863 958.641,155.863 969.785,155.863 980.929,155.863 992.073,155.863 1003.22,155.863 1014.36,155.863 1025.51,155.863 1036.65,155.863 1047.79,155.863 1058.94,155.863 1070.08,155.863 1081.23,155.863 1092.37,155.863 1103.51,155.863 1114.66,155.863 1125.8,155.863 1136.95,155.863 1148.09,155.863 1159.23,155.863 1170.38,155.863 1181.52,155.863 1192.67,155.863 1203.81,155.863 1214.95,155.863 1226.1,155.863 1237.24,155.863 1248.39,155.863 1259.53,155.863 1270.67,155.863 1281.82,155.863 1292.96,155.863 1304.11,155.863 1315.25,155.863 1326.39,155.863 1337.54,155.863 1348.68,155.863 1359.83,155.863 1370.97,155.863 1382.11,155.863 1393.26,155.863 1404.4,155.863 1415.55,155.863 1426.69,155.863 1437.83,155.863 1448.98,155.863 1460.12,155.863 1471.27,155.863 1482.41,155.863 1493.55,155.863 1504.7,155.863 1515.84,155.863 1526.99,155.863 1538.13,155.863 1549.27,155.863 1560.42,155.863 1571.56,155.863 1582.71,155.863 1593.85,155.863 1604.99,155.863 1616.14,155.863 1627.28,155.863 1638.43,155.863 1649.57,155.863 1660.71,155.863 1671.86,155.863 1683,155.863 1694.15,155.863 1705.29,155.863 1716.43,156.179 1727.58,156.303 1738.72,156.422 1749.87,156.437 1761.01,156.484 1772.15,156.658 1783.3,156.658 1794.44,156.658 1805.59,156.658 1816.73,156.658 1827.87,156.658 1839.02,156.658 1850.16,156.658 1861.31,156.658 1872.45,156.658 1883.59,156.658 1894.74,156.658 1905.88,156.676 1917.03,156.676 1928.17,156.676 1939.31,156.676 1950.46,156.676 1961.6,156.676 1972.75,156.676 1983.89,156.712 1995.03,156.712 2006.18,156.712 2017.32,156.712 2028.47,156.712 2039.61,156.712 2050.75,156.712 2061.9,156.712 2073.04,156.712 2084.19,156.712 2095.33,156.712 2106.47,156.783 2117.62,156.783 2128.76,156.783 2139.91,156.783 2151.05,156.783 2162.19,156.783 2173.34,156.783 2184.48,156.783 2195.63,156.783 2206.77,156.783 2217.91,156.783 2229.06,156.783 2240.2,156.802 2251.35,156.802 2262.49,156.802 2273.63,156.802 2284.78,156.802 2295.92,156.802 "/>
<polyline clip-path="url(#clip362)" style="stroke:#e26f46; stroke-linecap:round; stroke-linejoin:round; stroke-width:4; stroke-opacity:1; fill:none" points="401.441,1445.72 412.585,1390.33 423.729,1284.7 434.873,1259.89 446.017,416.297 457.161,395.84 468.305,340.866 479.449,339.365 490.593,334.426 501.737,304.138 512.881,339.699 524.025,275.309 535.169,290.562 546.313,361.178 557.457,326.163 568.601,318.346 579.745,324.953 590.889,319.095 602.033,349.48 613.177,311.481 624.321,362.328 635.465,311.147 646.609,315.738 657.753,280.219 668.897,285.531 680.041,320.767 691.185,300.189 702.329,400.177 713.473,364.198 724.617,303.335 735.761,277.472 746.905,233.944 758.049,285.433 769.193,283.699 780.337,272.26 791.481,316.971 802.625,317.124 813.769,267.401 824.913,333.013 836.057,324.609 847.201,310.289 858.345,322.994 869.489,267.709 880.633,262.892 891.777,289.368 902.921,225.422 914.065,292.262 925.209,221.019 936.353,247.205 947.497,256.379 958.641,272.023 969.785,252.397 980.929,250.038 992.073,225 1003.22,207.691 1014.36,219.984 1025.51,221.978 1036.65,220.326 1047.79,250.363 1058.94,236.3 1070.08,256.523 1081.23,211.368 1092.37,257.191 1103.51,227.235 1114.66,211.316 1125.8,254.08 1136.95,224.074 1148.09,272.552 1159.23,256.084 1170.38,235.333 1181.52,250.094 1192.67,210.988 1203.81,223.721 1214.95,253.892 1226.1,255.783 1237.24,235.779 1248.39,269.324 1259.53,226.805 1270.67,189.685 1281.82,212.215 1292.96,237.347 1304.11,219.015 1315.25,237.175 1326.39,215.118 1337.54,213.923 1348.68,186.911 1359.83,194.913 1370.97,194.534 1382.11,201.587 1393.26,198.243 1404.4,204.623 1415.55,204.16 1426.69,202.322 1437.83,223.753 1448.98,205.489 1460.12,197.979 1471.27,207.983 1482.41,217.689 1493.55,198.371 1504.7,184.04 1515.84,212.714 1526.99,190.509 1538.13,208.36 1549.27,212.082 1560.42,180.856 1571.56,176.034 1582.71,173.672 1593.85,183.643 1604.99,188.063 1616.14,191.889 1627.28,185.758 1638.43,180.753 1649.57,169.808 1660.71,180.301 1671.86,183.321 1683,171.139 1694.15,173.502 1705.29,193.003 1716.43,188.419 1727.58,180.586 1738.72,201.019 1749.87,182.214 1761.01,172.159 1772.15,179.316 1783.3,185.615 1794.44,178.772 1805.59,169.23 1816.73,173.362 1827.87,177.149 1839.02,182.762 1850.16,176.184 1861.31,182.666 1872.45,173.633 1883.59,173.633 1894.74,173.633 1905.88,166.497 1917.03,165.4 1928.17,164.398 1939.31,169.531 1950.46,165.588 1961.6,163.951 1972.75,163.951 1983.89,165.852 1995.03,167.757 2006.18,166.843 2017.32,166.545 2028.47,164.312 2039.61,166.814 2050.75,161.244 2061.9,164.144 2073.04,161.498 2084.19,162.906 2095.33,160.92 2106.47,160.298 2117.62,159.824 2128.76,158.918 2139.91,157.179 2151.05,164.267 2162.19,167.136 2173.34,167.648 2184.48,159.824 2195.63,158.323 2206.77,157.643 2217.91,157.643 2229.06,157.172 2240.2,157.971 2251.35,157.161 2262.49,156.805 2273.63,161.787 2284.78,159.949 2295.92,156.802 "/>
<path clip-path="url(#clip360)" d="M1945.58 1438.47 L2285.82 1438.47 L2285.82 1282.95 L1945.58 1282.95  Z" fill="#ffffff" fill-rule="evenodd" fill-opacity="1"/>
<polyline clip-path="url(#clip360)" style="stroke:#000000; stroke-linecap:round; stroke-linejoin:round; stroke-width:4; stroke-opacity:1; fill:none" points="1945.58,1438.47 2285.82,1438.47 2285.82,1282.95 1945.58,1282.95 1945.58,1438.47 "/>
<polyline clip-path="url(#clip360)" style="stroke:#009af9; stroke-linecap:round; stroke-linejoin:round; stroke-width:4; stroke-opacity:1; fill:none" points="1967.89,1334.79 2101.77,1334.79 "/>
<path clip-path="url(#clip360)" d="M2124.08 1317.51 L2128.78 1317.51 L2128.78 1338.51 Q2128.78 1344.07 2130.8 1346.52 Q2132.81 1348.95 2137.32 1348.95 Q2141.82 1348.95 2143.83 1346.52 Q2145.84 1344.07 2145.84 1338.51 L2145.84 1317.51 L2150.54 1317.51 L2150.54 1339.09 Q2150.54 1345.85 2147.19 1349.3 Q2143.85 1352.75 2137.32 1352.75 Q2130.77 1352.75 2127.42 1349.3 Q2124.08 1345.85 2124.08 1339.09 L2124.08 1317.51 Z" fill="#000000" fill-rule="nonzero" fill-opacity="1" /><path clip-path="url(#clip360)" d="M2163.25 1348.19 L2163.25 1361.94 L2158.97 1361.94 L2158.97 1326.15 L2163.25 1326.15 L2163.25 1330.08 Q2164.59 1327.77 2166.63 1326.66 Q2168.69 1325.52 2171.54 1325.52 Q2176.26 1325.52 2179.2 1329.27 Q2182.16 1333.02 2182.16 1339.13 Q2182.16 1345.25 2179.2 1349 Q2176.26 1352.75 2171.54 1352.75 Q2168.69 1352.75 2166.63 1351.63 Q2164.59 1350.5 2163.25 1348.19 M2177.74 1339.13 Q2177.74 1334.44 2175.8 1331.77 Q2173.88 1329.09 2170.5 1329.09 Q2167.12 1329.09 2165.17 1331.77 Q2163.25 1334.44 2163.25 1339.13 Q2163.25 1343.83 2165.17 1346.52 Q2167.12 1349.18 2170.5 1349.18 Q2173.88 1349.18 2175.8 1346.52 Q2177.74 1343.83 2177.74 1339.13 Z" fill="#000000" fill-rule="nonzero" fill-opacity="1" /><path clip-path="url(#clip360)" d="M2193.34 1348.19 L2193.34 1361.94 L2189.06 1361.94 L2189.06 1326.15 L2193.34 1326.15 L2193.34 1330.08 Q2194.69 1327.77 2196.72 1326.66 Q2198.78 1325.52 2201.63 1325.52 Q2206.35 1325.52 2209.29 1329.27 Q2212.26 1333.02 2212.26 1339.13 Q2212.26 1345.25 2209.29 1349 Q2206.35 1352.75 2201.63 1352.75 Q2198.78 1352.75 2196.72 1351.63 Q2194.69 1350.5 2193.34 1348.19 M2207.83 1339.13 Q2207.83 1334.44 2205.89 1331.77 Q2203.97 1329.09 2200.59 1329.09 Q2197.21 1329.09 2195.26 1331.77 Q2193.34 1334.44 2193.34 1339.13 Q2193.34 1343.83 2195.26 1346.52 Q2197.21 1349.18 2200.59 1349.18 Q2203.97 1349.18 2205.89 1346.52 Q2207.83 1343.83 2207.83 1339.13 Z" fill="#000000" fill-rule="nonzero" fill-opacity="1" /><path clip-path="url(#clip360)" d="M2241.49 1338.05 L2241.49 1340.13 L2221.91 1340.13 Q2222.19 1344.53 2224.55 1346.84 Q2226.93 1349.13 2231.17 1349.13 Q2233.62 1349.13 2235.91 1348.53 Q2238.23 1347.93 2240.5 1346.73 L2240.5 1350.75 Q2238.2 1351.73 2235.8 1352.24 Q2233.39 1352.75 2230.91 1352.75 Q2224.71 1352.75 2221.07 1349.13 Q2217.46 1345.52 2217.46 1339.37 Q2217.46 1333 2220.89 1329.27 Q2224.34 1325.52 2230.17 1325.52 Q2235.4 1325.52 2238.44 1328.9 Q2241.49 1332.26 2241.49 1338.05 M2237.23 1336.8 Q2237.19 1333.3 2235.26 1331.22 Q2233.37 1329.13 2230.22 1329.13 Q2226.65 1329.13 2224.5 1331.15 Q2222.37 1333.16 2222.05 1336.82 L2237.23 1336.8 Z" fill="#000000" fill-rule="nonzero" fill-opacity="1" /><path clip-path="url(#clip360)" d="M2263.5 1330.13 Q2262.79 1329.71 2261.93 1329.53 Q2261.1 1329.32 2260.08 1329.32 Q2256.47 1329.32 2254.52 1331.68 Q2252.6 1334.02 2252.6 1338.42 L2252.6 1352.07 L2248.32 1352.07 L2248.32 1326.15 L2252.6 1326.15 L2252.6 1330.18 Q2253.94 1327.82 2256.1 1326.68 Q2258.25 1325.52 2261.33 1325.52 Q2261.77 1325.52 2262.3 1325.59 Q2262.83 1325.64 2263.48 1325.76 L2263.5 1330.13 Z" fill="#000000" fill-rule="nonzero" fill-opacity="1" /><polyline clip-path="url(#clip360)" style="stroke:#e26f46; stroke-linecap:round; stroke-linejoin:round; stroke-width:4; stroke-opacity:1; fill:none" points="1967.89,1386.63 2101.77,1386.63 "/>
<path clip-path="url(#clip360)" d="M2124.08 1369.35 L2128.76 1369.35 L2128.76 1399.98 L2145.59 1399.98 L2145.59 1403.91 L2124.08 1403.91 L2124.08 1369.35 Z" fill="#000000" fill-rule="nonzero" fill-opacity="1" /><path clip-path="url(#clip360)" d="M2159.52 1380.97 Q2156.1 1380.97 2154.11 1383.66 Q2152.12 1386.32 2152.12 1390.97 Q2152.12 1395.63 2154.08 1398.31 Q2156.07 1400.97 2159.52 1400.97 Q2162.93 1400.97 2164.92 1398.29 Q2166.91 1395.6 2166.91 1390.97 Q2166.91 1386.37 2164.92 1383.68 Q2162.93 1380.97 2159.52 1380.97 M2159.52 1377.36 Q2165.08 1377.36 2168.25 1380.97 Q2171.42 1384.59 2171.42 1390.97 Q2171.42 1397.34 2168.25 1400.97 Q2165.08 1404.59 2159.52 1404.59 Q2153.95 1404.59 2150.77 1400.97 Q2147.63 1397.34 2147.63 1390.97 Q2147.63 1384.59 2150.77 1380.97 Q2153.95 1377.36 2159.52 1377.36 Z" fill="#000000" fill-rule="nonzero" fill-opacity="1" /><path clip-path="url(#clip360)" d="M2176.01 1377.99 L2180.26 1377.99 L2185.59 1398.22 L2190.89 1377.99 L2195.91 1377.99 L2201.24 1398.22 L2206.54 1377.99 L2210.8 1377.99 L2204.01 1403.91 L2198.99 1403.91 L2193.41 1382.66 L2187.81 1403.91 L2182.79 1403.91 L2176.01 1377.99 Z" fill="#000000" fill-rule="nonzero" fill-opacity="1" /><path clip-path="url(#clip360)" d="M2239.43 1389.89 L2239.43 1391.97 L2219.85 1391.97 Q2220.13 1396.37 2222.49 1398.68 Q2224.87 1400.97 2229.11 1400.97 Q2231.56 1400.97 2233.85 1400.37 Q2236.17 1399.77 2238.44 1398.57 L2238.44 1402.59 Q2236.14 1403.57 2233.74 1404.08 Q2231.33 1404.59 2228.85 1404.59 Q2222.65 1404.59 2219.01 1400.97 Q2215.4 1397.36 2215.4 1391.21 Q2215.4 1384.84 2218.83 1381.11 Q2222.28 1377.36 2228.11 1377.36 Q2233.34 1377.36 2236.38 1380.74 Q2239.43 1384.1 2239.43 1389.89 M2235.17 1388.64 Q2235.13 1385.14 2233.2 1383.06 Q2231.31 1380.97 2228.16 1380.97 Q2224.59 1380.97 2222.44 1382.99 Q2220.31 1385 2219.99 1388.66 L2235.17 1388.64 Z" fill="#000000" fill-rule="nonzero" fill-opacity="1" /><path clip-path="url(#clip360)" d="M2261.44 1381.97 Q2260.73 1381.55 2259.87 1381.37 Q2259.04 1381.16 2258.02 1381.16 Q2254.41 1381.16 2252.46 1383.52 Q2250.54 1385.86 2250.54 1390.26 L2250.54 1403.91 L2246.26 1403.91 L2246.26 1377.99 L2250.54 1377.99 L2250.54 1382.02 Q2251.88 1379.66 2254.04 1378.52 Q2256.19 1377.36 2259.27 1377.36 Q2259.71 1377.36 2260.24 1377.43 Q2260.77 1377.48 2261.42 1377.6 L2261.44 1381.97 Z" fill="#000000" fill-rule="nonzero" fill-opacity="1" /></svg>
