<?xml version="1.0" encoding="utf-8"?>
<svg xmlns="http://www.w3.org/2000/svg" xmlns:xlink="http://www.w3.org/1999/xlink" width="500" height="500" viewBox="0 0 2000 2000">
<defs>
  <clipPath id="clip180">
    <rect x="0" y="0" width="2000" height="2000"/>
  </clipPath>
</defs>
<path clip-path="url(#clip180)" d="M0 2000 L2000 2000 L2000 0 L0 0  Z" fill="#ffffff" fill-rule="evenodd" fill-opacity="1"/>
<defs>
  <clipPath id="clip181">
    <rect x="400" y="200" width="1401" height="1401"/>
  </clipPath>
</defs>
<path clip-path="url(#clip180)" d="M165.121 1865.17 L1952.76 1865.17 L1952.76 47.2441 L165.121 47.2441  Z" fill="#ffffff" fill-rule="evenodd" fill-opacity="1"/>
<defs>
  <clipPath id="clip182">
    <rect x="165" y="47" width="1789" height="1819"/>
  </clipPath>
</defs>
<polyline clip-path="url(#clip182)" style="stroke:#000000; stroke-linecap:round; stroke-linejoin:round; stroke-width:2; stroke-opacity:0.1; fill:none" points="165.121,1865.17 165.121,47.2441 "/>
<polyline clip-path="url(#clip182)" style="stroke:#000000; stroke-linecap:round; stroke-linejoin:round; stroke-width:2; stroke-opacity:0.1; fill:none" points="522.648,1865.17 522.648,47.2441 "/>
<polyline clip-path="url(#clip182)" style="stroke:#000000; stroke-linecap:round; stroke-linejoin:round; stroke-width:2; stroke-opacity:0.1; fill:none" points="880.175,1865.17 880.175,47.2441 "/>
<polyline clip-path="url(#clip182)" style="stroke:#000000; stroke-linecap:round; stroke-linejoin:round; stroke-width:2; stroke-opacity:0.1; fill:none" points="1237.7,1865.17 1237.7,47.2441 "/>
<polyline clip-path="url(#clip182)" style="stroke:#000000; stroke-linecap:round; stroke-linejoin:round; stroke-width:2; stroke-opacity:0.1; fill:none" points="1595.23,1865.17 1595.23,47.2441 "/>
<polyline clip-path="url(#clip182)" style="stroke:#000000; stroke-linecap:round; stroke-linejoin:round; stroke-width:2; stroke-opacity:0.1; fill:none" points="1952.76,1865.17 1952.76,47.2441 "/>
<polyline clip-path="url(#clip180)" style="stroke:#000000; stroke-linecap:round; stroke-linejoin:round; stroke-width:4; stroke-opacity:1; fill:none" points="165.121,1865.17 1952.76,1865.17 "/>
<polyline clip-path="url(#clip180)" style="stroke:#000000; stroke-linecap:round; stroke-linejoin:round; stroke-width:4; stroke-opacity:1; fill:none" points="165.121,1865.17 165.121,1846.27 "/>
<polyline clip-path="url(#clip180)" style="stroke:#000000; stroke-linecap:round; stroke-linejoin:round; stroke-width:4; stroke-opacity:1; fill:none" points="522.648,1865.17 522.648,1846.27 "/>
<polyline clip-path="url(#clip180)" style="stroke:#000000; stroke-linecap:round; stroke-linejoin:round; stroke-width:4; stroke-opacity:1; fill:none" points="880.175,1865.17 880.175,1846.27 "/>
<polyline clip-path="url(#clip180)" style="stroke:#000000; stroke-linecap:round; stroke-linejoin:round; stroke-width:4; stroke-opacity:1; fill:none" points="1237.7,1865.17 1237.7,1846.27 "/>
<polyline clip-path="url(#clip180)" style="stroke:#000000; stroke-linecap:round; stroke-linejoin:round; stroke-width:4; stroke-opacity:1; fill:none" points="1595.23,1865.17 1595.23,1846.27 "/>
<polyline clip-path="url(#clip180)" style="stroke:#000000; stroke-linecap:round; stroke-linejoin:round; stroke-width:4; stroke-opacity:1; fill:none" points="1952.76,1865.17 1952.76,1846.27 "/>
<path clip-path="url(#clip180)" d="M165.121 1892.89 Q161.51 1892.89 159.682 1896.45 Q157.876 1899.99 157.876 1907.12 Q157.876 1914.23 159.682 1917.79 Q161.51 1921.34 165.121 1921.34 Q168.756 1921.34 170.561 1917.79 Q172.39 1914.23 172.39 1907.12 Q172.39 1899.99 170.561 1896.45 Q168.756 1892.89 165.121 1892.89 M165.121 1889.18 Q170.931 1889.18 173.987 1893.79 Q177.066 1898.37 177.066 1907.12 Q177.066 1915.85 173.987 1920.46 Q170.931 1925.04 165.121 1925.04 Q159.311 1925.04 156.232 1920.46 Q153.177 1915.85 153.177 1907.12 Q153.177 1898.37 156.232 1893.79 Q159.311 1889.18 165.121 1889.18 Z" fill="#000000" fill-rule="nonzero" fill-opacity="1" /><path clip-path="url(#clip180)" d="M501.421 1920.43 L517.741 1920.43 L517.741 1924.37 L495.797 1924.37 L495.797 1920.43 Q498.459 1917.68 503.042 1913.05 Q507.648 1908.4 508.829 1907.05 Q511.074 1904.53 511.954 1902.79 Q512.857 1901.03 512.857 1899.34 Q512.857 1896.59 510.912 1894.85 Q508.991 1893.12 505.889 1893.12 Q503.69 1893.12 501.236 1893.88 Q498.806 1894.65 496.028 1896.2 L496.028 1891.47 Q498.852 1890.34 501.306 1889.76 Q503.759 1889.18 505.796 1889.18 Q511.167 1889.18 514.361 1891.87 Q517.556 1894.55 517.556 1899.04 Q517.556 1901.17 516.745 1903.09 Q515.958 1904.99 513.852 1907.59 Q513.273 1908.26 510.171 1911.47 Q507.07 1914.67 501.421 1920.43 Z" fill="#000000" fill-rule="nonzero" fill-opacity="1" /><path clip-path="url(#clip180)" d="M537.556 1892.89 Q533.944 1892.89 532.116 1896.45 Q530.31 1899.99 530.31 1907.12 Q530.31 1914.23 532.116 1917.79 Q533.944 1921.34 537.556 1921.34 Q541.19 1921.34 542.995 1917.79 Q544.824 1914.23 544.824 1907.12 Q544.824 1899.99 542.995 1896.45 Q541.19 1892.89 537.556 1892.89 M537.556 1889.18 Q543.366 1889.18 546.421 1893.79 Q549.5 1898.37 549.5 1907.12 Q549.5 1915.85 546.421 1920.46 Q543.366 1925.04 537.556 1925.04 Q531.745 1925.04 528.667 1920.46 Q525.611 1915.85 525.611 1907.12 Q525.611 1898.37 528.667 1893.79 Q531.745 1889.18 537.556 1889.18 Z" fill="#000000" fill-rule="nonzero" fill-opacity="1" /><path clip-path="url(#clip180)" d="M868.347 1893.88 L856.541 1912.33 L868.347 1912.33 L868.347 1893.88 M867.12 1889.81 L872.999 1889.81 L872.999 1912.33 L877.93 1912.33 L877.93 1916.22 L872.999 1916.22 L872.999 1924.37 L868.347 1924.37 L868.347 1916.22 L852.745 1916.22 L852.745 1911.71 L867.12 1889.81 Z" fill="#000000" fill-rule="nonzero" fill-opacity="1" /><path clip-path="url(#clip180)" d="M895.661 1892.89 Q892.05 1892.89 890.221 1896.45 Q888.416 1899.99 888.416 1907.12 Q888.416 1914.23 890.221 1917.79 Q892.05 1921.34 895.661 1921.34 Q899.295 1921.34 901.101 1917.79 Q902.93 1914.23 902.93 1907.12 Q902.93 1899.99 901.101 1896.45 Q899.295 1892.89 895.661 1892.89 M895.661 1889.18 Q901.471 1889.18 904.527 1893.79 Q907.606 1898.37 907.606 1907.12 Q907.606 1915.85 904.527 1920.46 Q901.471 1925.04 895.661 1925.04 Q889.851 1925.04 886.772 1920.46 Q883.717 1915.85 883.717 1907.12 Q883.717 1898.37 886.772 1893.79 Q889.851 1889.18 895.661 1889.18 Z" fill="#000000" fill-rule="nonzero" fill-opacity="1" /><path clip-path="url(#clip180)" d="M1223.11 1905.22 Q1219.96 1905.22 1218.11 1907.38 Q1216.28 1909.53 1216.28 1913.28 Q1216.28 1917.01 1218.11 1919.18 Q1219.96 1921.34 1223.11 1921.34 Q1226.26 1921.34 1228.08 1919.18 Q1229.94 1917.01 1229.94 1913.28 Q1229.94 1909.53 1228.08 1907.38 Q1226.26 1905.22 1223.11 1905.22 M1232.39 1890.57 L1232.39 1894.83 Q1230.63 1894 1228.82 1893.56 Q1227.04 1893.12 1225.28 1893.12 Q1220.65 1893.12 1218.2 1896.24 Q1215.77 1899.37 1215.42 1905.69 Q1216.79 1903.67 1218.85 1902.61 Q1220.91 1901.52 1223.39 1901.52 Q1228.59 1901.52 1231.6 1904.69 Q1234.63 1907.84 1234.63 1913.28 Q1234.63 1918.6 1231.49 1921.82 Q1228.34 1925.04 1223.11 1925.04 Q1217.11 1925.04 1213.94 1920.46 Q1210.77 1915.85 1210.77 1907.12 Q1210.77 1898.93 1214.66 1894.07 Q1218.55 1889.18 1225.1 1889.18 Q1226.86 1889.18 1228.64 1889.53 Q1230.45 1889.88 1232.39 1890.57 Z" fill="#000000" fill-rule="nonzero" fill-opacity="1" /><path clip-path="url(#clip180)" d="M1252.69 1892.89 Q1249.08 1892.89 1247.25 1896.45 Q1245.45 1899.99 1245.45 1907.12 Q1245.45 1914.23 1247.25 1917.79 Q1249.08 1921.34 1252.69 1921.34 Q1256.32 1921.34 1258.13 1917.79 Q1259.96 1914.23 1259.96 1907.12 Q1259.96 1899.99 1258.13 1896.45 Q1256.32 1892.89 1252.69 1892.89 M1252.69 1889.18 Q1258.5 1889.18 1261.56 1893.79 Q1264.63 1898.37 1264.63 1907.12 Q1264.63 1915.85 1261.56 1920.46 Q1258.5 1925.04 1252.69 1925.04 Q1246.88 1925.04 1243.8 1920.46 Q1240.75 1915.85 1240.75 1907.12 Q1240.75 1898.37 1243.8 1893.79 Q1246.88 1889.18 1252.69 1889.18 Z" fill="#000000" fill-rule="nonzero" fill-opacity="1" /><path clip-path="url(#clip180)" d="M1580.1 1907.96 Q1576.77 1907.96 1574.85 1909.74 Q1572.95 1911.52 1572.95 1914.65 Q1572.95 1917.77 1574.85 1919.55 Q1576.77 1921.34 1580.1 1921.34 Q1583.44 1921.34 1585.36 1919.55 Q1587.28 1917.75 1587.28 1914.65 Q1587.28 1911.52 1585.36 1909.74 Q1583.46 1907.96 1580.1 1907.96 M1575.43 1905.97 Q1572.42 1905.22 1570.73 1903.16 Q1569.06 1901.1 1569.06 1898.14 Q1569.06 1894 1572 1891.59 Q1574.96 1889.18 1580.1 1889.18 Q1585.26 1889.18 1588.2 1891.59 Q1591.14 1894 1591.14 1898.14 Q1591.14 1901.1 1589.45 1903.16 Q1587.79 1905.22 1584.8 1905.97 Q1588.18 1906.75 1590.06 1909.04 Q1591.95 1911.34 1591.95 1914.65 Q1591.95 1919.67 1588.87 1922.35 Q1585.82 1925.04 1580.1 1925.04 Q1574.38 1925.04 1571.31 1922.35 Q1568.25 1919.67 1568.25 1914.65 Q1568.25 1911.34 1570.15 1909.04 Q1572.05 1906.75 1575.43 1905.97 M1573.71 1898.58 Q1573.71 1901.27 1575.38 1902.77 Q1577.07 1904.28 1580.1 1904.28 Q1583.11 1904.28 1584.8 1902.77 Q1586.51 1901.27 1586.51 1898.58 Q1586.51 1895.9 1584.8 1894.39 Q1583.11 1892.89 1580.1 1892.89 Q1577.07 1892.89 1575.38 1894.39 Q1573.71 1895.9 1573.71 1898.58 Z" fill="#000000" fill-rule="nonzero" fill-opacity="1" /><path clip-path="url(#clip180)" d="M1610.26 1892.89 Q1606.65 1892.89 1604.82 1896.45 Q1603.02 1899.99 1603.02 1907.12 Q1603.02 1914.23 1604.82 1917.79 Q1606.65 1921.34 1610.26 1921.34 Q1613.9 1921.34 1615.7 1917.79 Q1617.53 1914.23 1617.53 1907.12 Q1617.53 1899.99 1615.7 1896.45 Q1613.9 1892.89 1610.26 1892.89 M1610.26 1889.18 Q1616.07 1889.18 1619.13 1893.79 Q1622.21 1898.37 1622.21 1907.12 Q1622.21 1915.85 1619.13 1920.46 Q1616.07 1925.04 1610.26 1925.04 Q1604.45 1925.04 1601.37 1920.46 Q1598.32 1915.85 1598.32 1907.12 Q1598.32 1898.37 1601.37 1893.79 Q1604.45 1889.18 1610.26 1889.18 Z" fill="#000000" fill-rule="nonzero" fill-opacity="1" /><path clip-path="url(#clip180)" d="M1912.36 1920.43 L1920 1920.43 L1920 1894.07 L1911.69 1895.73 L1911.69 1891.47 L1919.96 1889.81 L1924.63 1889.81 L1924.63 1920.43 L1932.27 1920.43 L1932.27 1924.37 L1912.36 1924.37 L1912.36 1920.43 Z" fill="#000000" fill-rule="nonzero" fill-opacity="1" /><path clip-path="url(#clip180)" d="M1951.71 1892.89 Q1948.1 1892.89 1946.27 1896.45 Q1944.47 1899.99 1944.47 1907.12 Q1944.47 1914.23 1946.27 1917.79 Q1948.1 1921.34 1951.71 1921.34 Q1955.35 1921.34 1957.15 1917.79 Q1958.98 1914.23 1958.98 1907.12 Q1958.98 1899.99 1957.15 1896.45 Q1955.35 1892.89 1951.71 1892.89 M1951.71 1889.18 Q1957.52 1889.18 1960.58 1893.79 Q1963.66 1898.37 1963.66 1907.12 Q1963.66 1915.85 1960.58 1920.46 Q1957.52 1925.04 1951.71 1925.04 Q1945.9 1925.04 1942.83 1920.46 Q1939.77 1915.85 1939.77 1907.12 Q1939.77 1898.37 1942.83 1893.79 Q1945.9 1889.18 1951.71 1889.18 Z" fill="#000000" fill-rule="nonzero" fill-opacity="1" /><path clip-path="url(#clip180)" d="M1981.88 1892.89 Q1978.27 1892.89 1976.44 1896.45 Q1974.63 1899.99 1974.63 1907.12 Q1974.63 1914.23 1976.44 1917.79 Q1978.27 1921.34 1981.88 1921.34 Q1985.51 1921.34 1987.32 1917.79 Q1989.14 1914.23 1989.14 1907.12 Q1989.14 1899.99 1987.32 1896.45 Q1985.51 1892.89 1981.88 1892.89 M1981.88 1889.18 Q1987.69 1889.18 1990.74 1893.79 Q1993.82 1898.37 1993.82 1907.12 Q1993.82 1915.85 1990.74 1920.46 Q1987.69 1925.04 1981.88 1925.04 Q1976.07 1925.04 1972.99 1920.46 Q1969.93 1915.85 1969.93 1907.12 Q1969.93 1898.37 1972.99 1893.79 Q1976.07 1889.18 1981.88 1889.18 Z" fill="#000000" fill-rule="nonzero" fill-opacity="1" /><polyline clip-path="url(#clip182)" style="stroke:#000000; stroke-linecap:round; stroke-linejoin:round; stroke-width:2; stroke-opacity:0.1; fill:none" points="165.121,1865.17 1952.76,1865.17 "/>
<polyline clip-path="url(#clip182)" style="stroke:#000000; stroke-linecap:round; stroke-linejoin:round; stroke-width:2; stroke-opacity:0.1; fill:none" points="165.121,1501.58 1952.76,1501.58 "/>
<polyline clip-path="url(#clip182)" style="stroke:#000000; stroke-linecap:round; stroke-linejoin:round; stroke-width:2; stroke-opacity:0.1; fill:none" points="165.121,1138 1952.76,1138 "/>
<polyline clip-path="url(#clip182)" style="stroke:#000000; stroke-linecap:round; stroke-linejoin:round; stroke-width:2; stroke-opacity:0.1; fill:none" points="165.121,774.414 1952.76,774.414 "/>
<polyline clip-path="url(#clip182)" style="stroke:#000000; stroke-linecap:round; stroke-linejoin:round; stroke-width:2; stroke-opacity:0.1; fill:none" points="165.121,410.829 1952.76,410.829 "/>
<polyline clip-path="url(#clip182)" style="stroke:#000000; stroke-linecap:round; stroke-linejoin:round; stroke-width:2; stroke-opacity:0.1; fill:none" points="165.121,47.2441 1952.76,47.2441 "/>
<polyline clip-path="url(#clip180)" style="stroke:#000000; stroke-linecap:round; stroke-linejoin:round; stroke-width:4; stroke-opacity:1; fill:none" points="165.121,1865.17 165.121,47.2441 "/>
<polyline clip-path="url(#clip180)" style="stroke:#000000; stroke-linecap:round; stroke-linejoin:round; stroke-width:4; stroke-opacity:1; fill:none" points="165.121,1865.17 184.019,1865.17 "/>
<polyline clip-path="url(#clip180)" style="stroke:#000000; stroke-linecap:round; stroke-linejoin:round; stroke-width:4; stroke-opacity:1; fill:none" points="165.121,1501.58 184.019,1501.58 "/>
<polyline clip-path="url(#clip180)" style="stroke:#000000; stroke-linecap:round; stroke-linejoin:round; stroke-width:4; stroke-opacity:1; fill:none" points="165.121,1138 184.019,1138 "/>
<polyline clip-path="url(#clip180)" style="stroke:#000000; stroke-linecap:round; stroke-linejoin:round; stroke-width:4; stroke-opacity:1; fill:none" points="165.121,774.414 184.019,774.414 "/>
<polyline clip-path="url(#clip180)" style="stroke:#000000; stroke-linecap:round; stroke-linejoin:round; stroke-width:4; stroke-opacity:1; fill:none" points="165.121,410.829 184.019,410.829 "/>
<polyline clip-path="url(#clip180)" style="stroke:#000000; stroke-linecap:round; stroke-linejoin:round; stroke-width:4; stroke-opacity:1; fill:none" points="165.121,47.2441 184.019,47.2441 "/>
<path clip-path="url(#clip180)" d="M123.177 1850.97 Q119.566 1850.97 117.737 1854.53 Q115.932 1858.07 115.932 1865.2 Q115.932 1872.31 117.737 1875.87 Q119.566 1879.42 123.177 1879.42 Q126.811 1879.42 128.617 1875.87 Q130.445 1872.31 130.445 1865.2 Q130.445 1858.07 128.617 1854.53 Q126.811 1850.97 123.177 1850.97 M123.177 1847.26 Q128.987 1847.26 132.043 1851.87 Q135.121 1856.45 135.121 1865.2 Q135.121 1873.93 132.043 1878.54 Q128.987 1883.12 123.177 1883.12 Q117.367 1883.12 114.288 1878.54 Q111.233 1873.93 111.233 1865.2 Q111.233 1856.45 114.288 1851.87 Q117.367 1847.26 123.177 1847.26 Z" fill="#000000" fill-rule="nonzero" fill-opacity="1" /><path clip-path="url(#clip180)" d="M87.0429 1514.93 L103.362 1514.93 L103.362 1518.86 L81.4179 1518.86 L81.4179 1514.93 Q84.0799 1512.17 88.6632 1507.54 Q93.2697 1502.89 94.4502 1501.55 Q96.6956 1499.03 97.5752 1497.29 Q98.478 1495.53 98.478 1493.84 Q98.478 1491.09 96.5336 1489.35 Q94.6123 1487.61 91.5104 1487.61 Q89.3114 1487.61 86.8577 1488.38 Q84.4271 1489.14 81.6494 1490.69 L81.6494 1485.97 Q84.4734 1484.84 86.9271 1484.26 Q89.3808 1483.68 91.4178 1483.68 Q96.7882 1483.68 99.9826 1486.36 Q103.177 1489.05 103.177 1493.54 Q103.177 1495.67 102.367 1497.59 Q101.58 1499.49 99.4734 1502.08 Q98.8947 1502.75 95.7928 1505.97 Q92.691 1509.16 87.0429 1514.93 Z" fill="#000000" fill-rule="nonzero" fill-opacity="1" /><path clip-path="url(#clip180)" d="M123.177 1487.38 Q119.566 1487.38 117.737 1490.95 Q115.932 1494.49 115.932 1501.62 Q115.932 1508.72 117.737 1512.29 Q119.566 1515.83 123.177 1515.83 Q126.811 1515.83 128.617 1512.29 Q130.445 1508.72 130.445 1501.62 Q130.445 1494.49 128.617 1490.95 Q126.811 1487.38 123.177 1487.38 M123.177 1483.68 Q128.987 1483.68 132.043 1488.28 Q135.121 1492.87 135.121 1501.62 Q135.121 1510.34 132.043 1514.95 Q128.987 1519.53 123.177 1519.53 Q117.367 1519.53 114.288 1514.95 Q111.233 1510.34 111.233 1501.62 Q111.233 1492.87 114.288 1488.28 Q117.367 1483.68 123.177 1483.68 Z" fill="#000000" fill-rule="nonzero" fill-opacity="1" /><path clip-path="url(#clip180)" d="M95.8623 1124.79 L84.0568 1143.24 L95.8623 1143.24 L95.8623 1124.79 M94.6354 1120.72 L100.515 1120.72 L100.515 1143.24 L105.446 1143.24 L105.446 1147.13 L100.515 1147.13 L100.515 1155.28 L95.8623 1155.28 L95.8623 1147.13 L80.2605 1147.13 L80.2605 1142.62 L94.6354 1120.72 Z" fill="#000000" fill-rule="nonzero" fill-opacity="1" /><path clip-path="url(#clip180)" d="M123.177 1123.8 Q119.566 1123.8 117.737 1127.36 Q115.932 1130.9 115.932 1138.03 Q115.932 1145.14 117.737 1148.7 Q119.566 1152.25 123.177 1152.25 Q126.811 1152.25 128.617 1148.7 Q130.445 1145.14 130.445 1138.03 Q130.445 1130.9 128.617 1127.36 Q126.811 1123.8 123.177 1123.8 M123.177 1120.09 Q128.987 1120.09 132.043 1124.7 Q135.121 1129.28 135.121 1138.03 Q135.121 1146.76 132.043 1151.37 Q128.987 1155.95 123.177 1155.95 Q117.367 1155.95 114.288 1151.37 Q111.233 1146.76 111.233 1138.03 Q111.233 1129.28 114.288 1124.7 Q117.367 1120.09 123.177 1120.09 Z" fill="#000000" fill-rule="nonzero" fill-opacity="1" /><path clip-path="url(#clip180)" d="M93.5938 772.55 Q90.4456 772.55 88.5938 774.703 Q86.7651 776.856 86.7651 780.606 Q86.7651 784.333 88.5938 786.508 Q90.4456 788.661 93.5938 788.661 Q96.7419 788.661 98.5706 786.508 Q100.422 784.333 100.422 780.606 Q100.422 776.856 98.5706 774.703 Q96.7419 772.55 93.5938 772.55 M102.876 757.897 L102.876 762.157 Q101.117 761.323 99.3113 760.884 Q97.5289 760.444 95.7697 760.444 Q91.1401 760.444 88.6864 763.569 Q86.2558 766.694 85.9086 773.013 Q87.2743 770.999 89.3345 769.934 Q91.3947 768.847 93.8715 768.847 Q99.0798 768.847 102.089 772.018 Q105.121 775.166 105.121 780.606 Q105.121 785.93 101.973 789.147 Q98.8252 792.365 93.5938 792.365 Q87.5984 792.365 84.4271 787.782 Q81.2559 783.175 81.2559 774.448 Q81.2559 766.254 85.1447 761.393 Q89.0336 756.509 95.5845 756.509 Q97.3437 756.509 99.1261 756.856 Q100.932 757.203 102.876 757.897 Z" fill="#000000" fill-rule="nonzero" fill-opacity="1" /><path clip-path="url(#clip180)" d="M123.177 760.212 Q119.566 760.212 117.737 763.777 Q115.932 767.319 115.932 774.448 Q115.932 781.555 117.737 785.12 Q119.566 788.661 123.177 788.661 Q126.811 788.661 128.617 785.12 Q130.445 781.555 130.445 774.448 Q130.445 767.319 128.617 763.777 Q126.811 760.212 123.177 760.212 M123.177 756.509 Q128.987 756.509 132.043 761.115 Q135.121 765.698 135.121 774.448 Q135.121 783.175 132.043 787.782 Q128.987 792.365 123.177 792.365 Q117.367 792.365 114.288 787.782 Q111.233 783.175 111.233 774.448 Q111.233 765.698 114.288 761.115 Q117.367 756.509 123.177 756.509 Z" fill="#000000" fill-rule="nonzero" fill-opacity="1" /><path clip-path="url(#clip180)" d="M93.0151 411.697 Q89.6817 411.697 87.7605 413.479 Q85.8623 415.262 85.8623 418.387 Q85.8623 421.512 87.7605 423.294 Q89.6817 425.076 93.0151 425.076 Q96.3484 425.076 98.2697 423.294 Q100.191 421.489 100.191 418.387 Q100.191 415.262 98.2697 413.479 Q96.3715 411.697 93.0151 411.697 M88.3392 409.706 Q85.3299 408.965 83.6401 406.905 Q81.9735 404.845 81.9735 401.882 Q81.9735 397.739 84.9133 395.331 Q87.8762 392.924 93.0151 392.924 Q98.1771 392.924 101.117 395.331 Q104.057 397.739 104.057 401.882 Q104.057 404.845 102.367 406.905 Q100.7 408.965 97.7141 409.706 Q101.094 410.493 102.969 412.785 Q104.867 415.077 104.867 418.387 Q104.867 423.41 101.788 426.095 Q98.7326 428.78 93.0151 428.78 Q87.2975 428.78 84.2188 426.095 Q81.1633 423.41 81.1633 418.387 Q81.1633 415.077 83.0614 412.785 Q84.9595 410.493 88.3392 409.706 M86.6262 402.322 Q86.6262 405.007 88.2929 406.512 Q89.9827 408.016 93.0151 408.016 Q96.0243 408.016 97.7141 406.512 Q99.4271 405.007 99.4271 402.322 Q99.4271 399.637 97.7141 398.132 Q96.0243 396.628 93.0151 396.628 Q89.9827 396.628 88.2929 398.132 Q86.6262 399.637 86.6262 402.322 Z" fill="#000000" fill-rule="nonzero" fill-opacity="1" /><path clip-path="url(#clip180)" d="M123.177 396.628 Q119.566 396.628 117.737 400.192 Q115.932 403.734 115.932 410.864 Q115.932 417.97 117.737 421.535 Q119.566 425.076 123.177 425.076 Q126.811 425.076 128.617 421.535 Q130.445 417.97 130.445 410.864 Q130.445 403.734 128.617 400.192 Q126.811 396.628 123.177 396.628 M123.177 392.924 Q128.987 392.924 132.043 397.53 Q135.121 402.114 135.121 410.864 Q135.121 419.59 132.043 424.197 Q128.987 428.78 123.177 428.78 Q117.367 428.78 114.288 424.197 Q111.233 419.59 111.233 410.864 Q111.233 402.114 114.288 397.53 Q117.367 392.924 123.177 392.924 Z" fill="#000000" fill-rule="nonzero" fill-opacity="1" /><path clip-path="url(#clip180)" d="M53.6634 60.5889 L61.3023 60.5889 L61.3023 34.2233 L52.9921 35.89 L52.9921 31.6308 L61.256 29.9641 L65.9319 29.9641 L65.9319 60.5889 L73.5707 60.5889 L73.5707 64.5241 L53.6634 64.5241 L53.6634 60.5889 Z" fill="#000000" fill-rule="nonzero" fill-opacity="1" /><path clip-path="url(#clip180)" d="M93.0151 33.0428 Q89.404 33.0428 87.5753 36.6076 Q85.7697 40.1492 85.7697 47.2788 Q85.7697 54.3853 87.5753 57.9501 Q89.404 61.4917 93.0151 61.4917 Q96.6493 61.4917 98.4548 57.9501 Q100.284 54.3853 100.284 47.2788 Q100.284 40.1492 98.4548 36.6076 Q96.6493 33.0428 93.0151 33.0428 M93.0151 29.3391 Q98.8252 29.3391 101.881 33.9456 Q104.959 38.5289 104.959 47.2788 Q104.959 56.0056 101.881 60.6121 Q98.8252 65.1954 93.0151 65.1954 Q87.2049 65.1954 84.1262 60.6121 Q81.0707 56.0056 81.0707 47.2788 Q81.0707 38.5289 84.1262 33.9456 Q87.2049 29.3391 93.0151 29.3391 Z" fill="#000000" fill-rule="nonzero" fill-opacity="1" /><path clip-path="url(#clip180)" d="M123.177 33.0428 Q119.566 33.0428 117.737 36.6076 Q115.932 40.1492 115.932 47.2788 Q115.932 54.3853 117.737 57.9501 Q119.566 61.4917 123.177 61.4917 Q126.811 61.4917 128.617 57.9501 Q130.445 54.3853 130.445 47.2788 Q130.445 40.1492 128.617 36.6076 Q126.811 33.0428 123.177 33.0428 M123.177 29.3391 Q128.987 29.3391 132.043 33.9456 Q135.121 38.5289 135.121 47.2788 Q135.121 56.0056 132.043 60.6121 Q128.987 65.1954 123.177 65.1954 Q117.367 65.1954 114.288 60.6121 Q111.233 56.0056 111.233 47.2788 Q111.233 38.5289 114.288 33.9456 Q117.367 29.3391 123.177 29.3391 Z" fill="#000000" fill-rule="nonzero" fill-opacity="1" /><circle clip-path="url(#clip182)" cx="975.677" cy="138.429" r="14.4" fill="#009af9" fill-rule="evenodd" fill-opacity="1" stroke="#000000" stroke-opacity="1" stroke-width="4"/>
<circle clip-path="url(#clip182)" cx="1049.7" cy="386.782" r="14.4" fill="#009af9" fill-rule="evenodd" fill-opacity="1" stroke="#000000" stroke-opacity="1" stroke-width="4"/>
<circle clip-path="url(#clip182)" cx="711.115" cy="364.248" r="14.4" fill="#009af9" fill-rule="evenodd" fill-opacity="1" stroke="#000000" stroke-opacity="1" stroke-width="4"/>
<circle clip-path="url(#clip182)" cx="825.81" cy="893.046" r="14.4" fill="#009af9" fill-rule="evenodd" fill-opacity="1" stroke="#000000" stroke-opacity="1" stroke-width="4"/>
<circle clip-path="url(#clip182)" cx="1388.13" cy="1411.56" r="14.4" fill="#009af9" fill-rule="evenodd" fill-opacity="1" stroke="#000000" stroke-opacity="1" stroke-width="4"/>
<circle clip-path="url(#clip182)" cx="771.221" cy="644.793" r="14.4" fill="#009af9" fill-rule="evenodd" fill-opacity="1" stroke="#000000" stroke-opacity="1" stroke-width="4"/>
<circle clip-path="url(#clip182)" cx="856.034" cy="902.713" r="14.4" fill="#009af9" fill-rule="evenodd" fill-opacity="1" stroke="#000000" stroke-opacity="1" stroke-width="4"/>
<circle clip-path="url(#clip182)" cx="907.432" cy="114.484" r="14.4" fill="#009af9" fill-rule="evenodd" fill-opacity="1" stroke="#000000" stroke-opacity="1" stroke-width="4"/>
<circle clip-path="url(#clip182)" cx="715.542" cy="1190.58" r="14.4" fill="#009af9" fill-rule="evenodd" fill-opacity="1" stroke="#000000" stroke-opacity="1" stroke-width="4"/>
<circle clip-path="url(#clip182)" cx="395.587" cy="410.149" r="14.4" fill="#009af9" fill-rule="evenodd" fill-opacity="1" stroke="#000000" stroke-opacity="1" stroke-width="4"/>
<circle clip-path="url(#clip182)" cx="1399.58" cy="1854.92" r="14.4" fill="#009af9" fill-rule="evenodd" fill-opacity="1" stroke="#000000" stroke-opacity="1" stroke-width="4"/>
<circle clip-path="url(#clip182)" cx="1285.02" cy="274.766" r="14.4" fill="#009af9" fill-rule="evenodd" fill-opacity="1" stroke="#000000" stroke-opacity="1" stroke-width="4"/>
<circle clip-path="url(#clip182)" cx="1167.84" cy="793.122" r="14.4" fill="#009af9" fill-rule="evenodd" fill-opacity="1" stroke="#000000" stroke-opacity="1" stroke-width="4"/>
<circle clip-path="url(#clip182)" cx="1686.08" cy="929.901" r="14.4" fill="#009af9" fill-rule="evenodd" fill-opacity="1" stroke="#000000" stroke-opacity="1" stroke-width="4"/>
<circle clip-path="url(#clip182)" cx="1321.63" cy="424.496" r="14.4" fill="#009af9" fill-rule="evenodd" fill-opacity="1" stroke="#000000" stroke-opacity="1" stroke-width="4"/>
<circle clip-path="url(#clip182)" cx="861.098" cy="1855.23" r="14.4" fill="#009af9" fill-rule="evenodd" fill-opacity="1" stroke="#000000" stroke-opacity="1" stroke-width="4"/>
<circle clip-path="url(#clip182)" cx="610.588" cy="981.594" r="14.4" fill="#009af9" fill-rule="evenodd" fill-opacity="1" stroke="#000000" stroke-opacity="1" stroke-width="4"/>
<circle clip-path="url(#clip182)" cx="1562.24" cy="1330.97" r="14.4" fill="#009af9" fill-rule="evenodd" fill-opacity="1" stroke="#000000" stroke-opacity="1" stroke-width="4"/>
<circle clip-path="url(#clip182)" cx="989.946" cy="702.794" r="14.4" fill="#009af9" fill-rule="evenodd" fill-opacity="1" stroke="#000000" stroke-opacity="1" stroke-width="4"/>
<circle clip-path="url(#clip182)" cx="948.215" cy="1684.09" r="14.4" fill="#009af9" fill-rule="evenodd" fill-opacity="1" stroke="#000000" stroke-opacity="1" stroke-width="4"/>
<circle clip-path="url(#clip182)" cx="1058.94" cy="956.206" r="14.4" fill="#e26f46" fill-rule="evenodd" fill-opacity="1" stroke="#000000" stroke-opacity="1" stroke-width="4"/>
<path clip-path="url(#clip180)" d="M224.709 1068.64 L653.471 1068.64 L653.471 913.123 L224.709 913.123  Z" fill="#ffffff" fill-rule="evenodd" fill-opacity="1"/>
<polyline clip-path="url(#clip180)" style="stroke:#000000; stroke-linecap:round; stroke-linejoin:round; stroke-width:4; stroke-opacity:1; fill:none" points="224.709,1068.64 653.471,1068.64 653.471,913.123 224.709,913.123 224.709,1068.64 "/>
<circle clip-path="url(#clip180)" cx="304.16" cy="964.963" r="23.04" fill="#009af9" fill-rule="evenodd" fill-opacity="1" stroke="#000000" stroke-opacity="1" stroke-width="6.4"/>
<path clip-path="url(#clip180)" d="M411.48 950.345 L411.48 955.276 Q409.119 953.077 406.434 951.989 Q403.772 950.901 400.763 950.901 Q394.837 950.901 391.689 954.535 Q388.541 958.146 388.541 964.998 Q388.541 971.827 391.689 975.461 Q394.837 979.072 400.763 979.072 Q403.772 979.072 406.434 977.984 Q409.119 976.896 411.48 974.697 L411.48 979.581 Q409.027 981.248 406.272 982.081 Q403.54 982.915 400.485 982.915 Q392.638 982.915 388.124 978.123 Q383.61 973.308 383.61 964.998 Q383.61 956.665 388.124 951.873 Q392.638 947.058 400.485 947.058 Q403.587 947.058 406.318 947.892 Q409.073 948.702 411.48 950.345 Z" fill="#000000" fill-rule="nonzero" fill-opacity="1" /><path clip-path="url(#clip180)" d="M418.077 972.012 L418.077 956.318 L422.337 956.318 L422.337 971.85 Q422.337 975.531 423.772 977.382 Q425.207 979.211 428.077 979.211 Q431.526 979.211 433.517 977.012 Q435.531 974.813 435.531 971.017 L435.531 956.318 L439.79 956.318 L439.79 982.243 L435.531 982.243 L435.531 978.262 Q433.98 980.623 431.92 981.78 Q429.883 982.915 427.175 982.915 Q422.707 982.915 420.392 980.137 Q418.077 977.359 418.077 972.012 M428.795 955.693 L428.795 955.693 Z" fill="#000000" fill-rule="nonzero" fill-opacity="1" /><path clip-path="url(#clip180)" d="M465.091 957.082 L465.091 961.109 Q463.285 960.183 461.341 959.72 Q459.397 959.257 457.313 959.257 Q454.142 959.257 452.545 960.23 Q450.971 961.202 450.971 963.146 Q450.971 964.628 452.105 965.484 Q453.239 966.318 456.665 967.081 L458.123 967.406 Q462.66 968.378 464.559 970.16 Q466.48 971.919 466.48 975.091 Q466.48 978.702 463.61 980.808 Q460.762 982.915 455.762 982.915 Q453.679 982.915 451.411 982.498 Q449.165 982.105 446.665 981.294 L446.665 976.896 Q449.026 978.123 451.318 978.748 Q453.61 979.35 455.855 979.35 Q458.864 979.35 460.485 978.331 Q462.105 977.29 462.105 975.415 Q462.105 973.679 460.924 972.753 Q459.767 971.827 455.809 970.97 L454.327 970.623 Q450.369 969.79 448.61 968.077 Q446.85 966.341 446.85 963.332 Q446.85 959.674 449.443 957.683 Q452.036 955.693 456.804 955.693 Q459.165 955.693 461.248 956.04 Q463.332 956.387 465.091 957.082 Z" fill="#000000" fill-rule="nonzero" fill-opacity="1" /><path clip-path="url(#clip180)" d="M477.475 948.957 L477.475 956.318 L486.248 956.318 L486.248 959.628 L477.475 959.628 L477.475 973.702 Q477.475 976.873 478.332 977.776 Q479.211 978.679 481.873 978.679 L486.248 978.679 L486.248 982.243 L481.873 982.243 Q476.943 982.243 475.068 980.415 Q473.193 978.563 473.193 973.702 L473.193 959.628 L470.068 959.628 L470.068 956.318 L473.193 956.318 L473.193 948.957 L477.475 948.957 Z" fill="#000000" fill-rule="nonzero" fill-opacity="1" /><path clip-path="url(#clip180)" d="M501.896 959.304 Q498.47 959.304 496.48 961.989 Q494.489 964.651 494.489 969.304 Q494.489 973.956 496.457 976.642 Q498.447 979.304 501.896 979.304 Q505.299 979.304 507.29 976.618 Q509.281 973.933 509.281 969.304 Q509.281 964.697 507.29 962.012 Q505.299 959.304 501.896 959.304 M501.896 955.693 Q507.452 955.693 510.623 959.304 Q513.794 962.915 513.794 969.304 Q513.794 975.669 510.623 979.304 Q507.452 982.915 501.896 982.915 Q496.318 982.915 493.146 979.304 Q489.998 975.669 489.998 969.304 Q489.998 962.915 493.146 959.304 Q496.318 955.693 501.896 955.693 Z" fill="#000000" fill-rule="nonzero" fill-opacity="1" /><path clip-path="url(#clip180)" d="M541.04 961.294 Q542.637 958.424 544.859 957.058 Q547.081 955.693 550.091 955.693 Q554.141 955.693 556.341 958.54 Q558.54 961.364 558.54 966.595 L558.54 982.243 L554.257 982.243 L554.257 966.734 Q554.257 963.007 552.938 961.202 Q551.618 959.396 548.91 959.396 Q545.6 959.396 543.679 961.595 Q541.757 963.794 541.757 967.591 L541.757 982.243 L537.475 982.243 L537.475 966.734 Q537.475 962.984 536.155 961.202 Q534.836 959.396 532.081 959.396 Q528.818 959.396 526.896 961.619 Q524.975 963.818 524.975 967.591 L524.975 982.243 L520.693 982.243 L520.693 956.318 L524.975 956.318 L524.975 960.345 Q526.433 957.961 528.47 956.827 Q530.507 955.693 533.308 955.693 Q536.132 955.693 538.1 957.128 Q540.091 958.563 541.04 961.294 Z" fill="#000000" fill-rule="nonzero" fill-opacity="1" /><path clip-path="url(#clip180)" d="M589.211 968.216 L589.211 970.299 L569.628 970.299 Q569.905 974.697 572.266 977.012 Q574.651 979.304 578.887 979.304 Q581.34 979.304 583.632 978.702 Q585.947 978.1 588.215 976.896 L588.215 980.924 Q585.924 981.896 583.516 982.405 Q581.109 982.915 578.632 982.915 Q572.428 982.915 568.794 979.304 Q565.183 975.693 565.183 969.535 Q565.183 963.169 568.609 959.443 Q572.058 955.693 577.891 955.693 Q583.123 955.693 586.155 959.072 Q589.211 962.429 589.211 968.216 M584.952 966.966 Q584.905 963.47 582.984 961.387 Q581.086 959.304 577.938 959.304 Q574.373 959.304 572.22 961.318 Q570.09 963.332 569.766 966.989 L584.952 966.966 Z" fill="#000000" fill-rule="nonzero" fill-opacity="1" /><path clip-path="url(#clip180)" d="M611.225 960.299 Q610.507 959.882 609.65 959.697 Q608.817 959.489 607.799 959.489 Q604.188 959.489 602.243 961.85 Q600.322 964.188 600.322 968.586 L600.322 982.243 L596.039 982.243 L596.039 956.318 L600.322 956.318 L600.322 960.345 Q601.664 957.984 603.817 956.85 Q605.97 955.693 609.049 955.693 Q609.488 955.693 610.021 955.762 Q610.553 955.808 611.201 955.924 L611.225 960.299 Z" fill="#000000" fill-rule="nonzero" fill-opacity="1" /><path clip-path="url(#clip180)" d="M632.22 957.082 L632.22 961.109 Q630.414 960.183 628.47 959.72 Q626.525 959.257 624.442 959.257 Q621.271 959.257 619.674 960.23 Q618.099 961.202 618.099 963.146 Q618.099 964.628 619.234 965.484 Q620.368 966.318 623.794 967.081 L625.252 967.406 Q629.789 968.378 631.687 970.16 Q633.609 971.919 633.609 975.091 Q633.609 978.702 630.738 980.808 Q627.891 982.915 622.891 982.915 Q620.808 982.915 618.539 982.498 Q616.294 982.105 613.794 981.294 L613.794 976.896 Q616.155 978.123 618.447 978.748 Q620.738 979.35 622.984 979.35 Q625.993 979.35 627.613 978.331 Q629.234 977.29 629.234 975.415 Q629.234 973.679 628.053 972.753 Q626.896 971.827 622.937 970.97 L621.456 970.623 Q617.498 969.79 615.738 968.077 Q613.979 966.341 613.979 963.332 Q613.979 959.674 616.572 957.683 Q619.164 955.693 623.933 955.693 Q626.294 955.693 628.377 956.04 Q630.461 956.387 632.22 957.082 Z" fill="#000000" fill-rule="nonzero" fill-opacity="1" /><circle clip-path="url(#clip180)" cx="304.16" cy="1016.8" r="23.04" fill="#e26f46" fill-rule="evenodd" fill-opacity="1" stroke="#000000" stroke-opacity="1" stroke-width="6.4"/>
<path clip-path="url(#clip180)" d="M388.286 1003.37 L388.286 1030.24 L393.934 1030.24 Q401.087 1030.24 404.397 1027 Q407.73 1023.76 407.73 1016.77 Q407.73 1009.82 404.397 1006.61 Q401.087 1003.37 393.934 1003.37 L388.286 1003.37 M383.61 999.523 L393.216 999.523 Q403.263 999.523 407.962 1003.71 Q412.661 1007.88 412.661 1016.77 Q412.661 1025.7 407.939 1029.89 Q403.216 1034.08 393.216 1034.08 L383.61 1034.08 L383.61 999.523 Z" fill="#000000" fill-rule="nonzero" fill-opacity="1" /><path clip-path="url(#clip180)" d="M442.105 1020.06 L442.105 1022.14 L422.522 1022.14 Q422.8 1026.54 425.161 1028.85 Q427.545 1031.14 431.781 1031.14 Q434.235 1031.14 436.526 1030.54 Q438.841 1029.94 441.11 1028.74 L441.11 1032.76 Q438.818 1033.74 436.411 1034.25 Q434.003 1034.75 431.526 1034.75 Q425.323 1034.75 421.688 1031.14 Q418.077 1027.53 418.077 1021.38 Q418.077 1015.01 421.503 1011.28 Q424.952 1007.53 430.786 1007.53 Q436.017 1007.53 439.05 1010.91 Q442.105 1014.27 442.105 1020.06 M437.846 1018.81 Q437.8 1015.31 435.878 1013.23 Q433.98 1011.14 430.832 1011.14 Q427.267 1011.14 425.114 1013.16 Q422.985 1015.17 422.661 1018.83 L437.846 1018.81 Z" fill="#000000" fill-rule="nonzero" fill-opacity="1" /><path clip-path="url(#clip180)" d="M453.216 1030.19 L453.216 1043.94 L448.934 1043.94 L448.934 1008.16 L453.216 1008.16 L453.216 1012.09 Q454.559 1009.78 456.596 1008.67 Q458.656 1007.53 461.503 1007.53 Q466.225 1007.53 469.165 1011.28 Q472.128 1015.03 472.128 1021.14 Q472.128 1027.25 469.165 1031 Q466.225 1034.75 461.503 1034.75 Q458.656 1034.75 456.596 1033.64 Q454.559 1032.51 453.216 1030.19 M467.707 1021.14 Q467.707 1016.44 465.762 1013.78 Q463.841 1011.1 460.461 1011.1 Q457.082 1011.1 455.137 1013.78 Q453.216 1016.44 453.216 1021.14 Q453.216 1025.84 455.137 1028.53 Q457.082 1031.19 460.461 1031.19 Q463.841 1031.19 465.762 1028.53 Q467.707 1025.84 467.707 1021.14 Z" fill="#000000" fill-rule="nonzero" fill-opacity="1" /><path clip-path="url(#clip180)" d="M489.234 1011.14 Q485.809 1011.14 483.818 1013.83 Q481.827 1016.49 481.827 1021.14 Q481.827 1025.8 483.795 1028.48 Q485.785 1031.14 489.234 1031.14 Q492.637 1031.14 494.628 1028.46 Q496.619 1025.77 496.619 1021.14 Q496.619 1016.54 494.628 1013.85 Q492.637 1011.14 489.234 1011.14 M489.234 1007.53 Q494.79 1007.53 497.961 1011.14 Q501.133 1014.75 501.133 1021.14 Q501.133 1027.51 497.961 1031.14 Q494.79 1034.75 489.234 1034.75 Q483.656 1034.75 480.484 1031.14 Q477.336 1027.51 477.336 1021.14 Q477.336 1014.75 480.484 1011.14 Q483.656 1007.53 489.234 1007.53 Z" fill="#000000" fill-rule="nonzero" fill-opacity="1" /><path clip-path="url(#clip180)" d="M512.406 1000.8 L512.406 1008.16 L521.179 1008.16 L521.179 1011.47 L512.406 1011.47 L512.406 1025.54 Q512.406 1028.71 513.262 1029.62 Q514.142 1030.52 516.804 1030.52 L521.179 1030.52 L521.179 1034.08 L516.804 1034.08 Q511.873 1034.08 509.998 1032.25 Q508.123 1030.4 508.123 1025.54 L508.123 1011.47 L504.998 1011.47 L504.998 1008.16 L508.123 1008.16 L508.123 1000.8 L512.406 1000.8 Z" fill="#000000" fill-rule="nonzero" fill-opacity="1" /><path clip-path="url(#clip180)" d="M1012.47 107.244 L1025.84 107.244 L1025.84 61.1045 L1011.3 64.0212 L1011.3 56.5675 L1025.76 53.6509 L1033.94 53.6509 L1033.94 107.244 L1047.31 107.244 L1047.31 114.131 L1012.47 114.131 L1012.47 107.244 Z" fill="#000000" fill-rule="nonzero" fill-opacity="1" /><path clip-path="url(#clip180)" d="M1093.97 355.598 L1122.53 355.598 L1122.53 362.484 L1084.13 362.484 L1084.13 355.598 Q1088.79 350.777 1096.81 342.675 Q1104.87 334.533 1106.93 332.183 Q1110.86 327.768 1112.4 324.73 Q1113.98 321.651 1113.98 318.694 Q1113.98 313.873 1110.58 310.835 Q1107.22 307.797 1101.79 307.797 Q1097.94 307.797 1093.65 309.134 Q1089.39 310.471 1084.53 313.185 L1084.53 304.921 Q1089.48 302.936 1093.77 301.923 Q1098.06 300.91 1101.63 300.91 Q1111.03 300.91 1116.62 305.61 Q1122.21 310.309 1122.21 318.167 Q1122.21 321.894 1120.79 325.256 Q1119.41 328.578 1115.73 333.115 Q1114.71 334.29 1109.28 339.921 Q1103.86 345.511 1093.97 355.598 Z" fill="#000000" fill-rule="nonzero" fill-opacity="1" /><path clip-path="url(#clip180)" d="M772.177 307.34 Q778.051 308.596 781.332 312.566 Q784.654 316.536 784.654 322.369 Q784.654 331.322 778.496 336.223 Q772.339 341.125 760.997 341.125 Q757.189 341.125 753.138 340.355 Q749.127 339.626 744.833 338.127 L744.833 330.228 Q748.236 332.213 752.287 333.226 Q756.338 334.238 760.754 334.238 Q768.45 334.238 772.461 331.2 Q776.512 328.162 776.512 322.369 Q776.512 317.022 772.744 314.024 Q769.017 310.986 762.333 310.986 L755.285 310.986 L755.285 304.262 L762.657 304.262 Q768.693 304.262 771.894 301.872 Q775.094 299.441 775.094 294.904 Q775.094 290.246 771.772 287.775 Q768.491 285.263 762.333 285.263 Q758.971 285.263 755.123 285.992 Q751.274 286.721 746.656 288.261 L746.656 280.969 Q751.315 279.673 755.366 279.025 Q759.457 278.376 763.063 278.376 Q772.38 278.376 777.808 282.63 Q783.236 286.843 783.236 294.053 Q783.236 299.077 780.36 302.56 Q777.484 306.004 772.177 307.34 Z" fill="#000000" fill-rule="nonzero" fill-opacity="1" /><path clip-path="url(#clip180)" d="M884.705 815.398 L864.045 847.684 L884.705 847.684 L884.705 815.398 M882.558 808.268 L892.847 808.268 L892.847 847.684 L901.475 847.684 L901.475 854.489 L892.847 854.489 L892.847 868.748 L884.705 868.748 L884.705 854.489 L857.402 854.489 L857.402 846.59 L882.558 808.268 Z" fill="#000000" fill-rule="nonzero" fill-opacity="1" /><path clip-path="url(#clip180)" d="M1424.75 1326.78 L1456.87 1326.78 L1456.87 1333.67 L1432.24 1333.67 L1432.24 1348.49 Q1434.03 1347.88 1435.81 1347.6 Q1437.59 1347.28 1439.37 1347.28 Q1449.5 1347.28 1455.41 1352.83 Q1461.33 1358.38 1461.33 1367.86 Q1461.33 1377.62 1455.25 1383.05 Q1449.18 1388.43 1438.12 1388.43 Q1434.31 1388.43 1430.34 1387.79 Q1426.41 1387.14 1422.2 1385.84 L1422.2 1377.62 Q1425.84 1379.6 1429.73 1380.58 Q1433.62 1381.55 1437.96 1381.55 Q1444.96 1381.55 1449.05 1377.86 Q1453.15 1374.18 1453.15 1367.86 Q1453.15 1361.54 1449.05 1357.85 Q1444.96 1354.16 1437.96 1354.16 Q1434.67 1354.16 1431.39 1354.89 Q1428.15 1355.62 1424.75 1357.16 L1424.75 1326.78 Z" fill="#000000" fill-rule="nonzero" fill-opacity="1" /><path clip-path="url(#clip180)" d="M825.559 586.994 Q820.05 586.994 816.809 590.761 Q813.609 594.529 813.609 601.091 Q813.609 607.613 816.809 611.421 Q820.05 615.188 825.559 615.188 Q831.068 615.188 834.268 611.421 Q837.509 607.613 837.509 601.091 Q837.509 594.529 834.268 590.761 Q831.068 586.994 825.559 586.994 M841.803 561.352 L841.803 568.805 Q838.724 567.347 835.565 566.577 Q832.445 565.808 829.367 565.808 Q821.265 565.808 816.971 571.276 Q812.718 576.745 812.11 587.804 Q814.5 584.28 818.105 582.416 Q821.711 580.513 826.045 580.513 Q835.16 580.513 840.426 586.062 Q845.732 591.571 845.732 601.091 Q845.732 610.408 840.223 616.039 Q834.714 621.67 825.559 621.67 Q815.067 621.67 809.517 613.649 Q803.968 605.588 803.968 590.316 Q803.968 575.976 810.773 567.469 Q817.579 558.921 829.043 558.921 Q832.121 558.921 835.241 559.529 Q838.4 560.136 841.803 561.352 Z" fill="#000000" fill-rule="nonzero" fill-opacity="1" /><path clip-path="url(#clip180)" d="M890.218 817.935 L929.107 817.935 L929.107 821.419 L907.151 878.415 L898.604 878.415 L919.263 824.822 L890.218 824.822 L890.218 817.935 Z" fill="#000000" fill-rule="nonzero" fill-opacity="1" /><path clip-path="url(#clip180)" d="M961.061 61.4655 Q955.228 61.4655 951.865 64.5847 Q948.544 67.7039 948.544 73.1726 Q948.544 78.6413 951.865 81.7605 Q955.228 84.8797 961.061 84.8797 Q966.894 84.8797 970.256 81.7605 Q973.619 78.6008 973.619 73.1726 Q973.619 67.7039 970.256 64.5847 Q966.935 61.4655 961.061 61.4655 M952.878 57.9817 Q947.612 56.6854 944.655 53.0801 Q941.738 49.4748 941.738 44.2896 Q941.738 37.0385 946.883 32.8256 Q952.068 28.6126 961.061 28.6126 Q970.094 28.6126 975.239 32.8256 Q980.384 37.0385 980.384 44.2896 Q980.384 49.4748 977.426 53.0801 Q974.51 56.6854 969.284 57.9817 Q975.198 59.359 978.48 63.3694 Q981.801 67.3798 981.801 73.1726 Q981.801 81.9631 976.414 86.6621 Q971.067 91.3612 961.061 91.3612 Q951.055 91.3612 945.667 86.6621 Q940.32 81.9631 940.32 73.1726 Q940.32 67.3798 943.642 63.3694 Q946.964 59.359 952.878 57.9817 M949.88 45.0593 Q949.88 49.7584 952.797 52.3915 Q955.754 55.0245 961.061 55.0245 Q966.327 55.0245 969.284 52.3915 Q972.282 49.7584 972.282 45.0593 Q972.282 40.3603 969.284 37.7272 Q966.327 35.0941 961.061 35.0941 Q955.754 35.0941 952.797 37.7272 Q949.88 40.3603 949.88 45.0593 Z" fill="#000000" fill-rule="nonzero" fill-opacity="1" /><path clip-path="url(#clip180)" d="M752.198 1165.02 L752.198 1157.57 Q755.276 1159.03 758.436 1159.8 Q761.596 1160.57 764.634 1160.57 Q772.736 1160.57 776.989 1155.14 Q781.283 1149.67 781.891 1138.57 Q779.541 1142.05 775.936 1143.92 Q772.331 1145.78 767.956 1145.78 Q758.882 1145.78 753.575 1140.31 Q748.309 1134.8 748.309 1125.28 Q748.309 1115.97 753.818 1110.34 Q759.327 1104.7 768.482 1104.7 Q778.974 1104.7 784.483 1112.77 Q790.033 1120.79 790.033 1136.1 Q790.033 1150.4 783.228 1158.95 Q776.463 1167.45 764.998 1167.45 Q761.92 1167.45 758.76 1166.85 Q755.6 1166.24 752.198 1165.02 M768.482 1139.38 Q773.991 1139.38 777.192 1135.61 Q780.432 1131.85 780.432 1125.28 Q780.432 1118.76 777.192 1114.99 Q773.991 1111.19 768.482 1111.19 Q762.973 1111.19 759.732 1114.99 Q756.532 1118.76 756.532 1125.28 Q756.532 1131.85 759.732 1135.61 Q762.973 1139.38 768.482 1139.38 Z" fill="#000000" fill-rule="nonzero" fill-opacity="1" /><path clip-path="url(#clip180)" d="M404.919 378.965 L418.287 378.965 L418.287 332.825 L403.744 335.742 L403.744 328.288 L418.206 325.372 L426.389 325.372 L426.389 378.965 L439.757 378.965 L439.757 385.852 L404.919 385.852 L404.919 378.965 Z" fill="#000000" fill-rule="nonzero" fill-opacity="1" /><path clip-path="url(#clip180)" d="M473.784 330.759 Q467.465 330.759 464.265 336.998 Q461.105 343.196 461.105 355.672 Q461.105 368.109 464.265 374.347 Q467.465 380.545 473.784 380.545 Q480.144 380.545 483.304 374.347 Q486.504 368.109 486.504 355.672 Q486.504 343.196 483.304 336.998 Q480.144 330.759 473.784 330.759 M473.784 324.278 Q483.952 324.278 489.299 332.339 Q494.687 340.36 494.687 355.672 Q494.687 370.944 489.299 379.006 Q483.952 387.026 473.784 387.026 Q463.617 387.026 458.229 379.006 Q452.882 370.944 452.882 355.672 Q452.882 340.36 458.229 332.339 Q463.617 324.278 473.784 324.278 Z" fill="#000000" fill-rule="nonzero" fill-opacity="1" /><path clip-path="url(#clip180)" d="M1409.99 1823.74 L1423.35 1823.74 L1423.35 1777.6 L1408.81 1780.52 L1408.81 1773.06 L1423.27 1770.15 L1431.46 1770.15 L1431.46 1823.74 L1444.82 1823.74 L1444.82 1830.63 L1409.99 1830.63 L1409.99 1823.74 Z" fill="#000000" fill-rule="nonzero" fill-opacity="1" /><path clip-path="url(#clip180)" d="M1462.77 1823.74 L1476.14 1823.74 L1476.14 1777.6 L1461.6 1780.52 L1461.6 1773.06 L1476.06 1770.15 L1484.24 1770.15 L1484.24 1823.74 L1497.61 1823.74 L1497.61 1830.63 L1462.77 1830.63 L1462.77 1823.74 Z" fill="#000000" fill-rule="nonzero" fill-opacity="1" /><path clip-path="url(#clip180)" d="M1295.75 243.581 L1309.12 243.581 L1309.12 197.442 L1294.58 200.358 L1294.58 192.905 L1309.04 189.988 L1317.22 189.988 L1317.22 243.581 L1330.59 243.581 L1330.59 250.468 L1295.75 250.468 L1295.75 243.581 Z" fill="#000000" fill-rule="nonzero" fill-opacity="1" /><path clip-path="url(#clip180)" d="M1354.17 243.581 L1382.72 243.581 L1382.72 250.468 L1344.32 250.468 L1344.32 243.581 Q1348.98 238.761 1357 230.659 Q1365.06 222.517 1367.13 220.167 Q1371.06 215.752 1372.6 212.713 Q1374.18 209.635 1374.18 206.678 Q1374.18 201.857 1370.77 198.819 Q1367.41 195.781 1361.98 195.781 Q1358.13 195.781 1353.84 197.118 Q1349.59 198.454 1344.73 201.168 L1344.73 192.905 Q1349.67 190.92 1353.96 189.907 Q1358.26 188.894 1361.82 188.894 Q1371.22 188.894 1376.81 193.593 Q1382.4 198.292 1382.4 206.151 Q1382.4 209.878 1380.98 213.24 Q1379.6 216.562 1375.92 221.099 Q1374.91 222.274 1369.48 227.904 Q1364.05 233.495 1354.17 243.581 Z" fill="#000000" fill-rule="nonzero" fill-opacity="1" /><path clip-path="url(#clip180)" d="M1177.74 761.938 L1191.1 761.938 L1191.1 715.798 L1176.56 718.715 L1176.56 711.261 L1191.02 708.345 L1199.21 708.345 L1199.21 761.938 L1212.57 761.938 L1212.57 768.825 L1177.74 768.825 L1177.74 761.938 Z" fill="#000000" fill-rule="nonzero" fill-opacity="1" /><path clip-path="url(#clip180)" d="M1253.89 736.215 Q1259.77 737.471 1263.05 741.44 Q1266.37 745.41 1266.37 751.244 Q1266.37 760.196 1260.21 765.098 Q1254.05 769.999 1242.71 769.999 Q1238.9 769.999 1234.85 769.23 Q1230.84 768.5 1226.55 767.002 L1226.55 759.102 Q1229.95 761.087 1234 762.1 Q1238.05 763.113 1242.47 763.113 Q1250.17 763.113 1254.18 760.075 Q1258.23 757.036 1258.23 751.244 Q1258.23 745.896 1254.46 742.899 Q1250.73 739.861 1244.05 739.861 L1237 739.861 L1237 733.136 L1244.37 733.136 Q1250.41 733.136 1253.61 730.746 Q1256.81 728.315 1256.81 723.778 Q1256.81 719.12 1253.49 716.649 Q1250.21 714.137 1244.05 714.137 Q1240.69 714.137 1236.84 714.866 Q1232.99 715.596 1228.37 717.135 L1228.37 709.843 Q1233.03 708.547 1237.08 707.899 Q1241.17 707.251 1244.78 707.251 Q1254.1 707.251 1259.52 711.504 Q1264.95 715.717 1264.95 722.928 Q1264.95 727.951 1262.08 731.435 Q1259.2 734.878 1253.89 736.215 Z" fill="#000000" fill-rule="nonzero" fill-opacity="1" /><path clip-path="url(#clip180)" d="M1694.98 898.717 L1708.35 898.717 L1708.35 852.577 L1693.81 855.494 L1693.81 848.04 L1708.27 845.124 L1716.45 845.124 L1716.45 898.717 L1729.82 898.717 L1729.82 905.604 L1694.98 905.604 L1694.98 898.717 Z" fill="#000000" fill-rule="nonzero" fill-opacity="1" /><path clip-path="url(#clip180)" d="M1768.83 852.253 L1748.17 884.539 L1768.83 884.539 L1768.83 852.253 M1766.69 845.124 L1776.97 845.124 L1776.97 884.539 L1785.6 884.539 L1785.6 891.345 L1776.97 891.345 L1776.97 905.604 L1768.83 905.604 L1768.83 891.345 L1741.53 891.345 L1741.53 883.445 L1766.69 845.124 Z" fill="#000000" fill-rule="nonzero" fill-opacity="1" /><path clip-path="url(#clip180)" d="M1331.83 393.312 L1345.2 393.312 L1345.2 347.172 L1330.66 350.089 L1330.66 342.635 L1345.12 339.718 L1353.3 339.718 L1353.3 393.312 L1366.67 393.312 L1366.67 400.198 L1331.83 400.198 L1331.83 393.312 Z" fill="#000000" fill-rule="nonzero" fill-opacity="1" /><path clip-path="url(#clip180)" d="M1383.28 339.718 L1415.4 339.718 L1415.4 346.605 L1390.78 346.605 L1390.78 361.431 Q1392.56 360.823 1394.34 360.54 Q1396.12 360.216 1397.9 360.216 Q1408.03 360.216 1413.95 365.766 Q1419.86 371.315 1419.86 380.794 Q1419.86 390.557 1413.78 395.985 Q1407.71 401.373 1396.65 401.373 Q1392.84 401.373 1388.87 400.725 Q1384.94 400.077 1380.73 398.78 L1380.73 390.557 Q1384.37 392.542 1388.26 393.514 Q1392.15 394.486 1396.49 394.486 Q1403.5 394.486 1407.59 390.8 Q1411.68 387.114 1411.68 380.794 Q1411.68 374.475 1407.59 370.789 Q1403.5 367.102 1396.49 367.102 Q1393.21 367.102 1389.92 367.832 Q1386.68 368.561 1383.28 370.1 L1383.28 339.718 Z" fill="#000000" fill-rule="nonzero" fill-opacity="1" /><path clip-path="url(#clip180)" d="M870.289 1824.04 L883.657 1824.04 L883.657 1777.9 L869.114 1780.82 L869.114 1773.37 L883.576 1770.45 L891.759 1770.45 L891.759 1824.04 L905.127 1824.04 L905.127 1830.93 L870.289 1830.93 L870.289 1824.04 Z" fill="#000000" fill-rule="nonzero" fill-opacity="1" /><path clip-path="url(#clip180)" d="M940.167 1797.43 Q934.658 1797.43 931.417 1801.2 Q928.217 1804.96 928.217 1811.53 Q928.217 1818.05 931.417 1821.85 Q934.658 1825.62 940.167 1825.62 Q945.676 1825.62 948.877 1821.85 Q952.117 1818.05 952.117 1811.53 Q952.117 1804.96 948.877 1801.2 Q945.676 1797.43 940.167 1797.43 M956.411 1771.79 L956.411 1779.24 Q953.333 1777.78 950.173 1777.01 Q947.054 1776.24 943.975 1776.24 Q935.873 1776.24 931.579 1781.71 Q927.326 1787.18 926.718 1798.24 Q929.108 1794.71 932.714 1792.85 Q936.319 1790.95 940.653 1790.95 Q949.768 1790.95 955.034 1796.5 Q960.341 1802.01 960.341 1811.53 Q960.341 1820.84 954.831 1826.47 Q949.322 1832.1 940.167 1832.1 Q929.675 1832.1 924.126 1824.08 Q918.576 1816.02 918.576 1800.75 Q918.576 1786.41 925.381 1777.9 Q932.187 1769.36 943.651 1769.36 Q946.73 1769.36 949.849 1769.96 Q953.009 1770.57 956.411 1771.79 Z" fill="#000000" fill-rule="nonzero" fill-opacity="1" /><path clip-path="url(#clip180)" d="M620.711 950.41 L634.079 950.41 L634.079 904.27 L619.536 907.187 L619.536 899.733 L633.998 896.816 L642.18 896.816 L642.18 950.41 L655.548 950.41 L655.548 957.296 L620.711 957.296 L620.711 950.41 Z" fill="#000000" fill-rule="nonzero" fill-opacity="1" /><path clip-path="url(#clip180)" d="M670.01 896.816 L708.899 896.816 L708.899 900.3 L686.943 957.296 L678.395 957.296 L699.055 903.703 L670.01 903.703 L670.01 896.816 Z" fill="#000000" fill-rule="nonzero" fill-opacity="1" /><path clip-path="url(#clip180)" d="M1571.65 1299.78 L1585.02 1299.78 L1585.02 1253.64 L1570.48 1256.56 L1570.48 1249.11 L1584.94 1246.19 L1593.12 1246.19 L1593.12 1299.78 L1606.49 1299.78 L1606.49 1306.67 L1571.65 1306.67 L1571.65 1299.78 Z" fill="#000000" fill-rule="nonzero" fill-opacity="1" /><path clip-path="url(#clip180)" d="M1640.52 1277.95 Q1634.68 1277.95 1631.32 1281.07 Q1628 1284.19 1628 1289.66 Q1628 1295.12 1631.32 1298.24 Q1634.68 1301.36 1640.52 1301.36 Q1646.35 1301.36 1649.71 1298.24 Q1653.07 1295.08 1653.07 1289.66 Q1653.07 1284.19 1649.71 1281.07 Q1646.39 1277.95 1640.52 1277.95 M1632.33 1274.46 Q1627.07 1273.17 1624.11 1269.56 Q1621.19 1265.96 1621.19 1260.77 Q1621.19 1253.52 1626.34 1249.31 Q1631.52 1245.1 1640.52 1245.1 Q1649.55 1245.1 1654.69 1249.31 Q1659.84 1253.52 1659.84 1260.77 Q1659.84 1265.96 1656.88 1269.56 Q1653.97 1273.17 1648.74 1274.46 Q1654.65 1275.84 1657.94 1279.85 Q1661.26 1283.86 1661.26 1289.66 Q1661.26 1298.45 1655.87 1303.14 Q1650.52 1307.84 1640.52 1307.84 Q1630.51 1307.84 1625.12 1303.14 Q1619.78 1298.45 1619.78 1289.66 Q1619.78 1283.86 1623.1 1279.85 Q1626.42 1275.84 1632.33 1274.46 M1629.34 1261.54 Q1629.34 1266.24 1632.25 1268.87 Q1635.21 1271.51 1640.52 1271.51 Q1645.78 1271.51 1648.74 1268.87 Q1651.74 1266.24 1651.74 1261.54 Q1651.74 1256.84 1648.74 1254.21 Q1645.78 1251.58 1640.52 1251.58 Q1635.21 1251.58 1632.25 1254.21 Q1629.34 1256.84 1629.34 1261.54 Z" fill="#000000" fill-rule="nonzero" fill-opacity="1" /><path clip-path="url(#clip180)" d="M999.441 671.61 L1012.81 671.61 L1012.81 625.47 L998.266 628.387 L998.266 620.933 L1012.73 618.016 L1020.91 618.016 L1020.91 671.61 L1034.28 671.61 L1034.28 678.496 L999.441 678.496 L999.441 671.61 Z" fill="#000000" fill-rule="nonzero" fill-opacity="1" /><path clip-path="url(#clip180)" d="M1051.05 677.241 L1051.05 669.787 Q1054.13 671.245 1057.29 672.015 Q1060.45 672.785 1063.49 672.785 Q1071.59 672.785 1075.84 667.356 Q1080.13 661.888 1080.74 650.788 Q1078.39 654.272 1074.79 656.135 Q1071.18 657.999 1066.81 657.999 Q1057.73 657.999 1052.43 652.53 Q1047.16 647.021 1047.16 637.501 Q1047.16 628.184 1052.67 622.553 Q1058.18 616.923 1067.33 616.923 Q1077.83 616.923 1083.34 624.984 Q1088.88 633.005 1088.88 648.317 Q1088.88 662.617 1082.08 671.164 Q1075.31 679.671 1063.85 679.671 Q1060.77 679.671 1057.61 679.064 Q1054.45 678.456 1051.05 677.241 M1067.33 651.598 Q1072.84 651.598 1076.04 647.831 Q1079.28 644.064 1079.28 637.501 Q1079.28 630.979 1076.04 627.212 Q1072.84 623.404 1067.33 623.404 Q1061.82 623.404 1058.58 627.212 Q1055.38 630.979 1055.38 637.501 Q1055.38 644.064 1058.58 647.831 Q1061.82 651.598 1067.33 651.598 Z" fill="#000000" fill-rule="nonzero" fill-opacity="1" /><path clip-path="url(#clip180)" d="M964.697 1652.9 L993.256 1652.9 L993.256 1659.79 L954.853 1659.79 L954.853 1652.9 Q959.512 1648.08 967.533 1639.98 Q975.594 1631.84 977.66 1629.49 Q981.589 1625.07 983.129 1622.04 Q984.709 1618.96 984.709 1616 Q984.709 1611.18 981.306 1608.14 Q977.944 1605.1 972.515 1605.1 Q968.667 1605.1 964.373 1606.44 Q960.12 1607.78 955.259 1610.49 L955.259 1602.23 Q960.201 1600.24 964.495 1599.23 Q968.789 1598.22 972.353 1598.22 Q981.751 1598.22 987.342 1602.92 Q992.932 1607.61 992.932 1615.47 Q992.932 1619.2 991.514 1622.56 Q990.137 1625.88 986.45 1630.42 Q985.438 1631.6 980.01 1637.23 Q974.581 1642.82 964.697 1652.9 Z" fill="#000000" fill-rule="nonzero" fill-opacity="1" /><path clip-path="url(#clip180)" d="M1027.93 1604.7 Q1021.61 1604.7 1018.41 1610.94 Q1015.25 1617.13 1015.25 1629.61 Q1015.25 1642.05 1018.41 1648.29 Q1021.61 1654.48 1027.93 1654.48 Q1034.29 1654.48 1037.45 1648.29 Q1040.65 1642.05 1040.65 1629.61 Q1040.65 1617.13 1037.45 1610.94 Q1034.29 1604.7 1027.93 1604.7 M1027.93 1598.22 Q1038.1 1598.22 1043.45 1606.28 Q1048.83 1614.3 1048.83 1629.61 Q1048.83 1644.88 1043.45 1652.94 Q1038.1 1660.97 1027.93 1660.97 Q1017.76 1660.97 1012.38 1652.94 Q1007.03 1644.88 1007.03 1629.61 Q1007.03 1614.3 1012.38 1606.28 Q1017.76 1598.22 1027.93 1598.22 Z" fill="#000000" fill-rule="nonzero" fill-opacity="1" /></svg>
