<?xml version="1.0" encoding="utf-8"?>
<svg xmlns="http://www.w3.org/2000/svg" xmlns:xlink="http://www.w3.org/1999/xlink" width="500" height="500" viewBox="0 0 2000 2000">
<defs>
  <clipPath id="clip280">
    <rect x="0" y="0" width="2000" height="2000"/>
  </clipPath>
</defs>
<path clip-path="url(#clip280)" d="M0 2000 L2000 2000 L2000 0 L0 0  Z" fill="#ffffff" fill-rule="evenodd" fill-opacity="1"/>
<defs>
  <clipPath id="clip281">
    <rect x="400" y="200" width="1401" height="1401"/>
  </clipPath>
</defs>
<path clip-path="url(#clip280)" d="M165.121 1865.17 L1952.76 1865.17 L1952.76 47.2441 L165.121 47.2441  Z" fill="#ffffff" fill-rule="evenodd" fill-opacity="1"/>
<defs>
  <clipPath id="clip282">
    <rect x="165" y="47" width="1789" height="1819"/>
  </clipPath>
</defs>
<polyline clip-path="url(#clip282)" style="stroke:#000000; stroke-linecap:round; stroke-linejoin:round; stroke-width:2; stroke-opacity:0.1; fill:none" points="165.121,1865.17 165.121,47.2441 "/>
<polyline clip-path="url(#clip282)" style="stroke:#000000; stroke-linecap:round; stroke-linejoin:round; stroke-width:2; stroke-opacity:0.1; fill:none" points="522.648,1865.17 522.648,47.2441 "/>
<polyline clip-path="url(#clip282)" style="stroke:#000000; stroke-linecap:round; stroke-linejoin:round; stroke-width:2; stroke-opacity:0.1; fill:none" points="880.175,1865.17 880.175,47.2441 "/>
<polyline clip-path="url(#clip282)" style="stroke:#000000; stroke-linecap:round; stroke-linejoin:round; stroke-width:2; stroke-opacity:0.1; fill:none" points="1237.7,1865.17 1237.7,47.2441 "/>
<polyline clip-path="url(#clip282)" style="stroke:#000000; stroke-linecap:round; stroke-linejoin:round; stroke-width:2; stroke-opacity:0.1; fill:none" points="1595.23,1865.17 1595.23,47.2441 "/>
<polyline clip-path="url(#clip282)" style="stroke:#000000; stroke-linecap:round; stroke-linejoin:round; stroke-width:2; stroke-opacity:0.1; fill:none" points="1952.76,1865.17 1952.76,47.2441 "/>
<polyline clip-path="url(#clip280)" style="stroke:#000000; stroke-linecap:round; stroke-linejoin:round; stroke-width:4; stroke-opacity:1; fill:none" points="165.121,1865.17 1952.76,1865.17 "/>
<polyline clip-path="url(#clip280)" style="stroke:#000000; stroke-linecap:round; stroke-linejoin:round; stroke-width:4; stroke-opacity:1; fill:none" points="165.121,1865.17 165.121,1846.27 "/>
<polyline clip-path="url(#clip280)" style="stroke:#000000; stroke-linecap:round; stroke-linejoin:round; stroke-width:4; stroke-opacity:1; fill:none" points="522.648,1865.17 522.648,1846.27 "/>
<polyline clip-path="url(#clip280)" style="stroke:#000000; stroke-linecap:round; stroke-linejoin:round; stroke-width:4; stroke-opacity:1; fill:none" points="880.175,1865.17 880.175,1846.27 "/>
<polyline clip-path="url(#clip280)" style="stroke:#000000; stroke-linecap:round; stroke-linejoin:round; stroke-width:4; stroke-opacity:1; fill:none" points="1237.7,1865.17 1237.7,1846.27 "/>
<polyline clip-path="url(#clip280)" style="stroke:#000000; stroke-linecap:round; stroke-linejoin:round; stroke-width:4; stroke-opacity:1; fill:none" points="1595.23,1865.17 1595.23,1846.27 "/>
<polyline clip-path="url(#clip280)" style="stroke:#000000; stroke-linecap:round; stroke-linejoin:round; stroke-width:4; stroke-opacity:1; fill:none" points="1952.76,1865.17 1952.76,1846.27 "/>
<path clip-path="url(#clip280)" d="M165.121 1892.89 Q161.51 1892.89 159.682 1896.45 Q157.876 1899.99 157.876 1907.12 Q157.876 1914.23 159.682 1917.79 Q161.51 1921.34 165.121 1921.34 Q168.756 1921.34 170.561 1917.79 Q172.39 1914.23 172.39 1907.12 Q172.39 1899.99 170.561 1896.45 Q168.756 1892.89 165.121 1892.89 M165.121 1889.18 Q170.931 1889.18 173.987 1893.79 Q177.066 1898.37 177.066 1907.12 Q177.066 1915.85 173.987 1920.46 Q170.931 1925.04 165.121 1925.04 Q159.311 1925.04 156.232 1920.46 Q153.177 1915.85 153.177 1907.12 Q153.177 1898.37 156.232 1893.79 Q159.311 1889.18 165.121 1889.18 Z" fill="#000000" fill-rule="nonzero" fill-opacity="1" /><path clip-path="url(#clip280)" d="M501.421 1920.43 L517.741 1920.43 L517.741 1924.37 L495.797 1924.37 L495.797 1920.43 Q498.459 1917.68 503.042 1913.05 Q507.648 1908.4 508.829 1907.05 Q511.074 1904.53 511.954 1902.79 Q512.857 1901.03 512.857 1899.34 Q512.857 1896.59 510.912 1894.85 Q508.991 1893.12 505.889 1893.12 Q503.69 1893.12 501.236 1893.88 Q498.806 1894.65 496.028 1896.2 L496.028 1891.47 Q498.852 1890.34 501.306 1889.76 Q503.759 1889.18 505.796 1889.18 Q511.167 1889.18 514.361 1891.87 Q517.556 1894.55 517.556 1899.04 Q517.556 1901.17 516.745 1903.09 Q515.958 1904.99 513.852 1907.59 Q513.273 1908.26 510.171 1911.47 Q507.07 1914.67 501.421 1920.43 Z" fill="#000000" fill-rule="nonzero" fill-opacity="1" /><path clip-path="url(#clip280)" d="M537.556 1892.89 Q533.944 1892.89 532.116 1896.45 Q530.31 1899.99 530.31 1907.12 Q530.31 1914.23 532.116 1917.79 Q533.944 1921.34 537.556 1921.34 Q541.19 1921.34 542.995 1917.79 Q544.824 1914.23 544.824 1907.12 Q544.824 1899.99 542.995 1896.45 Q541.19 1892.89 537.556 1892.89 M537.556 1889.18 Q543.366 1889.18 546.421 1893.79 Q549.5 1898.37 549.5 1907.12 Q549.5 1915.85 546.421 1920.46 Q543.366 1925.04 537.556 1925.04 Q531.745 1925.04 528.667 1920.46 Q525.611 1915.85 525.611 1907.12 Q525.611 1898.37 528.667 1893.79 Q531.745 1889.18 537.556 1889.18 Z" fill="#000000" fill-rule="nonzero" fill-opacity="1" /><path clip-path="url(#clip280)" d="M868.347 1893.88 L856.541 1912.33 L868.347 1912.33 L868.347 1893.88 M867.12 1889.81 L872.999 1889.81 L872.999 1912.33 L877.93 1912.33 L877.93 1916.22 L872.999 1916.22 L872.999 1924.37 L868.347 1924.37 L868.347 1916.22 L852.745 1916.22 L852.745 1911.71 L867.12 1889.81 Z" fill="#000000" fill-rule="nonzero" fill-opacity="1" /><path clip-path="url(#clip280)" d="M895.661 1892.89 Q892.05 1892.89 890.221 1896.45 Q888.416 1899.99 888.416 1907.12 Q888.416 1914.23 890.221 1917.79 Q892.05 1921.34 895.661 1921.34 Q899.295 1921.34 901.101 1917.79 Q902.93 1914.23 902.93 1907.12 Q902.93 1899.99 901.101 1896.45 Q899.295 1892.89 895.661 1892.89 M895.661 1889.18 Q901.471 1889.18 904.527 1893.79 Q907.606 1898.37 907.606 1907.12 Q907.606 1915.85 904.527 1920.46 Q901.471 1925.04 895.661 1925.04 Q889.851 1925.04 886.772 1920.46 Q883.717 1915.85 883.717 1907.12 Q883.717 1898.37 886.772 1893.79 Q889.851 1889.18 895.661 1889.18 Z" fill="#000000" fill-rule="nonzero" fill-opacity="1" /><path clip-path="url(#clip280)" d="M1223.11 1905.22 Q1219.96 1905.22 1218.11 1907.38 Q1216.28 1909.53 1216.28 1913.28 Q1216.28 1917.01 1218.11 1919.18 Q1219.96 1921.34 1223.11 1921.34 Q1226.26 1921.34 1228.08 1919.18 Q1229.94 1917.01 1229.94 1913.28 Q1229.94 1909.53 1228.08 1907.38 Q1226.26 1905.22 1223.11 1905.22 M1232.39 1890.57 L1232.39 1894.83 Q1230.63 1894 1228.82 1893.56 Q1227.04 1893.12 1225.28 1893.12 Q1220.65 1893.12 1218.2 1896.24 Q1215.77 1899.37 1215.42 1905.69 Q1216.79 1903.67 1218.85 1902.61 Q1220.91 1901.52 1223.39 1901.52 Q1228.59 1901.52 1231.6 1904.69 Q1234.63 1907.84 1234.63 1913.28 Q1234.63 1918.6 1231.49 1921.82 Q1228.34 1925.04 1223.11 1925.04 Q1217.11 1925.04 1213.94 1920.46 Q1210.77 1915.85 1210.77 1907.12 Q1210.77 1898.93 1214.66 1894.07 Q1218.55 1889.18 1225.1 1889.18 Q1226.86 1889.18 1228.64 1889.53 Q1230.45 1889.88 1232.39 1890.57 Z" fill="#000000" fill-rule="nonzero" fill-opacity="1" /><path clip-path="url(#clip280)" d="M1252.69 1892.89 Q1249.08 1892.89 1247.25 1896.45 Q1245.45 1899.99 1245.45 1907.12 Q1245.45 1914.23 1247.25 1917.79 Q1249.08 1921.34 1252.69 1921.34 Q1256.32 1921.34 1258.13 1917.79 Q1259.96 1914.23 1259.96 1907.12 Q1259.96 1899.99 1258.13 1896.45 Q1256.32 1892.89 1252.69 1892.89 M1252.69 1889.18 Q1258.5 1889.18 1261.56 1893.79 Q1264.63 1898.37 1264.63 1907.12 Q1264.63 1915.85 1261.56 1920.46 Q1258.5 1925.04 1252.69 1925.04 Q1246.88 1925.04 1243.8 1920.46 Q1240.75 1915.85 1240.75 1907.12 Q1240.75 1898.37 1243.8 1893.79 Q1246.88 1889.18 1252.69 1889.18 Z" fill="#000000" fill-rule="nonzero" fill-opacity="1" /><path clip-path="url(#clip280)" d="M1580.1 1907.96 Q1576.77 1907.96 1574.85 1909.74 Q1572.95 1911.52 1572.95 1914.65 Q1572.95 1917.77 1574.85 1919.55 Q1576.77 1921.34 1580.1 1921.34 Q1583.44 1921.34 1585.36 1919.55 Q1587.28 1917.75 1587.28 1914.65 Q1587.28 1911.52 1585.36 1909.74 Q1583.46 1907.96 1580.1 1907.96 M1575.43 1905.97 Q1572.42 1905.22 1570.73 1903.16 Q1569.06 1901.1 1569.06 1898.14 Q1569.06 1894 1572 1891.59 Q1574.96 1889.18 1580.1 1889.18 Q1585.26 1889.18 1588.2 1891.59 Q1591.14 1894 1591.14 1898.14 Q1591.14 1901.1 1589.45 1903.16 Q1587.79 1905.22 1584.8 1905.97 Q1588.18 1906.75 1590.06 1909.04 Q1591.95 1911.34 1591.95 1914.65 Q1591.95 1919.67 1588.87 1922.35 Q1585.82 1925.04 1580.1 1925.04 Q1574.38 1925.04 1571.31 1922.35 Q1568.25 1919.67 1568.25 1914.65 Q1568.25 1911.34 1570.15 1909.04 Q1572.05 1906.75 1575.43 1905.97 M1573.71 1898.58 Q1573.71 1901.27 1575.38 1902.77 Q1577.07 1904.28 1580.1 1904.28 Q1583.11 1904.28 1584.8 1902.77 Q1586.51 1901.27 1586.51 1898.58 Q1586.51 1895.9 1584.8 1894.39 Q1583.11 1892.89 1580.1 1892.89 Q1577.07 1892.89 1575.38 1894.39 Q1573.71 1895.9 1573.71 1898.58 Z" fill="#000000" fill-rule="nonzero" fill-opacity="1" /><path clip-path="url(#clip280)" d="M1610.26 1892.89 Q1606.65 1892.89 1604.82 1896.45 Q1603.02 1899.99 1603.02 1907.12 Q1603.02 1914.23 1604.82 1917.79 Q1606.65 1921.34 1610.26 1921.34 Q1613.9 1921.34 1615.7 1917.79 Q1617.53 1914.23 1617.53 1907.12 Q1617.53 1899.99 1615.7 1896.45 Q1613.9 1892.89 1610.26 1892.89 M1610.26 1889.18 Q1616.07 1889.18 1619.13 1893.79 Q1622.21 1898.37 1622.21 1907.12 Q1622.21 1915.85 1619.13 1920.46 Q1616.07 1925.04 1610.26 1925.04 Q1604.45 1925.04 1601.37 1920.46 Q1598.32 1915.85 1598.32 1907.12 Q1598.32 1898.37 1601.37 1893.79 Q1604.45 1889.18 1610.26 1889.18 Z" fill="#000000" fill-rule="nonzero" fill-opacity="1" /><path clip-path="url(#clip280)" d="M1912.36 1920.43 L1920 1920.43 L1920 1894.07 L1911.69 1895.73 L1911.69 1891.47 L1919.96 1889.81 L1924.63 1889.81 L1924.63 1920.43 L1932.27 1920.43 L1932.27 1924.37 L1912.36 1924.37 L1912.36 1920.43 Z" fill="#000000" fill-rule="nonzero" fill-opacity="1" /><path clip-path="url(#clip280)" d="M1951.71 1892.89 Q1948.1 1892.89 1946.27 1896.45 Q1944.47 1899.99 1944.47 1907.12 Q1944.47 1914.23 1946.27 1917.79 Q1948.1 1921.34 1951.71 1921.34 Q1955.35 1921.34 1957.15 1917.79 Q1958.98 1914.23 1958.98 1907.12 Q1958.98 1899.99 1957.15 1896.45 Q1955.35 1892.89 1951.71 1892.89 M1951.71 1889.18 Q1957.52 1889.18 1960.58 1893.79 Q1963.66 1898.37 1963.66 1907.12 Q1963.66 1915.85 1960.58 1920.46 Q1957.52 1925.04 1951.71 1925.04 Q1945.9 1925.04 1942.83 1920.46 Q1939.77 1915.85 1939.77 1907.12 Q1939.77 1898.37 1942.83 1893.79 Q1945.9 1889.18 1951.71 1889.18 Z" fill="#000000" fill-rule="nonzero" fill-opacity="1" /><path clip-path="url(#clip280)" d="M1981.88 1892.89 Q1978.27 1892.89 1976.44 1896.45 Q1974.63 1899.99 1974.63 1907.12 Q1974.63 1914.23 1976.44 1917.79 Q1978.27 1921.34 1981.88 1921.34 Q1985.51 1921.34 1987.32 1917.79 Q1989.14 1914.23 1989.14 1907.12 Q1989.14 1899.99 1987.32 1896.45 Q1985.51 1892.89 1981.88 1892.89 M1981.88 1889.18 Q1987.69 1889.18 1990.74 1893.79 Q1993.82 1898.37 1993.82 1907.12 Q1993.82 1915.85 1990.74 1920.46 Q1987.69 1925.04 1981.88 1925.04 Q1976.07 1925.04 1972.99 1920.46 Q1969.93 1915.85 1969.93 1907.12 Q1969.93 1898.37 1972.99 1893.79 Q1976.07 1889.18 1981.88 1889.18 Z" fill="#000000" fill-rule="nonzero" fill-opacity="1" /><polyline clip-path="url(#clip282)" style="stroke:#000000; stroke-linecap:round; stroke-linejoin:round; stroke-width:2; stroke-opacity:0.1; fill:none" points="165.121,1865.17 1952.76,1865.17 "/>
<polyline clip-path="url(#clip282)" style="stroke:#000000; stroke-linecap:round; stroke-linejoin:round; stroke-width:2; stroke-opacity:0.1; fill:none" points="165.121,1501.58 1952.76,1501.58 "/>
<polyline clip-path="url(#clip282)" style="stroke:#000000; stroke-linecap:round; stroke-linejoin:round; stroke-width:2; stroke-opacity:0.1; fill:none" points="165.121,1138 1952.76,1138 "/>
<polyline clip-path="url(#clip282)" style="stroke:#000000; stroke-linecap:round; stroke-linejoin:round; stroke-width:2; stroke-opacity:0.1; fill:none" points="165.121,774.414 1952.76,774.414 "/>
<polyline clip-path="url(#clip282)" style="stroke:#000000; stroke-linecap:round; stroke-linejoin:round; stroke-width:2; stroke-opacity:0.1; fill:none" points="165.121,410.829 1952.76,410.829 "/>
<polyline clip-path="url(#clip282)" style="stroke:#000000; stroke-linecap:round; stroke-linejoin:round; stroke-width:2; stroke-opacity:0.1; fill:none" points="165.121,47.2441 1952.76,47.2441 "/>
<polyline clip-path="url(#clip280)" style="stroke:#000000; stroke-linecap:round; stroke-linejoin:round; stroke-width:4; stroke-opacity:1; fill:none" points="165.121,1865.17 165.121,47.2441 "/>
<polyline clip-path="url(#clip280)" style="stroke:#000000; stroke-linecap:round; stroke-linejoin:round; stroke-width:4; stroke-opacity:1; fill:none" points="165.121,1865.17 184.019,1865.17 "/>
<polyline clip-path="url(#clip280)" style="stroke:#000000; stroke-linecap:round; stroke-linejoin:round; stroke-width:4; stroke-opacity:1; fill:none" points="165.121,1501.58 184.019,1501.58 "/>
<polyline clip-path="url(#clip280)" style="stroke:#000000; stroke-linecap:round; stroke-linejoin:round; stroke-width:4; stroke-opacity:1; fill:none" points="165.121,1138 184.019,1138 "/>
<polyline clip-path="url(#clip280)" style="stroke:#000000; stroke-linecap:round; stroke-linejoin:round; stroke-width:4; stroke-opacity:1; fill:none" points="165.121,774.414 184.019,774.414 "/>
<polyline clip-path="url(#clip280)" style="stroke:#000000; stroke-linecap:round; stroke-linejoin:round; stroke-width:4; stroke-opacity:1; fill:none" points="165.121,410.829 184.019,410.829 "/>
<polyline clip-path="url(#clip280)" style="stroke:#000000; stroke-linecap:round; stroke-linejoin:round; stroke-width:4; stroke-opacity:1; fill:none" points="165.121,47.2441 184.019,47.2441 "/>
<path clip-path="url(#clip280)" d="M123.177 1850.97 Q119.566 1850.97 117.737 1854.53 Q115.932 1858.07 115.932 1865.2 Q115.932 1872.31 117.737 1875.87 Q119.566 1879.42 123.177 1879.42 Q126.811 1879.42 128.617 1875.87 Q130.445 1872.31 130.445 1865.2 Q130.445 1858.07 128.617 1854.53 Q126.811 1850.97 123.177 1850.97 M123.177 1847.26 Q128.987 1847.26 132.043 1851.87 Q135.121 1856.45 135.121 1865.2 Q135.121 1873.93 132.043 1878.54 Q128.987 1883.12 123.177 1883.12 Q117.367 1883.12 114.288 1878.54 Q111.233 1873.93 111.233 1865.2 Q111.233 1856.45 114.288 1851.87 Q117.367 1847.26 123.177 1847.26 Z" fill="#000000" fill-rule="nonzero" fill-opacity="1" /><path clip-path="url(#clip280)" d="M87.0429 1514.93 L103.362 1514.93 L103.362 1518.86 L81.4179 1518.86 L81.4179 1514.93 Q84.0799 1512.17 88.6632 1507.54 Q93.2697 1502.89 94.4502 1501.55 Q96.6956 1499.03 97.5752 1497.29 Q98.478 1495.53 98.478 1493.84 Q98.478 1491.09 96.5336 1489.35 Q94.6123 1487.61 91.5104 1487.61 Q89.3114 1487.61 86.8577 1488.38 Q84.4271 1489.14 81.6494 1490.69 L81.6494 1485.97 Q84.4734 1484.84 86.9271 1484.26 Q89.3808 1483.68 91.4178 1483.68 Q96.7882 1483.68 99.9826 1486.36 Q103.177 1489.05 103.177 1493.54 Q103.177 1495.67 102.367 1497.59 Q101.58 1499.49 99.4734 1502.08 Q98.8947 1502.75 95.7928 1505.97 Q92.691 1509.16 87.0429 1514.93 Z" fill="#000000" fill-rule="nonzero" fill-opacity="1" /><path clip-path="url(#clip280)" d="M123.177 1487.38 Q119.566 1487.38 117.737 1490.95 Q115.932 1494.49 115.932 1501.62 Q115.932 1508.72 117.737 1512.29 Q119.566 1515.83 123.177 1515.83 Q126.811 1515.83 128.617 1512.29 Q130.445 1508.72 130.445 1501.62 Q130.445 1494.49 128.617 1490.95 Q126.811 1487.38 123.177 1487.38 M123.177 1483.68 Q128.987 1483.68 132.043 1488.28 Q135.121 1492.87 135.121 1501.62 Q135.121 1510.34 132.043 1514.95 Q128.987 1519.53 123.177 1519.53 Q117.367 1519.53 114.288 1514.95 Q111.233 1510.34 111.233 1501.62 Q111.233 1492.87 114.288 1488.28 Q117.367 1483.68 123.177 1483.68 Z" fill="#000000" fill-rule="nonzero" fill-opacity="1" /><path clip-path="url(#clip280)" d="M95.8623 1124.79 L84.0568 1143.24 L95.8623 1143.24 L95.8623 1124.79 M94.6354 1120.72 L100.515 1120.72 L100.515 1143.24 L105.446 1143.24 L105.446 1147.13 L100.515 1147.13 L100.515 1155.28 L95.8623 1155.28 L95.8623 1147.13 L80.2605 1147.13 L80.2605 1142.62 L94.6354 1120.72 Z" fill="#000000" fill-rule="nonzero" fill-opacity="1" /><path clip-path="url(#clip280)" d="M123.177 1123.8 Q119.566 1123.8 117.737 1127.36 Q115.932 1130.9 115.932 1138.03 Q115.932 1145.14 117.737 1148.7 Q119.566 1152.25 123.177 1152.25 Q126.811 1152.25 128.617 1148.7 Q130.445 1145.14 130.445 1138.03 Q130.445 1130.9 128.617 1127.36 Q126.811 1123.8 123.177 1123.8 M123.177 1120.09 Q128.987 1120.09 132.043 1124.7 Q135.121 1129.28 135.121 1138.03 Q135.121 1146.76 132.043 1151.37 Q128.987 1155.95 123.177 1155.95 Q117.367 1155.95 114.288 1151.37 Q111.233 1146.76 111.233 1138.03 Q111.233 1129.28 114.288 1124.7 Q117.367 1120.09 123.177 1120.09 Z" fill="#000000" fill-rule="nonzero" fill-opacity="1" /><path clip-path="url(#clip280)" d="M93.5938 772.55 Q90.4456 772.55 88.5938 774.703 Q86.7651 776.856 86.7651 780.606 Q86.7651 784.333 88.5938 786.508 Q90.4456 788.661 93.5938 788.661 Q96.7419 788.661 98.5706 786.508 Q100.422 784.333 100.422 780.606 Q100.422 776.856 98.5706 774.703 Q96.7419 772.55 93.5938 772.55 M102.876 757.897 L102.876 762.157 Q101.117 761.323 99.3113 760.884 Q97.5289 760.444 95.7697 760.444 Q91.1401 760.444 88.6864 763.569 Q86.2558 766.694 85.9086 773.013 Q87.2743 770.999 89.3345 769.934 Q91.3947 768.847 93.8715 768.847 Q99.0798 768.847 102.089 772.018 Q105.121 775.166 105.121 780.606 Q105.121 785.93 101.973 789.147 Q98.8252 792.365 93.5938 792.365 Q87.5984 792.365 84.4271 787.782 Q81.2559 783.175 81.2559 774.448 Q81.2559 766.254 85.1447 761.393 Q89.0336 756.509 95.5845 756.509 Q97.3437 756.509 99.1261 756.856 Q100.932 757.203 102.876 757.897 Z" fill="#000000" fill-rule="nonzero" fill-opacity="1" /><path clip-path="url(#clip280)" d="M123.177 760.212 Q119.566 760.212 117.737 763.777 Q115.932 767.319 115.932 774.448 Q115.932 781.555 117.737 785.12 Q119.566 788.661 123.177 788.661 Q126.811 788.661 128.617 785.12 Q130.445 781.555 130.445 774.448 Q130.445 767.319 128.617 763.777 Q126.811 760.212 123.177 760.212 M123.177 756.509 Q128.987 756.509 132.043 761.115 Q135.121 765.698 135.121 774.448 Q135.121 783.175 132.043 787.782 Q128.987 792.365 123.177 792.365 Q117.367 792.365 114.288 787.782 Q111.233 783.175 111.233 774.448 Q111.233 765.698 114.288 761.115 Q117.367 756.509 123.177 756.509 Z" fill="#000000" fill-rule="nonzero" fill-opacity="1" /><path clip-path="url(#clip280)" d="M93.0151 411.697 Q89.6817 411.697 87.7605 413.479 Q85.8623 415.262 85.8623 418.387 Q85.8623 421.512 87.7605 423.294 Q89.6817 425.076 93.0151 425.076 Q96.3484 425.076 98.2697 423.294 Q100.191 421.489 100.191 418.387 Q100.191 415.262 98.2697 413.479 Q96.3715 411.697 93.0151 411.697 M88.3392 409.706 Q85.3299 408.965 83.6401 406.905 Q81.9735 404.845 81.9735 401.882 Q81.9735 397.739 84.9133 395.331 Q87.8762 392.924 93.0151 392.924 Q98.1771 392.924 101.117 395.331 Q104.057 397.739 104.057 401.882 Q104.057 404.845 102.367 406.905 Q100.7 408.965 97.7141 409.706 Q101.094 410.493 102.969 412.785 Q104.867 415.077 104.867 418.387 Q104.867 423.41 101.788 426.095 Q98.7326 428.78 93.0151 428.78 Q87.2975 428.78 84.2188 426.095 Q81.1633 423.41 81.1633 418.387 Q81.1633 415.077 83.0614 412.785 Q84.9595 410.493 88.3392 409.706 M86.6262 402.322 Q86.6262 405.007 88.2929 406.512 Q89.9827 408.016 93.0151 408.016 Q96.0243 408.016 97.7141 406.512 Q99.4271 405.007 99.4271 402.322 Q99.4271 399.637 97.7141 398.132 Q96.0243 396.628 93.0151 396.628 Q89.9827 396.628 88.2929 398.132 Q86.6262 399.637 86.6262 402.322 Z" fill="#000000" fill-rule="nonzero" fill-opacity="1" /><path clip-path="url(#clip280)" d="M123.177 396.628 Q119.566 396.628 117.737 400.192 Q115.932 403.734 115.932 410.864 Q115.932 417.97 117.737 421.535 Q119.566 425.076 123.177 425.076 Q126.811 425.076 128.617 421.535 Q130.445 417.97 130.445 410.864 Q130.445 403.734 128.617 400.192 Q126.811 396.628 123.177 396.628 M123.177 392.924 Q128.987 392.924 132.043 397.53 Q135.121 402.114 135.121 410.864 Q135.121 419.59 132.043 424.197 Q128.987 428.78 123.177 428.78 Q117.367 428.78 114.288 424.197 Q111.233 419.59 111.233 410.864 Q111.233 402.114 114.288 397.53 Q117.367 392.924 123.177 392.924 Z" fill="#000000" fill-rule="nonzero" fill-opacity="1" /><path clip-path="url(#clip280)" d="M53.6634 60.5889 L61.3023 60.5889 L61.3023 34.2233 L52.9921 35.89 L52.9921 31.6308 L61.256 29.9641 L65.9319 29.9641 L65.9319 60.5889 L73.5707 60.5889 L73.5707 64.5241 L53.6634 64.5241 L53.6634 60.5889 Z" fill="#000000" fill-rule="nonzero" fill-opacity="1" /><path clip-path="url(#clip280)" d="M93.0151 33.0428 Q89.404 33.0428 87.5753 36.6076 Q85.7697 40.1492 85.7697 47.2788 Q85.7697 54.3853 87.5753 57.9501 Q89.404 61.4917 93.0151 61.4917 Q96.6493 61.4917 98.4548 57.9501 Q100.284 54.3853 100.284 47.2788 Q100.284 40.1492 98.4548 36.6076 Q96.6493 33.0428 93.0151 33.0428 M93.0151 29.3391 Q98.8252 29.3391 101.881 33.9456 Q104.959 38.5289 104.959 47.2788 Q104.959 56.0056 101.881 60.6121 Q98.8252 65.1954 93.0151 65.1954 Q87.2049 65.1954 84.1262 60.6121 Q81.0707 56.0056 81.0707 47.2788 Q81.0707 38.5289 84.1262 33.9456 Q87.2049 29.3391 93.0151 29.3391 Z" fill="#000000" fill-rule="nonzero" fill-opacity="1" /><path clip-path="url(#clip280)" d="M123.177 33.0428 Q119.566 33.0428 117.737 36.6076 Q115.932 40.1492 115.932 47.2788 Q115.932 54.3853 117.737 57.9501 Q119.566 61.4917 123.177 61.4917 Q126.811 61.4917 128.617 57.9501 Q130.445 54.3853 130.445 47.2788 Q130.445 40.1492 128.617 36.6076 Q126.811 33.0428 123.177 33.0428 M123.177 29.3391 Q128.987 29.3391 132.043 33.9456 Q135.121 38.5289 135.121 47.2788 Q135.121 56.0056 132.043 60.6121 Q128.987 65.1954 123.177 65.1954 Q117.367 65.1954 114.288 60.6121 Q111.233 56.0056 111.233 47.2788 Q111.233 38.5289 114.288 33.9456 Q117.367 29.3391 123.177 29.3391 Z" fill="#000000" fill-rule="nonzero" fill-opacity="1" /><circle clip-path="url(#clip282)" cx="1606.17" cy="1293.07" r="14.4" fill="#009af9" fill-rule="evenodd" fill-opacity="1" stroke="#000000" stroke-opacity="1" stroke-width="4"/>
<circle clip-path="url(#clip282)" cx="1608.16" cy="194.138" r="14.4" fill="#009af9" fill-rule="evenodd" fill-opacity="1" stroke="#000000" stroke-opacity="1" stroke-width="4"/>
<circle clip-path="url(#clip282)" cx="1346.69" cy="939.93" r="14.4" fill="#009af9" fill-rule="evenodd" fill-opacity="1" stroke="#000000" stroke-opacity="1" stroke-width="4"/>
<circle clip-path="url(#clip282)" cx="690.414" cy="1708.75" r="14.4" fill="#009af9" fill-rule="evenodd" fill-opacity="1" stroke="#000000" stroke-opacity="1" stroke-width="4"/>
<circle clip-path="url(#clip282)" cx="784.579" cy="657.473" r="14.4" fill="#009af9" fill-rule="evenodd" fill-opacity="1" stroke="#000000" stroke-opacity="1" stroke-width="4"/>
<circle clip-path="url(#clip282)" cx="585.698" cy="1488.99" r="14.4" fill="#009af9" fill-rule="evenodd" fill-opacity="1" stroke="#000000" stroke-opacity="1" stroke-width="4"/>
<circle clip-path="url(#clip282)" cx="484.081" cy="365.694" r="14.4" fill="#009af9" fill-rule="evenodd" fill-opacity="1" stroke="#000000" stroke-opacity="1" stroke-width="4"/>
<circle clip-path="url(#clip282)" cx="1789.63" cy="1547.98" r="14.4" fill="#009af9" fill-rule="evenodd" fill-opacity="1" stroke="#000000" stroke-opacity="1" stroke-width="4"/>
<circle clip-path="url(#clip282)" cx="1478.97" cy="1227.48" r="14.4" fill="#009af9" fill-rule="evenodd" fill-opacity="1" stroke="#000000" stroke-opacity="1" stroke-width="4"/>
<circle clip-path="url(#clip282)" cx="1251.18" cy="601.919" r="14.4" fill="#009af9" fill-rule="evenodd" fill-opacity="1" stroke="#000000" stroke-opacity="1" stroke-width="4"/>
<circle clip-path="url(#clip282)" cx="1058.94" cy="956.206" r="14.4" fill="#e26f46" fill-rule="evenodd" fill-opacity="1" stroke="#000000" stroke-opacity="1" stroke-width="4"/>
<polyline clip-path="url(#clip282)" style="stroke:#3da44d; stroke-linecap:round; stroke-linejoin:round; stroke-width:4; stroke-opacity:1; fill:none" points="1058.94,956.206 1789.63,1547.98 1606.17,1293.07 1346.69,939.93 690.414,1708.75 1058.94,956.206 "/>
<path clip-path="url(#clip280)" d="M224.709 1068.64 L653.471 1068.64 L653.471 913.123 L224.709 913.123  Z" fill="#ffffff" fill-rule="evenodd" fill-opacity="1"/>
<polyline clip-path="url(#clip280)" style="stroke:#000000; stroke-linecap:round; stroke-linejoin:round; stroke-width:4; stroke-opacity:1; fill:none" points="224.709,1068.64 653.471,1068.64 653.471,913.123 224.709,913.123 224.709,1068.64 "/>
<circle clip-path="url(#clip280)" cx="304.16" cy="964.963" r="23.04" fill="#009af9" fill-rule="evenodd" fill-opacity="1" stroke="#000000" stroke-opacity="1" stroke-width="6.4"/>
<path clip-path="url(#clip280)" d="M411.48 950.345 L411.48 955.276 Q409.119 953.077 406.434 951.989 Q403.772 950.901 400.763 950.901 Q394.837 950.901 391.689 954.535 Q388.541 958.146 388.541 964.998 Q388.541 971.827 391.689 975.461 Q394.837 979.072 400.763 979.072 Q403.772 979.072 406.434 977.984 Q409.119 976.896 411.48 974.697 L411.48 979.581 Q409.027 981.248 406.272 982.081 Q403.54 982.915 400.485 982.915 Q392.638 982.915 388.124 978.123 Q383.61 973.308 383.61 964.998 Q383.61 956.665 388.124 951.873 Q392.638 947.058 400.485 947.058 Q403.587 947.058 406.318 947.892 Q409.073 948.702 411.48 950.345 Z" fill="#000000" fill-rule="nonzero" fill-opacity="1" /><path clip-path="url(#clip280)" d="M418.077 972.012 L418.077 956.318 L422.337 956.318 L422.337 971.85 Q422.337 975.531 423.772 977.382 Q425.207 979.211 428.077 979.211 Q431.526 979.211 433.517 977.012 Q435.531 974.813 435.531 971.017 L435.531 956.318 L439.79 956.318 L439.79 982.243 L435.531 982.243 L435.531 978.262 Q433.98 980.623 431.92 981.78 Q429.883 982.915 427.175 982.915 Q422.707 982.915 420.392 980.137 Q418.077 977.359 418.077 972.012 M428.795 955.693 L428.795 955.693 Z" fill="#000000" fill-rule="nonzero" fill-opacity="1" /><path clip-path="url(#clip280)" d="M465.091 957.082 L465.091 961.109 Q463.285 960.183 461.341 959.72 Q459.397 959.257 457.313 959.257 Q454.142 959.257 452.545 960.23 Q450.971 961.202 450.971 963.146 Q450.971 964.628 452.105 965.484 Q453.239 966.318 456.665 967.081 L458.123 967.406 Q462.66 968.378 464.559 970.16 Q466.48 971.919 466.48 975.091 Q466.48 978.702 463.61 980.808 Q460.762 982.915 455.762 982.915 Q453.679 982.915 451.411 982.498 Q449.165 982.105 446.665 981.294 L446.665 976.896 Q449.026 978.123 451.318 978.748 Q453.61 979.35 455.855 979.35 Q458.864 979.35 460.485 978.331 Q462.105 977.29 462.105 975.415 Q462.105 973.679 460.924 972.753 Q459.767 971.827 455.809 970.97 L454.327 970.623 Q450.369 969.79 448.61 968.077 Q446.85 966.341 446.85 963.332 Q446.85 959.674 449.443 957.683 Q452.036 955.693 456.804 955.693 Q459.165 955.693 461.248 956.04 Q463.332 956.387 465.091 957.082 Z" fill="#000000" fill-rule="nonzero" fill-opacity="1" /><path clip-path="url(#clip280)" d="M477.475 948.957 L477.475 956.318 L486.248 956.318 L486.248 959.628 L477.475 959.628 L477.475 973.702 Q477.475 976.873 478.332 977.776 Q479.211 978.679 481.873 978.679 L486.248 978.679 L486.248 982.243 L481.873 982.243 Q476.943 982.243 475.068 980.415 Q473.193 978.563 473.193 973.702 L473.193 959.628 L470.068 959.628 L470.068 956.318 L473.193 956.318 L473.193 948.957 L477.475 948.957 Z" fill="#000000" fill-rule="nonzero" fill-opacity="1" /><path clip-path="url(#clip280)" d="M501.896 959.304 Q498.47 959.304 496.48 961.989 Q494.489 964.651 494.489 969.304 Q494.489 973.956 496.457 976.642 Q498.447 979.304 501.896 979.304 Q505.299 979.304 507.29 976.618 Q509.281 973.933 509.281 969.304 Q509.281 964.697 507.29 962.012 Q505.299 959.304 501.896 959.304 M501.896 955.693 Q507.452 955.693 510.623 959.304 Q513.794 962.915 513.794 969.304 Q513.794 975.669 510.623 979.304 Q507.452 982.915 501.896 982.915 Q496.318 982.915 493.146 979.304 Q489.998 975.669 489.998 969.304 Q489.998 962.915 493.146 959.304 Q496.318 955.693 501.896 955.693 Z" fill="#000000" fill-rule="nonzero" fill-opacity="1" /><path clip-path="url(#clip280)" d="M541.04 961.294 Q542.637 958.424 544.859 957.058 Q547.081 955.693 550.091 955.693 Q554.141 955.693 556.341 958.54 Q558.54 961.364 558.54 966.595 L558.54 982.243 L554.257 982.243 L554.257 966.734 Q554.257 963.007 552.938 961.202 Q551.618 959.396 548.91 959.396 Q545.6 959.396 543.679 961.595 Q541.757 963.794 541.757 967.591 L541.757 982.243 L537.475 982.243 L537.475 966.734 Q537.475 962.984 536.155 961.202 Q534.836 959.396 532.081 959.396 Q528.818 959.396 526.896 961.619 Q524.975 963.818 524.975 967.591 L524.975 982.243 L520.693 982.243 L520.693 956.318 L524.975 956.318 L524.975 960.345 Q526.433 957.961 528.47 956.827 Q530.507 955.693 533.308 955.693 Q536.132 955.693 538.1 957.128 Q540.091 958.563 541.04 961.294 Z" fill="#000000" fill-rule="nonzero" fill-opacity="1" /><path clip-path="url(#clip280)" d="M589.211 968.216 L589.211 970.299 L569.628 970.299 Q569.905 974.697 572.266 977.012 Q574.651 979.304 578.887 979.304 Q581.34 979.304 583.632 978.702 Q585.947 978.1 588.215 976.896 L588.215 980.924 Q585.924 981.896 583.516 982.405 Q581.109 982.915 578.632 982.915 Q572.428 982.915 568.794 979.304 Q565.183 975.693 565.183 969.535 Q565.183 963.169 568.609 959.443 Q572.058 955.693 577.891 955.693 Q583.123 955.693 586.155 959.072 Q589.211 962.429 589.211 968.216 M584.952 966.966 Q584.905 963.47 582.984 961.387 Q581.086 959.304 577.938 959.304 Q574.373 959.304 572.22 961.318 Q570.09 963.332 569.766 966.989 L584.952 966.966 Z" fill="#000000" fill-rule="nonzero" fill-opacity="1" /><path clip-path="url(#clip280)" d="M611.225 960.299 Q610.507 959.882 609.65 959.697 Q608.817 959.489 607.799 959.489 Q604.188 959.489 602.243 961.85 Q600.322 964.188 600.322 968.586 L600.322 982.243 L596.039 982.243 L596.039 956.318 L600.322 956.318 L600.322 960.345 Q601.664 957.984 603.817 956.85 Q605.97 955.693 609.049 955.693 Q609.488 955.693 610.021 955.762 Q610.553 955.808 611.201 955.924 L611.225 960.299 Z" fill="#000000" fill-rule="nonzero" fill-opacity="1" /><path clip-path="url(#clip280)" d="M632.22 957.082 L632.22 961.109 Q630.414 960.183 628.47 959.72 Q626.525 959.257 624.442 959.257 Q621.271 959.257 619.674 960.23 Q618.099 961.202 618.099 963.146 Q618.099 964.628 619.234 965.484 Q620.368 966.318 623.794 967.081 L625.252 967.406 Q629.789 968.378 631.687 970.16 Q633.609 971.919 633.609 975.091 Q633.609 978.702 630.738 980.808 Q627.891 982.915 622.891 982.915 Q620.808 982.915 618.539 982.498 Q616.294 982.105 613.794 981.294 L613.794 976.896 Q616.155 978.123 618.447 978.748 Q620.738 979.35 622.984 979.35 Q625.993 979.35 627.613 978.331 Q629.234 977.29 629.234 975.415 Q629.234 973.679 628.053 972.753 Q626.896 971.827 622.937 970.97 L621.456 970.623 Q617.498 969.79 615.738 968.077 Q613.979 966.341 613.979 963.332 Q613.979 959.674 616.572 957.683 Q619.164 955.693 623.933 955.693 Q626.294 955.693 628.377 956.04 Q630.461 956.387 632.22 957.082 Z" fill="#000000" fill-rule="nonzero" fill-opacity="1" /><circle clip-path="url(#clip280)" cx="304.16" cy="1016.8" r="23.04" fill="#e26f46" fill-rule="evenodd" fill-opacity="1" stroke="#000000" stroke-opacity="1" stroke-width="6.4"/>
<path clip-path="url(#clip280)" d="M388.286 1003.37 L388.286 1030.24 L393.934 1030.24 Q401.087 1030.24 404.397 1027 Q407.73 1023.76 407.73 1016.77 Q407.73 1009.82 404.397 1006.61 Q401.087 1003.37 393.934 1003.37 L388.286 1003.37 M383.61 999.523 L393.216 999.523 Q403.263 999.523 407.962 1003.71 Q412.661 1007.88 412.661 1016.77 Q412.661 1025.7 407.939 1029.89 Q403.216 1034.08 393.216 1034.08 L383.61 1034.08 L383.61 999.523 Z" fill="#000000" fill-rule="nonzero" fill-opacity="1" /><path clip-path="url(#clip280)" d="M442.105 1020.06 L442.105 1022.14 L422.522 1022.14 Q422.8 1026.54 425.161 1028.85 Q427.545 1031.14 431.781 1031.14 Q434.235 1031.14 436.526 1030.54 Q438.841 1029.94 441.11 1028.74 L441.11 1032.76 Q438.818 1033.74 436.411 1034.25 Q434.003 1034.75 431.526 1034.75 Q425.323 1034.75 421.688 1031.14 Q418.077 1027.53 418.077 1021.38 Q418.077 1015.01 421.503 1011.28 Q424.952 1007.53 430.786 1007.53 Q436.017 1007.53 439.05 1010.91 Q442.105 1014.27 442.105 1020.06 M437.846 1018.81 Q437.8 1015.31 435.878 1013.23 Q433.98 1011.14 430.832 1011.14 Q427.267 1011.14 425.114 1013.16 Q422.985 1015.17 422.661 1018.83 L437.846 1018.81 Z" fill="#000000" fill-rule="nonzero" fill-opacity="1" /><path clip-path="url(#clip280)" d="M453.216 1030.19 L453.216 1043.94 L448.934 1043.94 L448.934 1008.16 L453.216 1008.16 L453.216 1012.09 Q454.559 1009.78 456.596 1008.67 Q458.656 1007.53 461.503 1007.53 Q466.225 1007.53 469.165 1011.28 Q472.128 1015.03 472.128 1021.14 Q472.128 1027.25 469.165 1031 Q466.225 1034.75 461.503 1034.75 Q458.656 1034.75 456.596 1033.64 Q454.559 1032.51 453.216 1030.19 M467.707 1021.14 Q467.707 1016.44 465.762 1013.78 Q463.841 1011.1 460.461 1011.1 Q457.082 1011.1 455.137 1013.78 Q453.216 1016.44 453.216 1021.14 Q453.216 1025.84 455.137 1028.53 Q457.082 1031.19 460.461 1031.19 Q463.841 1031.19 465.762 1028.53 Q467.707 1025.84 467.707 1021.14 Z" fill="#000000" fill-rule="nonzero" fill-opacity="1" /><path clip-path="url(#clip280)" d="M489.234 1011.14 Q485.809 1011.14 483.818 1013.83 Q481.827 1016.49 481.827 1021.14 Q481.827 1025.8 483.795 1028.48 Q485.785 1031.14 489.234 1031.14 Q492.637 1031.14 494.628 1028.46 Q496.619 1025.77 496.619 1021.14 Q496.619 1016.54 494.628 1013.85 Q492.637 1011.14 489.234 1011.14 M489.234 1007.53 Q494.79 1007.53 497.961 1011.14 Q501.133 1014.75 501.133 1021.14 Q501.133 1027.51 497.961 1031.14 Q494.79 1034.75 489.234 1034.75 Q483.656 1034.75 480.484 1031.14 Q477.336 1027.51 477.336 1021.14 Q477.336 1014.75 480.484 1011.14 Q483.656 1007.53 489.234 1007.53 Z" fill="#000000" fill-rule="nonzero" fill-opacity="1" /><path clip-path="url(#clip280)" d="M512.406 1000.8 L512.406 1008.16 L521.179 1008.16 L521.179 1011.47 L512.406 1011.47 L512.406 1025.54 Q512.406 1028.71 513.262 1029.62 Q514.142 1030.52 516.804 1030.52 L521.179 1030.52 L521.179 1034.08 L516.804 1034.08 Q511.873 1034.08 509.998 1032.25 Q508.123 1030.4 508.123 1025.54 L508.123 1011.47 L504.998 1011.47 L504.998 1008.16 L508.123 1008.16 L508.123 1000.8 L512.406 1000.8 Z" fill="#000000" fill-rule="nonzero" fill-opacity="1" /><path clip-path="url(#clip280)" d="M1642.97 1261.88 L1656.33 1261.88 L1656.33 1215.74 L1641.79 1218.66 L1641.79 1211.2 L1656.25 1208.29 L1664.44 1208.29 L1664.44 1261.88 L1677.8 1261.88 L1677.8 1268.77 L1642.97 1268.77 L1642.97 1261.88 Z" fill="#000000" fill-rule="nonzero" fill-opacity="1" /><path clip-path="url(#clip280)" d="M1652.43 162.954 L1680.99 162.954 L1680.99 169.84 L1642.58 169.84 L1642.58 162.954 Q1647.24 158.133 1655.26 150.031 Q1663.33 141.889 1665.39 139.539 Q1669.32 135.124 1670.86 132.086 Q1672.44 129.007 1672.44 126.05 Q1672.44 121.229 1669.04 118.191 Q1665.67 115.153 1660.25 115.153 Q1656.4 115.153 1652.1 116.49 Q1647.85 117.827 1642.99 120.541 L1642.99 112.277 Q1647.93 110.292 1652.23 109.279 Q1656.52 108.266 1660.08 108.266 Q1669.48 108.266 1675.07 112.965 Q1680.66 117.665 1680.66 125.523 Q1680.66 129.25 1679.25 132.612 Q1677.87 135.934 1674.18 140.471 Q1673.17 141.646 1667.74 147.277 Q1662.31 152.867 1652.43 162.954 Z" fill="#000000" fill-rule="nonzero" fill-opacity="1" /><path clip-path="url(#clip280)" d="M1407.75 883.023 Q1413.63 884.279 1416.91 888.249 Q1420.23 892.219 1420.23 898.052 Q1420.23 907.004 1414.07 911.906 Q1407.91 916.807 1396.57 916.807 Q1392.76 916.807 1388.71 916.038 Q1384.7 915.309 1380.41 913.81 L1380.41 905.911 Q1383.81 907.896 1387.86 908.908 Q1391.91 909.921 1396.33 909.921 Q1404.03 909.921 1408.04 906.883 Q1412.09 903.845 1412.09 898.052 Q1412.09 892.705 1408.32 889.707 Q1404.59 886.669 1397.91 886.669 L1390.86 886.669 L1390.86 879.944 L1398.23 879.944 Q1404.27 879.944 1407.47 877.554 Q1410.67 875.124 1410.67 870.587 Q1410.67 865.928 1407.35 863.457 Q1404.07 860.946 1397.91 860.946 Q1394.55 860.946 1390.7 861.675 Q1386.85 862.404 1382.23 863.943 L1382.23 856.652 Q1386.89 855.355 1390.94 854.707 Q1395.03 854.059 1398.64 854.059 Q1407.96 854.059 1413.38 858.312 Q1418.81 862.525 1418.81 869.736 Q1418.81 874.759 1415.94 878.243 Q1413.06 881.686 1407.75 883.023 Z" fill="#000000" fill-rule="nonzero" fill-opacity="1" /><path clip-path="url(#clip280)" d="M749.309 1631.1 L728.65 1663.39 L749.309 1663.39 L749.309 1631.1 M747.162 1623.97 L757.452 1623.97 L757.452 1663.39 L766.08 1663.39 L766.08 1670.19 L757.452 1670.19 L757.452 1684.45 L749.309 1684.45 L749.309 1670.19 L722.006 1670.19 L722.006 1662.3 L747.162 1623.97 Z" fill="#000000" fill-rule="nonzero" fill-opacity="1" /><path clip-path="url(#clip280)" d="M821.195 572.695 L853.318 572.695 L853.318 579.582 L828.689 579.582 L828.689 594.408 Q830.471 593.8 832.254 593.517 Q834.036 593.193 835.818 593.193 Q845.946 593.193 851.86 598.743 Q857.774 604.292 857.774 613.771 Q857.774 623.534 851.698 628.962 Q845.621 634.35 834.563 634.35 Q830.755 634.35 826.785 633.702 Q822.855 633.054 818.642 631.757 L818.642 623.534 Q822.288 625.519 826.177 626.491 Q830.066 627.463 834.4 627.463 Q841.409 627.463 845.5 623.777 Q849.591 620.091 849.591 613.771 Q849.591 607.452 845.5 603.766 Q841.409 600.079 834.4 600.079 Q831.119 600.079 827.838 600.808 Q824.597 601.538 821.195 603.077 L821.195 572.695 Z" fill="#000000" fill-rule="nonzero" fill-opacity="1" /><path clip-path="url(#clip280)" d="M640.036 1431.19 Q634.527 1431.19 631.286 1434.96 Q628.086 1438.73 628.086 1445.29 Q628.086 1451.81 631.286 1455.62 Q634.527 1459.39 640.036 1459.39 Q645.545 1459.39 648.746 1455.62 Q651.986 1451.81 651.986 1445.29 Q651.986 1438.73 648.746 1434.96 Q645.545 1431.19 640.036 1431.19 M656.28 1405.55 L656.28 1413 Q653.202 1411.55 650.042 1410.78 Q646.923 1410.01 643.844 1410.01 Q635.742 1410.01 631.448 1415.48 Q627.195 1420.94 626.587 1432 Q628.977 1428.48 632.583 1426.62 Q636.188 1424.71 640.522 1424.71 Q649.637 1424.71 654.903 1430.26 Q660.21 1435.77 660.21 1445.29 Q660.21 1454.61 654.701 1460.24 Q649.191 1465.87 640.036 1465.87 Q629.544 1465.87 623.995 1457.85 Q618.445 1449.79 618.445 1434.51 Q618.445 1420.17 625.25 1411.67 Q632.056 1403.12 643.52 1403.12 Q646.599 1403.12 649.718 1403.73 Q652.878 1404.34 656.28 1405.55 Z" fill="#000000" fill-rule="nonzero" fill-opacity="1" /><path clip-path="url(#clip280)" d="M518.266 280.916 L557.154 280.916 L557.154 284.4 L535.199 341.396 L526.651 341.396 L547.311 287.802 L518.266 287.802 L518.266 280.916 Z" fill="#000000" fill-rule="nonzero" fill-opacity="1" /><path clip-path="url(#clip280)" d="M1843.26 1494.97 Q1837.42 1494.97 1834.06 1498.09 Q1830.74 1501.2 1830.74 1506.67 Q1830.74 1512.14 1834.06 1515.26 Q1837.42 1518.38 1843.26 1518.38 Q1849.09 1518.38 1852.45 1515.26 Q1855.82 1512.1 1855.82 1506.67 Q1855.82 1501.2 1852.45 1498.09 Q1849.13 1494.97 1843.26 1494.97 M1835.07 1491.48 Q1829.81 1490.19 1826.85 1486.58 Q1823.93 1482.98 1823.93 1477.79 Q1823.93 1470.54 1829.08 1466.33 Q1834.26 1462.11 1843.26 1462.11 Q1852.29 1462.11 1857.44 1466.33 Q1862.58 1470.54 1862.58 1477.79 Q1862.58 1482.98 1859.62 1486.58 Q1856.71 1490.19 1851.48 1491.48 Q1857.4 1492.86 1860.68 1496.87 Q1864 1500.88 1864 1506.67 Q1864 1515.46 1858.61 1520.16 Q1853.26 1524.86 1843.26 1524.86 Q1833.25 1524.86 1827.86 1520.16 Q1822.52 1515.46 1822.52 1506.67 Q1822.52 1500.88 1825.84 1496.87 Q1829.16 1492.86 1835.07 1491.48 M1832.08 1478.56 Q1832.08 1483.26 1834.99 1485.89 Q1837.95 1488.53 1843.26 1488.53 Q1848.52 1488.53 1851.48 1485.89 Q1854.48 1483.26 1854.48 1478.56 Q1854.48 1473.86 1851.48 1471.23 Q1848.52 1468.59 1843.26 1468.59 Q1837.95 1468.59 1834.99 1471.23 Q1832.08 1473.86 1832.08 1478.56 Z" fill="#000000" fill-rule="nonzero" fill-opacity="1" /><path clip-path="url(#clip280)" d="M1515.63 1201.93 L1515.63 1194.47 Q1518.7 1195.93 1521.86 1196.7 Q1525.02 1197.47 1528.06 1197.47 Q1536.16 1197.47 1540.42 1192.04 Q1544.71 1186.57 1545.32 1175.47 Q1542.97 1178.96 1539.36 1180.82 Q1535.76 1182.68 1531.38 1182.68 Q1522.31 1182.68 1517 1177.22 Q1511.74 1171.71 1511.74 1162.19 Q1511.74 1152.87 1517.25 1147.24 Q1522.76 1141.61 1531.91 1141.61 Q1542.4 1141.61 1547.91 1149.67 Q1553.46 1157.69 1553.46 1173 Q1553.46 1187.3 1546.66 1195.85 Q1539.89 1204.36 1528.43 1204.36 Q1525.35 1204.36 1522.19 1203.75 Q1519.03 1203.14 1515.63 1201.93 M1531.91 1176.28 Q1537.42 1176.28 1540.62 1172.52 Q1543.86 1168.75 1543.86 1162.19 Q1543.86 1155.66 1540.62 1151.9 Q1537.42 1148.09 1531.91 1148.09 Q1526.4 1148.09 1523.16 1151.9 Q1519.96 1155.66 1519.96 1162.19 Q1519.96 1168.75 1523.16 1172.52 Q1526.4 1176.28 1531.91 1176.28 Z" fill="#000000" fill-rule="nonzero" fill-opacity="1" /><path clip-path="url(#clip280)" d="M1260.51 570.735 L1273.88 570.735 L1273.88 524.595 L1259.34 527.512 L1259.34 520.058 L1273.8 517.142 L1281.98 517.142 L1281.98 570.735 L1295.35 570.735 L1295.35 577.622 L1260.51 577.622 L1260.51 570.735 Z" fill="#000000" fill-rule="nonzero" fill-opacity="1" /><path clip-path="url(#clip280)" d="M1329.38 522.529 Q1323.06 522.529 1319.86 528.768 Q1316.7 534.966 1316.7 547.442 Q1316.7 559.879 1319.86 566.117 Q1323.06 572.315 1329.38 572.315 Q1335.74 572.315 1338.9 566.117 Q1342.1 559.879 1342.1 547.442 Q1342.1 534.966 1338.9 528.768 Q1335.74 522.529 1329.38 522.529 M1329.38 516.048 Q1339.55 516.048 1344.89 524.109 Q1350.28 532.13 1350.28 547.442 Q1350.28 562.714 1344.89 570.776 Q1339.55 578.796 1329.38 578.796 Q1319.21 578.796 1313.82 570.776 Q1308.47 562.714 1308.47 547.442 Q1308.47 532.13 1313.82 524.109 Q1319.21 516.048 1329.38 516.048 Z" fill="#000000" fill-rule="nonzero" fill-opacity="1" /></svg>
