<?xml version="1.0" encoding="utf-8"?>
<svg xmlns="http://www.w3.org/2000/svg" xmlns:xlink="http://www.w3.org/1999/xlink" width="500" height="500" viewBox="0 0 2000 2000">
<defs>
  <clipPath id="clip090">
    <rect x="0" y="0" width="2000" height="2000"/>
  </clipPath>
</defs>
<path clip-path="url(#clip090)" d="M0 2000 L2000 2000 L2000 0 L0 0  Z" fill="#ffffff" fill-rule="evenodd" fill-opacity="1"/>
<defs>
  <clipPath id="clip091">
    <rect x="400" y="200" width="1401" height="1401"/>
  </clipPath>
</defs>
<path clip-path="url(#clip090)" d="M165.121 1865.17 L1952.76 1865.17 L1952.76 153.712 L165.121 153.712  Z" fill="#ffffff" fill-rule="evenodd" fill-opacity="1"/>
<defs>
  <clipPath id="clip092">
    <rect x="165" y="153" width="1789" height="1712"/>
  </clipPath>
</defs>
<polyline clip-path="url(#clip092)" style="stroke:#000000; stroke-linecap:round; stroke-linejoin:round; stroke-width:2; stroke-opacity:0.1; fill:none" points="165.121,1865.17 165.121,153.712 "/>
<polyline clip-path="url(#clip092)" style="stroke:#000000; stroke-linecap:round; stroke-linejoin:round; stroke-width:2; stroke-opacity:0.1; fill:none" points="522.648,1865.17 522.648,153.712 "/>
<polyline clip-path="url(#clip092)" style="stroke:#000000; stroke-linecap:round; stroke-linejoin:round; stroke-width:2; stroke-opacity:0.1; fill:none" points="880.175,1865.17 880.175,153.712 "/>
<polyline clip-path="url(#clip092)" style="stroke:#000000; stroke-linecap:round; stroke-linejoin:round; stroke-width:2; stroke-opacity:0.1; fill:none" points="1237.7,1865.17 1237.7,153.712 "/>
<polyline clip-path="url(#clip092)" style="stroke:#000000; stroke-linecap:round; stroke-linejoin:round; stroke-width:2; stroke-opacity:0.1; fill:none" points="1595.23,1865.17 1595.23,153.712 "/>
<polyline clip-path="url(#clip092)" style="stroke:#000000; stroke-linecap:round; stroke-linejoin:round; stroke-width:2; stroke-opacity:0.1; fill:none" points="1952.76,1865.17 1952.76,153.712 "/>
<polyline clip-path="url(#clip090)" style="stroke:#000000; stroke-linecap:round; stroke-linejoin:round; stroke-width:4; stroke-opacity:1; fill:none" points="165.121,1865.17 1952.76,1865.17 "/>
<polyline clip-path="url(#clip090)" style="stroke:#000000; stroke-linecap:round; stroke-linejoin:round; stroke-width:4; stroke-opacity:1; fill:none" points="165.121,1865.17 165.121,1846.27 "/>
<polyline clip-path="url(#clip090)" style="stroke:#000000; stroke-linecap:round; stroke-linejoin:round; stroke-width:4; stroke-opacity:1; fill:none" points="522.648,1865.17 522.648,1846.27 "/>
<polyline clip-path="url(#clip090)" style="stroke:#000000; stroke-linecap:round; stroke-linejoin:round; stroke-width:4; stroke-opacity:1; fill:none" points="880.175,1865.17 880.175,1846.27 "/>
<polyline clip-path="url(#clip090)" style="stroke:#000000; stroke-linecap:round; stroke-linejoin:round; stroke-width:4; stroke-opacity:1; fill:none" points="1237.7,1865.17 1237.7,1846.27 "/>
<polyline clip-path="url(#clip090)" style="stroke:#000000; stroke-linecap:round; stroke-linejoin:round; stroke-width:4; stroke-opacity:1; fill:none" points="1595.23,1865.17 1595.23,1846.27 "/>
<polyline clip-path="url(#clip090)" style="stroke:#000000; stroke-linecap:round; stroke-linejoin:round; stroke-width:4; stroke-opacity:1; fill:none" points="1952.76,1865.17 1952.76,1846.27 "/>
<path clip-path="url(#clip090)" d="M165.121 1892.89 Q161.51 1892.89 159.682 1896.45 Q157.876 1899.99 157.876 1907.12 Q157.876 1914.23 159.682 1917.79 Q161.51 1921.34 165.121 1921.34 Q168.756 1921.34 170.561 1917.79 Q172.39 1914.23 172.39 1907.12 Q172.39 1899.99 170.561 1896.45 Q168.756 1892.89 165.121 1892.89 M165.121 1889.18 Q170.931 1889.18 173.987 1893.79 Q177.066 1898.37 177.066 1907.12 Q177.066 1915.85 173.987 1920.46 Q170.931 1925.04 165.121 1925.04 Q159.311 1925.04 156.232 1920.46 Q153.177 1915.85 153.177 1907.12 Q153.177 1898.37 156.232 1893.79 Q159.311 1889.18 165.121 1889.18 Z" fill="#000000" fill-rule="nonzero" fill-opacity="1" /><path clip-path="url(#clip090)" d="M501.421 1920.43 L517.741 1920.43 L517.741 1924.37 L495.797 1924.37 L495.797 1920.43 Q498.459 1917.68 503.042 1913.05 Q507.648 1908.4 508.829 1907.05 Q511.074 1904.53 511.954 1902.79 Q512.857 1901.03 512.857 1899.34 Q512.857 1896.59 510.912 1894.85 Q508.991 1893.12 505.889 1893.12 Q503.69 1893.12 501.236 1893.88 Q498.806 1894.65 496.028 1896.2 L496.028 1891.47 Q498.852 1890.34 501.306 1889.76 Q503.759 1889.18 505.796 1889.18 Q511.167 1889.18 514.361 1891.87 Q517.556 1894.55 517.556 1899.04 Q517.556 1901.17 516.745 1903.09 Q515.958 1904.99 513.852 1907.59 Q513.273 1908.26 510.171 1911.47 Q507.07 1914.67 501.421 1920.43 Z" fill="#000000" fill-rule="nonzero" fill-opacity="1" /><path clip-path="url(#clip090)" d="M537.556 1892.89 Q533.944 1892.89 532.116 1896.45 Q530.31 1899.99 530.31 1907.12 Q530.31 1914.23 532.116 1917.79 Q533.944 1921.34 537.556 1921.34 Q541.19 1921.34 542.995 1917.79 Q544.824 1914.23 544.824 1907.12 Q544.824 1899.99 542.995 1896.45 Q541.19 1892.89 537.556 1892.89 M537.556 1889.18 Q543.366 1889.18 546.421 1893.79 Q549.5 1898.37 549.5 1907.12 Q549.5 1915.85 546.421 1920.46 Q543.366 1925.04 537.556 1925.04 Q531.745 1925.04 528.667 1920.46 Q525.611 1915.85 525.611 1907.12 Q525.611 1898.37 528.667 1893.79 Q531.745 1889.18 537.556 1889.18 Z" fill="#000000" fill-rule="nonzero" fill-opacity="1" /><path clip-path="url(#clip090)" d="M868.347 1893.88 L856.541 1912.33 L868.347 1912.33 L868.347 1893.88 M867.12 1889.81 L872.999 1889.81 L872.999 1912.33 L877.93 1912.33 L877.93 1916.22 L872.999 1916.22 L872.999 1924.37 L868.347 1924.37 L868.347 1916.22 L852.745 1916.22 L852.745 1911.71 L867.12 1889.81 Z" fill="#000000" fill-rule="nonzero" fill-opacity="1" /><path clip-path="url(#clip090)" d="M895.661 1892.89 Q892.05 1892.89 890.221 1896.45 Q888.416 1899.99 888.416 1907.12 Q888.416 1914.23 890.221 1917.79 Q892.05 1921.34 895.661 1921.34 Q899.295 1921.34 901.101 1917.79 Q902.93 1914.23 902.93 1907.12 Q902.93 1899.99 901.101 1896.45 Q899.295 1892.89 895.661 1892.89 M895.661 1889.18 Q901.471 1889.18 904.527 1893.79 Q907.606 1898.37 907.606 1907.12 Q907.606 1915.85 904.527 1920.46 Q901.471 1925.04 895.661 1925.04 Q889.851 1925.04 886.772 1920.46 Q883.717 1915.85 883.717 1907.12 Q883.717 1898.37 886.772 1893.79 Q889.851 1889.18 895.661 1889.18 Z" fill="#000000" fill-rule="nonzero" fill-opacity="1" /><path clip-path="url(#clip090)" d="M1223.11 1905.22 Q1219.96 1905.22 1218.11 1907.38 Q1216.28 1909.53 1216.28 1913.28 Q1216.28 1917.01 1218.11 1919.18 Q1219.96 1921.34 1223.11 1921.34 Q1226.26 1921.34 1228.08 1919.18 Q1229.94 1917.01 1229.94 1913.28 Q1229.94 1909.53 1228.08 1907.38 Q1226.26 1905.22 1223.11 1905.22 M1232.39 1890.57 L1232.39 1894.83 Q1230.63 1894 1228.82 1893.56 Q1227.04 1893.12 1225.28 1893.12 Q1220.65 1893.12 1218.2 1896.24 Q1215.77 1899.37 1215.42 1905.69 Q1216.79 1903.67 1218.85 1902.61 Q1220.91 1901.52 1223.39 1901.52 Q1228.59 1901.52 1231.6 1904.69 Q1234.63 1907.84 1234.63 1913.28 Q1234.63 1918.6 1231.49 1921.82 Q1228.34 1925.04 1223.11 1925.04 Q1217.11 1925.04 1213.94 1920.46 Q1210.77 1915.85 1210.77 1907.12 Q1210.77 1898.93 1214.66 1894.07 Q1218.55 1889.18 1225.1 1889.18 Q1226.86 1889.18 1228.64 1889.53 Q1230.45 1889.88 1232.39 1890.57 Z" fill="#000000" fill-rule="nonzero" fill-opacity="1" /><path clip-path="url(#clip090)" d="M1252.69 1892.89 Q1249.08 1892.89 1247.25 1896.45 Q1245.45 1899.99 1245.45 1907.12 Q1245.45 1914.23 1247.25 1917.79 Q1249.08 1921.34 1252.69 1921.34 Q1256.32 1921.34 1258.13 1917.79 Q1259.96 1914.23 1259.96 1907.12 Q1259.96 1899.99 1258.13 1896.45 Q1256.32 1892.89 1252.69 1892.89 M1252.69 1889.18 Q1258.5 1889.18 1261.56 1893.79 Q1264.63 1898.37 1264.63 1907.12 Q1264.63 1915.85 1261.56 1920.46 Q1258.5 1925.04 1252.69 1925.04 Q1246.88 1925.04 1243.8 1920.46 Q1240.75 1915.85 1240.75 1907.12 Q1240.75 1898.37 1243.8 1893.79 Q1246.88 1889.18 1252.69 1889.18 Z" fill="#000000" fill-rule="nonzero" fill-opacity="1" /><path clip-path="url(#clip090)" d="M1580.1 1907.96 Q1576.77 1907.96 1574.85 1909.74 Q1572.95 1911.52 1572.95 1914.65 Q1572.95 1917.77 1574.85 1919.55 Q1576.77 1921.34 1580.1 1921.34 Q1583.44 1921.34 1585.36 1919.55 Q1587.28 1917.75 1587.28 1914.65 Q1587.28 1911.52 1585.36 1909.74 Q1583.46 1907.96 1580.1 1907.96 M1575.43 1905.97 Q1572.42 1905.22 1570.73 1903.16 Q1569.06 1901.1 1569.06 1898.14 Q1569.06 1894 1572 1891.59 Q1574.96 1889.18 1580.1 1889.18 Q1585.26 1889.18 1588.2 1891.59 Q1591.14 1894 1591.14 1898.14 Q1591.14 1901.1 1589.45 1903.16 Q1587.79 1905.22 1584.8 1905.97 Q1588.18 1906.75 1590.06 1909.04 Q1591.95 1911.34 1591.95 1914.65 Q1591.95 1919.67 1588.87 1922.35 Q1585.82 1925.04 1580.1 1925.04 Q1574.38 1925.04 1571.31 1922.35 Q1568.25 1919.67 1568.25 1914.65 Q1568.25 1911.34 1570.15 1909.04 Q1572.05 1906.75 1575.43 1905.97 M1573.71 1898.58 Q1573.71 1901.27 1575.38 1902.77 Q1577.07 1904.28 1580.1 1904.28 Q1583.11 1904.28 1584.8 1902.77 Q1586.51 1901.27 1586.51 1898.58 Q1586.51 1895.9 1584.8 1894.39 Q1583.11 1892.89 1580.1 1892.89 Q1577.07 1892.89 1575.38 1894.39 Q1573.71 1895.9 1573.71 1898.58 Z" fill="#000000" fill-rule="nonzero" fill-opacity="1" /><path clip-path="url(#clip090)" d="M1610.26 1892.89 Q1606.65 1892.89 1604.82 1896.45 Q1603.02 1899.99 1603.02 1907.12 Q1603.02 1914.23 1604.82 1917.79 Q1606.65 1921.34 1610.26 1921.34 Q1613.9 1921.34 1615.7 1917.79 Q1617.53 1914.23 1617.53 1907.12 Q1617.53 1899.99 1615.7 1896.45 Q1613.9 1892.89 1610.26 1892.89 M1610.26 1889.18 Q1616.07 1889.18 1619.13 1893.79 Q1622.21 1898.37 1622.21 1907.12 Q1622.21 1915.85 1619.13 1920.46 Q1616.07 1925.04 1610.26 1925.04 Q1604.45 1925.04 1601.37 1920.46 Q1598.32 1915.85 1598.32 1907.12 Q1598.32 1898.37 1601.37 1893.79 Q1604.45 1889.18 1610.26 1889.18 Z" fill="#000000" fill-rule="nonzero" fill-opacity="1" /><path clip-path="url(#clip090)" d="M1912.36 1920.43 L1920 1920.43 L1920 1894.07 L1911.69 1895.73 L1911.69 1891.47 L1919.96 1889.81 L1924.63 1889.81 L1924.63 1920.43 L1932.27 1920.43 L1932.27 1924.37 L1912.36 1924.37 L1912.36 1920.43 Z" fill="#000000" fill-rule="nonzero" fill-opacity="1" /><path clip-path="url(#clip090)" d="M1951.71 1892.89 Q1948.1 1892.89 1946.27 1896.45 Q1944.47 1899.99 1944.47 1907.12 Q1944.47 1914.23 1946.27 1917.79 Q1948.1 1921.34 1951.71 1921.34 Q1955.35 1921.34 1957.15 1917.79 Q1958.98 1914.23 1958.98 1907.12 Q1958.98 1899.99 1957.15 1896.45 Q1955.35 1892.89 1951.71 1892.89 M1951.71 1889.18 Q1957.52 1889.18 1960.58 1893.79 Q1963.66 1898.37 1963.66 1907.12 Q1963.66 1915.85 1960.58 1920.46 Q1957.52 1925.04 1951.71 1925.04 Q1945.9 1925.04 1942.83 1920.46 Q1939.77 1915.85 1939.77 1907.12 Q1939.77 1898.37 1942.83 1893.79 Q1945.9 1889.18 1951.71 1889.18 Z" fill="#000000" fill-rule="nonzero" fill-opacity="1" /><path clip-path="url(#clip090)" d="M1981.88 1892.89 Q1978.27 1892.89 1976.44 1896.45 Q1974.63 1899.99 1974.63 1907.12 Q1974.63 1914.23 1976.44 1917.79 Q1978.27 1921.34 1981.88 1921.34 Q1985.51 1921.34 1987.32 1917.79 Q1989.14 1914.23 1989.14 1907.12 Q1989.14 1899.99 1987.32 1896.45 Q1985.51 1892.89 1981.88 1892.89 M1981.88 1889.18 Q1987.69 1889.18 1990.74 1893.79 Q1993.82 1898.37 1993.82 1907.12 Q1993.82 1915.85 1990.74 1920.46 Q1987.69 1925.04 1981.88 1925.04 Q1976.07 1925.04 1972.99 1920.46 Q1969.93 1915.85 1969.93 1907.12 Q1969.93 1898.37 1972.99 1893.79 Q1976.07 1889.18 1981.88 1889.18 Z" fill="#000000" fill-rule="nonzero" fill-opacity="1" /><polyline clip-path="url(#clip092)" style="stroke:#000000; stroke-linecap:round; stroke-linejoin:round; stroke-width:2; stroke-opacity:0.1; fill:none" points="165.121,1865.17 1952.76,1865.17 "/>
<polyline clip-path="url(#clip092)" style="stroke:#000000; stroke-linecap:round; stroke-linejoin:round; stroke-width:2; stroke-opacity:0.1; fill:none" points="165.121,1522.88 1952.76,1522.88 "/>
<polyline clip-path="url(#clip092)" style="stroke:#000000; stroke-linecap:round; stroke-linejoin:round; stroke-width:2; stroke-opacity:0.1; fill:none" points="165.121,1180.59 1952.76,1180.59 "/>
<polyline clip-path="url(#clip092)" style="stroke:#000000; stroke-linecap:round; stroke-linejoin:round; stroke-width:2; stroke-opacity:0.1; fill:none" points="165.121,838.294 1952.76,838.294 "/>
<polyline clip-path="url(#clip092)" style="stroke:#000000; stroke-linecap:round; stroke-linejoin:round; stroke-width:2; stroke-opacity:0.1; fill:none" points="165.121,496.003 1952.76,496.003 "/>
<polyline clip-path="url(#clip092)" style="stroke:#000000; stroke-linecap:round; stroke-linejoin:round; stroke-width:2; stroke-opacity:0.1; fill:none" points="165.121,153.712 1952.76,153.712 "/>
<polyline clip-path="url(#clip090)" style="stroke:#000000; stroke-linecap:round; stroke-linejoin:round; stroke-width:4; stroke-opacity:1; fill:none" points="165.121,1865.17 165.121,153.712 "/>
<polyline clip-path="url(#clip090)" style="stroke:#000000; stroke-linecap:round; stroke-linejoin:round; stroke-width:4; stroke-opacity:1; fill:none" points="165.121,1865.17 184.019,1865.17 "/>
<polyline clip-path="url(#clip090)" style="stroke:#000000; stroke-linecap:round; stroke-linejoin:round; stroke-width:4; stroke-opacity:1; fill:none" points="165.121,1522.88 184.019,1522.88 "/>
<polyline clip-path="url(#clip090)" style="stroke:#000000; stroke-linecap:round; stroke-linejoin:round; stroke-width:4; stroke-opacity:1; fill:none" points="165.121,1180.59 184.019,1180.59 "/>
<polyline clip-path="url(#clip090)" style="stroke:#000000; stroke-linecap:round; stroke-linejoin:round; stroke-width:4; stroke-opacity:1; fill:none" points="165.121,838.294 184.019,838.294 "/>
<polyline clip-path="url(#clip090)" style="stroke:#000000; stroke-linecap:round; stroke-linejoin:round; stroke-width:4; stroke-opacity:1; fill:none" points="165.121,496.003 184.019,496.003 "/>
<polyline clip-path="url(#clip090)" style="stroke:#000000; stroke-linecap:round; stroke-linejoin:round; stroke-width:4; stroke-opacity:1; fill:none" points="165.121,153.712 184.019,153.712 "/>
<path clip-path="url(#clip090)" d="M123.177 1850.97 Q119.566 1850.97 117.737 1854.53 Q115.932 1858.07 115.932 1865.2 Q115.932 1872.31 117.737 1875.87 Q119.566 1879.42 123.177 1879.42 Q126.811 1879.42 128.617 1875.87 Q130.445 1872.31 130.445 1865.2 Q130.445 1858.07 128.617 1854.53 Q126.811 1850.97 123.177 1850.97 M123.177 1847.26 Q128.987 1847.26 132.043 1851.87 Q135.121 1856.45 135.121 1865.2 Q135.121 1873.93 132.043 1878.54 Q128.987 1883.12 123.177 1883.12 Q117.367 1883.12 114.288 1878.54 Q111.233 1873.93 111.233 1865.2 Q111.233 1856.45 114.288 1851.87 Q117.367 1847.26 123.177 1847.26 Z" fill="#000000" fill-rule="nonzero" fill-opacity="1" /><path clip-path="url(#clip090)" d="M87.0429 1536.22 L103.362 1536.22 L103.362 1540.16 L81.4179 1540.16 L81.4179 1536.22 Q84.0799 1533.47 88.6632 1528.84 Q93.2697 1524.18 94.4502 1522.84 Q96.6956 1520.32 97.5752 1518.58 Q98.478 1516.82 98.478 1515.13 Q98.478 1512.38 96.5336 1510.64 Q94.6123 1508.91 91.5104 1508.91 Q89.3114 1508.91 86.8577 1509.67 Q84.4271 1510.43 81.6494 1511.99 L81.6494 1507.26 Q84.4734 1506.13 86.9271 1505.55 Q89.3808 1504.97 91.4178 1504.97 Q96.7882 1504.97 99.9826 1507.66 Q103.177 1510.34 103.177 1514.83 Q103.177 1516.96 102.367 1518.88 Q101.58 1520.78 99.4734 1523.37 Q98.8947 1524.05 95.7928 1527.26 Q92.691 1530.46 87.0429 1536.22 Z" fill="#000000" fill-rule="nonzero" fill-opacity="1" /><path clip-path="url(#clip090)" d="M123.177 1508.68 Q119.566 1508.68 117.737 1512.24 Q115.932 1515.78 115.932 1522.91 Q115.932 1530.02 117.737 1533.58 Q119.566 1537.12 123.177 1537.12 Q126.811 1537.12 128.617 1533.58 Q130.445 1530.02 130.445 1522.91 Q130.445 1515.78 128.617 1512.24 Q126.811 1508.68 123.177 1508.68 M123.177 1504.97 Q128.987 1504.97 132.043 1509.58 Q135.121 1514.16 135.121 1522.91 Q135.121 1531.64 132.043 1536.24 Q128.987 1540.83 123.177 1540.83 Q117.367 1540.83 114.288 1536.24 Q111.233 1531.64 111.233 1522.91 Q111.233 1514.16 114.288 1509.58 Q117.367 1504.97 123.177 1504.97 Z" fill="#000000" fill-rule="nonzero" fill-opacity="1" /><path clip-path="url(#clip090)" d="M95.8623 1167.38 L84.0568 1185.83 L95.8623 1185.83 L95.8623 1167.38 M94.6354 1163.31 L100.515 1163.31 L100.515 1185.83 L105.446 1185.83 L105.446 1189.72 L100.515 1189.72 L100.515 1197.87 L95.8623 1197.87 L95.8623 1189.72 L80.2605 1189.72 L80.2605 1185.2 L94.6354 1163.31 Z" fill="#000000" fill-rule="nonzero" fill-opacity="1" /><path clip-path="url(#clip090)" d="M123.177 1166.38 Q119.566 1166.38 117.737 1169.95 Q115.932 1173.49 115.932 1180.62 Q115.932 1187.73 117.737 1191.29 Q119.566 1194.83 123.177 1194.83 Q126.811 1194.83 128.617 1191.29 Q130.445 1187.73 130.445 1180.62 Q130.445 1173.49 128.617 1169.95 Q126.811 1166.38 123.177 1166.38 M123.177 1162.68 Q128.987 1162.68 132.043 1167.29 Q135.121 1171.87 135.121 1180.62 Q135.121 1189.35 132.043 1193.95 Q128.987 1198.54 123.177 1198.54 Q117.367 1198.54 114.288 1193.95 Q111.233 1189.35 111.233 1180.62 Q111.233 1171.87 114.288 1167.29 Q117.367 1162.68 123.177 1162.68 Z" fill="#000000" fill-rule="nonzero" fill-opacity="1" /><path clip-path="url(#clip090)" d="M93.5938 836.431 Q90.4456 836.431 88.5938 838.584 Q86.7651 840.737 86.7651 844.487 Q86.7651 848.213 88.5938 850.389 Q90.4456 852.542 93.5938 852.542 Q96.7419 852.542 98.5706 850.389 Q100.422 848.213 100.422 844.487 Q100.422 840.737 98.5706 838.584 Q96.7419 836.431 93.5938 836.431 M102.876 821.778 L102.876 826.038 Q101.117 825.204 99.3113 824.764 Q97.5289 824.325 95.7697 824.325 Q91.1401 824.325 88.6864 827.45 Q86.2558 830.575 85.9086 836.894 Q87.2743 834.88 89.3345 833.815 Q91.3947 832.727 93.8715 832.727 Q99.0798 832.727 102.089 835.899 Q105.121 839.047 105.121 844.487 Q105.121 849.811 101.973 853.028 Q98.8252 856.246 93.5938 856.246 Q87.5984 856.246 84.4271 851.662 Q81.2559 847.056 81.2559 838.329 Q81.2559 830.135 85.1447 825.274 Q89.0336 820.389 95.5845 820.389 Q97.3437 820.389 99.1261 820.737 Q100.932 821.084 102.876 821.778 Z" fill="#000000" fill-rule="nonzero" fill-opacity="1" /><path clip-path="url(#clip090)" d="M123.177 824.093 Q119.566 824.093 117.737 827.658 Q115.932 831.2 115.932 838.329 Q115.932 845.436 117.737 849 Q119.566 852.542 123.177 852.542 Q126.811 852.542 128.617 849 Q130.445 845.436 130.445 838.329 Q130.445 831.2 128.617 827.658 Q126.811 824.093 123.177 824.093 M123.177 820.389 Q128.987 820.389 132.043 824.996 Q135.121 829.579 135.121 838.329 Q135.121 847.056 132.043 851.662 Q128.987 856.246 123.177 856.246 Q117.367 856.246 114.288 851.662 Q111.233 847.056 111.233 838.329 Q111.233 829.579 114.288 824.996 Q117.367 820.389 123.177 820.389 Z" fill="#000000" fill-rule="nonzero" fill-opacity="1" /><path clip-path="url(#clip090)" d="M93.0151 496.871 Q89.6817 496.871 87.7605 498.654 Q85.8623 500.436 85.8623 503.561 Q85.8623 506.686 87.7605 508.468 Q89.6817 510.251 93.0151 510.251 Q96.3484 510.251 98.2697 508.468 Q100.191 506.663 100.191 503.561 Q100.191 500.436 98.2697 498.654 Q96.3715 496.871 93.0151 496.871 M88.3392 494.881 Q85.3299 494.14 83.6401 492.08 Q81.9735 490.02 81.9735 487.057 Q81.9735 482.913 84.9133 480.506 Q87.8762 478.098 93.0151 478.098 Q98.1771 478.098 101.117 480.506 Q104.057 482.913 104.057 487.057 Q104.057 490.02 102.367 492.08 Q100.7 494.14 97.7141 494.881 Q101.094 495.668 102.969 497.959 Q104.867 500.251 104.867 503.561 Q104.867 508.584 101.788 511.269 Q98.7326 513.955 93.0151 513.955 Q87.2975 513.955 84.2188 511.269 Q81.1633 508.584 81.1633 503.561 Q81.1633 500.251 83.0614 497.959 Q84.9595 495.668 88.3392 494.881 M86.6262 487.496 Q86.6262 490.182 88.2929 491.686 Q89.9827 493.191 93.0151 493.191 Q96.0243 493.191 97.7141 491.686 Q99.4271 490.182 99.4271 487.496 Q99.4271 484.811 97.7141 483.307 Q96.0243 481.802 93.0151 481.802 Q89.9827 481.802 88.2929 483.307 Q86.6262 484.811 86.6262 487.496 Z" fill="#000000" fill-rule="nonzero" fill-opacity="1" /><path clip-path="url(#clip090)" d="M123.177 481.802 Q119.566 481.802 117.737 485.367 Q115.932 488.908 115.932 496.038 Q115.932 503.144 117.737 506.709 Q119.566 510.251 123.177 510.251 Q126.811 510.251 128.617 506.709 Q130.445 503.144 130.445 496.038 Q130.445 488.908 128.617 485.367 Q126.811 481.802 123.177 481.802 M123.177 478.098 Q128.987 478.098 132.043 482.705 Q135.121 487.288 135.121 496.038 Q135.121 504.765 132.043 509.371 Q128.987 513.955 123.177 513.955 Q117.367 513.955 114.288 509.371 Q111.233 504.765 111.233 496.038 Q111.233 487.288 114.288 482.705 Q117.367 478.098 123.177 478.098 Z" fill="#000000" fill-rule="nonzero" fill-opacity="1" /><path clip-path="url(#clip090)" d="M53.6634 167.057 L61.3023 167.057 L61.3023 140.691 L52.9921 142.358 L52.9921 138.099 L61.256 136.432 L65.9319 136.432 L65.9319 167.057 L73.5707 167.057 L73.5707 170.992 L53.6634 170.992 L53.6634 167.057 Z" fill="#000000" fill-rule="nonzero" fill-opacity="1" /><path clip-path="url(#clip090)" d="M93.0151 139.511 Q89.404 139.511 87.5753 143.076 Q85.7697 146.617 85.7697 153.747 Q85.7697 160.853 87.5753 164.418 Q89.404 167.96 93.0151 167.96 Q96.6493 167.96 98.4548 164.418 Q100.284 160.853 100.284 153.747 Q100.284 146.617 98.4548 143.076 Q96.6493 139.511 93.0151 139.511 M93.0151 135.807 Q98.8252 135.807 101.881 140.414 Q104.959 144.997 104.959 153.747 Q104.959 162.474 101.881 167.08 Q98.8252 171.663 93.0151 171.663 Q87.2049 171.663 84.1262 167.08 Q81.0707 162.474 81.0707 153.747 Q81.0707 144.997 84.1262 140.414 Q87.2049 135.807 93.0151 135.807 Z" fill="#000000" fill-rule="nonzero" fill-opacity="1" /><path clip-path="url(#clip090)" d="M123.177 139.511 Q119.566 139.511 117.737 143.076 Q115.932 146.617 115.932 153.747 Q115.932 160.853 117.737 164.418 Q119.566 167.96 123.177 167.96 Q126.811 167.96 128.617 164.418 Q130.445 160.853 130.445 153.747 Q130.445 146.617 128.617 143.076 Q126.811 139.511 123.177 139.511 M123.177 135.807 Q128.987 135.807 132.043 140.414 Q135.121 144.997 135.121 153.747 Q135.121 162.474 132.043 167.08 Q128.987 171.663 123.177 171.663 Q117.367 171.663 114.288 167.08 Q111.233 162.474 111.233 153.747 Q111.233 144.997 114.288 140.414 Q117.367 135.807 123.177 135.807 Z" fill="#000000" fill-rule="nonzero" fill-opacity="1" /><path clip-path="url(#clip090)" d="M538.478 16.7545 L538.478 25.383 Q534.347 21.5346 529.647 19.6307 Q524.989 17.7268 519.723 17.7268 Q509.352 17.7268 503.843 24.0867 Q498.334 30.4061 498.334 42.3968 Q498.334 54.3469 503.843 60.7069 Q509.352 67.0263 519.723 67.0263 Q524.989 67.0263 529.647 65.1223 Q534.347 63.2184 538.478 59.3701 L538.478 67.9175 Q534.184 70.8341 529.364 72.2924 Q524.584 73.7508 519.237 73.7508 Q505.504 73.7508 497.605 65.3654 Q489.706 56.9395 489.706 42.3968 Q489.706 27.8135 497.605 19.4281 Q505.504 11.0023 519.237 11.0023 Q524.665 11.0023 529.445 12.4606 Q534.265 13.8784 538.478 16.7545 Z" fill="#000000" fill-rule="nonzero" fill-opacity="1" /><path clip-path="url(#clip090)" d="M568.374 32.4315 Q562.379 32.4315 558.895 37.1306 Q555.411 41.7891 555.411 49.9314 Q555.411 58.0738 558.854 62.7728 Q562.338 67.4314 568.374 67.4314 Q574.329 67.4314 577.813 62.7323 Q581.296 58.0333 581.296 49.9314 Q581.296 41.8701 577.813 37.1711 Q574.329 32.4315 568.374 32.4315 M568.374 26.1121 Q578.096 26.1121 583.646 32.4315 Q589.196 38.7509 589.196 49.9314 Q589.196 61.0714 583.646 67.4314 Q578.096 73.7508 568.374 73.7508 Q558.611 73.7508 553.062 67.4314 Q547.552 61.0714 547.552 49.9314 Q547.552 38.7509 553.062 32.4315 Q558.611 26.1121 568.374 26.1121 Z" fill="#000000" fill-rule="nonzero" fill-opacity="1" /><path clip-path="url(#clip090)" d="M601.551 9.54393 L609.005 9.54393 L609.005 72.576 L601.551 72.576 L601.551 9.54393 Z" fill="#000000" fill-rule="nonzero" fill-opacity="1" /><path clip-path="url(#clip090)" d="M623.831 54.671 L623.831 27.2059 L631.285 27.2059 L631.285 54.3874 Q631.285 60.8284 633.796 64.0691 Q636.308 67.2693 641.331 67.2693 Q647.367 67.2693 650.851 63.421 Q654.375 59.5726 654.375 52.9291 L654.375 27.2059 L661.828 27.2059 L661.828 72.576 L654.375 72.576 L654.375 65.6084 Q651.661 69.7404 648.055 71.7658 Q644.491 73.7508 639.751 73.7508 Q631.933 73.7508 627.882 68.8897 Q623.831 64.0286 623.831 54.671 M642.587 26.1121 L642.587 26.1121 Z" fill="#000000" fill-rule="nonzero" fill-opacity="1" /><path clip-path="url(#clip090)" d="M712.505 35.9153 Q715.3 30.8922 719.189 28.5022 Q723.078 26.1121 728.344 26.1121 Q735.433 26.1121 739.282 31.0947 Q743.13 36.0368 743.13 45.1919 L743.13 72.576 L735.636 72.576 L735.636 45.4349 Q735.636 38.913 733.327 35.7533 Q731.018 32.5936 726.278 32.5936 Q720.486 32.5936 717.123 36.4419 Q713.761 40.2903 713.761 46.9338 L713.761 72.576 L706.267 72.576 L706.267 45.4349 Q706.267 38.8725 703.958 35.7533 Q701.649 32.5936 696.828 32.5936 Q691.117 32.5936 687.754 36.4824 Q684.392 40.3308 684.392 46.9338 L684.392 72.576 L676.898 72.576 L676.898 27.2059 L684.392 27.2059 L684.392 34.2544 Q686.944 30.082 690.509 28.0971 Q694.074 26.1121 698.975 26.1121 Q703.917 26.1121 707.361 28.6237 Q710.844 31.1352 712.505 35.9153 Z" fill="#000000" fill-rule="nonzero" fill-opacity="1" /><path clip-path="url(#clip090)" d="M795.711 45.1919 L795.711 72.576 L788.257 72.576 L788.257 45.4349 Q788.257 38.994 785.746 35.7938 Q783.234 32.5936 778.211 32.5936 Q772.175 32.5936 768.691 36.4419 Q765.208 40.2903 765.208 46.9338 L765.208 72.576 L757.713 72.576 L757.713 27.2059 L765.208 27.2059 L765.208 34.2544 Q767.881 30.163 771.486 28.1376 Q775.132 26.1121 779.872 26.1121 Q787.69 26.1121 791.7 30.9732 Q795.711 35.7938 795.711 45.1919 Z" fill="#000000" fill-rule="nonzero" fill-opacity="1" /><path clip-path="url(#clip090)" d="M866.804 49.3643 Q866.804 41.2625 863.442 36.8065 Q860.12 32.3505 854.084 32.3505 Q848.089 32.3505 844.727 36.8065 Q841.405 41.2625 841.405 49.3643 Q841.405 57.4256 844.727 61.8816 Q848.089 66.3376 854.084 66.3376 Q860.12 66.3376 863.442 61.8816 Q866.804 57.4256 866.804 49.3643 M874.258 66.9452 Q874.258 78.5308 869.113 84.1616 Q863.969 89.8329 853.355 89.8329 Q849.426 89.8329 845.942 89.2252 Q842.458 88.6581 839.177 87.4428 L839.177 80.1917 Q842.458 81.9741 845.659 82.8248 Q848.859 83.6755 852.18 83.6755 Q859.513 83.6755 863.158 79.8271 Q866.804 76.0193 866.804 68.282 L866.804 64.5957 Q864.495 68.6061 860.89 70.5911 Q857.285 72.576 852.261 72.576 Q843.917 72.576 838.812 66.2161 Q833.708 59.8562 833.708 49.3643 Q833.708 38.832 838.812 32.472 Q843.917 26.1121 852.261 26.1121 Q857.285 26.1121 860.89 28.0971 Q864.495 30.082 866.804 34.0924 L866.804 27.2059 L874.258 27.2059 L874.258 66.9452 Z" fill="#000000" fill-rule="nonzero" fill-opacity="1" /><path clip-path="url(#clip090)" d="M928.418 48.0275 L928.418 51.6733 L894.148 51.6733 Q894.634 59.3701 898.766 63.421 Q902.938 67.4314 910.351 67.4314 Q914.645 67.4314 918.656 66.3781 Q922.707 65.3249 926.677 63.2184 L926.677 70.267 Q922.666 71.9684 918.453 72.8596 Q914.24 73.7508 909.906 73.7508 Q899.049 73.7508 892.69 67.4314 Q886.37 61.1119 886.37 50.3365 Q886.37 39.1965 892.365 32.6746 Q898.401 26.1121 908.61 26.1121 Q917.765 26.1121 923.071 32.0264 Q928.418 37.9003 928.418 48.0275 M920.965 45.84 Q920.884 39.7232 917.522 36.0774 Q914.2 32.4315 908.691 32.4315 Q902.452 32.4315 898.685 35.9558 Q894.958 39.4801 894.391 45.8805 L920.965 45.84 Z" fill="#000000" fill-rule="nonzero" fill-opacity="1" /><path clip-path="url(#clip090)" d="M978.366 45.1919 L978.366 72.576 L970.912 72.576 L970.912 45.4349 Q970.912 38.994 968.401 35.7938 Q965.889 32.5936 960.866 32.5936 Q954.83 32.5936 951.347 36.4419 Q947.863 40.2903 947.863 46.9338 L947.863 72.576 L940.369 72.576 L940.369 27.2059 L947.863 27.2059 L947.863 34.2544 Q950.536 30.163 954.142 28.1376 Q957.788 26.1121 962.527 26.1121 Q970.345 26.1121 974.356 30.9732 Q978.366 35.7938 978.366 45.1919 Z" fill="#000000" fill-rule="nonzero" fill-opacity="1" /><path clip-path="url(#clip090)" d="M1032.04 48.0275 L1032.04 51.6733 L997.77 51.6733 Q998.256 59.3701 1002.39 63.421 Q1006.56 67.4314 1013.97 67.4314 Q1018.27 67.4314 1022.28 66.3781 Q1026.33 65.3249 1030.3 63.2184 L1030.3 70.267 Q1026.29 71.9684 1022.08 72.8596 Q1017.86 73.7508 1013.53 73.7508 Q1002.67 73.7508 996.312 67.4314 Q989.992 61.1119 989.992 50.3365 Q989.992 39.1965 995.988 32.6746 Q1002.02 26.1121 1012.23 26.1121 Q1021.39 26.1121 1026.69 32.0264 Q1032.04 37.9003 1032.04 48.0275 M1024.59 45.84 Q1024.51 39.7232 1021.14 36.0774 Q1017.82 32.4315 1012.31 32.4315 Q1006.07 32.4315 1002.31 35.9558 Q998.58 39.4801 998.013 45.8805 L1024.59 45.84 Z" fill="#000000" fill-rule="nonzero" fill-opacity="1" /><path clip-path="url(#clip090)" d="M1070.56 34.1734 Q1069.31 33.4443 1067.81 33.1202 Q1066.35 32.7556 1064.57 32.7556 Q1058.25 32.7556 1054.85 36.8875 Q1051.48 40.9789 1051.48 48.6757 L1051.48 72.576 L1043.99 72.576 L1043.99 27.2059 L1051.48 27.2059 L1051.48 34.2544 Q1053.83 30.1225 1057.6 28.1376 Q1061.37 26.1121 1066.76 26.1121 Q1067.53 26.1121 1068.46 26.2337 Q1069.39 26.3147 1070.52 26.5172 L1070.56 34.1734 Z" fill="#000000" fill-rule="nonzero" fill-opacity="1" /><path clip-path="url(#clip090)" d="M1099 49.7694 Q1089.97 49.7694 1086.48 51.8354 Q1083 53.9013 1083 58.8839 Q1083 62.8538 1085.59 65.2034 Q1088.23 67.5124 1092.72 67.5124 Q1098.92 67.5124 1102.65 63.1374 Q1106.42 58.7219 1106.42 51.4303 L1106.42 49.7694 L1099 49.7694 M1113.87 46.6907 L1113.87 72.576 L1106.42 72.576 L1106.42 65.6895 Q1103.86 69.8214 1100.06 71.8063 Q1096.25 73.7508 1090.74 73.7508 Q1083.77 73.7508 1079.64 69.8619 Q1075.55 65.9325 1075.55 59.3701 Q1075.55 51.7138 1080.65 47.825 Q1085.8 43.9361 1095.96 43.9361 L1106.42 43.9361 L1106.42 43.2069 Q1106.42 38.0623 1103.01 35.2672 Q1099.65 32.4315 1093.53 32.4315 Q1089.64 32.4315 1085.96 33.3632 Q1082.27 34.295 1078.87 36.1584 L1078.87 29.2718 Q1082.96 27.692 1086.81 26.9223 Q1090.66 26.1121 1094.3 26.1121 Q1104.15 26.1121 1109.01 31.2163 Q1113.87 36.3204 1113.87 46.6907 Z" fill="#000000" fill-rule="nonzero" fill-opacity="1" /><path clip-path="url(#clip090)" d="M1136.59 14.324 L1136.59 27.2059 L1151.95 27.2059 L1151.95 32.9987 L1136.59 32.9987 L1136.59 57.6282 Q1136.59 63.1779 1138.09 64.7578 Q1139.63 66.3376 1144.29 66.3376 L1151.95 66.3376 L1151.95 72.576 L1144.29 72.576 Q1135.66 72.576 1132.38 69.3758 Q1129.1 66.1351 1129.1 57.6282 L1129.1 32.9987 L1123.63 32.9987 L1123.63 27.2059 L1129.1 27.2059 L1129.1 14.324 L1136.59 14.324 Z" fill="#000000" fill-rule="nonzero" fill-opacity="1" /><path clip-path="url(#clip090)" d="M1161.75 27.2059 L1169.2 27.2059 L1169.2 72.576 L1161.75 72.576 L1161.75 27.2059 M1161.75 9.54393 L1169.2 9.54393 L1169.2 18.9825 L1161.75 18.9825 L1161.75 9.54393 Z" fill="#000000" fill-rule="nonzero" fill-opacity="1" /><path clip-path="url(#clip090)" d="M1202.38 32.4315 Q1196.39 32.4315 1192.9 37.1306 Q1189.42 41.7891 1189.42 49.9314 Q1189.42 58.0738 1192.86 62.7728 Q1196.35 67.4314 1202.38 67.4314 Q1208.34 67.4314 1211.82 62.7323 Q1215.3 58.0333 1215.3 49.9314 Q1215.3 41.8701 1211.82 37.1711 Q1208.34 32.4315 1202.38 32.4315 M1202.38 26.1121 Q1212.1 26.1121 1217.65 32.4315 Q1223.2 38.7509 1223.2 49.9314 Q1223.2 61.0714 1217.65 67.4314 Q1212.1 73.7508 1202.38 73.7508 Q1192.62 73.7508 1187.07 67.4314 Q1181.56 61.0714 1181.56 49.9314 Q1181.56 38.7509 1187.07 32.4315 Q1192.62 26.1121 1202.38 26.1121 Z" fill="#000000" fill-rule="nonzero" fill-opacity="1" /><path clip-path="url(#clip090)" d="M1273.27 45.1919 L1273.27 72.576 L1265.82 72.576 L1265.82 45.4349 Q1265.82 38.994 1263.31 35.7938 Q1260.8 32.5936 1255.77 32.5936 Q1249.74 32.5936 1246.25 36.4419 Q1242.77 40.2903 1242.77 46.9338 L1242.77 72.576 L1235.27 72.576 L1235.27 27.2059 L1242.77 27.2059 L1242.77 34.2544 Q1245.44 30.163 1249.05 28.1376 Q1252.69 26.1121 1257.43 26.1121 Q1265.25 26.1121 1269.26 30.9732 Q1273.27 35.7938 1273.27 45.1919 Z" fill="#000000" fill-rule="nonzero" fill-opacity="1" /><path clip-path="url(#clip090)" d="M1343.43 28.5427 L1343.43 35.5912 Q1340.27 33.9709 1336.87 33.1607 Q1333.47 32.3505 1329.82 32.3505 Q1324.27 32.3505 1321.48 34.0519 Q1318.72 35.7533 1318.72 39.156 Q1318.72 41.7486 1320.71 43.2475 Q1322.69 44.7058 1328.69 46.0426 L1331.24 46.6097 Q1339.18 48.3111 1342.5 51.4303 Q1345.86 54.509 1345.86 60.0587 Q1345.86 66.3781 1340.84 70.0644 Q1335.86 73.7508 1327.11 73.7508 Q1323.46 73.7508 1319.49 73.0216 Q1315.56 72.3329 1311.19 70.9151 L1311.19 63.2184 Q1315.32 65.3654 1319.33 66.4591 Q1323.34 67.5124 1327.27 67.5124 Q1332.54 67.5124 1335.37 65.73 Q1338.21 63.9071 1338.21 60.6258 Q1338.21 57.5877 1336.14 55.9673 Q1334.12 54.3469 1327.19 52.8481 L1324.6 52.2405 Q1317.67 50.7821 1314.59 47.7845 Q1311.51 44.7463 1311.51 39.4801 Q1311.51 33.0797 1316.05 29.5959 Q1320.59 26.1121 1328.93 26.1121 Q1333.06 26.1121 1336.71 26.7198 Q1340.35 27.3274 1343.43 28.5427 Z" fill="#000000" fill-rule="nonzero" fill-opacity="1" /><path clip-path="url(#clip090)" d="M1375.31 32.4315 Q1369.32 32.4315 1365.84 37.1306 Q1362.35 41.7891 1362.35 49.9314 Q1362.35 58.0738 1365.79 62.7728 Q1369.28 67.4314 1375.31 67.4314 Q1381.27 67.4314 1384.75 62.7323 Q1388.24 58.0333 1388.24 49.9314 Q1388.24 41.8701 1384.75 37.1711 Q1381.27 32.4315 1375.31 32.4315 M1375.31 26.1121 Q1385.04 26.1121 1390.59 32.4315 Q1396.14 38.7509 1396.14 49.9314 Q1396.14 61.0714 1390.59 67.4314 Q1385.04 73.7508 1375.31 73.7508 Q1365.55 73.7508 1360 67.4314 Q1354.49 61.0714 1354.49 49.9314 Q1354.49 38.7509 1360 32.4315 Q1365.55 26.1121 1375.31 26.1121 Z" fill="#000000" fill-rule="nonzero" fill-opacity="1" /><path clip-path="url(#clip090)" d="M1408.49 9.54393 L1415.94 9.54393 L1415.94 72.576 L1408.49 72.576 L1408.49 9.54393 Z" fill="#000000" fill-rule="nonzero" fill-opacity="1" /><path clip-path="url(#clip090)" d="M1430.77 54.671 L1430.77 27.2059 L1438.22 27.2059 L1438.22 54.3874 Q1438.22 60.8284 1440.74 64.0691 Q1443.25 67.2693 1448.27 67.2693 Q1454.31 67.2693 1457.79 63.421 Q1461.31 59.5726 1461.31 52.9291 L1461.31 27.2059 L1468.77 27.2059 L1468.77 72.576 L1461.31 72.576 L1461.31 65.6084 Q1458.6 69.7404 1455 71.7658 Q1451.43 73.7508 1446.69 73.7508 Q1438.87 73.7508 1434.82 68.8897 Q1430.77 64.0286 1430.77 54.671 M1449.53 26.1121 L1449.53 26.1121 Z" fill="#000000" fill-rule="nonzero" fill-opacity="1" /><path clip-path="url(#clip090)" d="M1491.49 14.324 L1491.49 27.2059 L1506.85 27.2059 L1506.85 32.9987 L1491.49 32.9987 L1491.49 57.6282 Q1491.49 63.1779 1492.99 64.7578 Q1494.53 66.3376 1499.19 66.3376 L1506.85 66.3376 L1506.85 72.576 L1499.19 72.576 Q1490.56 72.576 1487.28 69.3758 Q1484 66.1351 1484 57.6282 L1484 32.9987 L1478.53 32.9987 L1478.53 27.2059 L1484 27.2059 L1484 14.324 L1491.49 14.324 Z" fill="#000000" fill-rule="nonzero" fill-opacity="1" /><path clip-path="url(#clip090)" d="M1516.65 27.2059 L1524.1 27.2059 L1524.1 72.576 L1516.65 72.576 L1516.65 27.2059 M1516.65 9.54393 L1524.1 9.54393 L1524.1 18.9825 L1516.65 18.9825 L1516.65 9.54393 Z" fill="#000000" fill-rule="nonzero" fill-opacity="1" /><path clip-path="url(#clip090)" d="M1557.28 32.4315 Q1551.29 32.4315 1547.8 37.1306 Q1544.32 41.7891 1544.32 49.9314 Q1544.32 58.0738 1547.76 62.7728 Q1551.25 67.4314 1557.28 67.4314 Q1563.24 67.4314 1566.72 62.7323 Q1570.2 58.0333 1570.2 49.9314 Q1570.2 41.8701 1566.72 37.1711 Q1563.24 32.4315 1557.28 32.4315 M1557.28 26.1121 Q1567 26.1121 1572.55 32.4315 Q1578.1 38.7509 1578.1 49.9314 Q1578.1 61.0714 1572.55 67.4314 Q1567 73.7508 1557.28 73.7508 Q1547.52 73.7508 1541.97 67.4314 Q1536.46 61.0714 1536.46 49.9314 Q1536.46 38.7509 1541.97 32.4315 Q1547.52 26.1121 1557.28 26.1121 Z" fill="#000000" fill-rule="nonzero" fill-opacity="1" /><path clip-path="url(#clip090)" d="M1628.17 45.1919 L1628.17 72.576 L1620.72 72.576 L1620.72 45.4349 Q1620.72 38.994 1618.21 35.7938 Q1615.69 32.5936 1610.67 32.5936 Q1604.64 32.5936 1601.15 36.4419 Q1597.67 40.2903 1597.67 46.9338 L1597.67 72.576 L1590.17 72.576 L1590.17 27.2059 L1597.67 27.2059 L1597.67 34.2544 Q1600.34 30.163 1603.95 28.1376 Q1607.59 26.1121 1612.33 26.1121 Q1620.15 26.1121 1624.16 30.9732 Q1628.17 35.7938 1628.17 45.1919 Z" fill="#000000" fill-rule="nonzero" fill-opacity="1" /><circle clip-path="url(#clip092)" cx="1606.17" cy="1326.57" r="14.4" fill="#009af9" fill-rule="evenodd" fill-opacity="1" stroke="#000000" stroke-opacity="1" stroke-width="4"/>
<circle clip-path="url(#clip092)" cx="1608.16" cy="292.003" r="14.4" fill="#009af9" fill-rule="evenodd" fill-opacity="1" stroke="#000000" stroke-opacity="1" stroke-width="4"/>
<circle clip-path="url(#clip092)" cx="1346.69" cy="994.118" r="14.4" fill="#009af9" fill-rule="evenodd" fill-opacity="1" stroke="#000000" stroke-opacity="1" stroke-width="4"/>
<circle clip-path="url(#clip092)" cx="690.414" cy="1717.91" r="14.4" fill="#009af9" fill-rule="evenodd" fill-opacity="1" stroke="#000000" stroke-opacity="1" stroke-width="4"/>
<circle clip-path="url(#clip092)" cx="784.579" cy="728.202" r="14.4" fill="#009af9" fill-rule="evenodd" fill-opacity="1" stroke="#000000" stroke-opacity="1" stroke-width="4"/>
<circle clip-path="url(#clip092)" cx="585.698" cy="1511.02" r="14.4" fill="#009af9" fill-rule="evenodd" fill-opacity="1" stroke="#000000" stroke-opacity="1" stroke-width="4"/>
<circle clip-path="url(#clip092)" cx="484.081" cy="453.511" r="14.4" fill="#009af9" fill-rule="evenodd" fill-opacity="1" stroke="#000000" stroke-opacity="1" stroke-width="4"/>
<circle clip-path="url(#clip092)" cx="1789.63" cy="1566.56" r="14.4" fill="#009af9" fill-rule="evenodd" fill-opacity="1" stroke="#000000" stroke-opacity="1" stroke-width="4"/>
<circle clip-path="url(#clip092)" cx="1478.97" cy="1264.83" r="14.4" fill="#009af9" fill-rule="evenodd" fill-opacity="1" stroke="#000000" stroke-opacity="1" stroke-width="4"/>
<circle clip-path="url(#clip092)" cx="1251.18" cy="675.902" r="14.4" fill="#009af9" fill-rule="evenodd" fill-opacity="1" stroke="#000000" stroke-opacity="1" stroke-width="4"/>
<circle clip-path="url(#clip092)" cx="1058.94" cy="1009.44" r="14.4" fill="#e26f46" fill-rule="evenodd" fill-opacity="1" stroke="#000000" stroke-opacity="1" stroke-width="4"/>
<polyline clip-path="url(#clip092)" style="stroke:#3da44d; stroke-linecap:round; stroke-linejoin:round; stroke-width:4; stroke-opacity:1; fill:none" points="690.414,1717.91 585.698,1511.02 1058.94,1009.44 "/>
<polyline clip-path="url(#clip092)" style="stroke:#c271d2; stroke-linecap:round; stroke-linejoin:round; stroke-width:4; stroke-opacity:1; fill:none" points="1789.63,1566.56 1606.17,1326.57 1478.97,1264.83 1346.69,994.118 1058.94,1009.44 "/>
<polyline clip-path="url(#clip092)" style="stroke:#ac8d18; stroke-linecap:round; stroke-linejoin:round; stroke-width:4; stroke-opacity:1; fill:none" points="484.081,453.511 784.579,728.202 1058.94,1009.44 "/>
<polyline clip-path="url(#clip092)" style="stroke:#00a9ad; stroke-linecap:round; stroke-linejoin:round; stroke-width:4; stroke-opacity:1; fill:none" points="1608.16,292.003 1251.18,675.902 1058.94,1009.44 "/>
<path clip-path="url(#clip090)" d="M224.709 1222.01 L721.156 1222.01 L721.156 859.129 L224.709 859.129  Z" fill="#ffffff" fill-rule="evenodd" fill-opacity="1"/>
<polyline clip-path="url(#clip090)" style="stroke:#000000; stroke-linecap:round; stroke-linejoin:round; stroke-width:4; stroke-opacity:1; fill:none" points="224.709,1222.01 721.156,1222.01 721.156,859.129 224.709,859.129 224.709,1222.01 "/>
<circle clip-path="url(#clip090)" cx="304.16" cy="910.969" r="23.04" fill="#009af9" fill-rule="evenodd" fill-opacity="1" stroke="#000000" stroke-opacity="1" stroke-width="6.4"/>
<path clip-path="url(#clip090)" d="M411.48 896.351 L411.48 901.281 Q409.119 899.082 406.434 897.994 Q403.772 896.906 400.763 896.906 Q394.837 896.906 391.689 900.54 Q388.541 904.151 388.541 911.003 Q388.541 917.832 391.689 921.466 Q394.837 925.077 400.763 925.077 Q403.772 925.077 406.434 923.989 Q409.119 922.901 411.48 920.702 L411.48 925.587 Q409.027 927.253 406.272 928.086 Q403.54 928.92 400.485 928.92 Q392.638 928.92 388.124 924.128 Q383.61 919.313 383.61 911.003 Q383.61 902.67 388.124 897.878 Q392.638 893.064 400.485 893.064 Q403.587 893.064 406.318 893.897 Q409.073 894.707 411.48 896.351 Z" fill="#000000" fill-rule="nonzero" fill-opacity="1" /><path clip-path="url(#clip090)" d="M418.077 918.017 L418.077 902.323 L422.337 902.323 L422.337 917.855 Q422.337 921.536 423.772 923.387 Q425.207 925.216 428.077 925.216 Q431.526 925.216 433.517 923.017 Q435.531 920.818 435.531 917.022 L435.531 902.323 L439.79 902.323 L439.79 928.249 L435.531 928.249 L435.531 924.267 Q433.98 926.628 431.92 927.786 Q429.883 928.92 427.175 928.92 Q422.707 928.92 420.392 926.142 Q418.077 923.364 418.077 918.017 M428.795 901.698 L428.795 901.698 Z" fill="#000000" fill-rule="nonzero" fill-opacity="1" /><path clip-path="url(#clip090)" d="M465.091 903.087 L465.091 907.114 Q463.285 906.188 461.341 905.725 Q459.397 905.263 457.313 905.263 Q454.142 905.263 452.545 906.235 Q450.971 907.207 450.971 909.151 Q450.971 910.633 452.105 911.489 Q453.239 912.323 456.665 913.087 L458.123 913.411 Q462.66 914.383 464.559 916.165 Q466.48 917.925 466.48 921.096 Q466.48 924.707 463.61 926.813 Q460.762 928.92 455.762 928.92 Q453.679 928.92 451.411 928.503 Q449.165 928.11 446.665 927.299 L446.665 922.901 Q449.026 924.128 451.318 924.753 Q453.61 925.355 455.855 925.355 Q458.864 925.355 460.485 924.337 Q462.105 923.295 462.105 921.42 Q462.105 919.684 460.924 918.758 Q459.767 917.832 455.809 916.975 L454.327 916.628 Q450.369 915.795 448.61 914.082 Q446.85 912.346 446.85 909.337 Q446.85 905.679 449.443 903.688 Q452.036 901.698 456.804 901.698 Q459.165 901.698 461.248 902.045 Q463.332 902.392 465.091 903.087 Z" fill="#000000" fill-rule="nonzero" fill-opacity="1" /><path clip-path="url(#clip090)" d="M477.475 894.962 L477.475 902.323 L486.248 902.323 L486.248 905.633 L477.475 905.633 L477.475 919.707 Q477.475 922.878 478.332 923.781 Q479.211 924.684 481.873 924.684 L486.248 924.684 L486.248 928.249 L481.873 928.249 Q476.943 928.249 475.068 926.42 Q473.193 924.568 473.193 919.707 L473.193 905.633 L470.068 905.633 L470.068 902.323 L473.193 902.323 L473.193 894.962 L477.475 894.962 Z" fill="#000000" fill-rule="nonzero" fill-opacity="1" /><path clip-path="url(#clip090)" d="M501.896 905.309 Q498.47 905.309 496.48 907.994 Q494.489 910.656 494.489 915.309 Q494.489 919.962 496.457 922.647 Q498.447 925.309 501.896 925.309 Q505.299 925.309 507.29 922.624 Q509.281 919.938 509.281 915.309 Q509.281 910.702 507.29 908.017 Q505.299 905.309 501.896 905.309 M501.896 901.698 Q507.452 901.698 510.623 905.309 Q513.794 908.92 513.794 915.309 Q513.794 921.674 510.623 925.309 Q507.452 928.92 501.896 928.92 Q496.318 928.92 493.146 925.309 Q489.998 921.674 489.998 915.309 Q489.998 908.92 493.146 905.309 Q496.318 901.698 501.896 901.698 Z" fill="#000000" fill-rule="nonzero" fill-opacity="1" /><path clip-path="url(#clip090)" d="M541.04 907.3 Q542.637 904.429 544.859 903.063 Q547.081 901.698 550.091 901.698 Q554.141 901.698 556.341 904.545 Q558.54 907.369 558.54 912.6 L558.54 928.249 L554.257 928.249 L554.257 912.739 Q554.257 909.013 552.938 907.207 Q551.618 905.401 548.91 905.401 Q545.6 905.401 543.679 907.6 Q541.757 909.8 541.757 913.596 L541.757 928.249 L537.475 928.249 L537.475 912.739 Q537.475 908.989 536.155 907.207 Q534.836 905.401 532.081 905.401 Q528.818 905.401 526.896 907.624 Q524.975 909.823 524.975 913.596 L524.975 928.249 L520.693 928.249 L520.693 902.323 L524.975 902.323 L524.975 906.35 Q526.433 903.966 528.47 902.832 Q530.507 901.698 533.308 901.698 Q536.132 901.698 538.1 903.133 Q540.091 904.568 541.04 907.3 Z" fill="#000000" fill-rule="nonzero" fill-opacity="1" /><path clip-path="url(#clip090)" d="M589.211 914.221 L589.211 916.304 L569.628 916.304 Q569.905 920.702 572.266 923.017 Q574.651 925.309 578.887 925.309 Q581.34 925.309 583.632 924.707 Q585.947 924.105 588.215 922.901 L588.215 926.929 Q585.924 927.901 583.516 928.411 Q581.109 928.92 578.632 928.92 Q572.428 928.92 568.794 925.309 Q565.183 921.698 565.183 915.54 Q565.183 909.175 568.609 905.448 Q572.058 901.698 577.891 901.698 Q583.123 901.698 586.155 905.077 Q589.211 908.434 589.211 914.221 M584.952 912.971 Q584.905 909.475 582.984 907.392 Q581.086 905.309 577.938 905.309 Q574.373 905.309 572.22 907.323 Q570.09 909.337 569.766 912.994 L584.952 912.971 Z" fill="#000000" fill-rule="nonzero" fill-opacity="1" /><path clip-path="url(#clip090)" d="M611.225 906.304 Q610.507 905.888 609.65 905.702 Q608.817 905.494 607.799 905.494 Q604.188 905.494 602.243 907.855 Q600.322 910.193 600.322 914.591 L600.322 928.249 L596.039 928.249 L596.039 902.323 L600.322 902.323 L600.322 906.35 Q601.664 903.989 603.817 902.855 Q605.97 901.698 609.049 901.698 Q609.488 901.698 610.021 901.767 Q610.553 901.813 611.201 901.929 L611.225 906.304 Z" fill="#000000" fill-rule="nonzero" fill-opacity="1" /><path clip-path="url(#clip090)" d="M632.22 903.087 L632.22 907.114 Q630.414 906.188 628.47 905.725 Q626.525 905.263 624.442 905.263 Q621.271 905.263 619.674 906.235 Q618.099 907.207 618.099 909.151 Q618.099 910.633 619.234 911.489 Q620.368 912.323 623.794 913.087 L625.252 913.411 Q629.789 914.383 631.687 916.165 Q633.609 917.925 633.609 921.096 Q633.609 924.707 630.738 926.813 Q627.891 928.92 622.891 928.92 Q620.808 928.92 618.539 928.503 Q616.294 928.11 613.794 927.299 L613.794 922.901 Q616.155 924.128 618.447 924.753 Q620.738 925.355 622.984 925.355 Q625.993 925.355 627.613 924.337 Q629.234 923.295 629.234 921.42 Q629.234 919.684 628.053 918.758 Q626.896 917.832 622.937 916.975 L621.456 916.628 Q617.498 915.795 615.738 914.082 Q613.979 912.346 613.979 909.337 Q613.979 905.679 616.572 903.688 Q619.164 901.698 623.933 901.698 Q626.294 901.698 628.377 902.045 Q630.461 902.392 632.22 903.087 Z" fill="#000000" fill-rule="nonzero" fill-opacity="1" /><circle clip-path="url(#clip090)" cx="304.16" cy="962.809" r="23.04" fill="#e26f46" fill-rule="evenodd" fill-opacity="1" stroke="#000000" stroke-opacity="1" stroke-width="6.4"/>
<path clip-path="url(#clip090)" d="M388.286 949.371 L388.286 976.246 L393.934 976.246 Q401.087 976.246 404.397 973.005 Q407.73 969.765 407.73 962.774 Q407.73 955.829 404.397 952.612 Q401.087 949.371 393.934 949.371 L388.286 949.371 M383.61 945.529 L393.216 945.529 Q403.263 945.529 407.962 949.718 Q412.661 953.885 412.661 962.774 Q412.661 971.709 407.939 975.899 Q403.216 980.089 393.216 980.089 L383.61 980.089 L383.61 945.529 Z" fill="#000000" fill-rule="nonzero" fill-opacity="1" /><path clip-path="url(#clip090)" d="M442.105 966.061 L442.105 968.144 L422.522 968.144 Q422.8 972.542 425.161 974.857 Q427.545 977.149 431.781 977.149 Q434.235 977.149 436.526 976.547 Q438.841 975.945 441.11 974.741 L441.11 978.769 Q438.818 979.741 436.411 980.251 Q434.003 980.76 431.526 980.76 Q425.323 980.76 421.688 977.149 Q418.077 973.538 418.077 967.38 Q418.077 961.015 421.503 957.288 Q424.952 953.538 430.786 953.538 Q436.017 953.538 439.05 956.917 Q442.105 960.274 442.105 966.061 M437.846 964.811 Q437.8 961.315 435.878 959.232 Q433.98 957.149 430.832 957.149 Q427.267 957.149 425.114 959.163 Q422.985 961.177 422.661 964.834 L437.846 964.811 Z" fill="#000000" fill-rule="nonzero" fill-opacity="1" /><path clip-path="url(#clip090)" d="M453.216 976.2 L453.216 989.95 L448.934 989.95 L448.934 954.163 L453.216 954.163 L453.216 958.098 Q454.559 955.783 456.596 954.672 Q458.656 953.538 461.503 953.538 Q466.225 953.538 469.165 957.288 Q472.128 961.038 472.128 967.149 Q472.128 973.26 469.165 977.01 Q466.225 980.76 461.503 980.76 Q458.656 980.76 456.596 979.649 Q454.559 978.514 453.216 976.2 M467.707 967.149 Q467.707 962.45 465.762 959.788 Q463.841 957.103 460.461 957.103 Q457.082 957.103 455.137 959.788 Q453.216 962.45 453.216 967.149 Q453.216 971.848 455.137 974.533 Q457.082 977.195 460.461 977.195 Q463.841 977.195 465.762 974.533 Q467.707 971.848 467.707 967.149 Z" fill="#000000" fill-rule="nonzero" fill-opacity="1" /><path clip-path="url(#clip090)" d="M489.234 957.149 Q485.809 957.149 483.818 959.834 Q481.827 962.496 481.827 967.149 Q481.827 971.802 483.795 974.487 Q485.785 977.149 489.234 977.149 Q492.637 977.149 494.628 974.464 Q496.619 971.778 496.619 967.149 Q496.619 962.542 494.628 959.857 Q492.637 957.149 489.234 957.149 M489.234 953.538 Q494.79 953.538 497.961 957.149 Q501.133 960.76 501.133 967.149 Q501.133 973.514 497.961 977.149 Q494.79 980.76 489.234 980.76 Q483.656 980.76 480.484 977.149 Q477.336 973.514 477.336 967.149 Q477.336 960.76 480.484 957.149 Q483.656 953.538 489.234 953.538 Z" fill="#000000" fill-rule="nonzero" fill-opacity="1" /><path clip-path="url(#clip090)" d="M512.406 946.802 L512.406 954.163 L521.179 954.163 L521.179 957.473 L512.406 957.473 L512.406 971.547 Q512.406 974.718 513.262 975.621 Q514.142 976.524 516.804 976.524 L521.179 976.524 L521.179 980.089 L516.804 980.089 Q511.873 980.089 509.998 978.26 Q508.123 976.408 508.123 971.547 L508.123 957.473 L504.998 957.473 L504.998 954.163 L508.123 954.163 L508.123 946.802 L512.406 946.802 Z" fill="#000000" fill-rule="nonzero" fill-opacity="1" /><polyline clip-path="url(#clip090)" style="stroke:#3da44d; stroke-linecap:round; stroke-linejoin:round; stroke-width:4; stroke-opacity:1; fill:none" points="244.572,1014.65 363.747,1014.65 "/>
<path clip-path="url(#clip090)" d="M396.804 1031.93 L383.61 997.369 L388.494 997.369 L399.443 1026.47 L410.415 997.369 L415.276 997.369 L402.105 1031.93 L396.804 1031.93 Z" fill="#000000" fill-rule="nonzero" fill-opacity="1" /><path clip-path="url(#clip090)" d="M438.633 1017.9 L438.633 1019.98 L419.05 1019.98 Q419.327 1024.38 421.688 1026.7 Q424.073 1028.99 428.309 1028.99 Q430.763 1028.99 433.054 1028.39 Q435.369 1027.79 437.637 1026.58 L437.637 1030.61 Q435.346 1031.58 432.938 1032.09 Q430.531 1032.6 428.054 1032.6 Q421.851 1032.6 418.216 1028.99 Q414.605 1025.38 414.605 1019.22 Q414.605 1012.85 418.031 1009.13 Q421.48 1005.38 427.313 1005.38 Q432.545 1005.38 435.577 1008.76 Q438.633 1012.11 438.633 1017.9 M434.374 1016.65 Q434.327 1013.16 432.406 1011.07 Q430.508 1008.99 427.36 1008.99 Q423.795 1008.99 421.642 1011 Q419.513 1013.02 419.189 1016.67 L434.374 1016.65 Z" fill="#000000" fill-rule="nonzero" fill-opacity="1" /><path clip-path="url(#clip090)" d="M467.174 1016.28 L467.174 1031.93 L462.915 1031.93 L462.915 1016.42 Q462.915 1012.74 461.48 1010.91 Q460.045 1009.08 457.174 1009.08 Q453.725 1009.08 451.735 1011.28 Q449.744 1013.48 449.744 1017.28 L449.744 1031.93 L445.462 1031.93 L445.462 995.91 L449.744 995.91 L449.744 1010.03 Q451.272 1007.69 453.332 1006.54 Q455.415 1005.38 458.123 1005.38 Q462.591 1005.38 464.883 1008.16 Q467.174 1010.91 467.174 1016.28 Z" fill="#000000" fill-rule="nonzero" fill-opacity="1" /><path clip-path="url(#clip090)" d="M475.67 1006 L479.929 1006 L479.929 1031.93 L475.67 1031.93 L475.67 1006 M475.67 995.91 L479.929 995.91 L479.929 1001.3 L475.67 1001.3 L475.67 995.91 Z" fill="#000000" fill-rule="nonzero" fill-opacity="1" /><path clip-path="url(#clip090)" d="M507.498 1007 L507.498 1010.98 Q505.693 1009.98 503.864 1009.5 Q502.058 1008.99 500.207 1008.99 Q496.063 1008.99 493.771 1011.63 Q491.48 1014.24 491.48 1018.99 Q491.48 1023.73 493.771 1026.37 Q496.063 1028.99 500.207 1028.99 Q502.058 1028.99 503.864 1028.5 Q505.693 1027.99 507.498 1027 L507.498 1030.93 Q505.716 1031.77 503.795 1032.18 Q501.896 1032.6 499.744 1032.6 Q493.887 1032.6 490.438 1028.92 Q486.989 1025.24 486.989 1018.99 Q486.989 1012.65 490.461 1009.01 Q493.957 1005.38 500.021 1005.38 Q501.989 1005.38 503.864 1005.79 Q505.739 1006.19 507.498 1007 Z" fill="#000000" fill-rule="nonzero" fill-opacity="1" /><path clip-path="url(#clip090)" d="M514.906 995.91 L519.165 995.91 L519.165 1031.93 L514.906 1031.93 L514.906 995.91 Z" fill="#000000" fill-rule="nonzero" fill-opacity="1" /><path clip-path="url(#clip090)" d="M550.253 1017.9 L550.253 1019.98 L530.669 1019.98 Q530.947 1024.38 533.308 1026.7 Q535.693 1028.99 539.929 1028.99 Q542.382 1028.99 544.674 1028.39 Q546.989 1027.79 549.257 1026.58 L549.257 1030.61 Q546.966 1031.58 544.558 1032.09 Q542.151 1032.6 539.674 1032.6 Q533.47 1032.6 529.836 1028.99 Q526.225 1025.38 526.225 1019.22 Q526.225 1012.85 529.651 1009.13 Q533.1 1005.38 538.933 1005.38 Q544.165 1005.38 547.197 1008.76 Q550.253 1012.11 550.253 1017.9 M545.993 1016.65 Q545.947 1013.16 544.026 1011.07 Q542.128 1008.99 538.98 1008.99 Q535.415 1008.99 533.262 1011 Q531.132 1013.02 530.808 1016.67 L545.993 1016.65 Z" fill="#000000" fill-rule="nonzero" fill-opacity="1" /><path clip-path="url(#clip090)" d="M573.725 1027.99 L581.364 1027.99 L581.364 1001.63 L573.053 1003.29 L573.053 999.035 L581.317 997.369 L585.993 997.369 L585.993 1027.99 L593.632 1027.99 L593.632 1031.93 L573.725 1031.93 L573.725 1027.99 Z" fill="#000000" fill-rule="nonzero" fill-opacity="1" /><path clip-path="url(#clip090)" d="M603.563 1026.05 L608.447 1026.05 L608.447 1031.93 L603.563 1031.93 L603.563 1026.05 M603.563 1007.41 L608.447 1007.41 L608.447 1013.29 L603.563 1013.29 L603.563 1007.41 Z" fill="#000000" fill-rule="nonzero" fill-opacity="1" /><path clip-path="url(#clip090)" d="M634.928 1027.99 L642.567 1027.99 L642.567 1001.63 L634.257 1003.29 L634.257 999.035 L642.521 997.369 L647.197 997.369 L647.197 1027.99 L654.835 1027.99 L654.835 1031.93 L634.928 1031.93 L634.928 1027.99 Z" fill="#000000" fill-rule="nonzero" fill-opacity="1" /><path clip-path="url(#clip090)" d="M664.28 1026.05 L669.164 1026.05 L669.164 1031.93 L664.28 1031.93 L664.28 1026.05 Z" fill="#000000" fill-rule="nonzero" fill-opacity="1" /><path clip-path="url(#clip090)" d="M689.349 1000.45 Q685.738 1000.45 683.909 1004.01 Q682.104 1007.55 682.104 1014.68 Q682.104 1021.79 683.909 1025.35 Q685.738 1028.9 689.349 1028.9 Q692.983 1028.9 694.789 1025.35 Q696.618 1021.79 696.618 1014.68 Q696.618 1007.55 694.789 1004.01 Q692.983 1000.45 689.349 1000.45 M689.349 996.744 Q695.159 996.744 698.215 1001.35 Q701.293 1005.93 701.293 1014.68 Q701.293 1023.41 698.215 1028.02 Q695.159 1032.6 689.349 1032.6 Q683.539 1032.6 680.46 1028.02 Q677.405 1023.41 677.405 1014.68 Q677.405 1005.93 680.46 1001.35 Q683.539 996.744 689.349 996.744 Z" fill="#000000" fill-rule="nonzero" fill-opacity="1" /><polyline clip-path="url(#clip090)" style="stroke:#c271d2; stroke-linecap:round; stroke-linejoin:round; stroke-width:4; stroke-opacity:1; fill:none" points="244.572,1066.49 363.747,1066.49 "/>
<path clip-path="url(#clip090)" d="M396.804 1083.77 L383.61 1049.21 L388.494 1049.21 L399.443 1078.31 L410.415 1049.21 L415.276 1049.21 L402.105 1083.77 L396.804 1083.77 Z" fill="#000000" fill-rule="nonzero" fill-opacity="1" /><path clip-path="url(#clip090)" d="M438.633 1069.74 L438.633 1071.82 L419.05 1071.82 Q419.327 1076.22 421.688 1078.54 Q424.073 1080.83 428.309 1080.83 Q430.763 1080.83 433.054 1080.23 Q435.369 1079.63 437.637 1078.42 L437.637 1082.45 Q435.346 1083.42 432.938 1083.93 Q430.531 1084.44 428.054 1084.44 Q421.851 1084.44 418.216 1080.83 Q414.605 1077.22 414.605 1071.06 Q414.605 1064.69 418.031 1060.97 Q421.48 1057.22 427.313 1057.22 Q432.545 1057.22 435.577 1060.6 Q438.633 1063.95 438.633 1069.74 M434.374 1068.49 Q434.327 1065 432.406 1062.91 Q430.508 1060.83 427.36 1060.83 Q423.795 1060.83 421.642 1062.84 Q419.513 1064.86 419.189 1068.51 L434.374 1068.49 Z" fill="#000000" fill-rule="nonzero" fill-opacity="1" /><path clip-path="url(#clip090)" d="M467.174 1068.12 L467.174 1083.77 L462.915 1083.77 L462.915 1068.26 Q462.915 1064.58 461.48 1062.75 Q460.045 1060.92 457.174 1060.92 Q453.725 1060.92 451.735 1063.12 Q449.744 1065.32 449.744 1069.12 L449.744 1083.77 L445.462 1083.77 L445.462 1047.75 L449.744 1047.75 L449.744 1061.87 Q451.272 1059.53 453.332 1058.38 Q455.415 1057.22 458.123 1057.22 Q462.591 1057.22 464.883 1060 Q467.174 1062.75 467.174 1068.12 Z" fill="#000000" fill-rule="nonzero" fill-opacity="1" /><path clip-path="url(#clip090)" d="M475.67 1057.84 L479.929 1057.84 L479.929 1083.77 L475.67 1083.77 L475.67 1057.84 M475.67 1047.75 L479.929 1047.75 L479.929 1053.14 L475.67 1053.14 L475.67 1047.75 Z" fill="#000000" fill-rule="nonzero" fill-opacity="1" /><path clip-path="url(#clip090)" d="M507.498 1058.84 L507.498 1062.82 Q505.693 1061.82 503.864 1061.34 Q502.058 1060.83 500.207 1060.83 Q496.063 1060.83 493.771 1063.47 Q491.48 1066.08 491.48 1070.83 Q491.48 1075.57 493.771 1078.21 Q496.063 1080.83 500.207 1080.83 Q502.058 1080.83 503.864 1080.34 Q505.693 1079.83 507.498 1078.84 L507.498 1082.77 Q505.716 1083.61 503.795 1084.02 Q501.896 1084.44 499.744 1084.44 Q493.887 1084.44 490.438 1080.76 Q486.989 1077.08 486.989 1070.83 Q486.989 1064.49 490.461 1060.85 Q493.957 1057.22 500.021 1057.22 Q501.989 1057.22 503.864 1057.63 Q505.739 1058.03 507.498 1058.84 Z" fill="#000000" fill-rule="nonzero" fill-opacity="1" /><path clip-path="url(#clip090)" d="M514.906 1047.75 L519.165 1047.75 L519.165 1083.77 L514.906 1083.77 L514.906 1047.75 Z" fill="#000000" fill-rule="nonzero" fill-opacity="1" /><path clip-path="url(#clip090)" d="M550.253 1069.74 L550.253 1071.82 L530.669 1071.82 Q530.947 1076.22 533.308 1078.54 Q535.693 1080.83 539.929 1080.83 Q542.382 1080.83 544.674 1080.23 Q546.989 1079.63 549.257 1078.42 L549.257 1082.45 Q546.966 1083.42 544.558 1083.93 Q542.151 1084.44 539.674 1084.44 Q533.47 1084.44 529.836 1080.83 Q526.225 1077.22 526.225 1071.06 Q526.225 1064.69 529.651 1060.97 Q533.1 1057.22 538.933 1057.22 Q544.165 1057.22 547.197 1060.6 Q550.253 1063.95 550.253 1069.74 M545.993 1068.49 Q545.947 1065 544.026 1062.91 Q542.128 1060.83 538.98 1060.83 Q535.415 1060.83 533.262 1062.84 Q531.132 1064.86 530.808 1068.51 L545.993 1068.49 Z" fill="#000000" fill-rule="nonzero" fill-opacity="1" /><path clip-path="url(#clip090)" d="M576.942 1079.83 L593.262 1079.83 L593.262 1083.77 L571.317 1083.77 L571.317 1079.83 Q573.979 1077.08 578.563 1072.45 Q583.169 1067.8 584.35 1066.45 Q586.595 1063.93 587.475 1062.19 Q588.377 1060.44 588.377 1058.75 Q588.377 1055.99 586.433 1054.25 Q584.512 1052.52 581.41 1052.52 Q579.211 1052.52 576.757 1053.28 Q574.327 1054.05 571.549 1055.6 L571.549 1050.88 Q574.373 1049.74 576.827 1049.16 Q579.28 1048.58 581.317 1048.58 Q586.688 1048.58 589.882 1051.27 Q593.076 1053.95 593.076 1058.44 Q593.076 1060.57 592.266 1062.5 Q591.479 1064.39 589.373 1066.99 Q588.794 1067.66 585.692 1070.88 Q582.59 1074.07 576.942 1079.83 Z" fill="#000000" fill-rule="nonzero" fill-opacity="1" /><path clip-path="url(#clip090)" d="M603.563 1077.89 L608.447 1077.89 L608.447 1083.77 L603.563 1083.77 L603.563 1077.89 M603.563 1059.25 L608.447 1059.25 L608.447 1065.13 L603.563 1065.13 L603.563 1059.25 Z" fill="#000000" fill-rule="nonzero" fill-opacity="1" /><path clip-path="url(#clip090)" d="M634.928 1079.83 L642.567 1079.83 L642.567 1053.47 L634.257 1055.13 L634.257 1050.88 L642.521 1049.21 L647.197 1049.21 L647.197 1079.83 L654.835 1079.83 L654.835 1083.77 L634.928 1083.77 L634.928 1079.83 Z" fill="#000000" fill-rule="nonzero" fill-opacity="1" /><path clip-path="url(#clip090)" d="M664.28 1077.89 L669.164 1077.89 L669.164 1083.77 L664.28 1083.77 L664.28 1077.89 Z" fill="#000000" fill-rule="nonzero" fill-opacity="1" /><path clip-path="url(#clip090)" d="M689.349 1052.29 Q685.738 1052.29 683.909 1055.85 Q682.104 1059.39 682.104 1066.52 Q682.104 1073.63 683.909 1077.19 Q685.738 1080.74 689.349 1080.74 Q692.983 1080.74 694.789 1077.19 Q696.618 1073.63 696.618 1066.52 Q696.618 1059.39 694.789 1055.85 Q692.983 1052.29 689.349 1052.29 M689.349 1048.58 Q695.159 1048.58 698.215 1053.19 Q701.293 1057.77 701.293 1066.52 Q701.293 1075.25 698.215 1079.86 Q695.159 1084.44 689.349 1084.44 Q683.539 1084.44 680.46 1079.86 Q677.405 1075.25 677.405 1066.52 Q677.405 1057.77 680.46 1053.19 Q683.539 1048.58 689.349 1048.58 Z" fill="#000000" fill-rule="nonzero" fill-opacity="1" /><polyline clip-path="url(#clip090)" style="stroke:#ac8d18; stroke-linecap:round; stroke-linejoin:round; stroke-width:4; stroke-opacity:1; fill:none" points="244.572,1118.33 363.747,1118.33 "/>
<path clip-path="url(#clip090)" d="M396.804 1135.61 L383.61 1101.05 L388.494 1101.05 L399.443 1130.15 L410.415 1101.05 L415.276 1101.05 L402.105 1135.61 L396.804 1135.61 Z" fill="#000000" fill-rule="nonzero" fill-opacity="1" /><path clip-path="url(#clip090)" d="M438.633 1121.58 L438.633 1123.66 L419.05 1123.66 Q419.327 1128.06 421.688 1130.38 Q424.073 1132.67 428.309 1132.67 Q430.763 1132.67 433.054 1132.07 Q435.369 1131.47 437.637 1130.26 L437.637 1134.29 Q435.346 1135.26 432.938 1135.77 Q430.531 1136.28 428.054 1136.28 Q421.851 1136.28 418.216 1132.67 Q414.605 1129.06 414.605 1122.9 Q414.605 1116.53 418.031 1112.81 Q421.48 1109.06 427.313 1109.06 Q432.545 1109.06 435.577 1112.44 Q438.633 1115.79 438.633 1121.58 M434.374 1120.33 Q434.327 1116.84 432.406 1114.75 Q430.508 1112.67 427.36 1112.67 Q423.795 1112.67 421.642 1114.68 Q419.513 1116.7 419.189 1120.35 L434.374 1120.33 Z" fill="#000000" fill-rule="nonzero" fill-opacity="1" /><path clip-path="url(#clip090)" d="M467.174 1119.96 L467.174 1135.61 L462.915 1135.61 L462.915 1120.1 Q462.915 1116.42 461.48 1114.59 Q460.045 1112.76 457.174 1112.76 Q453.725 1112.76 451.735 1114.96 Q449.744 1117.16 449.744 1120.96 L449.744 1135.61 L445.462 1135.61 L445.462 1099.59 L449.744 1099.59 L449.744 1113.71 Q451.272 1111.37 453.332 1110.22 Q455.415 1109.06 458.123 1109.06 Q462.591 1109.06 464.883 1111.84 Q467.174 1114.59 467.174 1119.96 Z" fill="#000000" fill-rule="nonzero" fill-opacity="1" /><path clip-path="url(#clip090)" d="M475.67 1109.68 L479.929 1109.68 L479.929 1135.61 L475.67 1135.61 L475.67 1109.68 M475.67 1099.59 L479.929 1099.59 L479.929 1104.98 L475.67 1104.98 L475.67 1099.59 Z" fill="#000000" fill-rule="nonzero" fill-opacity="1" /><path clip-path="url(#clip090)" d="M507.498 1110.68 L507.498 1114.66 Q505.693 1113.66 503.864 1113.18 Q502.058 1112.67 500.207 1112.67 Q496.063 1112.67 493.771 1115.31 Q491.48 1117.92 491.48 1122.67 Q491.48 1127.41 493.771 1130.05 Q496.063 1132.67 500.207 1132.67 Q502.058 1132.67 503.864 1132.18 Q505.693 1131.67 507.498 1130.68 L507.498 1134.61 Q505.716 1135.45 503.795 1135.86 Q501.896 1136.28 499.744 1136.28 Q493.887 1136.28 490.438 1132.6 Q486.989 1128.92 486.989 1122.67 Q486.989 1116.33 490.461 1112.69 Q493.957 1109.06 500.021 1109.06 Q501.989 1109.06 503.864 1109.47 Q505.739 1109.87 507.498 1110.68 Z" fill="#000000" fill-rule="nonzero" fill-opacity="1" /><path clip-path="url(#clip090)" d="M514.906 1099.59 L519.165 1099.59 L519.165 1135.61 L514.906 1135.61 L514.906 1099.59 Z" fill="#000000" fill-rule="nonzero" fill-opacity="1" /><path clip-path="url(#clip090)" d="M550.253 1121.58 L550.253 1123.66 L530.669 1123.66 Q530.947 1128.06 533.308 1130.38 Q535.693 1132.67 539.929 1132.67 Q542.382 1132.67 544.674 1132.07 Q546.989 1131.47 549.257 1130.26 L549.257 1134.29 Q546.966 1135.26 544.558 1135.77 Q542.151 1136.28 539.674 1136.28 Q533.47 1136.28 529.836 1132.67 Q526.225 1129.06 526.225 1122.9 Q526.225 1116.53 529.651 1112.81 Q533.1 1109.06 538.933 1109.06 Q544.165 1109.06 547.197 1112.44 Q550.253 1115.79 550.253 1121.58 M545.993 1120.33 Q545.947 1116.84 544.026 1114.75 Q542.128 1112.67 538.98 1112.67 Q535.415 1112.67 533.262 1114.68 Q531.132 1116.7 530.808 1120.35 L545.993 1120.33 Z" fill="#000000" fill-rule="nonzero" fill-opacity="1" /><path clip-path="url(#clip090)" d="M587.081 1116.97 Q590.438 1117.69 592.313 1119.96 Q594.211 1122.23 594.211 1125.56 Q594.211 1130.68 590.692 1133.48 Q587.174 1136.28 580.692 1136.28 Q578.516 1136.28 576.202 1135.84 Q573.91 1135.42 571.456 1134.57 L571.456 1130.05 Q573.401 1131.19 575.715 1131.77 Q578.03 1132.34 580.553 1132.34 Q584.952 1132.34 587.243 1130.61 Q589.558 1128.87 589.558 1125.56 Q589.558 1122.51 587.405 1120.79 Q585.276 1119.06 581.456 1119.06 L577.428 1119.06 L577.428 1115.22 L581.641 1115.22 Q585.09 1115.22 586.919 1113.85 Q588.748 1112.46 588.748 1109.87 Q588.748 1107.21 586.85 1105.79 Q584.975 1104.36 581.456 1104.36 Q579.535 1104.36 577.336 1104.78 Q575.137 1105.19 572.498 1106.07 L572.498 1101.91 Q575.16 1101.16 577.475 1100.79 Q579.813 1100.42 581.873 1100.42 Q587.197 1100.42 590.299 1102.85 Q593.401 1105.26 593.401 1109.38 Q593.401 1112.25 591.757 1114.24 Q590.114 1116.21 587.081 1116.97 Z" fill="#000000" fill-rule="nonzero" fill-opacity="1" /><path clip-path="url(#clip090)" d="M603.563 1129.73 L608.447 1129.73 L608.447 1135.61 L603.563 1135.61 L603.563 1129.73 M603.563 1111.09 L608.447 1111.09 L608.447 1116.97 L603.563 1116.97 L603.563 1111.09 Z" fill="#000000" fill-rule="nonzero" fill-opacity="1" /><path clip-path="url(#clip090)" d="M634.928 1131.67 L642.567 1131.67 L642.567 1105.31 L634.257 1106.97 L634.257 1102.72 L642.521 1101.05 L647.197 1101.05 L647.197 1131.67 L654.835 1131.67 L654.835 1135.61 L634.928 1135.61 L634.928 1131.67 Z" fill="#000000" fill-rule="nonzero" fill-opacity="1" /><path clip-path="url(#clip090)" d="M664.28 1129.73 L669.164 1129.73 L669.164 1135.61 L664.28 1135.61 L664.28 1129.73 Z" fill="#000000" fill-rule="nonzero" fill-opacity="1" /><path clip-path="url(#clip090)" d="M689.349 1104.13 Q685.738 1104.13 683.909 1107.69 Q682.104 1111.23 682.104 1118.36 Q682.104 1125.47 683.909 1129.03 Q685.738 1132.58 689.349 1132.58 Q692.983 1132.58 694.789 1129.03 Q696.618 1125.47 696.618 1118.36 Q696.618 1111.23 694.789 1107.69 Q692.983 1104.13 689.349 1104.13 M689.349 1100.42 Q695.159 1100.42 698.215 1105.03 Q701.293 1109.61 701.293 1118.36 Q701.293 1127.09 698.215 1131.7 Q695.159 1136.28 689.349 1136.28 Q683.539 1136.28 680.46 1131.7 Q677.405 1127.09 677.405 1118.36 Q677.405 1109.61 680.46 1105.03 Q683.539 1100.42 689.349 1100.42 Z" fill="#000000" fill-rule="nonzero" fill-opacity="1" /><polyline clip-path="url(#clip090)" style="stroke:#00a9ad; stroke-linecap:round; stroke-linejoin:round; stroke-width:4; stroke-opacity:1; fill:none" points="244.572,1170.17 363.747,1170.17 "/>
<path clip-path="url(#clip090)" d="M396.804 1187.45 L383.61 1152.89 L388.494 1152.89 L399.443 1181.99 L410.415 1152.89 L415.276 1152.89 L402.105 1187.45 L396.804 1187.45 Z" fill="#000000" fill-rule="nonzero" fill-opacity="1" /><path clip-path="url(#clip090)" d="M438.633 1173.42 L438.633 1175.5 L419.05 1175.5 Q419.327 1179.9 421.688 1182.22 Q424.073 1184.51 428.309 1184.51 Q430.763 1184.51 433.054 1183.91 Q435.369 1183.31 437.637 1182.1 L437.637 1186.13 Q435.346 1187.1 432.938 1187.61 Q430.531 1188.12 428.054 1188.12 Q421.851 1188.12 418.216 1184.51 Q414.605 1180.9 414.605 1174.74 Q414.605 1168.37 418.031 1164.65 Q421.48 1160.9 427.313 1160.9 Q432.545 1160.9 435.577 1164.28 Q438.633 1167.63 438.633 1173.42 M434.374 1172.17 Q434.327 1168.68 432.406 1166.59 Q430.508 1164.51 427.36 1164.51 Q423.795 1164.51 421.642 1166.52 Q419.513 1168.54 419.189 1172.19 L434.374 1172.17 Z" fill="#000000" fill-rule="nonzero" fill-opacity="1" /><path clip-path="url(#clip090)" d="M467.174 1171.8 L467.174 1187.45 L462.915 1187.45 L462.915 1171.94 Q462.915 1168.26 461.48 1166.43 Q460.045 1164.6 457.174 1164.6 Q453.725 1164.6 451.735 1166.8 Q449.744 1169 449.744 1172.8 L449.744 1187.45 L445.462 1187.45 L445.462 1151.43 L449.744 1151.43 L449.744 1165.55 Q451.272 1163.21 453.332 1162.06 Q455.415 1160.9 458.123 1160.9 Q462.591 1160.9 464.883 1163.68 Q467.174 1166.43 467.174 1171.8 Z" fill="#000000" fill-rule="nonzero" fill-opacity="1" /><path clip-path="url(#clip090)" d="M475.67 1161.52 L479.929 1161.52 L479.929 1187.45 L475.67 1187.45 L475.67 1161.52 M475.67 1151.43 L479.929 1151.43 L479.929 1156.82 L475.67 1156.82 L475.67 1151.43 Z" fill="#000000" fill-rule="nonzero" fill-opacity="1" /><path clip-path="url(#clip090)" d="M507.498 1162.52 L507.498 1166.5 Q505.693 1165.5 503.864 1165.02 Q502.058 1164.51 500.207 1164.51 Q496.063 1164.51 493.771 1167.15 Q491.48 1169.76 491.48 1174.51 Q491.48 1179.25 493.771 1181.89 Q496.063 1184.51 500.207 1184.51 Q502.058 1184.51 503.864 1184.02 Q505.693 1183.51 507.498 1182.52 L507.498 1186.45 Q505.716 1187.29 503.795 1187.7 Q501.896 1188.12 499.744 1188.12 Q493.887 1188.12 490.438 1184.44 Q486.989 1180.76 486.989 1174.51 Q486.989 1168.17 490.461 1164.53 Q493.957 1160.9 500.021 1160.9 Q501.989 1160.9 503.864 1161.31 Q505.739 1161.71 507.498 1162.52 Z" fill="#000000" fill-rule="nonzero" fill-opacity="1" /><path clip-path="url(#clip090)" d="M514.906 1151.43 L519.165 1151.43 L519.165 1187.45 L514.906 1187.45 L514.906 1151.43 Z" fill="#000000" fill-rule="nonzero" fill-opacity="1" /><path clip-path="url(#clip090)" d="M550.253 1173.42 L550.253 1175.5 L530.669 1175.5 Q530.947 1179.9 533.308 1182.22 Q535.693 1184.51 539.929 1184.51 Q542.382 1184.51 544.674 1183.91 Q546.989 1183.31 549.257 1182.1 L549.257 1186.13 Q546.966 1187.1 544.558 1187.61 Q542.151 1188.12 539.674 1188.12 Q533.47 1188.12 529.836 1184.51 Q526.225 1180.9 526.225 1174.74 Q526.225 1168.37 529.651 1164.65 Q533.1 1160.9 538.933 1160.9 Q544.165 1160.9 547.197 1164.28 Q550.253 1167.63 550.253 1173.42 M545.993 1172.17 Q545.947 1168.68 544.026 1166.59 Q542.128 1164.51 538.98 1164.51 Q535.415 1164.51 533.262 1166.52 Q531.132 1168.54 530.808 1172.19 L545.993 1172.17 Z" fill="#000000" fill-rule="nonzero" fill-opacity="1" /><path clip-path="url(#clip090)" d="M585.762 1156.96 L573.956 1175.41 L585.762 1175.41 L585.762 1156.96 M584.535 1152.89 L590.414 1152.89 L590.414 1175.41 L595.345 1175.41 L595.345 1179.3 L590.414 1179.3 L590.414 1187.45 L585.762 1187.45 L585.762 1179.3 L570.16 1179.3 L570.16 1174.79 L584.535 1152.89 Z" fill="#000000" fill-rule="nonzero" fill-opacity="1" /><path clip-path="url(#clip090)" d="M603.563 1181.57 L608.447 1181.57 L608.447 1187.45 L603.563 1187.45 L603.563 1181.57 M603.563 1162.93 L608.447 1162.93 L608.447 1168.81 L603.563 1168.81 L603.563 1162.93 Z" fill="#000000" fill-rule="nonzero" fill-opacity="1" /><path clip-path="url(#clip090)" d="M634.928 1183.51 L642.567 1183.51 L642.567 1157.15 L634.257 1158.81 L634.257 1154.56 L642.521 1152.89 L647.197 1152.89 L647.197 1183.51 L654.835 1183.51 L654.835 1187.45 L634.928 1187.45 L634.928 1183.51 Z" fill="#000000" fill-rule="nonzero" fill-opacity="1" /><path clip-path="url(#clip090)" d="M664.28 1181.57 L669.164 1181.57 L669.164 1187.45 L664.28 1187.45 L664.28 1181.57 Z" fill="#000000" fill-rule="nonzero" fill-opacity="1" /><path clip-path="url(#clip090)" d="M689.349 1155.97 Q685.738 1155.97 683.909 1159.53 Q682.104 1163.07 682.104 1170.2 Q682.104 1177.31 683.909 1180.87 Q685.738 1184.42 689.349 1184.42 Q692.983 1184.42 694.789 1180.87 Q696.618 1177.31 696.618 1170.2 Q696.618 1163.07 694.789 1159.53 Q692.983 1155.97 689.349 1155.97 M689.349 1152.26 Q695.159 1152.26 698.215 1156.87 Q701.293 1161.45 701.293 1170.2 Q701.293 1178.93 698.215 1183.54 Q695.159 1188.12 689.349 1188.12 Q683.539 1188.12 680.46 1183.54 Q677.405 1178.93 677.405 1170.2 Q677.405 1161.45 680.46 1156.87 Q683.539 1152.26 689.349 1152.26 Z" fill="#000000" fill-rule="nonzero" fill-opacity="1" /><path clip-path="url(#clip090)" d="M1642.97 1298.58 L1656.33 1298.58 L1656.33 1252.44 L1641.79 1255.36 L1641.79 1247.9 L1656.25 1244.99 L1664.44 1244.99 L1664.44 1298.58 L1677.8 1298.58 L1677.8 1305.47 L1642.97 1305.47 L1642.97 1298.58 Z" fill="#000000" fill-rule="nonzero" fill-opacity="1" /><path clip-path="url(#clip090)" d="M1652.43 264.013 L1680.99 264.013 L1680.99 270.899 L1642.58 270.899 L1642.58 264.013 Q1647.24 259.192 1655.26 251.09 Q1663.33 242.948 1665.39 240.599 Q1669.32 236.183 1670.86 233.145 Q1672.44 230.066 1672.44 227.109 Q1672.44 222.288 1669.04 219.25 Q1665.67 216.212 1660.25 216.212 Q1656.4 216.212 1652.1 217.549 Q1647.85 218.886 1642.99 221.6 L1642.99 213.336 Q1647.93 211.351 1652.23 210.338 Q1656.52 209.326 1660.08 209.326 Q1669.48 209.326 1675.07 214.025 Q1680.66 218.724 1680.66 226.582 Q1680.66 230.309 1679.25 233.672 Q1677.87 236.993 1674.18 241.53 Q1673.17 242.705 1667.74 248.336 Q1662.31 253.926 1652.43 264.013 Z" fill="#000000" fill-rule="nonzero" fill-opacity="1" /><path clip-path="url(#clip090)" d="M1407.75 940.404 Q1413.63 941.66 1416.91 945.63 Q1420.23 949.6 1420.23 955.433 Q1420.23 964.386 1414.07 969.287 Q1407.91 974.189 1396.57 974.189 Q1392.76 974.189 1388.71 973.419 Q1384.7 972.69 1380.41 971.191 L1380.41 963.292 Q1383.81 965.277 1387.86 966.289 Q1391.91 967.302 1396.33 967.302 Q1404.03 967.302 1408.04 964.264 Q1412.09 961.226 1412.09 955.433 Q1412.09 950.086 1408.32 947.088 Q1404.59 944.05 1397.91 944.05 L1390.86 944.05 L1390.86 937.326 L1398.23 937.326 Q1404.27 937.326 1407.47 934.935 Q1410.67 932.505 1410.67 927.968 Q1410.67 923.309 1407.35 920.838 Q1404.07 918.327 1397.91 918.327 Q1394.55 918.327 1390.7 919.056 Q1386.85 919.785 1382.23 921.324 L1382.23 914.033 Q1386.89 912.737 1390.94 912.088 Q1395.03 911.44 1398.64 911.44 Q1407.96 911.44 1413.38 915.694 Q1418.81 919.907 1418.81 927.117 Q1418.81 932.14 1415.94 935.624 Q1413.06 939.067 1407.75 940.404 Z" fill="#000000" fill-rule="nonzero" fill-opacity="1" /><path clip-path="url(#clip090)" d="M749.309 1643.46 L728.65 1675.74 L749.309 1675.74 L749.309 1643.46 M747.162 1636.33 L757.452 1636.33 L757.452 1675.74 L766.08 1675.74 L766.08 1682.55 L757.452 1682.55 L757.452 1696.81 L749.309 1696.81 L749.309 1682.55 L722.006 1682.55 L722.006 1674.65 L747.162 1636.33 Z" fill="#000000" fill-rule="nonzero" fill-opacity="1" /><path clip-path="url(#clip090)" d="M821.195 646.619 L853.318 646.619 L853.318 653.505 L828.689 653.505 L828.689 668.332 Q830.471 667.724 832.254 667.44 Q834.036 667.116 835.818 667.116 Q845.946 667.116 851.86 672.666 Q857.774 678.216 857.774 687.695 Q857.774 697.458 851.698 702.886 Q845.621 708.274 834.563 708.274 Q830.755 708.274 826.785 707.625 Q822.855 706.977 818.642 705.681 L818.642 697.458 Q822.288 699.443 826.177 700.415 Q830.066 701.387 834.4 701.387 Q841.409 701.387 845.5 697.701 Q849.591 694.014 849.591 687.695 Q849.591 681.376 845.5 677.689 Q841.409 674.003 834.4 674.003 Q831.119 674.003 827.838 674.732 Q824.597 675.461 821.195 677.001 L821.195 646.619 Z" fill="#000000" fill-rule="nonzero" fill-opacity="1" /><path clip-path="url(#clip090)" d="M640.036 1456.42 Q634.527 1456.42 631.286 1460.19 Q628.086 1463.95 628.086 1470.52 Q628.086 1477.04 631.286 1480.85 Q634.527 1484.61 640.036 1484.61 Q645.545 1484.61 648.746 1480.85 Q651.986 1477.04 651.986 1470.52 Q651.986 1463.95 648.746 1460.19 Q645.545 1456.42 640.036 1456.42 M656.28 1430.78 L656.28 1438.23 Q653.202 1436.77 650.042 1436 Q646.923 1435.23 643.844 1435.23 Q635.742 1435.23 631.448 1440.7 Q627.195 1446.17 626.587 1457.23 Q628.977 1453.7 632.583 1451.84 Q636.188 1449.94 640.522 1449.94 Q649.637 1449.94 654.903 1455.49 Q660.21 1461 660.21 1470.52 Q660.21 1479.83 654.701 1485.46 Q649.191 1491.09 640.036 1491.09 Q629.544 1491.09 623.995 1483.07 Q618.445 1475.01 618.445 1459.74 Q618.445 1445.4 625.25 1436.89 Q632.056 1428.35 643.52 1428.35 Q646.599 1428.35 649.718 1428.95 Q652.878 1429.56 656.28 1430.78 Z" fill="#000000" fill-rule="nonzero" fill-opacity="1" /><path clip-path="url(#clip090)" d="M518.266 371.928 L557.154 371.928 L557.154 375.412 L535.199 432.408 L526.651 432.408 L547.311 378.814 L518.266 378.814 L518.266 371.928 Z" fill="#000000" fill-rule="nonzero" fill-opacity="1" /><path clip-path="url(#clip090)" d="M1843.26 1516.74 Q1837.42 1516.74 1834.06 1519.86 Q1830.74 1522.97 1830.74 1528.44 Q1830.74 1533.91 1834.06 1537.03 Q1837.42 1540.15 1843.26 1540.15 Q1849.09 1540.15 1852.45 1537.03 Q1855.82 1533.87 1855.82 1528.44 Q1855.82 1522.97 1852.45 1519.86 Q1849.13 1516.74 1843.26 1516.74 M1835.07 1513.25 Q1829.81 1511.96 1826.85 1508.35 Q1823.93 1504.75 1823.93 1499.56 Q1823.93 1492.31 1829.08 1488.1 Q1834.26 1483.88 1843.26 1483.88 Q1852.29 1483.88 1857.44 1488.1 Q1862.58 1492.31 1862.58 1499.56 Q1862.58 1504.75 1859.62 1508.35 Q1856.71 1511.96 1851.48 1513.25 Q1857.4 1514.63 1860.68 1518.64 Q1864 1522.65 1864 1528.44 Q1864 1537.23 1858.61 1541.93 Q1853.26 1546.63 1843.26 1546.63 Q1833.25 1546.63 1827.86 1541.93 Q1822.52 1537.23 1822.52 1528.44 Q1822.52 1522.65 1825.84 1518.64 Q1829.16 1514.63 1835.07 1513.25 M1832.08 1500.33 Q1832.08 1505.03 1834.99 1507.66 Q1837.95 1510.3 1843.26 1510.3 Q1848.52 1510.3 1851.48 1507.66 Q1854.48 1505.03 1854.48 1500.33 Q1854.48 1495.63 1851.48 1493 Q1848.52 1490.37 1843.26 1490.37 Q1837.95 1490.37 1834.99 1493 Q1832.08 1495.63 1832.08 1500.33 Z" fill="#000000" fill-rule="nonzero" fill-opacity="1" /><path clip-path="url(#clip090)" d="M1515.63 1242.47 L1515.63 1235.01 Q1518.7 1236.47 1521.86 1237.24 Q1525.02 1238.01 1528.06 1238.01 Q1536.16 1238.01 1540.42 1232.58 Q1544.71 1227.11 1545.32 1216.01 Q1542.97 1219.5 1539.36 1221.36 Q1535.76 1223.22 1531.38 1223.22 Q1522.31 1223.22 1517 1217.76 Q1511.74 1212.25 1511.74 1202.73 Q1511.74 1193.41 1517.25 1187.78 Q1522.76 1182.15 1531.91 1182.15 Q1542.4 1182.15 1547.91 1190.21 Q1553.46 1198.23 1553.46 1213.54 Q1553.46 1227.84 1546.66 1236.39 Q1539.89 1244.9 1528.43 1244.9 Q1525.35 1244.9 1522.19 1244.29 Q1519.03 1243.68 1515.63 1242.47 M1531.91 1216.82 Q1537.42 1216.82 1540.62 1213.06 Q1543.86 1209.29 1543.86 1202.73 Q1543.86 1196.21 1540.62 1192.44 Q1537.42 1188.63 1531.91 1188.63 Q1526.4 1188.63 1523.16 1192.44 Q1519.96 1196.21 1519.96 1202.73 Q1519.96 1209.29 1523.16 1213.06 Q1526.4 1216.82 1531.91 1216.82 Z" fill="#000000" fill-rule="nonzero" fill-opacity="1" /><path clip-path="url(#clip090)" d="M1260.51 647.912 L1273.88 647.912 L1273.88 601.772 L1259.34 604.689 L1259.34 597.235 L1273.8 594.319 L1281.98 594.319 L1281.98 647.912 L1295.35 647.912 L1295.35 654.799 L1260.51 654.799 L1260.51 647.912 Z" fill="#000000" fill-rule="nonzero" fill-opacity="1" /><path clip-path="url(#clip090)" d="M1329.38 599.707 Q1323.06 599.707 1319.86 605.945 Q1316.7 612.143 1316.7 624.62 Q1316.7 637.056 1319.86 643.294 Q1323.06 649.492 1329.38 649.492 Q1335.74 649.492 1338.9 643.294 Q1342.1 637.056 1342.1 624.62 Q1342.1 612.143 1338.9 605.945 Q1335.74 599.707 1329.38 599.707 M1329.38 593.225 Q1339.55 593.225 1344.89 601.286 Q1350.28 609.307 1350.28 624.62 Q1350.28 639.891 1344.89 647.953 Q1339.55 655.974 1329.38 655.974 Q1319.21 655.974 1313.82 647.953 Q1308.47 639.891 1308.47 624.62 Q1308.47 609.307 1313.82 601.286 Q1319.21 593.225 1329.38 593.225 Z" fill="#000000" fill-rule="nonzero" fill-opacity="1" /></svg>
