<?xml version="1.0" encoding="utf-8"?>
<svg xmlns="http://www.w3.org/2000/svg" xmlns:xlink="http://www.w3.org/1999/xlink" width="500" height="500" viewBox="0 0 2000 2000">
<defs>
  <clipPath id="clip000">
    <rect x="0" y="0" width="2000" height="2000"/>
  </clipPath>
</defs>
<path clip-path="url(#clip000)" d="M0 2000 L2000 2000 L2000 0 L0 0  Z" fill="#ffffff" fill-rule="evenodd" fill-opacity="1"/>
<defs>
  <clipPath id="clip001">
    <rect x="400" y="200" width="1401" height="1401"/>
  </clipPath>
</defs>
<path clip-path="url(#clip000)" d="M165.121 1865.17 L1952.76 1865.17 L1952.76 153.712 L165.121 153.712  Z" fill="#ffffff" fill-rule="evenodd" fill-opacity="1"/>
<defs>
  <clipPath id="clip002">
    <rect x="165" y="153" width="1789" height="1712"/>
  </clipPath>
</defs>
<polyline clip-path="url(#clip002)" style="stroke:#000000; stroke-linecap:round; stroke-linejoin:round; stroke-width:2; stroke-opacity:0.1; fill:none" points="165.121,1865.17 165.121,153.712 "/>
<polyline clip-path="url(#clip002)" style="stroke:#000000; stroke-linecap:round; stroke-linejoin:round; stroke-width:2; stroke-opacity:0.1; fill:none" points="522.648,1865.17 522.648,153.712 "/>
<polyline clip-path="url(#clip002)" style="stroke:#000000; stroke-linecap:round; stroke-linejoin:round; stroke-width:2; stroke-opacity:0.1; fill:none" points="880.175,1865.17 880.175,153.712 "/>
<polyline clip-path="url(#clip002)" style="stroke:#000000; stroke-linecap:round; stroke-linejoin:round; stroke-width:2; stroke-opacity:0.1; fill:none" points="1237.7,1865.17 1237.7,153.712 "/>
<polyline clip-path="url(#clip002)" style="stroke:#000000; stroke-linecap:round; stroke-linejoin:round; stroke-width:2; stroke-opacity:0.1; fill:none" points="1595.23,1865.17 1595.23,153.712 "/>
<polyline clip-path="url(#clip002)" style="stroke:#000000; stroke-linecap:round; stroke-linejoin:round; stroke-width:2; stroke-opacity:0.1; fill:none" points="1952.76,1865.17 1952.76,153.712 "/>
<polyline clip-path="url(#clip000)" style="stroke:#000000; stroke-linecap:round; stroke-linejoin:round; stroke-width:4; stroke-opacity:1; fill:none" points="165.121,1865.17 1952.76,1865.17 "/>
<polyline clip-path="url(#clip000)" style="stroke:#000000; stroke-linecap:round; stroke-linejoin:round; stroke-width:4; stroke-opacity:1; fill:none" points="165.121,1865.17 165.121,1846.27 "/>
<polyline clip-path="url(#clip000)" style="stroke:#000000; stroke-linecap:round; stroke-linejoin:round; stroke-width:4; stroke-opacity:1; fill:none" points="522.648,1865.17 522.648,1846.27 "/>
<polyline clip-path="url(#clip000)" style="stroke:#000000; stroke-linecap:round; stroke-linejoin:round; stroke-width:4; stroke-opacity:1; fill:none" points="880.175,1865.17 880.175,1846.27 "/>
<polyline clip-path="url(#clip000)" style="stroke:#000000; stroke-linecap:round; stroke-linejoin:round; stroke-width:4; stroke-opacity:1; fill:none" points="1237.7,1865.17 1237.7,1846.27 "/>
<polyline clip-path="url(#clip000)" style="stroke:#000000; stroke-linecap:round; stroke-linejoin:round; stroke-width:4; stroke-opacity:1; fill:none" points="1595.23,1865.17 1595.23,1846.27 "/>
<polyline clip-path="url(#clip000)" style="stroke:#000000; stroke-linecap:round; stroke-linejoin:round; stroke-width:4; stroke-opacity:1; fill:none" points="1952.76,1865.17 1952.76,1846.27 "/>
<path clip-path="url(#clip000)" d="M165.121 1892.89 Q161.51 1892.89 159.682 1896.45 Q157.876 1899.99 157.876 1907.12 Q157.876 1914.23 159.682 1917.79 Q161.51 1921.34 165.121 1921.34 Q168.756 1921.34 170.561 1917.79 Q172.39 1914.23 172.39 1907.12 Q172.39 1899.99 170.561 1896.45 Q168.756 1892.89 165.121 1892.89 M165.121 1889.18 Q170.931 1889.18 173.987 1893.79 Q177.066 1898.37 177.066 1907.12 Q177.066 1915.85 173.987 1920.46 Q170.931 1925.04 165.121 1925.04 Q159.311 1925.04 156.232 1920.46 Q153.177 1915.85 153.177 1907.12 Q153.177 1898.37 156.232 1893.79 Q159.311 1889.18 165.121 1889.18 Z" fill="#000000" fill-rule="nonzero" fill-opacity="1" /><path clip-path="url(#clip000)" d="M501.421 1920.43 L517.741 1920.43 L517.741 1924.37 L495.797 1924.37 L495.797 1920.43 Q498.459 1917.68 503.042 1913.05 Q507.648 1908.4 508.829 1907.05 Q511.074 1904.53 511.954 1902.79 Q512.857 1901.03 512.857 1899.34 Q512.857 1896.59 510.912 1894.85 Q508.991 1893.12 505.889 1893.12 Q503.69 1893.12 501.236 1893.88 Q498.806 1894.65 496.028 1896.2 L496.028 1891.47 Q498.852 1890.34 501.306 1889.76 Q503.759 1889.18 505.796 1889.18 Q511.167 1889.18 514.361 1891.87 Q517.556 1894.55 517.556 1899.04 Q517.556 1901.17 516.745 1903.09 Q515.958 1904.99 513.852 1907.59 Q513.273 1908.26 510.171 1911.47 Q507.07 1914.67 501.421 1920.43 Z" fill="#000000" fill-rule="nonzero" fill-opacity="1" /><path clip-path="url(#clip000)" d="M537.556 1892.89 Q533.944 1892.89 532.116 1896.45 Q530.31 1899.99 530.31 1907.12 Q530.31 1914.23 532.116 1917.79 Q533.944 1921.34 537.556 1921.34 Q541.19 1921.34 542.995 1917.79 Q544.824 1914.23 544.824 1907.12 Q544.824 1899.99 542.995 1896.45 Q541.19 1892.89 537.556 1892.89 M537.556 1889.18 Q543.366 1889.18 546.421 1893.79 Q549.5 1898.37 549.5 1907.12 Q549.5 1915.85 546.421 1920.46 Q543.366 1925.04 537.556 1925.04 Q531.745 1925.04 528.667 1920.46 Q525.611 1915.85 525.611 1907.12 Q525.611 1898.37 528.667 1893.79 Q531.745 1889.18 537.556 1889.18 Z" fill="#000000" fill-rule="nonzero" fill-opacity="1" /><path clip-path="url(#clip000)" d="M868.347 1893.88 L856.541 1912.33 L868.347 1912.33 L868.347 1893.88 M867.12 1889.81 L872.999 1889.81 L872.999 1912.33 L877.93 1912.33 L877.93 1916.22 L872.999 1916.22 L872.999 1924.37 L868.347 1924.37 L868.347 1916.22 L852.745 1916.22 L852.745 1911.71 L867.12 1889.81 Z" fill="#000000" fill-rule="nonzero" fill-opacity="1" /><path clip-path="url(#clip000)" d="M895.661 1892.89 Q892.05 1892.89 890.221 1896.45 Q888.416 1899.99 888.416 1907.12 Q888.416 1914.23 890.221 1917.79 Q892.05 1921.34 895.661 1921.34 Q899.295 1921.34 901.101 1917.79 Q902.93 1914.23 902.93 1907.12 Q902.93 1899.99 901.101 1896.45 Q899.295 1892.89 895.661 1892.89 M895.661 1889.18 Q901.471 1889.18 904.527 1893.79 Q907.606 1898.37 907.606 1907.12 Q907.606 1915.85 904.527 1920.46 Q901.471 1925.04 895.661 1925.04 Q889.851 1925.04 886.772 1920.46 Q883.717 1915.85 883.717 1907.12 Q883.717 1898.37 886.772 1893.79 Q889.851 1889.18 895.661 1889.18 Z" fill="#000000" fill-rule="nonzero" fill-opacity="1" /><path clip-path="url(#clip000)" d="M1223.11 1905.22 Q1219.96 1905.22 1218.11 1907.38 Q1216.28 1909.53 1216.28 1913.28 Q1216.28 1917.01 1218.11 1919.18 Q1219.96 1921.34 1223.11 1921.34 Q1226.26 1921.34 1228.08 1919.18 Q1229.94 1917.01 1229.94 1913.28 Q1229.94 1909.53 1228.08 1907.38 Q1226.26 1905.22 1223.11 1905.22 M1232.39 1890.57 L1232.39 1894.83 Q1230.63 1894 1228.82 1893.56 Q1227.04 1893.12 1225.28 1893.12 Q1220.65 1893.12 1218.2 1896.24 Q1215.77 1899.37 1215.42 1905.69 Q1216.79 1903.67 1218.85 1902.61 Q1220.91 1901.52 1223.39 1901.52 Q1228.59 1901.52 1231.6 1904.69 Q1234.63 1907.84 1234.63 1913.28 Q1234.63 1918.6 1231.49 1921.82 Q1228.34 1925.04 1223.11 1925.04 Q1217.11 1925.04 1213.94 1920.46 Q1210.77 1915.85 1210.77 1907.12 Q1210.77 1898.93 1214.66 1894.07 Q1218.55 1889.18 1225.1 1889.18 Q1226.86 1889.18 1228.64 1889.53 Q1230.45 1889.88 1232.39 1890.57 Z" fill="#000000" fill-rule="nonzero" fill-opacity="1" /><path clip-path="url(#clip000)" d="M1252.69 1892.89 Q1249.08 1892.89 1247.25 1896.45 Q1245.45 1899.99 1245.45 1907.12 Q1245.45 1914.23 1247.25 1917.79 Q1249.08 1921.34 1252.69 1921.34 Q1256.32 1921.34 1258.13 1917.79 Q1259.96 1914.23 1259.96 1907.12 Q1259.96 1899.99 1258.13 1896.45 Q1256.32 1892.89 1252.69 1892.89 M1252.69 1889.18 Q1258.5 1889.18 1261.56 1893.79 Q1264.63 1898.37 1264.63 1907.12 Q1264.63 1915.85 1261.56 1920.46 Q1258.5 1925.04 1252.69 1925.04 Q1246.88 1925.04 1243.8 1920.46 Q1240.75 1915.85 1240.75 1907.12 Q1240.75 1898.37 1243.8 1893.79 Q1246.88 1889.18 1252.69 1889.18 Z" fill="#000000" fill-rule="nonzero" fill-opacity="1" /><path clip-path="url(#clip000)" d="M1580.1 1907.96 Q1576.77 1907.96 1574.85 1909.74 Q1572.95 1911.52 1572.95 1914.65 Q1572.95 1917.77 1574.85 1919.55 Q1576.77 1921.34 1580.1 1921.34 Q1583.44 1921.34 1585.36 1919.55 Q1587.28 1917.75 1587.28 1914.65 Q1587.28 1911.52 1585.36 1909.74 Q1583.46 1907.96 1580.1 1907.96 M1575.43 1905.97 Q1572.42 1905.22 1570.73 1903.16 Q1569.06 1901.1 1569.06 1898.14 Q1569.06 1894 1572 1891.59 Q1574.96 1889.18 1580.1 1889.18 Q1585.26 1889.18 1588.2 1891.59 Q1591.14 1894 1591.14 1898.14 Q1591.14 1901.1 1589.45 1903.16 Q1587.79 1905.22 1584.8 1905.97 Q1588.18 1906.75 1590.06 1909.04 Q1591.95 1911.34 1591.95 1914.65 Q1591.95 1919.67 1588.87 1922.35 Q1585.82 1925.04 1580.1 1925.04 Q1574.38 1925.04 1571.31 1922.35 Q1568.25 1919.67 1568.25 1914.65 Q1568.25 1911.34 1570.15 1909.04 Q1572.05 1906.75 1575.43 1905.97 M1573.71 1898.58 Q1573.71 1901.27 1575.38 1902.77 Q1577.07 1904.28 1580.1 1904.28 Q1583.11 1904.28 1584.8 1902.77 Q1586.51 1901.27 1586.51 1898.58 Q1586.51 1895.9 1584.8 1894.39 Q1583.11 1892.89 1580.1 1892.89 Q1577.07 1892.89 1575.38 1894.39 Q1573.71 1895.9 1573.71 1898.58 Z" fill="#000000" fill-rule="nonzero" fill-opacity="1" /><path clip-path="url(#clip000)" d="M1610.26 1892.89 Q1606.65 1892.89 1604.82 1896.45 Q1603.02 1899.99 1603.02 1907.12 Q1603.02 1914.23 1604.82 1917.79 Q1606.65 1921.34 1610.26 1921.34 Q1613.9 1921.34 1615.7 1917.79 Q1617.53 1914.23 1617.53 1907.12 Q1617.53 1899.99 1615.7 1896.45 Q1613.9 1892.89 1610.26 1892.89 M1610.26 1889.18 Q1616.07 1889.18 1619.13 1893.79 Q1622.21 1898.37 1622.21 1907.12 Q1622.21 1915.85 1619.13 1920.46 Q1616.07 1925.04 1610.26 1925.04 Q1604.45 1925.04 1601.37 1920.46 Q1598.32 1915.85 1598.32 1907.12 Q1598.32 1898.37 1601.37 1893.79 Q1604.45 1889.18 1610.26 1889.18 Z" fill="#000000" fill-rule="nonzero" fill-opacity="1" /><path clip-path="url(#clip000)" d="M1912.36 1920.43 L1920 1920.43 L1920 1894.07 L1911.69 1895.73 L1911.69 1891.47 L1919.96 1889.81 L1924.63 1889.81 L1924.63 1920.43 L1932.27 1920.43 L1932.27 1924.37 L1912.36 1924.37 L1912.36 1920.43 Z" fill="#000000" fill-rule="nonzero" fill-opacity="1" /><path clip-path="url(#clip000)" d="M1951.71 1892.89 Q1948.1 1892.89 1946.27 1896.45 Q1944.47 1899.99 1944.47 1907.12 Q1944.47 1914.23 1946.27 1917.79 Q1948.1 1921.34 1951.71 1921.34 Q1955.35 1921.34 1957.15 1917.79 Q1958.98 1914.23 1958.98 1907.12 Q1958.98 1899.99 1957.15 1896.45 Q1955.35 1892.89 1951.71 1892.89 M1951.71 1889.18 Q1957.52 1889.18 1960.58 1893.79 Q1963.66 1898.37 1963.66 1907.12 Q1963.66 1915.85 1960.58 1920.46 Q1957.52 1925.04 1951.71 1925.04 Q1945.9 1925.04 1942.83 1920.46 Q1939.77 1915.85 1939.77 1907.12 Q1939.77 1898.37 1942.83 1893.79 Q1945.9 1889.18 1951.71 1889.18 Z" fill="#000000" fill-rule="nonzero" fill-opacity="1" /><path clip-path="url(#clip000)" d="M1981.88 1892.89 Q1978.27 1892.89 1976.44 1896.45 Q1974.63 1899.99 1974.63 1907.12 Q1974.63 1914.23 1976.44 1917.79 Q1978.27 1921.34 1981.88 1921.34 Q1985.51 1921.34 1987.32 1917.79 Q1989.14 1914.23 1989.14 1907.12 Q1989.14 1899.99 1987.32 1896.45 Q1985.51 1892.89 1981.88 1892.89 M1981.88 1889.18 Q1987.69 1889.18 1990.74 1893.79 Q1993.82 1898.37 1993.82 1907.12 Q1993.82 1915.85 1990.74 1920.46 Q1987.69 1925.04 1981.88 1925.04 Q1976.07 1925.04 1972.99 1920.46 Q1969.93 1915.85 1969.93 1907.12 Q1969.93 1898.37 1972.99 1893.79 Q1976.07 1889.18 1981.88 1889.18 Z" fill="#000000" fill-rule="nonzero" fill-opacity="1" /><polyline clip-path="url(#clip002)" style="stroke:#000000; stroke-linecap:round; stroke-linejoin:round; stroke-width:2; stroke-opacity:0.1; fill:none" points="165.121,1865.17 1952.76,1865.17 "/>
<polyline clip-path="url(#clip002)" style="stroke:#000000; stroke-linecap:round; stroke-linejoin:round; stroke-width:2; stroke-opacity:0.1; fill:none" points="165.121,1522.88 1952.76,1522.88 "/>
<polyline clip-path="url(#clip002)" style="stroke:#000000; stroke-linecap:round; stroke-linejoin:round; stroke-width:2; stroke-opacity:0.1; fill:none" points="165.121,1180.59 1952.76,1180.59 "/>
<polyline clip-path="url(#clip002)" style="stroke:#000000; stroke-linecap:round; stroke-linejoin:round; stroke-width:2; stroke-opacity:0.1; fill:none" points="165.121,838.294 1952.76,838.294 "/>
<polyline clip-path="url(#clip002)" style="stroke:#000000; stroke-linecap:round; stroke-linejoin:round; stroke-width:2; stroke-opacity:0.1; fill:none" points="165.121,496.003 1952.76,496.003 "/>
<polyline clip-path="url(#clip002)" style="stroke:#000000; stroke-linecap:round; stroke-linejoin:round; stroke-width:2; stroke-opacity:0.1; fill:none" points="165.121,153.712 1952.76,153.712 "/>
<polyline clip-path="url(#clip000)" style="stroke:#000000; stroke-linecap:round; stroke-linejoin:round; stroke-width:4; stroke-opacity:1; fill:none" points="165.121,1865.17 165.121,153.712 "/>
<polyline clip-path="url(#clip000)" style="stroke:#000000; stroke-linecap:round; stroke-linejoin:round; stroke-width:4; stroke-opacity:1; fill:none" points="165.121,1865.17 184.019,1865.17 "/>
<polyline clip-path="url(#clip000)" style="stroke:#000000; stroke-linecap:round; stroke-linejoin:round; stroke-width:4; stroke-opacity:1; fill:none" points="165.121,1522.88 184.019,1522.88 "/>
<polyline clip-path="url(#clip000)" style="stroke:#000000; stroke-linecap:round; stroke-linejoin:round; stroke-width:4; stroke-opacity:1; fill:none" points="165.121,1180.59 184.019,1180.59 "/>
<polyline clip-path="url(#clip000)" style="stroke:#000000; stroke-linecap:round; stroke-linejoin:round; stroke-width:4; stroke-opacity:1; fill:none" points="165.121,838.294 184.019,838.294 "/>
<polyline clip-path="url(#clip000)" style="stroke:#000000; stroke-linecap:round; stroke-linejoin:round; stroke-width:4; stroke-opacity:1; fill:none" points="165.121,496.003 184.019,496.003 "/>
<polyline clip-path="url(#clip000)" style="stroke:#000000; stroke-linecap:round; stroke-linejoin:round; stroke-width:4; stroke-opacity:1; fill:none" points="165.121,153.712 184.019,153.712 "/>
<path clip-path="url(#clip000)" d="M123.177 1850.97 Q119.566 1850.97 117.737 1854.53 Q115.932 1858.07 115.932 1865.2 Q115.932 1872.31 117.737 1875.87 Q119.566 1879.42 123.177 1879.42 Q126.811 1879.42 128.617 1875.87 Q130.445 1872.31 130.445 1865.2 Q130.445 1858.07 128.617 1854.53 Q126.811 1850.97 123.177 1850.97 M123.177 1847.26 Q128.987 1847.26 132.043 1851.87 Q135.121 1856.45 135.121 1865.2 Q135.121 1873.93 132.043 1878.54 Q128.987 1883.12 123.177 1883.12 Q117.367 1883.12 114.288 1878.54 Q111.233 1873.93 111.233 1865.2 Q111.233 1856.45 114.288 1851.87 Q117.367 1847.26 123.177 1847.26 Z" fill="#000000" fill-rule="nonzero" fill-opacity="1" /><path clip-path="url(#clip000)" d="M87.0429 1536.22 L103.362 1536.22 L103.362 1540.16 L81.4179 1540.16 L81.4179 1536.22 Q84.0799 1533.47 88.6632 1528.84 Q93.2697 1524.18 94.4502 1522.84 Q96.6956 1520.32 97.5752 1518.58 Q98.478 1516.82 98.478 1515.13 Q98.478 1512.38 96.5336 1510.64 Q94.6123 1508.91 91.5104 1508.91 Q89.3114 1508.91 86.8577 1509.67 Q84.4271 1510.43 81.6494 1511.99 L81.6494 1507.26 Q84.4734 1506.13 86.9271 1505.55 Q89.3808 1504.97 91.4178 1504.97 Q96.7882 1504.97 99.9826 1507.66 Q103.177 1510.34 103.177 1514.83 Q103.177 1516.96 102.367 1518.88 Q101.58 1520.78 99.4734 1523.37 Q98.8947 1524.05 95.7928 1527.26 Q92.691 1530.46 87.0429 1536.22 Z" fill="#000000" fill-rule="nonzero" fill-opacity="1" /><path clip-path="url(#clip000)" d="M123.177 1508.68 Q119.566 1508.68 117.737 1512.24 Q115.932 1515.78 115.932 1522.91 Q115.932 1530.02 117.737 1533.58 Q119.566 1537.12 123.177 1537.12 Q126.811 1537.12 128.617 1533.58 Q130.445 1530.02 130.445 1522.91 Q130.445 1515.78 128.617 1512.24 Q126.811 1508.68 123.177 1508.68 M123.177 1504.97 Q128.987 1504.97 132.043 1509.58 Q135.121 1514.16 135.121 1522.91 Q135.121 1531.64 132.043 1536.24 Q128.987 1540.83 123.177 1540.83 Q117.367 1540.83 114.288 1536.24 Q111.233 1531.64 111.233 1522.91 Q111.233 1514.16 114.288 1509.58 Q117.367 1504.97 123.177 1504.97 Z" fill="#000000" fill-rule="nonzero" fill-opacity="1" /><path clip-path="url(#clip000)" d="M95.8623 1167.38 L84.0568 1185.83 L95.8623 1185.83 L95.8623 1167.38 M94.6354 1163.31 L100.515 1163.31 L100.515 1185.83 L105.446 1185.83 L105.446 1189.72 L100.515 1189.72 L100.515 1197.87 L95.8623 1197.87 L95.8623 1189.72 L80.2605 1189.72 L80.2605 1185.2 L94.6354 1163.31 Z" fill="#000000" fill-rule="nonzero" fill-opacity="1" /><path clip-path="url(#clip000)" d="M123.177 1166.38 Q119.566 1166.38 117.737 1169.95 Q115.932 1173.49 115.932 1180.62 Q115.932 1187.73 117.737 1191.29 Q119.566 1194.83 123.177 1194.83 Q126.811 1194.83 128.617 1191.29 Q130.445 1187.73 130.445 1180.62 Q130.445 1173.49 128.617 1169.95 Q126.811 1166.38 123.177 1166.38 M123.177 1162.68 Q128.987 1162.68 132.043 1167.29 Q135.121 1171.87 135.121 1180.62 Q135.121 1189.35 132.043 1193.95 Q128.987 1198.54 123.177 1198.54 Q117.367 1198.54 114.288 1193.95 Q111.233 1189.35 111.233 1180.62 Q111.233 1171.87 114.288 1167.29 Q117.367 1162.68 123.177 1162.68 Z" fill="#000000" fill-rule="nonzero" fill-opacity="1" /><path clip-path="url(#clip000)" d="M93.5938 836.431 Q90.4456 836.431 88.5938 838.584 Q86.7651 840.737 86.7651 844.487 Q86.7651 848.213 88.5938 850.389 Q90.4456 852.542 93.5938 852.542 Q96.7419 852.542 98.5706 850.389 Q100.422 848.213 100.422 844.487 Q100.422 840.737 98.5706 838.584 Q96.7419 836.431 93.5938 836.431 M102.876 821.778 L102.876 826.038 Q101.117 825.204 99.3113 824.764 Q97.5289 824.325 95.7697 824.325 Q91.1401 824.325 88.6864 827.45 Q86.2558 830.575 85.9086 836.894 Q87.2743 834.88 89.3345 833.815 Q91.3947 832.727 93.8715 832.727 Q99.0798 832.727 102.089 835.899 Q105.121 839.047 105.121 844.487 Q105.121 849.811 101.973 853.028 Q98.8252 856.246 93.5938 856.246 Q87.5984 856.246 84.4271 851.662 Q81.2559 847.056 81.2559 838.329 Q81.2559 830.135 85.1447 825.274 Q89.0336 820.389 95.5845 820.389 Q97.3437 820.389 99.1261 820.737 Q100.932 821.084 102.876 821.778 Z" fill="#000000" fill-rule="nonzero" fill-opacity="1" /><path clip-path="url(#clip000)" d="M123.177 824.093 Q119.566 824.093 117.737 827.658 Q115.932 831.2 115.932 838.329 Q115.932 845.436 117.737 849 Q119.566 852.542 123.177 852.542 Q126.811 852.542 128.617 849 Q130.445 845.436 130.445 838.329 Q130.445 831.2 128.617 827.658 Q126.811 824.093 123.177 824.093 M123.177 820.389 Q128.987 820.389 132.043 824.996 Q135.121 829.579 135.121 838.329 Q135.121 847.056 132.043 851.662 Q128.987 856.246 123.177 856.246 Q117.367 856.246 114.288 851.662 Q111.233 847.056 111.233 838.329 Q111.233 829.579 114.288 824.996 Q117.367 820.389 123.177 820.389 Z" fill="#000000" fill-rule="nonzero" fill-opacity="1" /><path clip-path="url(#clip000)" d="M93.0151 496.871 Q89.6817 496.871 87.7605 498.654 Q85.8623 500.436 85.8623 503.561 Q85.8623 506.686 87.7605 508.468 Q89.6817 510.251 93.0151 510.251 Q96.3484 510.251 98.2697 508.468 Q100.191 506.663 100.191 503.561 Q100.191 500.436 98.2697 498.654 Q96.3715 496.871 93.0151 496.871 M88.3392 494.881 Q85.3299 494.14 83.6401 492.08 Q81.9735 490.02 81.9735 487.057 Q81.9735 482.913 84.9133 480.506 Q87.8762 478.098 93.0151 478.098 Q98.1771 478.098 101.117 480.506 Q104.057 482.913 104.057 487.057 Q104.057 490.02 102.367 492.08 Q100.7 494.14 97.7141 494.881 Q101.094 495.668 102.969 497.959 Q104.867 500.251 104.867 503.561 Q104.867 508.584 101.788 511.269 Q98.7326 513.955 93.0151 513.955 Q87.2975 513.955 84.2188 511.269 Q81.1633 508.584 81.1633 503.561 Q81.1633 500.251 83.0614 497.959 Q84.9595 495.668 88.3392 494.881 M86.6262 487.496 Q86.6262 490.182 88.2929 491.686 Q89.9827 493.191 93.0151 493.191 Q96.0243 493.191 97.7141 491.686 Q99.4271 490.182 99.4271 487.496 Q99.4271 484.811 97.7141 483.307 Q96.0243 481.802 93.0151 481.802 Q89.9827 481.802 88.2929 483.307 Q86.6262 484.811 86.6262 487.496 Z" fill="#000000" fill-rule="nonzero" fill-opacity="1" /><path clip-path="url(#clip000)" d="M123.177 481.802 Q119.566 481.802 117.737 485.367 Q115.932 488.908 115.932 496.038 Q115.932 503.144 117.737 506.709 Q119.566 510.251 123.177 510.251 Q126.811 510.251 128.617 506.709 Q130.445 503.144 130.445 496.038 Q130.445 488.908 128.617 485.367 Q126.811 481.802 123.177 481.802 M123.177 478.098 Q128.987 478.098 132.043 482.705 Q135.121 487.288 135.121 496.038 Q135.121 504.765 132.043 509.371 Q128.987 513.955 123.177 513.955 Q117.367 513.955 114.288 509.371 Q111.233 504.765 111.233 496.038 Q111.233 487.288 114.288 482.705 Q117.367 478.098 123.177 478.098 Z" fill="#000000" fill-rule="nonzero" fill-opacity="1" /><path clip-path="url(#clip000)" d="M53.6634 167.057 L61.3023 167.057 L61.3023 140.691 L52.9921 142.358 L52.9921 138.099 L61.256 136.432 L65.9319 136.432 L65.9319 167.057 L73.5707 167.057 L73.5707 170.992 L53.6634 170.992 L53.6634 167.057 Z" fill="#000000" fill-rule="nonzero" fill-opacity="1" /><path clip-path="url(#clip000)" d="M93.0151 139.511 Q89.404 139.511 87.5753 143.076 Q85.7697 146.617 85.7697 153.747 Q85.7697 160.853 87.5753 164.418 Q89.404 167.96 93.0151 167.96 Q96.6493 167.96 98.4548 164.418 Q100.284 160.853 100.284 153.747 Q100.284 146.617 98.4548 143.076 Q96.6493 139.511 93.0151 139.511 M93.0151 135.807 Q98.8252 135.807 101.881 140.414 Q104.959 144.997 104.959 153.747 Q104.959 162.474 101.881 167.08 Q98.8252 171.663 93.0151 171.663 Q87.2049 171.663 84.1262 167.08 Q81.0707 162.474 81.0707 153.747 Q81.0707 144.997 84.1262 140.414 Q87.2049 135.807 93.0151 135.807 Z" fill="#000000" fill-rule="nonzero" fill-opacity="1" /><path clip-path="url(#clip000)" d="M123.177 139.511 Q119.566 139.511 117.737 143.076 Q115.932 146.617 115.932 153.747 Q115.932 160.853 117.737 164.418 Q119.566 167.96 123.177 167.96 Q126.811 167.96 128.617 164.418 Q130.445 160.853 130.445 153.747 Q130.445 146.617 128.617 143.076 Q126.811 139.511 123.177 139.511 M123.177 135.807 Q128.987 135.807 132.043 140.414 Q135.121 144.997 135.121 153.747 Q135.121 162.474 132.043 167.08 Q128.987 171.663 123.177 171.663 Q117.367 171.663 114.288 167.08 Q111.233 162.474 111.233 153.747 Q111.233 144.997 114.288 140.414 Q117.367 135.807 123.177 135.807 Z" fill="#000000" fill-rule="nonzero" fill-opacity="1" /><path clip-path="url(#clip000)" d="M538.478 16.7545 L538.478 25.383 Q534.347 21.5346 529.647 19.6307 Q524.989 17.7268 519.723 17.7268 Q509.352 17.7268 503.843 24.0867 Q498.334 30.4061 498.334 42.3968 Q498.334 54.3469 503.843 60.7069 Q509.352 67.0263 519.723 67.0263 Q524.989 67.0263 529.647 65.1223 Q534.347 63.2184 538.478 59.3701 L538.478 67.9175 Q534.184 70.8341 529.364 72.2924 Q524.584 73.7508 519.237 73.7508 Q505.504 73.7508 497.605 65.3654 Q489.706 56.9395 489.706 42.3968 Q489.706 27.8135 497.605 19.4281 Q505.504 11.0023 519.237 11.0023 Q524.665 11.0023 529.445 12.4606 Q534.265 13.8784 538.478 16.7545 Z" fill="#000000" fill-rule="nonzero" fill-opacity="1" /><path clip-path="url(#clip000)" d="M568.374 32.4315 Q562.379 32.4315 558.895 37.1306 Q555.411 41.7891 555.411 49.9314 Q555.411 58.0738 558.854 62.7728 Q562.338 67.4314 568.374 67.4314 Q574.329 67.4314 577.813 62.7323 Q581.296 58.0333 581.296 49.9314 Q581.296 41.8701 577.813 37.1711 Q574.329 32.4315 568.374 32.4315 M568.374 26.1121 Q578.096 26.1121 583.646 32.4315 Q589.196 38.7509 589.196 49.9314 Q589.196 61.0714 583.646 67.4314 Q578.096 73.7508 568.374 73.7508 Q558.611 73.7508 553.062 67.4314 Q547.552 61.0714 547.552 49.9314 Q547.552 38.7509 553.062 32.4315 Q558.611 26.1121 568.374 26.1121 Z" fill="#000000" fill-rule="nonzero" fill-opacity="1" /><path clip-path="url(#clip000)" d="M601.551 9.54393 L609.005 9.54393 L609.005 72.576 L601.551 72.576 L601.551 9.54393 Z" fill="#000000" fill-rule="nonzero" fill-opacity="1" /><path clip-path="url(#clip000)" d="M623.831 54.671 L623.831 27.2059 L631.285 27.2059 L631.285 54.3874 Q631.285 60.8284 633.796 64.0691 Q636.308 67.2693 641.331 67.2693 Q647.367 67.2693 650.851 63.421 Q654.375 59.5726 654.375 52.9291 L654.375 27.2059 L661.828 27.2059 L661.828 72.576 L654.375 72.576 L654.375 65.6084 Q651.661 69.7404 648.055 71.7658 Q644.491 73.7508 639.751 73.7508 Q631.933 73.7508 627.882 68.8897 Q623.831 64.0286 623.831 54.671 M642.587 26.1121 L642.587 26.1121 Z" fill="#000000" fill-rule="nonzero" fill-opacity="1" /><path clip-path="url(#clip000)" d="M712.505 35.9153 Q715.3 30.8922 719.189 28.5022 Q723.078 26.1121 728.344 26.1121 Q735.433 26.1121 739.282 31.0947 Q743.13 36.0368 743.13 45.1919 L743.13 72.576 L735.636 72.576 L735.636 45.4349 Q735.636 38.913 733.327 35.7533 Q731.018 32.5936 726.278 32.5936 Q720.486 32.5936 717.123 36.4419 Q713.761 40.2903 713.761 46.9338 L713.761 72.576 L706.267 72.576 L706.267 45.4349 Q706.267 38.8725 703.958 35.7533 Q701.649 32.5936 696.828 32.5936 Q691.117 32.5936 687.754 36.4824 Q684.392 40.3308 684.392 46.9338 L684.392 72.576 L676.898 72.576 L676.898 27.2059 L684.392 27.2059 L684.392 34.2544 Q686.944 30.082 690.509 28.0971 Q694.074 26.1121 698.975 26.1121 Q703.917 26.1121 707.361 28.6237 Q710.844 31.1352 712.505 35.9153 Z" fill="#000000" fill-rule="nonzero" fill-opacity="1" /><path clip-path="url(#clip000)" d="M795.711 45.1919 L795.711 72.576 L788.257 72.576 L788.257 45.4349 Q788.257 38.994 785.746 35.7938 Q783.234 32.5936 778.211 32.5936 Q772.175 32.5936 768.691 36.4419 Q765.208 40.2903 765.208 46.9338 L765.208 72.576 L757.713 72.576 L757.713 27.2059 L765.208 27.2059 L765.208 34.2544 Q767.881 30.163 771.486 28.1376 Q775.132 26.1121 779.872 26.1121 Q787.69 26.1121 791.7 30.9732 Q795.711 35.7938 795.711 45.1919 Z" fill="#000000" fill-rule="nonzero" fill-opacity="1" /><path clip-path="url(#clip000)" d="M866.804 49.3643 Q866.804 41.2625 863.442 36.8065 Q860.12 32.3505 854.084 32.3505 Q848.089 32.3505 844.727 36.8065 Q841.405 41.2625 841.405 49.3643 Q841.405 57.4256 844.727 61.8816 Q848.089 66.3376 854.084 66.3376 Q860.12 66.3376 863.442 61.8816 Q866.804 57.4256 866.804 49.3643 M874.258 66.9452 Q874.258 78.5308 869.113 84.1616 Q863.969 89.8329 853.355 89.8329 Q849.426 89.8329 845.942 89.2252 Q842.458 88.6581 839.177 87.4428 L839.177 80.1917 Q842.458 81.9741 845.659 82.8248 Q848.859 83.6755 852.18 83.6755 Q859.513 83.6755 863.158 79.8271 Q866.804 76.0193 866.804 68.282 L866.804 64.5957 Q864.495 68.6061 860.89 70.5911 Q857.285 72.576 852.261 72.576 Q843.917 72.576 838.812 66.2161 Q833.708 59.8562 833.708 49.3643 Q833.708 38.832 838.812 32.472 Q843.917 26.1121 852.261 26.1121 Q857.285 26.1121 860.89 28.0971 Q864.495 30.082 866.804 34.0924 L866.804 27.2059 L874.258 27.2059 L874.258 66.9452 Z" fill="#000000" fill-rule="nonzero" fill-opacity="1" /><path clip-path="url(#clip000)" d="M928.418 48.0275 L928.418 51.6733 L894.148 51.6733 Q894.634 59.3701 898.766 63.421 Q902.938 67.4314 910.351 67.4314 Q914.645 67.4314 918.656 66.3781 Q922.707 65.3249 926.677 63.2184 L926.677 70.267 Q922.666 71.9684 918.453 72.8596 Q914.24 73.7508 909.906 73.7508 Q899.049 73.7508 892.69 67.4314 Q886.37 61.1119 886.37 50.3365 Q886.37 39.1965 892.365 32.6746 Q898.401 26.1121 908.61 26.1121 Q917.765 26.1121 923.071 32.0264 Q928.418 37.9003 928.418 48.0275 M920.965 45.84 Q920.884 39.7232 917.522 36.0774 Q914.2 32.4315 908.691 32.4315 Q902.452 32.4315 898.685 35.9558 Q894.958 39.4801 894.391 45.8805 L920.965 45.84 Z" fill="#000000" fill-rule="nonzero" fill-opacity="1" /><path clip-path="url(#clip000)" d="M978.366 45.1919 L978.366 72.576 L970.912 72.576 L970.912 45.4349 Q970.912 38.994 968.401 35.7938 Q965.889 32.5936 960.866 32.5936 Q954.83 32.5936 951.347 36.4419 Q947.863 40.2903 947.863 46.9338 L947.863 72.576 L940.369 72.576 L940.369 27.2059 L947.863 27.2059 L947.863 34.2544 Q950.536 30.163 954.142 28.1376 Q957.788 26.1121 962.527 26.1121 Q970.345 26.1121 974.356 30.9732 Q978.366 35.7938 978.366 45.1919 Z" fill="#000000" fill-rule="nonzero" fill-opacity="1" /><path clip-path="url(#clip000)" d="M1032.04 48.0275 L1032.04 51.6733 L997.77 51.6733 Q998.256 59.3701 1002.39 63.421 Q1006.56 67.4314 1013.97 67.4314 Q1018.27 67.4314 1022.28 66.3781 Q1026.33 65.3249 1030.3 63.2184 L1030.3 70.267 Q1026.29 71.9684 1022.08 72.8596 Q1017.86 73.7508 1013.53 73.7508 Q1002.67 73.7508 996.312 67.4314 Q989.992 61.1119 989.992 50.3365 Q989.992 39.1965 995.988 32.6746 Q1002.02 26.1121 1012.23 26.1121 Q1021.39 26.1121 1026.69 32.0264 Q1032.04 37.9003 1032.04 48.0275 M1024.59 45.84 Q1024.51 39.7232 1021.14 36.0774 Q1017.82 32.4315 1012.31 32.4315 Q1006.07 32.4315 1002.31 35.9558 Q998.58 39.4801 998.013 45.8805 L1024.59 45.84 Z" fill="#000000" fill-rule="nonzero" fill-opacity="1" /><path clip-path="url(#clip000)" d="M1070.56 34.1734 Q1069.31 33.4443 1067.81 33.1202 Q1066.35 32.7556 1064.57 32.7556 Q1058.25 32.7556 1054.85 36.8875 Q1051.48 40.9789 1051.48 48.6757 L1051.48 72.576 L1043.99 72.576 L1043.99 27.2059 L1051.48 27.2059 L1051.48 34.2544 Q1053.83 30.1225 1057.6 28.1376 Q1061.37 26.1121 1066.76 26.1121 Q1067.53 26.1121 1068.46 26.2337 Q1069.39 26.3147 1070.52 26.5172 L1070.56 34.1734 Z" fill="#000000" fill-rule="nonzero" fill-opacity="1" /><path clip-path="url(#clip000)" d="M1099 49.7694 Q1089.97 49.7694 1086.48 51.8354 Q1083 53.9013 1083 58.8839 Q1083 62.8538 1085.59 65.2034 Q1088.23 67.5124 1092.72 67.5124 Q1098.92 67.5124 1102.65 63.1374 Q1106.42 58.7219 1106.42 51.4303 L1106.42 49.7694 L1099 49.7694 M1113.87 46.6907 L1113.87 72.576 L1106.42 72.576 L1106.42 65.6895 Q1103.86 69.8214 1100.06 71.8063 Q1096.25 73.7508 1090.74 73.7508 Q1083.77 73.7508 1079.64 69.8619 Q1075.55 65.9325 1075.55 59.3701 Q1075.55 51.7138 1080.65 47.825 Q1085.8 43.9361 1095.96 43.9361 L1106.42 43.9361 L1106.42 43.2069 Q1106.42 38.0623 1103.01 35.2672 Q1099.65 32.4315 1093.53 32.4315 Q1089.64 32.4315 1085.96 33.3632 Q1082.27 34.295 1078.87 36.1584 L1078.87 29.2718 Q1082.96 27.692 1086.81 26.9223 Q1090.66 26.1121 1094.3 26.1121 Q1104.15 26.1121 1109.01 31.2163 Q1113.87 36.3204 1113.87 46.6907 Z" fill="#000000" fill-rule="nonzero" fill-opacity="1" /><path clip-path="url(#clip000)" d="M1136.59 14.324 L1136.59 27.2059 L1151.95 27.2059 L1151.95 32.9987 L1136.59 32.9987 L1136.59 57.6282 Q1136.59 63.1779 1138.09 64.7578 Q1139.63 66.3376 1144.29 66.3376 L1151.95 66.3376 L1151.95 72.576 L1144.29 72.576 Q1135.66 72.576 1132.38 69.3758 Q1129.1 66.1351 1129.1 57.6282 L1129.1 32.9987 L1123.63 32.9987 L1123.63 27.2059 L1129.1 27.2059 L1129.1 14.324 L1136.59 14.324 Z" fill="#000000" fill-rule="nonzero" fill-opacity="1" /><path clip-path="url(#clip000)" d="M1161.75 27.2059 L1169.2 27.2059 L1169.2 72.576 L1161.75 72.576 L1161.75 27.2059 M1161.75 9.54393 L1169.2 9.54393 L1169.2 18.9825 L1161.75 18.9825 L1161.75 9.54393 Z" fill="#000000" fill-rule="nonzero" fill-opacity="1" /><path clip-path="url(#clip000)" d="M1202.38 32.4315 Q1196.39 32.4315 1192.9 37.1306 Q1189.42 41.7891 1189.42 49.9314 Q1189.42 58.0738 1192.86 62.7728 Q1196.35 67.4314 1202.38 67.4314 Q1208.34 67.4314 1211.82 62.7323 Q1215.3 58.0333 1215.3 49.9314 Q1215.3 41.8701 1211.82 37.1711 Q1208.34 32.4315 1202.38 32.4315 M1202.38 26.1121 Q1212.1 26.1121 1217.65 32.4315 Q1223.2 38.7509 1223.2 49.9314 Q1223.2 61.0714 1217.65 67.4314 Q1212.1 73.7508 1202.38 73.7508 Q1192.62 73.7508 1187.07 67.4314 Q1181.56 61.0714 1181.56 49.9314 Q1181.56 38.7509 1187.07 32.4315 Q1192.62 26.1121 1202.38 26.1121 Z" fill="#000000" fill-rule="nonzero" fill-opacity="1" /><path clip-path="url(#clip000)" d="M1273.27 45.1919 L1273.27 72.576 L1265.82 72.576 L1265.82 45.4349 Q1265.82 38.994 1263.31 35.7938 Q1260.8 32.5936 1255.77 32.5936 Q1249.74 32.5936 1246.25 36.4419 Q1242.77 40.2903 1242.77 46.9338 L1242.77 72.576 L1235.27 72.576 L1235.27 27.2059 L1242.77 27.2059 L1242.77 34.2544 Q1245.44 30.163 1249.05 28.1376 Q1252.69 26.1121 1257.43 26.1121 Q1265.25 26.1121 1269.26 30.9732 Q1273.27 35.7938 1273.27 45.1919 Z" fill="#000000" fill-rule="nonzero" fill-opacity="1" /><path clip-path="url(#clip000)" d="M1343.43 28.5427 L1343.43 35.5912 Q1340.27 33.9709 1336.87 33.1607 Q1333.47 32.3505 1329.82 32.3505 Q1324.27 32.3505 1321.48 34.0519 Q1318.72 35.7533 1318.72 39.156 Q1318.72 41.7486 1320.71 43.2475 Q1322.69 44.7058 1328.69 46.0426 L1331.24 46.6097 Q1339.18 48.3111 1342.5 51.4303 Q1345.86 54.509 1345.86 60.0587 Q1345.86 66.3781 1340.84 70.0644 Q1335.86 73.7508 1327.11 73.7508 Q1323.46 73.7508 1319.49 73.0216 Q1315.56 72.3329 1311.19 70.9151 L1311.19 63.2184 Q1315.32 65.3654 1319.33 66.4591 Q1323.34 67.5124 1327.27 67.5124 Q1332.54 67.5124 1335.37 65.73 Q1338.21 63.9071 1338.21 60.6258 Q1338.21 57.5877 1336.14 55.9673 Q1334.12 54.3469 1327.19 52.8481 L1324.6 52.2405 Q1317.67 50.7821 1314.59 47.7845 Q1311.51 44.7463 1311.51 39.4801 Q1311.51 33.0797 1316.05 29.5959 Q1320.59 26.1121 1328.93 26.1121 Q1333.06 26.1121 1336.71 26.7198 Q1340.35 27.3274 1343.43 28.5427 Z" fill="#000000" fill-rule="nonzero" fill-opacity="1" /><path clip-path="url(#clip000)" d="M1375.31 32.4315 Q1369.32 32.4315 1365.84 37.1306 Q1362.35 41.7891 1362.35 49.9314 Q1362.35 58.0738 1365.79 62.7728 Q1369.28 67.4314 1375.31 67.4314 Q1381.27 67.4314 1384.75 62.7323 Q1388.24 58.0333 1388.24 49.9314 Q1388.24 41.8701 1384.75 37.1711 Q1381.27 32.4315 1375.31 32.4315 M1375.31 26.1121 Q1385.04 26.1121 1390.59 32.4315 Q1396.14 38.7509 1396.14 49.9314 Q1396.14 61.0714 1390.59 67.4314 Q1385.04 73.7508 1375.31 73.7508 Q1365.55 73.7508 1360 67.4314 Q1354.49 61.0714 1354.49 49.9314 Q1354.49 38.7509 1360 32.4315 Q1365.55 26.1121 1375.31 26.1121 Z" fill="#000000" fill-rule="nonzero" fill-opacity="1" /><path clip-path="url(#clip000)" d="M1408.49 9.54393 L1415.94 9.54393 L1415.94 72.576 L1408.49 72.576 L1408.49 9.54393 Z" fill="#000000" fill-rule="nonzero" fill-opacity="1" /><path clip-path="url(#clip000)" d="M1430.77 54.671 L1430.77 27.2059 L1438.22 27.2059 L1438.22 54.3874 Q1438.22 60.8284 1440.74 64.0691 Q1443.25 67.2693 1448.27 67.2693 Q1454.31 67.2693 1457.79 63.421 Q1461.31 59.5726 1461.31 52.9291 L1461.31 27.2059 L1468.77 27.2059 L1468.77 72.576 L1461.31 72.576 L1461.31 65.6084 Q1458.6 69.7404 1455 71.7658 Q1451.43 73.7508 1446.69 73.7508 Q1438.87 73.7508 1434.82 68.8897 Q1430.77 64.0286 1430.77 54.671 M1449.53 26.1121 L1449.53 26.1121 Z" fill="#000000" fill-rule="nonzero" fill-opacity="1" /><path clip-path="url(#clip000)" d="M1491.49 14.324 L1491.49 27.2059 L1506.85 27.2059 L1506.85 32.9987 L1491.49 32.9987 L1491.49 57.6282 Q1491.49 63.1779 1492.99 64.7578 Q1494.53 66.3376 1499.19 66.3376 L1506.85 66.3376 L1506.85 72.576 L1499.19 72.576 Q1490.56 72.576 1487.28 69.3758 Q1484 66.1351 1484 57.6282 L1484 32.9987 L1478.53 32.9987 L1478.53 27.2059 L1484 27.2059 L1484 14.324 L1491.49 14.324 Z" fill="#000000" fill-rule="nonzero" fill-opacity="1" /><path clip-path="url(#clip000)" d="M1516.65 27.2059 L1524.1 27.2059 L1524.1 72.576 L1516.65 72.576 L1516.65 27.2059 M1516.65 9.54393 L1524.1 9.54393 L1524.1 18.9825 L1516.65 18.9825 L1516.65 9.54393 Z" fill="#000000" fill-rule="nonzero" fill-opacity="1" /><path clip-path="url(#clip000)" d="M1557.28 32.4315 Q1551.29 32.4315 1547.8 37.1306 Q1544.32 41.7891 1544.32 49.9314 Q1544.32 58.0738 1547.76 62.7728 Q1551.25 67.4314 1557.28 67.4314 Q1563.24 67.4314 1566.72 62.7323 Q1570.2 58.0333 1570.2 49.9314 Q1570.2 41.8701 1566.72 37.1711 Q1563.24 32.4315 1557.28 32.4315 M1557.28 26.1121 Q1567 26.1121 1572.55 32.4315 Q1578.1 38.7509 1578.1 49.9314 Q1578.1 61.0714 1572.55 67.4314 Q1567 73.7508 1557.28 73.7508 Q1547.52 73.7508 1541.97 67.4314 Q1536.46 61.0714 1536.46 49.9314 Q1536.46 38.7509 1541.97 32.4315 Q1547.52 26.1121 1557.28 26.1121 Z" fill="#000000" fill-rule="nonzero" fill-opacity="1" /><path clip-path="url(#clip000)" d="M1628.17 45.1919 L1628.17 72.576 L1620.72 72.576 L1620.72 45.4349 Q1620.72 38.994 1618.21 35.7938 Q1615.69 32.5936 1610.67 32.5936 Q1604.64 32.5936 1601.15 36.4419 Q1597.67 40.2903 1597.67 46.9338 L1597.67 72.576 L1590.17 72.576 L1590.17 27.2059 L1597.67 27.2059 L1597.67 34.2544 Q1600.34 30.163 1603.95 28.1376 Q1607.59 26.1121 1612.33 26.1121 Q1620.15 26.1121 1624.16 30.9732 Q1628.17 35.7938 1628.17 45.1919 Z" fill="#000000" fill-rule="nonzero" fill-opacity="1" /><circle clip-path="url(#clip002)" cx="975.677" cy="239.556" r="14.4" fill="#009af9" fill-rule="evenodd" fill-opacity="1" stroke="#000000" stroke-opacity="1" stroke-width="4"/>
<circle clip-path="url(#clip002)" cx="1049.7" cy="473.365" r="14.4" fill="#009af9" fill-rule="evenodd" fill-opacity="1" stroke="#000000" stroke-opacity="1" stroke-width="4"/>
<circle clip-path="url(#clip002)" cx="711.115" cy="452.15" r="14.4" fill="#009af9" fill-rule="evenodd" fill-opacity="1" stroke="#000000" stroke-opacity="1" stroke-width="4"/>
<circle clip-path="url(#clip002)" cx="825.81" cy="949.979" r="14.4" fill="#009af9" fill-rule="evenodd" fill-opacity="1" stroke="#000000" stroke-opacity="1" stroke-width="4"/>
<circle clip-path="url(#clip002)" cx="1388.13" cy="1438.12" r="14.4" fill="#009af9" fill-rule="evenodd" fill-opacity="1" stroke="#000000" stroke-opacity="1" stroke-width="4"/>
<circle clip-path="url(#clip002)" cx="771.221" cy="716.265" r="14.4" fill="#009af9" fill-rule="evenodd" fill-opacity="1" stroke="#000000" stroke-opacity="1" stroke-width="4"/>
<circle clip-path="url(#clip002)" cx="856.034" cy="959.08" r="14.4" fill="#009af9" fill-rule="evenodd" fill-opacity="1" stroke="#000000" stroke-opacity="1" stroke-width="4"/>
<circle clip-path="url(#clip002)" cx="907.432" cy="217.014" r="14.4" fill="#009af9" fill-rule="evenodd" fill-opacity="1" stroke="#000000" stroke-opacity="1" stroke-width="4"/>
<circle clip-path="url(#clip002)" cx="715.542" cy="1230.08" r="14.4" fill="#009af9" fill-rule="evenodd" fill-opacity="1" stroke="#000000" stroke-opacity="1" stroke-width="4"/>
<circle clip-path="url(#clip002)" cx="395.587" cy="495.364" r="14.4" fill="#009af9" fill-rule="evenodd" fill-opacity="1" stroke="#000000" stroke-opacity="1" stroke-width="4"/>
<circle clip-path="url(#clip002)" cx="1399.58" cy="1855.52" r="14.4" fill="#009af9" fill-rule="evenodd" fill-opacity="1" stroke="#000000" stroke-opacity="1" stroke-width="4"/>
<circle clip-path="url(#clip002)" cx="1285.02" cy="367.909" r="14.4" fill="#009af9" fill-rule="evenodd" fill-opacity="1" stroke="#000000" stroke-opacity="1" stroke-width="4"/>
<circle clip-path="url(#clip002)" cx="1167.84" cy="855.907" r="14.4" fill="#009af9" fill-rule="evenodd" fill-opacity="1" stroke="#000000" stroke-opacity="1" stroke-width="4"/>
<circle clip-path="url(#clip002)" cx="1686.08" cy="984.676" r="14.4" fill="#009af9" fill-rule="evenodd" fill-opacity="1" stroke="#000000" stroke-opacity="1" stroke-width="4"/>
<circle clip-path="url(#clip002)" cx="1321.63" cy="508.87" r="14.4" fill="#009af9" fill-rule="evenodd" fill-opacity="1" stroke="#000000" stroke-opacity="1" stroke-width="4"/>
<circle clip-path="url(#clip002)" cx="861.098" cy="1855.81" r="14.4" fill="#009af9" fill-rule="evenodd" fill-opacity="1" stroke="#000000" stroke-opacity="1" stroke-width="4"/>
<circle clip-path="url(#clip002)" cx="610.588" cy="1033.34" r="14.4" fill="#009af9" fill-rule="evenodd" fill-opacity="1" stroke="#000000" stroke-opacity="1" stroke-width="4"/>
<circle clip-path="url(#clip002)" cx="1562.24" cy="1362.25" r="14.4" fill="#009af9" fill-rule="evenodd" fill-opacity="1" stroke="#000000" stroke-opacity="1" stroke-width="4"/>
<circle clip-path="url(#clip002)" cx="989.946" cy="770.869" r="14.4" fill="#009af9" fill-rule="evenodd" fill-opacity="1" stroke="#000000" stroke-opacity="1" stroke-width="4"/>
<circle clip-path="url(#clip002)" cx="948.215" cy="1694.69" r="14.4" fill="#009af9" fill-rule="evenodd" fill-opacity="1" stroke="#000000" stroke-opacity="1" stroke-width="4"/>
<circle clip-path="url(#clip002)" cx="1058.94" cy="1009.44" r="14.4" fill="#e26f46" fill-rule="evenodd" fill-opacity="1" stroke="#000000" stroke-opacity="1" stroke-width="4"/>
<polyline clip-path="url(#clip002)" style="stroke:#3da44d; stroke-linecap:round; stroke-linejoin:round; stroke-width:4; stroke-opacity:1; fill:none" points="1686.08,984.676 1562.24,1362.25 1388.13,1438.12 1399.58,1855.52 861.098,1855.81 948.215,1694.69 715.542,1230.08 610.588,1033.34 825.81,949.979 856.034,959.08 1058.94,1009.44 "/>
<polyline clip-path="url(#clip002)" style="stroke:#c271d2; stroke-linecap:round; stroke-linejoin:round; stroke-width:4; stroke-opacity:1; fill:none" points="907.432,217.014 975.677,239.556 1049.7,473.365 1285.02,367.909 1321.63,508.87 1167.84,855.907 1058.94,1009.44 "/>
<polyline clip-path="url(#clip002)" style="stroke:#ac8d18; stroke-linecap:round; stroke-linejoin:round; stroke-width:4; stroke-opacity:1; fill:none" points="395.587,495.364 711.115,452.15 771.221,716.265 989.946,770.869 1058.94,1009.44 "/>
<path clip-path="url(#clip000)" d="M224.709 1196.09 L721.156 1196.09 L721.156 885.049 L224.709 885.049  Z" fill="#ffffff" fill-rule="evenodd" fill-opacity="1"/>
<polyline clip-path="url(#clip000)" style="stroke:#000000; stroke-linecap:round; stroke-linejoin:round; stroke-width:4; stroke-opacity:1; fill:none" points="224.709,1196.09 721.156,1196.09 721.156,885.049 224.709,885.049 224.709,1196.09 "/>
<circle clip-path="url(#clip000)" cx="304.16" cy="936.889" r="23.04" fill="#009af9" fill-rule="evenodd" fill-opacity="1" stroke="#000000" stroke-opacity="1" stroke-width="6.4"/>
<path clip-path="url(#clip000)" d="M411.48 922.271 L411.48 927.201 Q409.119 925.002 406.434 923.914 Q403.772 922.826 400.763 922.826 Q394.837 922.826 391.689 926.46 Q388.541 930.071 388.541 936.923 Q388.541 943.752 391.689 947.386 Q394.837 950.997 400.763 950.997 Q403.772 950.997 406.434 949.909 Q409.119 948.821 411.48 946.622 L411.48 951.507 Q409.027 953.173 406.272 954.006 Q403.54 954.84 400.485 954.84 Q392.638 954.84 388.124 950.048 Q383.61 945.233 383.61 936.923 Q383.61 928.59 388.124 923.798 Q392.638 918.984 400.485 918.984 Q403.587 918.984 406.318 919.817 Q409.073 920.627 411.48 922.271 Z" fill="#000000" fill-rule="nonzero" fill-opacity="1" /><path clip-path="url(#clip000)" d="M418.077 943.937 L418.077 928.243 L422.337 928.243 L422.337 943.775 Q422.337 947.456 423.772 949.307 Q425.207 951.136 428.077 951.136 Q431.526 951.136 433.517 948.937 Q435.531 946.738 435.531 942.942 L435.531 928.243 L439.79 928.243 L439.79 954.169 L435.531 954.169 L435.531 950.187 Q433.98 952.548 431.92 953.706 Q429.883 954.84 427.175 954.84 Q422.707 954.84 420.392 952.062 Q418.077 949.284 418.077 943.937 M428.795 927.618 L428.795 927.618 Z" fill="#000000" fill-rule="nonzero" fill-opacity="1" /><path clip-path="url(#clip000)" d="M465.091 929.007 L465.091 933.034 Q463.285 932.108 461.341 931.645 Q459.397 931.183 457.313 931.183 Q454.142 931.183 452.545 932.155 Q450.971 933.127 450.971 935.071 Q450.971 936.553 452.105 937.409 Q453.239 938.243 456.665 939.007 L458.123 939.331 Q462.66 940.303 464.559 942.085 Q466.48 943.845 466.48 947.016 Q466.48 950.627 463.61 952.733 Q460.762 954.84 455.762 954.84 Q453.679 954.84 451.411 954.423 Q449.165 954.03 446.665 953.219 L446.665 948.821 Q449.026 950.048 451.318 950.673 Q453.61 951.275 455.855 951.275 Q458.864 951.275 460.485 950.257 Q462.105 949.215 462.105 947.34 Q462.105 945.604 460.924 944.678 Q459.767 943.752 455.809 942.895 L454.327 942.548 Q450.369 941.715 448.61 940.002 Q446.85 938.266 446.85 935.257 Q446.85 931.599 449.443 929.608 Q452.036 927.618 456.804 927.618 Q459.165 927.618 461.248 927.965 Q463.332 928.312 465.091 929.007 Z" fill="#000000" fill-rule="nonzero" fill-opacity="1" /><path clip-path="url(#clip000)" d="M477.475 920.882 L477.475 928.243 L486.248 928.243 L486.248 931.553 L477.475 931.553 L477.475 945.627 Q477.475 948.798 478.332 949.701 Q479.211 950.604 481.873 950.604 L486.248 950.604 L486.248 954.169 L481.873 954.169 Q476.943 954.169 475.068 952.34 Q473.193 950.488 473.193 945.627 L473.193 931.553 L470.068 931.553 L470.068 928.243 L473.193 928.243 L473.193 920.882 L477.475 920.882 Z" fill="#000000" fill-rule="nonzero" fill-opacity="1" /><path clip-path="url(#clip000)" d="M501.896 931.229 Q498.47 931.229 496.48 933.914 Q494.489 936.576 494.489 941.229 Q494.489 945.882 496.457 948.567 Q498.447 951.229 501.896 951.229 Q505.299 951.229 507.29 948.544 Q509.281 945.858 509.281 941.229 Q509.281 936.622 507.29 933.937 Q505.299 931.229 501.896 931.229 M501.896 927.618 Q507.452 927.618 510.623 931.229 Q513.794 934.84 513.794 941.229 Q513.794 947.594 510.623 951.229 Q507.452 954.84 501.896 954.84 Q496.318 954.84 493.146 951.229 Q489.998 947.594 489.998 941.229 Q489.998 934.84 493.146 931.229 Q496.318 927.618 501.896 927.618 Z" fill="#000000" fill-rule="nonzero" fill-opacity="1" /><path clip-path="url(#clip000)" d="M541.04 933.22 Q542.637 930.349 544.859 928.983 Q547.081 927.618 550.091 927.618 Q554.141 927.618 556.341 930.465 Q558.54 933.289 558.54 938.52 L558.54 954.169 L554.257 954.169 L554.257 938.659 Q554.257 934.933 552.938 933.127 Q551.618 931.321 548.91 931.321 Q545.6 931.321 543.679 933.52 Q541.757 935.72 541.757 939.516 L541.757 954.169 L537.475 954.169 L537.475 938.659 Q537.475 934.909 536.155 933.127 Q534.836 931.321 532.081 931.321 Q528.818 931.321 526.896 933.544 Q524.975 935.743 524.975 939.516 L524.975 954.169 L520.693 954.169 L520.693 928.243 L524.975 928.243 L524.975 932.27 Q526.433 929.886 528.47 928.752 Q530.507 927.618 533.308 927.618 Q536.132 927.618 538.1 929.053 Q540.091 930.488 541.04 933.22 Z" fill="#000000" fill-rule="nonzero" fill-opacity="1" /><path clip-path="url(#clip000)" d="M589.211 940.141 L589.211 942.224 L569.628 942.224 Q569.905 946.622 572.266 948.937 Q574.651 951.229 578.887 951.229 Q581.34 951.229 583.632 950.627 Q585.947 950.025 588.215 948.821 L588.215 952.849 Q585.924 953.821 583.516 954.331 Q581.109 954.84 578.632 954.84 Q572.428 954.84 568.794 951.229 Q565.183 947.618 565.183 941.46 Q565.183 935.095 568.609 931.368 Q572.058 927.618 577.891 927.618 Q583.123 927.618 586.155 930.997 Q589.211 934.354 589.211 940.141 M584.952 938.891 Q584.905 935.395 582.984 933.312 Q581.086 931.229 577.938 931.229 Q574.373 931.229 572.22 933.243 Q570.09 935.257 569.766 938.914 L584.952 938.891 Z" fill="#000000" fill-rule="nonzero" fill-opacity="1" /><path clip-path="url(#clip000)" d="M611.225 932.224 Q610.507 931.808 609.65 931.622 Q608.817 931.414 607.799 931.414 Q604.188 931.414 602.243 933.775 Q600.322 936.113 600.322 940.511 L600.322 954.169 L596.039 954.169 L596.039 928.243 L600.322 928.243 L600.322 932.27 Q601.664 929.909 603.817 928.775 Q605.97 927.618 609.049 927.618 Q609.488 927.618 610.021 927.687 Q610.553 927.733 611.201 927.849 L611.225 932.224 Z" fill="#000000" fill-rule="nonzero" fill-opacity="1" /><path clip-path="url(#clip000)" d="M632.22 929.007 L632.22 933.034 Q630.414 932.108 628.47 931.645 Q626.525 931.183 624.442 931.183 Q621.271 931.183 619.674 932.155 Q618.099 933.127 618.099 935.071 Q618.099 936.553 619.234 937.409 Q620.368 938.243 623.794 939.007 L625.252 939.331 Q629.789 940.303 631.687 942.085 Q633.609 943.845 633.609 947.016 Q633.609 950.627 630.738 952.733 Q627.891 954.84 622.891 954.84 Q620.808 954.84 618.539 954.423 Q616.294 954.03 613.794 953.219 L613.794 948.821 Q616.155 950.048 618.447 950.673 Q620.738 951.275 622.984 951.275 Q625.993 951.275 627.613 950.257 Q629.234 949.215 629.234 947.34 Q629.234 945.604 628.053 944.678 Q626.896 943.752 622.937 942.895 L621.456 942.548 Q617.498 941.715 615.738 940.002 Q613.979 938.266 613.979 935.257 Q613.979 931.599 616.572 929.608 Q619.164 927.618 623.933 927.618 Q626.294 927.618 628.377 927.965 Q630.461 928.312 632.22 929.007 Z" fill="#000000" fill-rule="nonzero" fill-opacity="1" /><circle clip-path="url(#clip000)" cx="304.16" cy="988.729" r="23.04" fill="#e26f46" fill-rule="evenodd" fill-opacity="1" stroke="#000000" stroke-opacity="1" stroke-width="6.4"/>
<path clip-path="url(#clip000)" d="M388.286 975.291 L388.286 1002.17 L393.934 1002.17 Q401.087 1002.17 404.397 998.925 Q407.73 995.685 407.73 988.694 Q407.73 981.749 404.397 978.532 Q401.087 975.291 393.934 975.291 L388.286 975.291 M383.61 971.449 L393.216 971.449 Q403.263 971.449 407.962 975.638 Q412.661 979.805 412.661 988.694 Q412.661 997.629 407.939 1001.82 Q403.216 1006.01 393.216 1006.01 L383.61 1006.01 L383.61 971.449 Z" fill="#000000" fill-rule="nonzero" fill-opacity="1" /><path clip-path="url(#clip000)" d="M442.105 991.981 L442.105 994.064 L422.522 994.064 Q422.8 998.462 425.161 1000.78 Q427.545 1003.07 431.781 1003.07 Q434.235 1003.07 436.526 1002.47 Q438.841 1001.87 441.11 1000.66 L441.11 1004.69 Q438.818 1005.66 436.411 1006.17 Q434.003 1006.68 431.526 1006.68 Q425.323 1006.68 421.688 1003.07 Q418.077 999.458 418.077 993.3 Q418.077 986.935 421.503 983.208 Q424.952 979.458 430.786 979.458 Q436.017 979.458 439.05 982.837 Q442.105 986.194 442.105 991.981 M437.846 990.731 Q437.8 987.235 435.878 985.152 Q433.98 983.069 430.832 983.069 Q427.267 983.069 425.114 985.083 Q422.985 987.097 422.661 990.754 L437.846 990.731 Z" fill="#000000" fill-rule="nonzero" fill-opacity="1" /><path clip-path="url(#clip000)" d="M453.216 1002.12 L453.216 1015.87 L448.934 1015.87 L448.934 980.083 L453.216 980.083 L453.216 984.018 Q454.559 981.703 456.596 980.592 Q458.656 979.458 461.503 979.458 Q466.225 979.458 469.165 983.208 Q472.128 986.958 472.128 993.069 Q472.128 999.18 469.165 1002.93 Q466.225 1006.68 461.503 1006.68 Q458.656 1006.68 456.596 1005.57 Q454.559 1004.43 453.216 1002.12 M467.707 993.069 Q467.707 988.37 465.762 985.708 Q463.841 983.023 460.461 983.023 Q457.082 983.023 455.137 985.708 Q453.216 988.37 453.216 993.069 Q453.216 997.768 455.137 1000.45 Q457.082 1003.12 460.461 1003.12 Q463.841 1003.12 465.762 1000.45 Q467.707 997.768 467.707 993.069 Z" fill="#000000" fill-rule="nonzero" fill-opacity="1" /><path clip-path="url(#clip000)" d="M489.234 983.069 Q485.809 983.069 483.818 985.754 Q481.827 988.416 481.827 993.069 Q481.827 997.722 483.795 1000.41 Q485.785 1003.07 489.234 1003.07 Q492.637 1003.07 494.628 1000.38 Q496.619 997.698 496.619 993.069 Q496.619 988.462 494.628 985.777 Q492.637 983.069 489.234 983.069 M489.234 979.458 Q494.79 979.458 497.961 983.069 Q501.133 986.68 501.133 993.069 Q501.133 999.434 497.961 1003.07 Q494.79 1006.68 489.234 1006.68 Q483.656 1006.68 480.484 1003.07 Q477.336 999.434 477.336 993.069 Q477.336 986.68 480.484 983.069 Q483.656 979.458 489.234 979.458 Z" fill="#000000" fill-rule="nonzero" fill-opacity="1" /><path clip-path="url(#clip000)" d="M512.406 972.722 L512.406 980.083 L521.179 980.083 L521.179 983.393 L512.406 983.393 L512.406 997.467 Q512.406 1000.64 513.262 1001.54 Q514.142 1002.44 516.804 1002.44 L521.179 1002.44 L521.179 1006.01 L516.804 1006.01 Q511.873 1006.01 509.998 1004.18 Q508.123 1002.33 508.123 997.467 L508.123 983.393 L504.998 983.393 L504.998 980.083 L508.123 980.083 L508.123 972.722 L512.406 972.722 Z" fill="#000000" fill-rule="nonzero" fill-opacity="1" /><polyline clip-path="url(#clip000)" style="stroke:#3da44d; stroke-linecap:round; stroke-linejoin:round; stroke-width:4; stroke-opacity:1; fill:none" points="244.572,1040.57 363.747,1040.57 "/>
<path clip-path="url(#clip000)" d="M396.804 1057.85 L383.61 1023.29 L388.494 1023.29 L399.443 1052.39 L410.415 1023.29 L415.276 1023.29 L402.105 1057.85 L396.804 1057.85 Z" fill="#000000" fill-rule="nonzero" fill-opacity="1" /><path clip-path="url(#clip000)" d="M438.633 1043.82 L438.633 1045.9 L419.05 1045.9 Q419.327 1050.3 421.688 1052.62 Q424.073 1054.91 428.309 1054.91 Q430.763 1054.91 433.054 1054.31 Q435.369 1053.71 437.637 1052.5 L437.637 1056.53 Q435.346 1057.5 432.938 1058.01 Q430.531 1058.52 428.054 1058.52 Q421.851 1058.52 418.216 1054.91 Q414.605 1051.3 414.605 1045.14 Q414.605 1038.77 418.031 1035.05 Q421.48 1031.3 427.313 1031.3 Q432.545 1031.3 435.577 1034.68 Q438.633 1038.03 438.633 1043.82 M434.374 1042.57 Q434.327 1039.08 432.406 1036.99 Q430.508 1034.91 427.36 1034.91 Q423.795 1034.91 421.642 1036.92 Q419.513 1038.94 419.189 1042.59 L434.374 1042.57 Z" fill="#000000" fill-rule="nonzero" fill-opacity="1" /><path clip-path="url(#clip000)" d="M467.174 1042.2 L467.174 1057.85 L462.915 1057.85 L462.915 1042.34 Q462.915 1038.66 461.48 1036.83 Q460.045 1035 457.174 1035 Q453.725 1035 451.735 1037.2 Q449.744 1039.4 449.744 1043.2 L449.744 1057.85 L445.462 1057.85 L445.462 1021.83 L449.744 1021.83 L449.744 1035.95 Q451.272 1033.61 453.332 1032.46 Q455.415 1031.3 458.123 1031.3 Q462.591 1031.3 464.883 1034.08 Q467.174 1036.83 467.174 1042.2 Z" fill="#000000" fill-rule="nonzero" fill-opacity="1" /><path clip-path="url(#clip000)" d="M475.67 1031.92 L479.929 1031.92 L479.929 1057.85 L475.67 1057.85 L475.67 1031.92 M475.67 1021.83 L479.929 1021.83 L479.929 1027.22 L475.67 1027.22 L475.67 1021.83 Z" fill="#000000" fill-rule="nonzero" fill-opacity="1" /><path clip-path="url(#clip000)" d="M507.498 1032.92 L507.498 1036.9 Q505.693 1035.9 503.864 1035.42 Q502.058 1034.91 500.207 1034.91 Q496.063 1034.91 493.771 1037.55 Q491.48 1040.16 491.48 1044.91 Q491.48 1049.65 493.771 1052.29 Q496.063 1054.91 500.207 1054.91 Q502.058 1054.91 503.864 1054.42 Q505.693 1053.91 507.498 1052.92 L507.498 1056.85 Q505.716 1057.69 503.795 1058.1 Q501.896 1058.52 499.744 1058.52 Q493.887 1058.52 490.438 1054.84 Q486.989 1051.16 486.989 1044.91 Q486.989 1038.57 490.461 1034.93 Q493.957 1031.3 500.021 1031.3 Q501.989 1031.3 503.864 1031.71 Q505.739 1032.11 507.498 1032.92 Z" fill="#000000" fill-rule="nonzero" fill-opacity="1" /><path clip-path="url(#clip000)" d="M514.906 1021.83 L519.165 1021.83 L519.165 1057.85 L514.906 1057.85 L514.906 1021.83 Z" fill="#000000" fill-rule="nonzero" fill-opacity="1" /><path clip-path="url(#clip000)" d="M550.253 1043.82 L550.253 1045.9 L530.669 1045.9 Q530.947 1050.3 533.308 1052.62 Q535.693 1054.91 539.929 1054.91 Q542.382 1054.91 544.674 1054.31 Q546.989 1053.71 549.257 1052.5 L549.257 1056.53 Q546.966 1057.5 544.558 1058.01 Q542.151 1058.52 539.674 1058.52 Q533.47 1058.52 529.836 1054.91 Q526.225 1051.3 526.225 1045.14 Q526.225 1038.77 529.651 1035.05 Q533.1 1031.3 538.933 1031.3 Q544.165 1031.3 547.197 1034.68 Q550.253 1038.03 550.253 1043.82 M545.993 1042.57 Q545.947 1039.08 544.026 1036.99 Q542.128 1034.91 538.98 1034.91 Q535.415 1034.91 533.262 1036.92 Q531.132 1038.94 530.808 1042.59 L545.993 1042.57 Z" fill="#000000" fill-rule="nonzero" fill-opacity="1" /><path clip-path="url(#clip000)" d="M573.725 1053.91 L581.364 1053.91 L581.364 1027.55 L573.053 1029.21 L573.053 1024.96 L581.317 1023.29 L585.993 1023.29 L585.993 1053.91 L593.632 1053.91 L593.632 1057.85 L573.725 1057.85 L573.725 1053.91 Z" fill="#000000" fill-rule="nonzero" fill-opacity="1" /><path clip-path="url(#clip000)" d="M603.563 1051.97 L608.447 1051.97 L608.447 1057.85 L603.563 1057.85 L603.563 1051.97 M603.563 1033.33 L608.447 1033.33 L608.447 1039.21 L603.563 1039.21 L603.563 1033.33 Z" fill="#000000" fill-rule="nonzero" fill-opacity="1" /><path clip-path="url(#clip000)" d="M634.928 1053.91 L642.567 1053.91 L642.567 1027.55 L634.257 1029.21 L634.257 1024.96 L642.521 1023.29 L647.197 1023.29 L647.197 1053.91 L654.835 1053.91 L654.835 1057.85 L634.928 1057.85 L634.928 1053.91 Z" fill="#000000" fill-rule="nonzero" fill-opacity="1" /><path clip-path="url(#clip000)" d="M664.28 1051.97 L669.164 1051.97 L669.164 1057.85 L664.28 1057.85 L664.28 1051.97 Z" fill="#000000" fill-rule="nonzero" fill-opacity="1" /><path clip-path="url(#clip000)" d="M689.349 1026.37 Q685.738 1026.37 683.909 1029.93 Q682.104 1033.47 682.104 1040.6 Q682.104 1047.71 683.909 1051.27 Q685.738 1054.82 689.349 1054.82 Q692.983 1054.82 694.789 1051.27 Q696.618 1047.71 696.618 1040.6 Q696.618 1033.47 694.789 1029.93 Q692.983 1026.37 689.349 1026.37 M689.349 1022.66 Q695.159 1022.66 698.215 1027.27 Q701.293 1031.85 701.293 1040.6 Q701.293 1049.33 698.215 1053.94 Q695.159 1058.52 689.349 1058.52 Q683.539 1058.52 680.46 1053.94 Q677.405 1049.33 677.405 1040.6 Q677.405 1031.85 680.46 1027.27 Q683.539 1022.66 689.349 1022.66 Z" fill="#000000" fill-rule="nonzero" fill-opacity="1" /><polyline clip-path="url(#clip000)" style="stroke:#c271d2; stroke-linecap:round; stroke-linejoin:round; stroke-width:4; stroke-opacity:1; fill:none" points="244.572,1092.41 363.747,1092.41 "/>
<path clip-path="url(#clip000)" d="M396.804 1109.69 L383.61 1075.13 L388.494 1075.13 L399.443 1104.23 L410.415 1075.13 L415.276 1075.13 L402.105 1109.69 L396.804 1109.69 Z" fill="#000000" fill-rule="nonzero" fill-opacity="1" /><path clip-path="url(#clip000)" d="M438.633 1095.66 L438.633 1097.74 L419.05 1097.74 Q419.327 1102.14 421.688 1104.46 Q424.073 1106.75 428.309 1106.75 Q430.763 1106.75 433.054 1106.15 Q435.369 1105.55 437.637 1104.34 L437.637 1108.37 Q435.346 1109.34 432.938 1109.85 Q430.531 1110.36 428.054 1110.36 Q421.851 1110.36 418.216 1106.75 Q414.605 1103.14 414.605 1096.98 Q414.605 1090.61 418.031 1086.89 Q421.48 1083.14 427.313 1083.14 Q432.545 1083.14 435.577 1086.52 Q438.633 1089.87 438.633 1095.66 M434.374 1094.41 Q434.327 1090.92 432.406 1088.83 Q430.508 1086.75 427.36 1086.75 Q423.795 1086.75 421.642 1088.76 Q419.513 1090.78 419.189 1094.43 L434.374 1094.41 Z" fill="#000000" fill-rule="nonzero" fill-opacity="1" /><path clip-path="url(#clip000)" d="M467.174 1094.04 L467.174 1109.69 L462.915 1109.69 L462.915 1094.18 Q462.915 1090.5 461.48 1088.67 Q460.045 1086.84 457.174 1086.84 Q453.725 1086.84 451.735 1089.04 Q449.744 1091.24 449.744 1095.04 L449.744 1109.69 L445.462 1109.69 L445.462 1073.67 L449.744 1073.67 L449.744 1087.79 Q451.272 1085.45 453.332 1084.3 Q455.415 1083.14 458.123 1083.14 Q462.591 1083.14 464.883 1085.92 Q467.174 1088.67 467.174 1094.04 Z" fill="#000000" fill-rule="nonzero" fill-opacity="1" /><path clip-path="url(#clip000)" d="M475.67 1083.76 L479.929 1083.76 L479.929 1109.69 L475.67 1109.69 L475.67 1083.76 M475.67 1073.67 L479.929 1073.67 L479.929 1079.06 L475.67 1079.06 L475.67 1073.67 Z" fill="#000000" fill-rule="nonzero" fill-opacity="1" /><path clip-path="url(#clip000)" d="M507.498 1084.76 L507.498 1088.74 Q505.693 1087.74 503.864 1087.26 Q502.058 1086.75 500.207 1086.75 Q496.063 1086.75 493.771 1089.39 Q491.48 1092 491.48 1096.75 Q491.48 1101.49 493.771 1104.13 Q496.063 1106.75 500.207 1106.75 Q502.058 1106.75 503.864 1106.26 Q505.693 1105.75 507.498 1104.76 L507.498 1108.69 Q505.716 1109.53 503.795 1109.94 Q501.896 1110.36 499.744 1110.36 Q493.887 1110.36 490.438 1106.68 Q486.989 1103 486.989 1096.75 Q486.989 1090.41 490.461 1086.77 Q493.957 1083.14 500.021 1083.14 Q501.989 1083.14 503.864 1083.55 Q505.739 1083.95 507.498 1084.76 Z" fill="#000000" fill-rule="nonzero" fill-opacity="1" /><path clip-path="url(#clip000)" d="M514.906 1073.67 L519.165 1073.67 L519.165 1109.69 L514.906 1109.69 L514.906 1073.67 Z" fill="#000000" fill-rule="nonzero" fill-opacity="1" /><path clip-path="url(#clip000)" d="M550.253 1095.66 L550.253 1097.74 L530.669 1097.74 Q530.947 1102.14 533.308 1104.46 Q535.693 1106.75 539.929 1106.75 Q542.382 1106.75 544.674 1106.15 Q546.989 1105.55 549.257 1104.34 L549.257 1108.37 Q546.966 1109.34 544.558 1109.85 Q542.151 1110.36 539.674 1110.36 Q533.47 1110.36 529.836 1106.75 Q526.225 1103.14 526.225 1096.98 Q526.225 1090.61 529.651 1086.89 Q533.1 1083.14 538.933 1083.14 Q544.165 1083.14 547.197 1086.52 Q550.253 1089.87 550.253 1095.66 M545.993 1094.41 Q545.947 1090.92 544.026 1088.83 Q542.128 1086.75 538.98 1086.75 Q535.415 1086.75 533.262 1088.76 Q531.132 1090.78 530.808 1094.43 L545.993 1094.41 Z" fill="#000000" fill-rule="nonzero" fill-opacity="1" /><path clip-path="url(#clip000)" d="M576.942 1105.75 L593.262 1105.75 L593.262 1109.69 L571.317 1109.69 L571.317 1105.75 Q573.979 1103 578.563 1098.37 Q583.169 1093.72 584.35 1092.37 Q586.595 1089.85 587.475 1088.11 Q588.377 1086.36 588.377 1084.67 Q588.377 1081.91 586.433 1080.17 Q584.512 1078.44 581.41 1078.44 Q579.211 1078.44 576.757 1079.2 Q574.327 1079.97 571.549 1081.52 L571.549 1076.8 Q574.373 1075.66 576.827 1075.08 Q579.28 1074.5 581.317 1074.5 Q586.688 1074.5 589.882 1077.19 Q593.076 1079.87 593.076 1084.36 Q593.076 1086.49 592.266 1088.42 Q591.479 1090.31 589.373 1092.91 Q588.794 1093.58 585.692 1096.8 Q582.59 1099.99 576.942 1105.75 Z" fill="#000000" fill-rule="nonzero" fill-opacity="1" /><path clip-path="url(#clip000)" d="M603.563 1103.81 L608.447 1103.81 L608.447 1109.69 L603.563 1109.69 L603.563 1103.81 M603.563 1085.17 L608.447 1085.17 L608.447 1091.05 L603.563 1091.05 L603.563 1085.17 Z" fill="#000000" fill-rule="nonzero" fill-opacity="1" /><path clip-path="url(#clip000)" d="M634.928 1105.75 L642.567 1105.75 L642.567 1079.39 L634.257 1081.05 L634.257 1076.8 L642.521 1075.13 L647.197 1075.13 L647.197 1105.75 L654.835 1105.75 L654.835 1109.69 L634.928 1109.69 L634.928 1105.75 Z" fill="#000000" fill-rule="nonzero" fill-opacity="1" /><path clip-path="url(#clip000)" d="M664.28 1103.81 L669.164 1103.81 L669.164 1109.69 L664.28 1109.69 L664.28 1103.81 Z" fill="#000000" fill-rule="nonzero" fill-opacity="1" /><path clip-path="url(#clip000)" d="M689.349 1078.21 Q685.738 1078.21 683.909 1081.77 Q682.104 1085.31 682.104 1092.44 Q682.104 1099.55 683.909 1103.11 Q685.738 1106.66 689.349 1106.66 Q692.983 1106.66 694.789 1103.11 Q696.618 1099.55 696.618 1092.44 Q696.618 1085.31 694.789 1081.77 Q692.983 1078.21 689.349 1078.21 M689.349 1074.5 Q695.159 1074.5 698.215 1079.11 Q701.293 1083.69 701.293 1092.44 Q701.293 1101.17 698.215 1105.78 Q695.159 1110.36 689.349 1110.36 Q683.539 1110.36 680.46 1105.78 Q677.405 1101.17 677.405 1092.44 Q677.405 1083.69 680.46 1079.11 Q683.539 1074.5 689.349 1074.5 Z" fill="#000000" fill-rule="nonzero" fill-opacity="1" /><polyline clip-path="url(#clip000)" style="stroke:#ac8d18; stroke-linecap:round; stroke-linejoin:round; stroke-width:4; stroke-opacity:1; fill:none" points="244.572,1144.25 363.747,1144.25 "/>
<path clip-path="url(#clip000)" d="M396.804 1161.53 L383.61 1126.97 L388.494 1126.97 L399.443 1156.07 L410.415 1126.97 L415.276 1126.97 L402.105 1161.53 L396.804 1161.53 Z" fill="#000000" fill-rule="nonzero" fill-opacity="1" /><path clip-path="url(#clip000)" d="M438.633 1147.5 L438.633 1149.58 L419.05 1149.58 Q419.327 1153.98 421.688 1156.3 Q424.073 1158.59 428.309 1158.59 Q430.763 1158.59 433.054 1157.99 Q435.369 1157.39 437.637 1156.18 L437.637 1160.21 Q435.346 1161.18 432.938 1161.69 Q430.531 1162.2 428.054 1162.2 Q421.851 1162.2 418.216 1158.59 Q414.605 1154.98 414.605 1148.82 Q414.605 1142.45 418.031 1138.73 Q421.48 1134.98 427.313 1134.98 Q432.545 1134.98 435.577 1138.36 Q438.633 1141.71 438.633 1147.5 M434.374 1146.25 Q434.327 1142.76 432.406 1140.67 Q430.508 1138.59 427.36 1138.59 Q423.795 1138.59 421.642 1140.6 Q419.513 1142.62 419.189 1146.27 L434.374 1146.25 Z" fill="#000000" fill-rule="nonzero" fill-opacity="1" /><path clip-path="url(#clip000)" d="M467.174 1145.88 L467.174 1161.53 L462.915 1161.53 L462.915 1146.02 Q462.915 1142.34 461.48 1140.51 Q460.045 1138.68 457.174 1138.68 Q453.725 1138.68 451.735 1140.88 Q449.744 1143.08 449.744 1146.88 L449.744 1161.53 L445.462 1161.53 L445.462 1125.51 L449.744 1125.51 L449.744 1139.63 Q451.272 1137.29 453.332 1136.14 Q455.415 1134.98 458.123 1134.98 Q462.591 1134.98 464.883 1137.76 Q467.174 1140.51 467.174 1145.88 Z" fill="#000000" fill-rule="nonzero" fill-opacity="1" /><path clip-path="url(#clip000)" d="M475.67 1135.6 L479.929 1135.6 L479.929 1161.53 L475.67 1161.53 L475.67 1135.6 M475.67 1125.51 L479.929 1125.51 L479.929 1130.9 L475.67 1130.9 L475.67 1125.51 Z" fill="#000000" fill-rule="nonzero" fill-opacity="1" /><path clip-path="url(#clip000)" d="M507.498 1136.6 L507.498 1140.58 Q505.693 1139.58 503.864 1139.1 Q502.058 1138.59 500.207 1138.59 Q496.063 1138.59 493.771 1141.23 Q491.48 1143.84 491.48 1148.59 Q491.48 1153.33 493.771 1155.97 Q496.063 1158.59 500.207 1158.59 Q502.058 1158.59 503.864 1158.1 Q505.693 1157.59 507.498 1156.6 L507.498 1160.53 Q505.716 1161.37 503.795 1161.78 Q501.896 1162.2 499.744 1162.2 Q493.887 1162.2 490.438 1158.52 Q486.989 1154.84 486.989 1148.59 Q486.989 1142.25 490.461 1138.61 Q493.957 1134.98 500.021 1134.98 Q501.989 1134.98 503.864 1135.39 Q505.739 1135.79 507.498 1136.6 Z" fill="#000000" fill-rule="nonzero" fill-opacity="1" /><path clip-path="url(#clip000)" d="M514.906 1125.51 L519.165 1125.51 L519.165 1161.53 L514.906 1161.53 L514.906 1125.51 Z" fill="#000000" fill-rule="nonzero" fill-opacity="1" /><path clip-path="url(#clip000)" d="M550.253 1147.5 L550.253 1149.58 L530.669 1149.58 Q530.947 1153.98 533.308 1156.3 Q535.693 1158.59 539.929 1158.59 Q542.382 1158.59 544.674 1157.99 Q546.989 1157.39 549.257 1156.18 L549.257 1160.21 Q546.966 1161.18 544.558 1161.69 Q542.151 1162.2 539.674 1162.2 Q533.47 1162.2 529.836 1158.59 Q526.225 1154.98 526.225 1148.82 Q526.225 1142.45 529.651 1138.73 Q533.1 1134.98 538.933 1134.98 Q544.165 1134.98 547.197 1138.36 Q550.253 1141.71 550.253 1147.5 M545.993 1146.25 Q545.947 1142.76 544.026 1140.67 Q542.128 1138.59 538.98 1138.59 Q535.415 1138.59 533.262 1140.6 Q531.132 1142.62 530.808 1146.27 L545.993 1146.25 Z" fill="#000000" fill-rule="nonzero" fill-opacity="1" /><path clip-path="url(#clip000)" d="M587.081 1142.89 Q590.438 1143.61 592.313 1145.88 Q594.211 1148.15 594.211 1151.48 Q594.211 1156.6 590.692 1159.4 Q587.174 1162.2 580.692 1162.2 Q578.516 1162.2 576.202 1161.76 Q573.91 1161.34 571.456 1160.49 L571.456 1155.97 Q573.401 1157.11 575.715 1157.69 Q578.03 1158.26 580.553 1158.26 Q584.952 1158.26 587.243 1156.53 Q589.558 1154.79 589.558 1151.48 Q589.558 1148.43 587.405 1146.71 Q585.276 1144.98 581.456 1144.98 L577.428 1144.98 L577.428 1141.14 L581.641 1141.14 Q585.09 1141.14 586.919 1139.77 Q588.748 1138.38 588.748 1135.79 Q588.748 1133.13 586.85 1131.71 Q584.975 1130.28 581.456 1130.28 Q579.535 1130.28 577.336 1130.7 Q575.137 1131.11 572.498 1131.99 L572.498 1127.83 Q575.16 1127.08 577.475 1126.71 Q579.813 1126.34 581.873 1126.34 Q587.197 1126.34 590.299 1128.77 Q593.401 1131.18 593.401 1135.3 Q593.401 1138.17 591.757 1140.16 Q590.114 1142.13 587.081 1142.89 Z" fill="#000000" fill-rule="nonzero" fill-opacity="1" /><path clip-path="url(#clip000)" d="M603.563 1155.65 L608.447 1155.65 L608.447 1161.53 L603.563 1161.53 L603.563 1155.65 M603.563 1137.01 L608.447 1137.01 L608.447 1142.89 L603.563 1142.89 L603.563 1137.01 Z" fill="#000000" fill-rule="nonzero" fill-opacity="1" /><path clip-path="url(#clip000)" d="M634.928 1157.59 L642.567 1157.59 L642.567 1131.23 L634.257 1132.89 L634.257 1128.64 L642.521 1126.97 L647.197 1126.97 L647.197 1157.59 L654.835 1157.59 L654.835 1161.53 L634.928 1161.53 L634.928 1157.59 Z" fill="#000000" fill-rule="nonzero" fill-opacity="1" /><path clip-path="url(#clip000)" d="M664.28 1155.65 L669.164 1155.65 L669.164 1161.53 L664.28 1161.53 L664.28 1155.65 Z" fill="#000000" fill-rule="nonzero" fill-opacity="1" /><path clip-path="url(#clip000)" d="M689.349 1130.05 Q685.738 1130.05 683.909 1133.61 Q682.104 1137.15 682.104 1144.28 Q682.104 1151.39 683.909 1154.95 Q685.738 1158.5 689.349 1158.5 Q692.983 1158.5 694.789 1154.95 Q696.618 1151.39 696.618 1144.28 Q696.618 1137.15 694.789 1133.61 Q692.983 1130.05 689.349 1130.05 M689.349 1126.34 Q695.159 1126.34 698.215 1130.95 Q701.293 1135.53 701.293 1144.28 Q701.293 1153.01 698.215 1157.62 Q695.159 1162.2 689.349 1162.2 Q683.539 1162.2 680.46 1157.62 Q677.405 1153.01 677.405 1144.28 Q677.405 1135.53 680.46 1130.95 Q683.539 1126.34 689.349 1126.34 Z" fill="#000000" fill-rule="nonzero" fill-opacity="1" /><path clip-path="url(#clip000)" d="M1012.47 211.566 L1025.84 211.566 L1025.84 165.426 L1011.3 168.343 L1011.3 160.889 L1025.76 157.973 L1033.94 157.973 L1033.94 211.566 L1047.31 211.566 L1047.31 218.453 L1012.47 218.453 L1012.47 211.566 Z" fill="#000000" fill-rule="nonzero" fill-opacity="1" /><path clip-path="url(#clip000)" d="M1093.97 445.374 L1122.53 445.374 L1122.53 452.261 L1084.13 452.261 L1084.13 445.374 Q1088.79 440.554 1096.81 432.452 Q1104.87 424.31 1106.93 421.96 Q1110.86 417.545 1112.4 414.507 Q1113.98 411.428 1113.98 408.471 Q1113.98 403.65 1110.58 400.612 Q1107.22 397.574 1101.79 397.574 Q1097.94 397.574 1093.65 398.911 Q1089.39 400.247 1084.53 402.962 L1084.53 394.698 Q1089.48 392.713 1093.77 391.7 Q1098.06 390.687 1101.63 390.687 Q1111.03 390.687 1116.62 395.386 Q1122.21 400.085 1122.21 407.944 Q1122.21 411.671 1120.79 415.033 Q1119.41 418.355 1115.73 422.892 Q1114.71 424.067 1109.28 429.697 Q1103.86 435.288 1093.97 445.374 Z" fill="#000000" fill-rule="nonzero" fill-opacity="1" /><path clip-path="url(#clip000)" d="M772.177 398.437 Q778.051 399.693 781.332 403.663 Q784.654 407.632 784.654 413.466 Q784.654 422.418 778.496 427.32 Q772.339 432.221 760.997 432.221 Q757.189 432.221 753.138 431.452 Q749.127 430.723 744.833 429.224 L744.833 421.325 Q748.236 423.309 752.287 424.322 Q756.338 425.335 760.754 425.335 Q768.45 425.335 772.461 422.297 Q776.512 419.259 776.512 413.466 Q776.512 408.119 772.744 405.121 Q769.017 402.083 762.333 402.083 L755.285 402.083 L755.285 395.358 L762.657 395.358 Q768.693 395.358 771.894 392.968 Q775.094 390.538 775.094 386.001 Q775.094 381.342 771.772 378.871 Q768.491 376.36 762.333 376.36 Q758.971 376.36 755.123 377.089 Q751.274 377.818 746.656 379.357 L746.656 372.066 Q751.315 370.769 755.366 370.121 Q759.457 369.473 763.063 369.473 Q772.38 369.473 777.808 373.726 Q783.236 377.939 783.236 385.15 Q783.236 390.173 780.36 393.657 Q777.484 397.1 772.177 398.437 Z" fill="#000000" fill-rule="nonzero" fill-opacity="1" /><path clip-path="url(#clip000)" d="M884.705 875.525 L864.045 907.811 L884.705 907.811 L884.705 875.525 M882.558 868.395 L892.847 868.395 L892.847 907.811 L901.475 907.811 L901.475 914.616 L892.847 914.616 L892.847 928.875 L884.705 928.875 L884.705 914.616 L857.402 914.616 L857.402 906.717 L882.558 868.395 Z" fill="#000000" fill-rule="nonzero" fill-opacity="1" /><path clip-path="url(#clip000)" d="M1424.75 1356.54 L1456.87 1356.54 L1456.87 1363.43 L1432.24 1363.43 L1432.24 1378.25 Q1434.03 1377.65 1435.81 1377.36 Q1437.59 1377.04 1439.37 1377.04 Q1449.5 1377.04 1455.41 1382.59 Q1461.33 1388.14 1461.33 1397.62 Q1461.33 1407.38 1455.25 1412.81 Q1449.18 1418.19 1438.12 1418.19 Q1434.31 1418.19 1430.34 1417.55 Q1426.41 1416.9 1422.2 1415.6 L1422.2 1407.38 Q1425.84 1409.36 1429.73 1410.34 Q1433.62 1411.31 1437.96 1411.31 Q1444.96 1411.31 1449.05 1407.62 Q1453.15 1403.94 1453.15 1397.62 Q1453.15 1391.3 1449.05 1387.61 Q1444.96 1383.92 1437.96 1383.92 Q1434.67 1383.92 1431.39 1384.65 Q1428.15 1385.38 1424.75 1386.92 L1424.75 1356.54 Z" fill="#000000" fill-rule="nonzero" fill-opacity="1" /><path clip-path="url(#clip000)" d="M825.559 661.66 Q820.05 661.66 816.809 665.428 Q813.609 669.195 813.609 675.757 Q813.609 682.279 816.809 686.087 Q820.05 689.854 825.559 689.854 Q831.068 689.854 834.268 686.087 Q837.509 682.279 837.509 675.757 Q837.509 669.195 834.268 665.428 Q831.068 661.66 825.559 661.66 M841.803 636.018 L841.803 643.472 Q838.724 642.013 835.565 641.244 Q832.445 640.474 829.367 640.474 Q821.265 640.474 816.971 645.943 Q812.718 651.411 812.11 662.47 Q814.5 658.946 818.105 657.083 Q821.711 655.179 826.045 655.179 Q835.16 655.179 840.426 660.728 Q845.732 666.238 845.732 675.757 Q845.732 685.074 840.223 690.705 Q834.714 696.336 825.559 696.336 Q815.067 696.336 809.517 688.315 Q803.968 680.254 803.968 664.982 Q803.968 650.642 810.773 642.135 Q817.579 633.587 829.043 633.587 Q832.121 633.587 835.241 634.195 Q838.4 634.803 841.803 636.018 Z" fill="#000000" fill-rule="nonzero" fill-opacity="1" /><path clip-path="url(#clip000)" d="M890.218 877.496 L929.107 877.496 L929.107 880.98 L907.151 937.976 L898.604 937.976 L919.263 884.383 L890.218 884.383 L890.218 877.496 Z" fill="#000000" fill-rule="nonzero" fill-opacity="1" /><path clip-path="url(#clip000)" d="M961.061 167.19 Q955.228 167.19 951.865 170.309 Q948.544 173.428 948.544 178.897 Q948.544 184.365 951.865 187.485 Q955.228 190.604 961.061 190.604 Q966.894 190.604 970.256 187.485 Q973.619 184.325 973.619 178.897 Q973.619 173.428 970.256 170.309 Q966.935 167.19 961.061 167.19 M952.878 163.706 Q947.612 162.41 944.655 158.804 Q941.738 155.199 941.738 150.014 Q941.738 142.763 946.883 138.55 Q952.068 134.337 961.061 134.337 Q970.094 134.337 975.239 138.55 Q980.384 142.763 980.384 150.014 Q980.384 155.199 977.426 158.804 Q974.51 162.41 969.284 163.706 Q975.198 165.083 978.48 169.094 Q981.801 173.104 981.801 178.897 Q981.801 187.687 976.414 192.386 Q971.067 197.085 961.061 197.085 Q951.055 197.085 945.667 192.386 Q940.32 187.687 940.32 178.897 Q940.32 173.104 943.642 169.094 Q946.964 165.083 952.878 163.706 M949.88 150.783 Q949.88 155.482 952.797 158.116 Q955.754 160.749 961.061 160.749 Q966.327 160.749 969.284 158.116 Q972.282 155.482 972.282 150.783 Q972.282 146.084 969.284 143.451 Q966.327 140.818 961.061 140.818 Q955.754 140.818 952.797 143.451 Q949.88 146.084 949.88 150.783 Z" fill="#000000" fill-rule="nonzero" fill-opacity="1" /><path clip-path="url(#clip000)" d="M752.198 1207.72 L752.198 1200.27 Q755.276 1201.73 758.436 1202.5 Q761.596 1203.27 764.634 1203.27 Q772.736 1203.27 776.989 1197.84 Q781.283 1192.37 781.891 1181.27 Q779.541 1184.76 775.936 1186.62 Q772.331 1188.48 767.956 1188.48 Q758.882 1188.48 753.575 1183.01 Q748.309 1177.5 748.309 1167.98 Q748.309 1158.67 753.818 1153.04 Q759.327 1147.41 768.482 1147.41 Q778.974 1147.41 784.483 1155.47 Q790.033 1163.49 790.033 1178.8 Q790.033 1193.1 783.228 1201.65 Q776.463 1210.15 764.998 1210.15 Q761.92 1210.15 758.76 1209.55 Q755.6 1208.94 752.198 1207.72 M768.482 1182.08 Q773.991 1182.08 777.192 1178.31 Q780.432 1174.55 780.432 1167.98 Q780.432 1161.46 777.192 1157.7 Q773.991 1153.89 768.482 1153.89 Q762.973 1153.89 759.732 1157.7 Q756.532 1161.46 756.532 1167.98 Q756.532 1174.55 759.732 1178.31 Q762.973 1182.08 768.482 1182.08 Z" fill="#000000" fill-rule="nonzero" fill-opacity="1" /><path clip-path="url(#clip000)" d="M404.919 467.373 L418.287 467.373 L418.287 421.234 L403.744 424.15 L403.744 416.697 L418.206 413.78 L426.389 413.78 L426.389 467.373 L439.757 467.373 L439.757 474.26 L404.919 474.26 L404.919 467.373 Z" fill="#000000" fill-rule="nonzero" fill-opacity="1" /><path clip-path="url(#clip000)" d="M473.784 419.168 Q467.465 419.168 464.265 425.406 Q461.105 431.604 461.105 444.081 Q461.105 456.517 464.265 462.755 Q467.465 468.953 473.784 468.953 Q480.144 468.953 483.304 462.755 Q486.504 456.517 486.504 444.081 Q486.504 431.604 483.304 425.406 Q480.144 419.168 473.784 419.168 M473.784 412.686 Q483.952 412.686 489.299 420.747 Q494.687 428.768 494.687 444.081 Q494.687 459.353 489.299 467.414 Q483.952 475.435 473.784 475.435 Q463.617 475.435 458.229 467.414 Q452.882 459.353 452.882 444.081 Q452.882 428.768 458.229 420.747 Q463.617 412.686 473.784 412.686 Z" fill="#000000" fill-rule="nonzero" fill-opacity="1" /><path clip-path="url(#clip000)" d="M1409.99 1827.53 L1423.35 1827.53 L1423.35 1781.39 L1408.81 1784.31 L1408.81 1776.86 L1423.27 1773.94 L1431.46 1773.94 L1431.46 1827.53 L1444.82 1827.53 L1444.82 1834.42 L1409.99 1834.42 L1409.99 1827.53 Z" fill="#000000" fill-rule="nonzero" fill-opacity="1" /><path clip-path="url(#clip000)" d="M1462.77 1827.53 L1476.14 1827.53 L1476.14 1781.39 L1461.6 1784.31 L1461.6 1776.86 L1476.06 1773.94 L1484.24 1773.94 L1484.24 1827.53 L1497.61 1827.53 L1497.61 1834.42 L1462.77 1834.42 L1462.77 1827.53 Z" fill="#000000" fill-rule="nonzero" fill-opacity="1" /><path clip-path="url(#clip000)" d="M1295.75 339.918 L1309.12 339.918 L1309.12 293.779 L1294.58 296.695 L1294.58 289.242 L1309.04 286.325 L1317.22 286.325 L1317.22 339.918 L1330.59 339.918 L1330.59 346.805 L1295.75 346.805 L1295.75 339.918 Z" fill="#000000" fill-rule="nonzero" fill-opacity="1" /><path clip-path="url(#clip000)" d="M1354.17 339.918 L1382.72 339.918 L1382.72 346.805 L1344.32 346.805 L1344.32 339.918 Q1348.98 335.098 1357 326.996 Q1365.06 318.854 1367.13 316.504 Q1371.06 312.089 1372.6 309.051 Q1374.18 305.972 1374.18 303.015 Q1374.18 298.194 1370.77 295.156 Q1367.41 292.118 1361.98 292.118 Q1358.13 292.118 1353.84 293.455 Q1349.59 294.791 1344.73 297.506 L1344.73 289.242 Q1349.67 287.257 1353.96 286.244 Q1358.26 285.231 1361.82 285.231 Q1371.22 285.231 1376.81 289.93 Q1382.4 294.629 1382.4 302.488 Q1382.4 306.215 1380.98 309.577 Q1379.6 312.899 1375.92 317.436 Q1374.91 318.611 1369.48 324.241 Q1364.05 329.832 1354.17 339.918 Z" fill="#000000" fill-rule="nonzero" fill-opacity="1" /><path clip-path="url(#clip000)" d="M1177.74 827.917 L1191.1 827.917 L1191.1 781.777 L1176.56 784.694 L1176.56 777.24 L1191.02 774.324 L1199.21 774.324 L1199.21 827.917 L1212.57 827.917 L1212.57 834.804 L1177.74 834.804 L1177.74 827.917 Z" fill="#000000" fill-rule="nonzero" fill-opacity="1" /><path clip-path="url(#clip000)" d="M1253.89 802.194 Q1259.77 803.45 1263.05 807.42 Q1266.37 811.389 1266.37 817.223 Q1266.37 826.175 1260.21 831.077 Q1254.05 835.978 1242.71 835.978 Q1238.9 835.978 1234.85 835.209 Q1230.84 834.48 1226.55 832.981 L1226.55 825.082 Q1229.95 827.066 1234 828.079 Q1238.05 829.092 1242.47 829.092 Q1250.17 829.092 1254.18 826.054 Q1258.23 823.016 1258.23 817.223 Q1258.23 811.876 1254.46 808.878 Q1250.73 805.84 1244.05 805.84 L1237 805.84 L1237 799.115 L1244.37 799.115 Q1250.41 799.115 1253.61 796.725 Q1256.81 794.295 1256.81 789.758 Q1256.81 785.099 1253.49 782.628 Q1250.21 780.116 1244.05 780.116 Q1240.69 780.116 1236.84 780.846 Q1232.99 781.575 1228.37 783.114 L1228.37 775.823 Q1233.03 774.526 1237.08 773.878 Q1241.17 773.23 1244.78 773.23 Q1254.1 773.23 1259.52 777.483 Q1264.95 781.696 1264.95 788.907 Q1264.95 793.93 1262.08 797.414 Q1259.2 800.857 1253.89 802.194 Z" fill="#000000" fill-rule="nonzero" fill-opacity="1" /><path clip-path="url(#clip000)" d="M1694.98 956.686 L1708.35 956.686 L1708.35 910.546 L1693.81 913.463 L1693.81 906.009 L1708.27 903.092 L1716.45 903.092 L1716.45 956.686 L1729.82 956.686 L1729.82 963.572 L1694.98 963.572 L1694.98 956.686 Z" fill="#000000" fill-rule="nonzero" fill-opacity="1" /><path clip-path="url(#clip000)" d="M1768.83 910.222 L1748.17 942.508 L1768.83 942.508 L1768.83 910.222 M1766.69 903.092 L1776.97 903.092 L1776.97 942.508 L1785.6 942.508 L1785.6 949.313 L1776.97 949.313 L1776.97 963.572 L1768.83 963.572 L1768.83 949.313 L1741.53 949.313 L1741.53 941.414 L1766.69 903.092 Z" fill="#000000" fill-rule="nonzero" fill-opacity="1" /><path clip-path="url(#clip000)" d="M1331.83 480.88 L1345.2 480.88 L1345.2 434.74 L1330.66 437.657 L1330.66 430.203 L1345.12 427.286 L1353.3 427.286 L1353.3 480.88 L1366.67 480.88 L1366.67 487.766 L1331.83 487.766 L1331.83 480.88 Z" fill="#000000" fill-rule="nonzero" fill-opacity="1" /><path clip-path="url(#clip000)" d="M1383.28 427.286 L1415.4 427.286 L1415.4 434.173 L1390.78 434.173 L1390.78 448.999 Q1392.56 448.392 1394.34 448.108 Q1396.12 447.784 1397.9 447.784 Q1408.03 447.784 1413.95 453.334 Q1419.86 458.883 1419.86 468.362 Q1419.86 478.125 1413.78 483.553 Q1407.71 488.941 1396.65 488.941 Q1392.84 488.941 1388.87 488.293 Q1384.94 487.645 1380.73 486.348 L1380.73 478.125 Q1384.37 480.11 1388.26 481.082 Q1392.15 482.055 1396.49 482.055 Q1403.5 482.055 1407.59 478.368 Q1411.68 474.682 1411.68 468.362 Q1411.68 462.043 1407.59 458.357 Q1403.5 454.67 1396.49 454.67 Q1393.21 454.67 1389.92 455.4 Q1386.68 456.129 1383.28 457.668 L1383.28 427.286 Z" fill="#000000" fill-rule="nonzero" fill-opacity="1" /><path clip-path="url(#clip000)" d="M870.289 1827.82 L883.657 1827.82 L883.657 1781.68 L869.114 1784.6 L869.114 1777.14 L883.576 1774.23 L891.759 1774.23 L891.759 1827.82 L905.127 1827.82 L905.127 1834.71 L870.289 1834.71 L870.289 1827.82 Z" fill="#000000" fill-rule="nonzero" fill-opacity="1" /><path clip-path="url(#clip000)" d="M940.167 1801.2 Q934.658 1801.2 931.417 1804.97 Q928.217 1808.74 928.217 1815.3 Q928.217 1821.82 931.417 1825.63 Q934.658 1829.4 940.167 1829.4 Q945.676 1829.4 948.877 1825.63 Q952.117 1821.82 952.117 1815.3 Q952.117 1808.74 948.877 1804.97 Q945.676 1801.2 940.167 1801.2 M956.411 1775.56 L956.411 1783.02 Q953.333 1781.56 950.173 1780.79 Q947.054 1780.02 943.975 1780.02 Q935.873 1780.02 931.579 1785.49 Q927.326 1790.96 926.718 1802.01 Q929.108 1798.49 932.714 1796.63 Q936.319 1794.72 940.653 1794.72 Q949.768 1794.72 955.034 1800.27 Q960.341 1805.78 960.341 1815.3 Q960.341 1824.62 954.831 1830.25 Q949.322 1835.88 940.167 1835.88 Q929.675 1835.88 924.126 1827.86 Q918.576 1819.8 918.576 1804.53 Q918.576 1790.19 925.381 1781.68 Q932.187 1773.13 943.651 1773.13 Q946.73 1773.13 949.849 1773.74 Q953.009 1774.35 956.411 1775.56 Z" fill="#000000" fill-rule="nonzero" fill-opacity="1" /><path clip-path="url(#clip000)" d="M620.711 1005.35 L634.079 1005.35 L634.079 959.211 L619.536 962.128 L619.536 954.674 L633.998 951.757 L642.18 951.757 L642.18 1005.35 L655.548 1005.35 L655.548 1012.24 L620.711 1012.24 L620.711 1005.35 Z" fill="#000000" fill-rule="nonzero" fill-opacity="1" /><path clip-path="url(#clip000)" d="M670.01 951.757 L708.899 951.757 L708.899 955.241 L686.943 1012.24 L678.395 1012.24 L699.055 958.644 L670.01 958.644 L670.01 951.757 Z" fill="#000000" fill-rule="nonzero" fill-opacity="1" /><path clip-path="url(#clip000)" d="M1571.65 1334.26 L1585.02 1334.26 L1585.02 1288.12 L1570.48 1291.04 L1570.48 1283.59 L1584.94 1280.67 L1593.12 1280.67 L1593.12 1334.26 L1606.49 1334.26 L1606.49 1341.15 L1571.65 1341.15 L1571.65 1334.26 Z" fill="#000000" fill-rule="nonzero" fill-opacity="1" /><path clip-path="url(#clip000)" d="M1640.52 1312.43 Q1634.68 1312.43 1631.32 1315.55 Q1628 1318.67 1628 1324.14 Q1628 1329.6 1631.32 1332.72 Q1634.68 1335.84 1640.52 1335.84 Q1646.35 1335.84 1649.71 1332.72 Q1653.07 1329.56 1653.07 1324.14 Q1653.07 1318.67 1649.71 1315.55 Q1646.39 1312.43 1640.52 1312.43 M1632.33 1308.94 Q1627.07 1307.65 1624.11 1304.04 Q1621.19 1300.44 1621.19 1295.25 Q1621.19 1288 1626.34 1283.79 Q1631.52 1279.58 1640.52 1279.58 Q1649.55 1279.58 1654.69 1283.79 Q1659.84 1288 1659.84 1295.25 Q1659.84 1300.44 1656.88 1304.04 Q1653.97 1307.65 1648.74 1308.94 Q1654.65 1310.32 1657.94 1314.33 Q1661.26 1318.34 1661.26 1324.14 Q1661.26 1332.93 1655.87 1337.62 Q1650.52 1342.32 1640.52 1342.32 Q1630.51 1342.32 1625.12 1337.62 Q1619.78 1332.93 1619.78 1324.14 Q1619.78 1318.34 1623.1 1314.33 Q1626.42 1310.32 1632.33 1308.94 M1629.34 1296.02 Q1629.34 1300.72 1632.25 1303.35 Q1635.21 1305.99 1640.52 1305.99 Q1645.78 1305.99 1648.74 1303.35 Q1651.74 1300.72 1651.74 1296.02 Q1651.74 1291.32 1648.74 1288.69 Q1645.78 1286.06 1640.52 1286.06 Q1635.21 1286.06 1632.25 1288.69 Q1629.34 1291.32 1629.34 1296.02 Z" fill="#000000" fill-rule="nonzero" fill-opacity="1" /><path clip-path="url(#clip000)" d="M999.441 742.879 L1012.81 742.879 L1012.81 696.739 L998.266 699.656 L998.266 692.202 L1012.73 689.286 L1020.91 689.286 L1020.91 742.879 L1034.28 742.879 L1034.28 749.766 L999.441 749.766 L999.441 742.879 Z" fill="#000000" fill-rule="nonzero" fill-opacity="1" /><path clip-path="url(#clip000)" d="M1051.05 748.51 L1051.05 741.056 Q1054.13 742.515 1057.29 743.284 Q1060.45 744.054 1063.49 744.054 Q1071.59 744.054 1075.84 738.626 Q1080.13 733.157 1080.74 722.058 Q1078.39 725.541 1074.79 727.405 Q1071.18 729.268 1066.81 729.268 Q1057.73 729.268 1052.43 723.799 Q1047.16 718.29 1047.16 708.771 Q1047.16 699.454 1052.67 693.823 Q1058.18 688.192 1067.33 688.192 Q1077.83 688.192 1083.34 696.253 Q1088.88 704.274 1088.88 719.587 Q1088.88 733.886 1082.08 742.434 Q1075.31 750.941 1063.85 750.941 Q1060.77 750.941 1057.61 750.333 Q1054.45 749.725 1051.05 748.51 M1067.33 722.868 Q1072.84 722.868 1076.04 719.1 Q1079.28 715.333 1079.28 708.771 Q1079.28 702.249 1076.04 698.481 Q1072.84 694.673 1067.33 694.673 Q1061.82 694.673 1058.58 698.481 Q1055.38 702.249 1055.38 708.771 Q1055.38 715.333 1058.58 719.1 Q1061.82 722.868 1067.33 722.868 Z" fill="#000000" fill-rule="nonzero" fill-opacity="1" /><path clip-path="url(#clip000)" d="M964.697 1666.7 L993.256 1666.7 L993.256 1673.59 L954.853 1673.59 L954.853 1666.7 Q959.512 1661.88 967.533 1653.78 Q975.594 1645.64 977.66 1643.29 Q981.589 1638.87 983.129 1635.84 Q984.709 1632.76 984.709 1629.8 Q984.709 1624.98 981.306 1621.94 Q977.944 1618.9 972.515 1618.9 Q968.667 1618.9 964.373 1620.24 Q960.12 1621.58 955.259 1624.29 L955.259 1616.03 Q960.201 1614.04 964.495 1613.03 Q968.789 1612.02 972.353 1612.02 Q981.751 1612.02 987.342 1616.71 Q992.932 1621.41 992.932 1629.27 Q992.932 1633 991.514 1636.36 Q990.137 1639.68 986.45 1644.22 Q985.438 1645.4 980.01 1651.03 Q974.581 1656.62 964.697 1666.7 Z" fill="#000000" fill-rule="nonzero" fill-opacity="1" /><path clip-path="url(#clip000)" d="M1027.93 1618.5 Q1021.61 1618.5 1018.41 1624.74 Q1015.25 1630.93 1015.25 1643.41 Q1015.25 1655.85 1018.41 1662.09 Q1021.61 1668.28 1027.93 1668.28 Q1034.29 1668.28 1037.45 1662.09 Q1040.65 1655.85 1040.65 1643.41 Q1040.65 1630.93 1037.45 1624.74 Q1034.29 1618.5 1027.93 1618.5 M1027.93 1612.02 Q1038.1 1612.02 1043.45 1620.08 Q1048.83 1628.1 1048.83 1643.41 Q1048.83 1658.68 1043.45 1666.74 Q1038.1 1674.76 1027.93 1674.76 Q1017.76 1674.76 1012.38 1666.74 Q1007.03 1658.68 1007.03 1643.41 Q1007.03 1628.1 1012.38 1620.08 Q1017.76 1612.02 1027.93 1612.02 Z" fill="#000000" fill-rule="nonzero" fill-opacity="1" /></svg>
