<?xml version="1.0" encoding="UTF-8"?>
<svg xmlns="http://www.w3.org/2000/svg" viewBox="0 0 1000 800">
  <!-- 배경 -->
  <rect width="1000" height="800" fill="#fafafa"/>
  
  <!-- 제목 -->
  <text x="500" y="30" font-size="24" font-weight="bold" text-anchor="middle" fill="#333">
    Three Pillars of Promise Architecture
  </text>
  <text x="500" y="55" font-size="14" text-anchor="middle" fill="#666">
    Kolmogorov-Bateson Synthesis × Time Reversal × Value Hierarchy
  </text>
  
  <!-- Pillar 1: Kolmogorov-Bateson (왼쪽) -->
  <g id="pillar1" transform="translate(200, 100)">
    <rect x="-80" y="0" width="160" height="500" fill="#e3f2fd" stroke="#1976d2" stroke-width="2" rx="10"/>
    
    <!-- 제목 -->
    <text x="0" y="30" font-size="18" font-weight="bold" text-anchor="middle" fill="#1976d2">
      Multiplicative
    </text>
    <text x="0" y="50" font-size="18" font-weight="bold" text-anchor="middle" fill="#1976d2">
      Flexibility
    </text>
    
    <!-- Kolmogorov -->
    <rect x="-60" y="70" width="120" height="60" fill="#bbdefb" stroke="#0d47a1" stroke-width="1" rx="5"/>
    <text x="0" y="95" font-size="12" font-weight="bold" text-anchor="middle">Kolmogorov:</text>
    <text x="0" y="110" font-size="11" text-anchor="middle">Randomness =</text>
    <text x="0" y="125" font-size="11" text-anchor="middle">¬Regularity</text>
    
    <!-- 화살표 아래 -->
    <path d="M 0 140 L 0 180" stroke="#666" stroke-width="2" marker-end="url(#arrow)"/>
    
    <!-- Bateson -->
    <rect x="-60" y="190" width="120" height="80" fill="#90caf9" stroke="#0d47a1" stroke-width="1" rx="5"/>
    <text x="0" y="215" font-size="12" font-weight="bold" text-anchor="middle">Bateson:</text>
    <text x="0" y="230" font-size="11" text-anchor="middle">Each adaptation</text>
    <text x="0" y="245" font-size="11" text-anchor="middle">fractionates</text>
    <text x="0" y="260" font-size="11" text-anchor="middle">future space</text>
    
    <!-- 곱셈적 감소 시각화 -->
    <g transform="translate(0, 300)">
      <text x="0" y="0" font-size="12" font-weight="bold" text-anchor="middle">Space Reduction:</text>
      <!-- 초기 공간 -->
      <rect x="-50" y="10" width="100" height="20" fill="#4caf50" opacity="0.3"/>
      <text x="0" y="25" font-size="10" text-anchor="middle" fill="#fff">100%</text>
      
      <!-- 첫 적응 후 -->
      <rect x="-35" y="40" width="70" height="20" fill="#ff9800" opacity="0.5"/>
      <text x="0" y="55" font-size="10" text-anchor="middle" fill="#fff">50%</text>
      
      <!-- 두 번째 적응 후 -->
      <rect x="-20" y="70" width="40" height="20" fill="#f44336" opacity="0.7"/>
      <text x="0" y="85" font-size="10" text-anchor="middle" fill="#fff">25%</text>
      
      <!-- 세 번째 적응 후 -->
      <rect x="-10" y="100" width="20" height="20" fill="#9c27b0" opacity="0.9"/>
      <text x="0" y="115" font-size="10" text-anchor="middle" fill="#fff">12.5%</text>
    </g>
    
    <!-- 수식 -->
    <rect x="-60" y="440" width="120" height="40" fill="#1976d2" rx="5"/>
    <text x="0" y="460" font-size="11" text-anchor="middle" fill="#fff">σ² = μ(1-μ)/(τ+1)</text>
    <text x="0" y="475" font-size="10" text-anchor="middle" fill="#fff">Must preserve &gt; 0.02</text>
  </g>
  
  <!-- Pillar 2: Time Reversal (중앙) -->
  <g id="pillar2" transform="translate(500, 100)">
    <rect x="-80" y="0" width="160" height="500" fill="#f3e5f5" stroke="#7b1fa2" stroke-width="2" rx="10"/>
    
    <!-- 제목 -->
    <text x="0" y="30" font-size="18" font-weight="bold" text-anchor="middle" fill="#7b1fa2">
      Time-Reversed
    </text>
    <text x="0" y="50" font-size="18" font-weight="bold" text-anchor="middle" fill="#7b1fa2">
      Causality
    </text>
    
    <!-- Traditional -->
    <rect x="-60" y="70" width="120" height="80" fill="#e1bee7" stroke="#4a148c" stroke-width="1" rx="5"/>
    <text x="0" y="90" font-size="12" font-weight="bold" text-anchor="middle">Traditional:</text>
    <text x="0" y="110" font-size="11" text-anchor="middle">Past → Present</text>
    <text x="0" y="125" font-size="11" text-anchor="middle">Data → Prediction</text>
    <text x="0" y="140" font-size="11" text-anchor="middle">P(Future|Past)</text>
    
    <!-- 역전 화살표 -->
    <g transform="translate(0, 170)">
      <path d="M -30 0 Q 0 -20, 30 0" stroke="#7b1fa2" stroke-width="3" fill="none" marker-end="url(#arrow2)"/>
      <text x="0" y="-25" font-size="12" font-weight="bold" text-anchor="middle" fill="#7b1fa2">REVERSE!</text>
    </g>
    
    <!-- Entrepreneurial -->
    <rect x="-60" y="190" width="120" height="80" fill="#ce93d8" stroke="#4a148c" stroke-width="1" rx="5"/>
    <text x="0" y="210" font-size="12" font-weight="bold" text-anchor="middle">Entrepreneurial:</text>
    <text x="0" y="230" font-size="11" text-anchor="middle">Future → Present</text>
    <text x="0" y="245" font-size="11" text-anchor="middle">Promise → Action</text>
    <text x="0" y="260" font-size="11" text-anchor="middle">P(Present|Future)</text>
    
    <!-- 시간 다이어그램 -->
    <g transform="translate(0, 300)">
      <text x="0" y="0" font-size="12" font-weight="bold" text-anchor="middle">Promise as Prior:</text>
      
      <!-- 시간 축 -->
      <line x1="-50" y1="40" x2="50" y2="40" stroke="#333" stroke-width="2"/>
      <text x="-50" y="35" font-size="10" text-anchor="middle">t</text>
      <text x="0" y="35" font-size="10" text-anchor="middle">t+1</text>
      <text x="50" y="35" font-size="10" text-anchor="middle">t+2</text>
      
      <!-- 미래에서 오는 화살표 -->
      <path d="M 50 20 L 0 20 L -50 20" stroke="#7b1fa2" stroke-width="2" marker-end="url(#arrow2)" stroke-dasharray="3,3"/>
      <text x="0" y="10" font-size="10" text-anchor="middle" fill="#7b1fa2">Prior from future</text>
      
      <!-- Beta 분포 -->
      <ellipse cx="50" cy="70" rx="30" ry="15" fill="#7b1fa2" opacity="0.3"/>
      <text x="50" y="75" font-size="10" text-anchor="middle" fill="#fff">Beta(μτ,</text>
      <text x="50" y="85" font-size="10" text-anchor="middle" fill="#fff">(1-μ)τ)</text>
    </g>
    
    <!-- 수식 -->
    <rect x="-60" y="440" width="120" height="40" fill="#7b1fa2" rx="5"/>
    <text x="0" y="455" font-size="11" text-anchor="middle" fill="#fff">Promise structures</text>
    <text x="0" y="470" font-size="11" text-anchor="middle" fill="#fff">present action</text>
  </g>
  
  <!-- Pillar 3: Value Hierarchy (오른쪽) -->
  <g id="pillar3" transform="translate(800, 100)">
    <rect x="-80" y="0" width="160" height="500" fill="#e8f5e9" stroke="#2e7d32" stroke-width="2" rx="10"/>
    
    <!-- 제목 -->
    <text x="0" y="30" font-size="18" font-weight="bold" text-anchor="middle" fill="#2e7d32">
      Value
    </text>
    <text x="0" y="50" font-size="18" font-weight="bold" text-anchor="middle" fill="#2e7d32">
      Hierarchy
    </text>
    
    <!-- Use Value -->
    <rect x="-60" y="70" width="120" height="60" fill="#c8e6c9" stroke="#1b5e20" stroke-width="1" rx="5"/>
    <text x="0" y="95" font-size="12" font-weight="bold" text-anchor="middle">Use Value:</text>
    <text x="0" y="110" font-size="11" text-anchor="middle">Solve real problem</text>
    <text x="0" y="125" font-size="11" text-anchor="middle">Customer need</text>
    
    <!-- 변질 화살표 -->
    <path d="M 0 140 L 0 180" stroke="#f44336" stroke-width="3" marker-end="url(#arrow3)"/>
    <text x="40" y="165" font-size="11" fill="#f44336">Degradation</text>
    
    <!-- Exchange Value -->
    <rect x="-60" y="190" width="120" height="60" fill="#ffccbc" stroke="#d84315" stroke-width="1" rx="5"/>
    <text x="0" y="215" font-size="12" font-weight="bold" text-anchor="middle">Exchange Value:</text>
    <text x="0" y="230" font-size="11" text-anchor="middle">Get investment</text>
    <text x="0" y="245" font-size="11" text-anchor="middle">Valuation game</text>
    
    <!-- Cruel Optimism 경고 -->
    <g transform="translate(0, 280)">
      <rect x="-60" y="0" width="120" height="80" fill="#ffebee" stroke="#c62828" stroke-width="2" rx="5"/>
      <text x="0" y="20" font-size="12" font-weight="bold" text-anchor="middle" fill="#c62828">Cruel Optimism:</text>
      <text x="0" y="40" font-size="10" text-anchor="middle">Promise of</text>
      <text x="0" y="55" font-size="10" text-anchor="middle">promise of</text>
      <text x="0" y="70" font-size="10" text-anchor="middle">promise...</text>
    </g>
    
    <!-- 올바른 방향 -->
    <g transform="translate(0, 380)">
      <rect x="-60" y="0" width="120" height="60" fill="#a5d6a7" stroke="#1b5e20" stroke-width="2" rx="5"/>
      <text x="0" y="20" font-size="12" font-weight="bold" text-anchor="middle" fill="#1b5e20">Right Path:</text>
      <text x="0" y="35" font-size="10" text-anchor="middle">Use → Growth</text>
      <text x="0" y="50" font-size="10" text-anchor="middle">→ Natural funding</text>
    </g>
    
    <!-- 수식 -->
    <rect x="-60" y="440" width="120" height="40" fill="#2e7d32" rx="5"/>
    <text x="0" y="455" font-size="11" text-anchor="middle" fill="#fff">Test statistics =</text>
    <text x="0" y="470" font-size="11" text-anchor="middle" fill="#fff">f(use value)</text>
  </g>
  
  <!-- 하단 통합 영역 -->
  <g transform="translate(500, 650)">
    <rect x="-200" y="0" width="400" height="100" fill="#fff3e0" stroke="#f57c00" stroke-width="2" rx="10"/>
    <text x="0" y="25" font-size="16" font-weight="bold" text-anchor="middle" fill="#e65100">
      Integrated Framework
    </text>
    
    <!-- 통합 공식 -->
    <text x="0" y="50" font-size="12" text-anchor="middle">
      Innovation = Preserved_Randomness × Time_Reversed_Promise × Use_Value_Focus
    </text>
    
    <text x="0" y="70" font-size="11" text-anchor="middle" fill="#666">
      where: σ² &gt; 0.02, P(Present|Future), TestStats = f(UseValue)
    </text>
    
    <text x="0" y="90" font-size="12" font-weight="bold" text-anchor="middle" fill="#e65100">
      "Design uncertainty intentionally, let future structure present"
    </text>
  </g>
  
  <!-- 연결선 -->
  <g stroke="#999" stroke-width="1" stroke-dasharray="2,2" fill="none">
    <path d="M 280 580 L 420 630"/>
    <path d="M 500 580 L 500 630"/>
    <path d="M 720 580 L 580 630"/>
  </g>
  
  <!-- 마커 정의 -->
  <defs>
    <marker id="arrow" markerWidth="10" markerHeight="10" refX="9" refY="3" orient="auto">
      <polygon points="0 0, 10 3, 0 6" fill="#666"/>
    </marker>
    <marker id="arrow2" markerWidth="10" markerHeight="10" refX="9" refY="3" orient="auto">
      <polygon points="0 0, 10 3, 0 6" fill="#7b1fa2"/>
    </marker>
    <marker id="arrow3" markerWidth="10" markerHeight="10" refX="9" refY="3" orient="auto">
      <polygon points="0 0, 10 3, 0 6" fill="#f44336"/>
    </marker>
  </defs>
</svg>